<svg width="367" height="519" viewBox="0 0 367 519" fill="none" xmlns="http://www.w3.org/2000/svg">
<g clip-path="url(#clip0_657_6330)">
<rect width="366" height="517.886" transform="translate(0.783203 0.541016)" fill="#FCB74B"/>
<mask id="path-1-inside-1_657_6330" fill="white">
<path fill-rule="evenodd" clip-rule="evenodd" d="M20.4434 41.3525C33.5641 40.0586 43.7892 29.6588 43.7892 17.0211C43.7892 16.6455 43.7802 16.2719 43.7623 15.9004H323.35C323.333 16.272 323.324 16.6457 323.324 17.0214C323.324 29.8557 333.869 40.3819 347.284 41.4065V476.969C333.869 477.993 323.324 488.519 323.324 501.354C323.324 501.729 323.333 502.103 323.351 502.475H43.7623C43.7802 502.103 43.7892 501.729 43.7892 501.353C43.7892 488.716 33.5641 478.316 20.4434 477.022V41.3525Z"/>
</mask>
<path d="M20.4434 41.3525L20.2625 39.5183L18.6003 39.6822L18.6003 41.3525L20.4434 41.3525ZM43.7623 15.9004V14.0573H41.8284L41.9214 15.989L43.7623 15.9004ZM323.35 15.9004L325.191 15.989L325.284 14.0573H323.35V15.9004ZM347.284 41.4065L349.127 41.4065V39.6988L347.424 39.5688L347.284 41.4065ZM347.284 476.969L347.424 478.806L349.127 478.676V476.969H347.284ZM323.351 502.475V504.318H325.285L325.192 502.386L323.351 502.475ZM43.7623 502.475L41.9214 502.386L41.8284 504.318H43.7623V502.475ZM20.4434 477.022H18.6003L18.6003 478.692L20.2625 478.856L20.4434 477.022ZM41.9461 17.0211C41.9461 28.6062 32.548 38.3068 20.2625 39.5183L20.6242 43.1867C34.5803 41.8104 45.6323 30.7114 45.6323 17.0211H41.9461ZM41.9214 15.989C41.9378 16.331 41.9461 16.6751 41.9461 17.0211H45.6323C45.6323 16.616 45.6226 16.2128 45.6033 15.8118L41.9214 15.989ZM323.35 14.0573H43.7623V17.7435H323.35V14.0573ZM325.167 17.0214C325.167 16.6753 325.175 16.3311 325.191 15.989L321.51 15.8118C321.49 16.2129 321.48 16.6162 321.48 17.0214H325.167ZM347.424 39.5688C334.861 38.6091 325.167 28.786 325.167 17.0214H321.48C321.48 30.9253 332.878 42.1546 347.143 43.2442L347.424 39.5688ZM349.127 476.969L349.127 41.4065L345.441 41.4065L345.441 476.969H349.127ZM325.167 501.354C325.167 489.589 334.861 479.766 347.424 478.806L347.143 475.131C332.878 476.221 321.481 487.45 321.481 501.354H325.167ZM325.192 502.386C325.175 502.044 325.167 501.7 325.167 501.354H321.481C321.481 501.759 321.49 502.162 321.51 502.563L325.192 502.386ZM43.7623 504.318H323.351V500.632H43.7623V504.318ZM41.9462 501.353C41.9462 501.7 41.9378 502.044 41.9214 502.386L45.6033 502.563C45.6226 502.162 45.6323 501.759 45.6323 501.353H41.9462ZM20.2625 478.856C32.548 480.068 41.9462 489.768 41.9462 501.353H45.6323C45.6323 487.663 34.5803 476.564 20.6242 475.188L20.2625 478.856ZM18.6003 41.3525L18.6003 477.022H22.2864L22.2864 41.3525L18.6003 41.3525Z" fill="white" mask="url(#path-1-inside-1_657_6330)"/>
<mask id="path-3-inside-2_657_6330" fill="white">
<path fill-rule="evenodd" clip-rule="evenodd" d="M309.986 289.562C308.925 289.562 308.064 290.423 308.064 291.484V298.259L281.693 382.443H283.747C284.105 377.737 288.327 373.475 292.05 373.475C295.773 373.475 297.649 377.737 297.805 382.443H300.377C300.377 377.795 303.678 373.917 308.064 373.027V422.801H308.086C308.086 425.362 307.722 426.541 307.121 427.142C306.558 427.706 305.25 428.265 301.831 427.955C299.014 427.699 297.484 426.348 296.554 424.478C295.552 422.463 295.231 419.78 295.231 417.035H291.431C291.431 419.951 291.751 423.353 293.151 426.17C294.623 429.129 297.257 431.354 301.487 431.739C305.113 432.069 307.969 431.668 309.808 429.829C311.609 428.028 311.886 425.363 311.886 422.801H311.908V373.027C316.293 373.917 319.595 377.795 319.595 382.443H322.226C322.615 377.966 324.65 374.116 328.446 374.116C332.242 374.116 336.512 377.966 337.374 382.443H338.278L311.908 298.259V291.484C311.908 290.423 311.047 289.562 309.986 289.562ZM309.986 372.835C310.042 372.835 310.097 372.835 310.152 372.836H309.82C309.875 372.835 309.93 372.835 309.986 372.835Z"/>
</mask>
<path d="M308.064 298.259L309.973 298.857L310.064 298.565V298.259H308.064ZM281.693 382.444L279.785 381.846L278.971 384.444L281.693 384.444L281.693 382.444ZM283.747 382.444L283.747 384.444L285.601 384.444L285.741 382.595L283.747 382.444ZM297.805 382.444L295.806 382.509L295.87 384.444L297.805 384.444L297.805 382.444ZM300.377 382.444L300.377 384.444L302.377 384.444V382.444H300.377ZM308.064 373.027L310.064 373.027L310.064 370.58L307.666 371.067L308.064 373.027ZM308.064 422.801L306.064 422.801L306.064 424.801L308.064 424.801L308.064 422.801ZM308.086 422.801H310.086V420.801L308.086 420.801L308.086 422.801ZM307.121 427.142L308.535 428.557L308.535 428.557L307.121 427.142ZM301.831 427.955L301.65 429.947L301.65 429.947L301.831 427.955ZM296.554 424.478L298.345 423.587L298.345 423.587L296.554 424.478ZM295.231 417.036H297.231V415.036L295.231 415.036L295.231 417.036ZM291.431 417.036L291.431 415.036L289.431 415.036V417.036H291.431ZM293.151 426.17L294.942 425.279L294.942 425.279L293.151 426.17ZM301.487 431.739L301.305 433.731L301.305 433.731L301.487 431.739ZM309.808 429.829L308.394 428.415L308.394 428.415L309.808 429.829ZM311.886 422.801L311.886 420.801L309.886 420.801V422.801H311.886ZM311.908 422.801L311.908 424.801L313.908 424.801L313.908 422.801L311.908 422.801ZM311.908 373.027L312.306 371.067L309.908 370.58L309.908 373.027L311.908 373.027ZM319.595 382.444H317.595V384.444L319.595 384.444L319.595 382.444ZM322.226 382.444L322.226 384.444L324.06 384.444L324.218 382.617L322.226 382.444ZM337.374 382.444L335.41 382.822L335.722 384.444L337.374 384.444L337.374 382.444ZM338.278 382.444L338.278 384.444L341 384.444L340.186 381.846L338.278 382.444ZM311.908 298.259L309.908 298.259L309.908 298.565L309.999 298.857L311.908 298.259ZM311.908 291.484H313.908H311.908ZM310.152 372.836L310.152 374.836L310.186 370.837L310.152 372.836ZM309.82 372.836L309.786 370.837L309.82 374.836L309.82 372.836ZM310.064 291.484C310.064 291.527 310.029 291.563 309.986 291.563V287.562C307.82 287.562 306.064 289.318 306.064 291.484H310.064ZM310.064 298.259V291.484H306.064V298.259H310.064ZM283.602 383.041L309.973 298.857L306.156 297.661L279.785 381.846L283.602 383.041ZM283.747 380.444L281.693 380.444L281.693 384.444L283.747 384.444L283.747 380.444ZM292.05 371.476C289.461 371.476 286.985 372.918 285.184 374.82C283.357 376.75 281.972 379.409 281.753 382.292L285.741 382.595C285.88 380.772 286.786 378.947 288.089 377.57C289.42 376.164 290.916 375.476 292.05 375.476V371.476ZM299.804 382.378C299.719 379.82 299.168 377.224 297.998 375.195C296.8 373.118 294.827 371.476 292.05 371.476V375.476C292.997 375.476 293.823 375.964 294.533 377.194C295.27 378.473 295.735 380.361 295.806 382.509L299.804 382.378ZM300.377 380.444L297.805 380.444L297.805 384.444L300.377 384.444L300.377 380.444ZM307.666 371.067C302.367 372.143 298.377 376.825 298.377 382.444H302.377C302.377 378.765 304.99 375.692 308.462 374.987L307.666 371.067ZM310.064 422.801L310.064 373.027L306.064 373.027L306.064 422.801L310.064 422.801ZM308.086 420.801L308.064 420.801L308.064 424.801L308.086 424.801L308.086 420.801ZM308.535 428.557C309.77 427.322 310.086 425.358 310.086 422.801H306.086C306.086 424.007 305.998 424.766 305.885 425.239C305.774 425.696 305.669 425.766 305.707 425.728L308.535 428.557ZM301.65 429.947C305.181 430.268 307.302 429.79 308.535 428.557L305.707 425.728C305.813 425.622 305.319 426.264 302.012 425.963L301.65 429.947ZM294.763 425.368C295.339 426.527 296.149 427.617 297.328 428.453C298.511 429.292 299.948 429.792 301.65 429.947L302.012 425.963C300.896 425.862 300.16 425.558 299.642 425.19C299.119 424.82 298.699 424.299 298.345 423.587L294.763 425.368ZM293.231 417.036C293.231 419.87 293.551 422.932 294.763 425.368L298.345 423.587C297.553 421.995 297.231 419.691 297.231 417.036H293.231ZM291.431 419.036L295.231 419.036L295.231 415.036L291.431 415.036L291.431 419.036ZM294.942 425.279C293.751 422.885 293.431 419.861 293.431 417.036H289.431C289.431 420.042 289.75 423.822 291.36 427.06L294.942 425.279ZM301.668 429.747C298.183 429.431 296.129 427.667 294.942 425.279L291.36 427.06C293.117 430.592 296.331 433.279 301.305 433.731L301.668 429.747ZM308.394 428.415C307.227 429.582 305.187 430.067 301.668 429.747L301.305 433.731C305.04 434.07 308.712 433.754 311.222 431.244L308.394 428.415ZM309.886 422.801C309.886 425.36 309.564 427.245 308.394 428.415L311.222 431.244C313.653 428.812 313.886 425.367 313.886 422.801H309.886ZM311.908 420.801L311.886 420.801L311.886 424.801L311.908 424.801L311.908 420.801ZM309.908 373.027L309.908 422.801L313.908 422.801L313.908 373.027L309.908 373.027ZM321.595 382.444C321.595 376.825 317.605 372.143 312.306 371.067L311.51 374.987C314.982 375.692 317.595 378.765 317.595 382.444H321.595ZM322.226 380.444L319.595 380.444L319.595 384.444L322.226 384.444L322.226 380.444ZM328.446 372.116C325.754 372.116 323.727 373.525 322.403 375.478C321.119 377.372 320.446 379.818 320.233 382.271L324.218 382.617C324.394 380.591 324.934 378.873 325.714 377.723C326.454 376.632 327.342 376.116 328.446 376.116V372.116ZM339.338 382.065C338.815 379.347 337.282 376.899 335.366 375.131C333.469 373.38 330.991 372.116 328.446 372.116V376.116C329.697 376.116 331.252 376.777 332.654 378.071C334.038 379.347 335.071 381.062 335.41 382.822L339.338 382.065ZM338.278 380.444L337.374 380.444L337.374 384.444L338.278 384.444L338.278 380.444ZM309.999 298.857L336.369 383.041L340.186 381.846L313.816 297.662L309.999 298.857ZM309.908 291.484L309.908 298.259L313.908 298.259L313.908 291.484L309.908 291.484ZM309.986 291.563C309.943 291.563 309.908 291.527 309.908 291.484H313.908C313.908 289.318 312.152 287.562 309.986 287.562V291.563ZM310.186 370.837C310.12 370.836 310.053 370.835 309.986 370.835V374.835C310.03 374.835 310.074 374.835 310.118 374.836L310.186 370.837ZM309.82 374.836L310.152 374.836L310.152 370.836L309.82 370.836L309.82 374.836ZM309.986 370.835C309.919 370.835 309.852 370.836 309.786 370.837L309.854 374.836C309.898 374.835 309.942 374.835 309.986 374.835V370.835Z" fill="white" mask="url(#path-3-inside-2_657_6330)"/>
<mask id="path-5-inside-3_657_6330" fill="white">
<path fill-rule="evenodd" clip-rule="evenodd" d="M212.619 289.562C211.558 289.562 210.697 290.423 210.697 291.484V298.259L184.326 382.444H186.38C186.738 377.737 190.96 373.476 194.683 373.476C198.406 373.476 200.282 377.737 200.437 382.444H203.01C203.01 377.795 206.311 373.917 210.697 373.027V422.801H210.719C210.719 425.362 210.355 426.541 209.754 427.142C209.191 427.706 207.883 428.266 204.464 427.955C201.647 427.699 200.117 426.349 199.187 424.478C198.185 422.463 197.864 419.78 197.864 417.036H194.064C194.064 419.952 194.384 423.354 195.784 426.17C197.256 429.129 199.89 431.355 204.12 431.739C207.746 432.069 210.602 431.668 212.441 429.829C214.242 428.029 214.519 425.364 214.519 422.801H214.541V373.027C218.926 373.918 222.227 377.795 222.227 382.444H224.859C225.247 377.966 227.283 374.116 231.079 374.116C234.874 374.116 239.145 377.966 240.007 382.444H240.911L214.541 298.26V291.484C214.541 290.423 213.68 289.562 212.619 289.562ZM212.619 372.835C212.674 372.835 212.73 372.835 212.785 372.836H212.452C212.508 372.835 212.563 372.835 212.619 372.835Z"/>
</mask>
<path d="M210.697 298.259L212.606 298.857L212.697 298.565V298.259H210.697ZM184.326 382.444L182.418 381.846L181.604 384.444L184.326 384.444L184.326 382.444ZM186.38 382.444L186.38 384.444L188.234 384.444L188.374 382.595L186.38 382.444ZM200.437 382.444L198.439 382.509L198.502 384.444L200.437 384.444L200.437 382.444ZM203.01 382.444L203.01 384.444L205.01 384.444V382.444H203.01ZM210.697 373.027L212.697 373.027L212.697 370.58L210.299 371.067L210.697 373.027ZM210.697 422.801L208.697 422.801L208.697 424.801H210.697V422.801ZM210.719 422.801H212.719V420.801H210.719V422.801ZM209.754 427.142L208.34 425.728L208.34 425.728L209.754 427.142ZM204.464 427.955L204.645 425.963L204.645 425.963L204.464 427.955ZM199.187 424.478L200.978 423.587L200.978 423.587L199.187 424.478ZM197.864 417.036H199.864V415.036L197.864 415.036L197.864 417.036ZM194.064 417.036L194.064 415.036L192.064 415.036V417.036H194.064ZM195.784 426.17L197.575 425.279L197.575 425.279L195.784 426.17ZM204.12 431.739L204.301 429.747L204.301 429.747L204.12 431.739ZM212.441 429.829L213.855 431.244L213.855 431.244L212.441 429.829ZM214.519 422.801V420.801H212.519V422.801H214.519ZM214.541 422.801V424.801H216.541V422.801H214.541ZM214.541 373.027L214.939 371.067L212.541 370.58V373.027H214.541ZM222.227 382.444H220.227V384.444L222.227 384.444L222.227 382.444ZM224.859 382.444L224.859 384.444L226.692 384.444L226.851 382.617L224.859 382.444ZM240.007 382.444L238.043 382.822L238.355 384.444L240.007 384.444L240.007 382.444ZM240.911 382.444L240.911 384.444L243.633 384.444L242.819 381.846L240.911 382.444ZM214.541 298.26L212.541 298.26L212.541 298.566L212.632 298.858L214.541 298.26ZM214.541 291.484L212.541 291.484L214.541 291.484ZM212.785 372.836L212.785 374.836L212.819 370.837L212.785 372.836ZM212.452 372.836L212.419 370.837L212.452 374.836L212.452 372.836ZM212.697 291.484C212.697 291.527 212.662 291.563 212.619 291.563V287.562C210.453 287.562 208.697 289.318 208.697 291.484H212.697ZM212.697 298.259V291.484H208.697V298.259H212.697ZM186.235 383.041L212.606 298.857L208.789 297.661L182.418 381.846L186.235 383.041ZM186.38 380.444L184.326 380.444L184.326 384.444L186.38 384.444L186.38 380.444ZM194.683 371.476C192.094 371.476 189.618 372.918 187.817 374.82C185.99 376.75 184.605 379.409 184.386 382.292L188.374 382.595C188.513 380.772 189.418 378.947 190.722 377.57C192.052 376.164 193.548 375.476 194.683 375.476V371.476ZM202.436 382.378C202.352 379.82 201.801 377.224 200.631 375.195C199.432 373.118 197.46 371.476 194.683 371.476V375.476C195.629 375.476 196.456 375.964 197.166 377.194C197.903 378.473 198.368 380.361 198.439 382.509L202.436 382.378ZM203.01 380.444L200.437 380.444L200.437 384.444L203.01 384.444L203.01 380.444ZM210.299 371.067C205 372.143 201.01 376.825 201.01 382.444H205.01C205.01 378.765 207.623 375.692 211.095 374.987L210.299 371.067ZM212.697 422.801L212.697 373.027L208.697 373.027L208.697 422.801L212.697 422.801ZM210.719 420.801H210.697V424.801H210.719V420.801ZM211.168 428.557C212.403 427.322 212.719 425.358 212.719 422.801H208.719C208.719 424.007 208.631 424.766 208.518 425.239C208.407 425.696 208.302 425.766 208.34 425.728L211.168 428.557ZM204.283 429.947C207.814 430.268 209.935 429.79 211.168 428.557L208.34 425.728C208.446 425.622 207.952 426.264 204.645 425.963L204.283 429.947ZM197.396 425.368C197.972 426.527 198.782 427.617 199.961 428.453C201.144 429.292 202.581 429.792 204.283 429.947L204.645 425.963C203.529 425.862 202.793 425.558 202.275 425.19C201.752 424.82 201.332 424.299 200.978 423.587L197.396 425.368ZM195.864 417.036C195.864 419.87 196.184 422.932 197.396 425.368L200.978 423.587C200.186 421.995 199.864 419.691 199.864 417.036H195.864ZM194.064 419.036L197.864 419.036L197.864 415.036L194.064 415.036L194.064 419.036ZM197.575 425.279C196.384 422.885 196.064 419.861 196.064 417.036H192.064C192.064 420.042 192.383 423.822 193.993 427.06L197.575 425.279ZM204.301 429.747C200.816 429.431 198.762 427.667 197.575 425.279L193.993 427.06C195.75 430.592 198.964 433.279 203.938 433.731L204.301 429.747ZM211.027 428.415C209.86 429.582 207.82 430.067 204.301 429.747L203.938 433.731C207.673 434.07 211.345 433.754 213.855 431.244L211.027 428.415ZM212.519 422.801C212.519 425.36 212.197 427.245 211.027 428.415L213.855 431.244C216.286 428.812 216.519 425.367 216.519 422.801H212.519ZM214.541 420.801H214.519V424.801H214.541V420.801ZM212.541 373.027V422.801H216.541V373.027H212.541ZM224.227 382.444C224.227 376.825 220.238 372.143 214.939 371.067L214.143 374.987C217.615 375.692 220.227 378.765 220.227 382.444H224.227ZM224.859 380.444L222.227 380.444L222.227 384.444L224.859 384.444L224.859 380.444ZM231.079 372.116C228.387 372.116 226.36 373.525 225.036 375.478C223.752 377.372 223.079 379.818 222.866 382.271L226.851 382.617C227.027 380.591 227.567 378.873 228.346 377.723C229.086 376.632 229.975 376.116 231.079 376.116V372.116ZM241.971 382.065C241.447 379.347 239.915 376.899 237.999 375.131C236.102 373.38 233.624 372.116 231.079 372.116V376.116C232.33 376.116 233.884 376.777 235.287 378.071C236.67 379.347 237.704 381.062 238.043 382.822L241.971 382.065ZM240.911 380.444L240.007 380.444L240.007 384.444L240.911 384.444L240.911 380.444ZM212.632 298.858L239.002 383.041L242.819 381.846L216.449 297.662L212.632 298.858ZM212.541 291.484L212.541 298.26L216.541 298.26L216.541 291.484L212.541 291.484ZM212.619 291.563C212.576 291.563 212.541 291.527 212.541 291.484H216.541C216.541 289.318 214.785 287.562 212.619 287.562V291.563ZM212.819 370.837C212.752 370.836 212.686 370.835 212.619 370.835V374.835C212.663 374.835 212.707 374.835 212.751 374.836L212.819 370.837ZM212.452 374.836L212.785 374.836L212.785 370.836L212.452 370.836L212.452 374.836ZM212.619 370.835C212.552 370.835 212.485 370.836 212.419 370.837L212.486 374.836C212.53 374.835 212.575 374.835 212.619 374.835V370.835Z" fill="white" mask="url(#path-5-inside-3_657_6330)"/>
<mask id="path-7-inside-4_657_6330" fill="white">
<path fill-rule="evenodd" clip-rule="evenodd" d="M115.252 294.688C114.191 294.688 113.33 295.548 113.33 296.609V303.384L86.959 387.569H89.0128C89.3709 382.863 93.5924 378.601 97.3157 378.601C101.039 378.601 102.915 382.863 103.07 387.569H105.643C105.643 382.92 108.944 379.043 113.33 378.153V427.926H113.352C113.352 430.487 112.988 431.666 112.387 432.267C111.824 432.831 110.516 433.391 107.097 433.08C104.28 432.824 102.75 431.474 101.82 429.603C100.818 427.588 100.497 424.905 100.497 422.161H96.6972C96.6972 425.077 97.0169 428.479 98.4173 431.295C99.8891 434.254 102.523 436.48 106.753 436.864C110.379 437.194 113.235 436.793 115.074 434.954C116.875 433.154 117.152 430.489 117.152 427.926H117.174V378.153C121.559 379.043 124.86 382.921 124.86 387.569H127.491C127.88 383.092 129.916 379.242 133.712 379.242C137.507 379.242 141.778 383.092 142.64 387.569H143.543L117.174 303.386V296.609C117.174 295.548 116.313 294.688 115.252 294.688ZM115.252 377.961C115.296 377.961 115.34 377.961 115.384 377.961H115.119C115.163 377.961 115.207 377.961 115.252 377.961Z"/>
</mask>
<path d="M113.33 303.384L115.239 303.981L115.33 303.69V303.384H113.33ZM86.959 387.569L85.0504 386.971L84.2366 389.569L86.959 389.569L86.959 387.569ZM89.0128 387.569L89.0128 389.569L90.8663 389.569L91.007 387.721L89.0128 387.569ZM103.07 387.569L101.071 387.635L101.135 389.569L103.07 389.569L103.07 387.569ZM105.643 387.569L105.643 389.569L107.643 389.569V387.569H105.643ZM113.33 378.153L115.33 378.153L115.33 375.706L112.932 376.193L113.33 378.153ZM113.33 427.926L111.33 427.926L111.33 429.926H113.33V427.926ZM113.352 427.926H115.352V425.926H113.352V427.926ZM112.387 432.267L113.801 433.682L113.801 433.682L112.387 432.267ZM107.097 433.08L107.278 431.088L107.278 431.088L107.097 433.08ZM101.82 429.603L103.611 428.712L103.611 428.712L101.82 429.603ZM100.497 422.161H102.497V420.161L100.497 420.161L100.497 422.161ZM96.6972 422.161L96.6972 420.161L94.6972 420.161V422.161H96.6972ZM98.4173 431.295L100.208 430.404L100.208 430.404L98.4173 431.295ZM106.753 436.864L106.934 434.872L106.934 434.872L106.753 436.864ZM115.074 434.954L113.66 433.54L113.66 433.54L115.074 434.954ZM117.152 427.926L117.152 425.926L115.152 425.926V427.926H117.152ZM117.174 427.926L117.174 429.926L119.174 429.926L119.174 427.926L117.174 427.926ZM117.174 378.153L117.572 376.193L115.174 375.706L115.174 378.153L117.174 378.153ZM124.86 387.569H122.86V389.569L124.86 389.569L124.86 387.569ZM127.491 387.569L127.491 389.569L129.325 389.569L129.484 387.742L127.491 387.569ZM142.64 387.569L140.676 387.947L140.988 389.569H142.64V387.569ZM143.543 387.569V389.569H146.266L145.452 386.971L143.543 387.569ZM117.174 303.386L115.174 303.386L115.174 303.692L115.265 303.984L117.174 303.386ZM117.174 296.609L115.174 296.609L117.174 296.609ZM115.384 377.961L115.384 379.961L115.411 375.962L115.384 377.961ZM115.119 377.961L115.092 375.962L115.119 379.961L115.119 377.961ZM115.33 296.609C115.33 296.652 115.295 296.688 115.252 296.688V292.687C113.086 292.687 111.33 294.443 111.33 296.609H115.33ZM115.33 303.384V296.609H111.33V303.384H115.33ZM88.8675 388.167L115.239 303.981L111.422 302.786L85.0504 386.971L88.8675 388.167ZM89.0128 385.569L86.959 385.569L86.959 389.569L89.0128 389.569L89.0128 385.569ZM97.3157 376.601C94.7269 376.601 92.2506 378.043 90.4499 379.945C88.6224 381.876 87.238 384.534 87.0185 387.417L91.007 387.721C91.1458 385.898 92.0512 384.072 93.3547 382.695C94.6851 381.29 96.1812 380.601 97.3157 380.601V376.601ZM105.069 387.503C104.985 384.945 104.434 382.35 103.263 380.321C102.065 378.244 100.092 376.601 97.3157 376.601V380.601C98.2622 380.601 99.089 381.089 99.7985 382.319C100.536 383.598 101 385.487 101.071 387.635L105.069 387.503ZM105.643 385.569L103.07 385.569L103.07 389.569L105.643 389.569L105.643 385.569ZM112.932 376.193C107.633 377.268 103.643 381.95 103.643 387.569H107.643C107.643 383.89 110.256 380.817 113.728 380.113L112.932 376.193ZM115.33 427.926L115.33 378.153L111.33 378.153L111.33 427.926L115.33 427.926ZM113.352 425.926H113.33V429.926H113.352V425.926ZM113.801 433.682C115.036 432.447 115.352 430.483 115.352 427.926H111.352C111.352 429.132 111.264 429.891 111.151 430.364C111.04 430.821 110.935 430.891 110.973 430.853L113.801 433.682ZM106.916 435.072C110.447 435.393 112.568 434.915 113.801 433.682L110.973 430.853C111.08 430.747 110.585 431.389 107.278 431.088L106.916 435.072ZM100.029 430.493C100.605 431.652 101.415 432.742 102.594 433.578C103.777 434.417 105.214 434.917 106.916 435.072L107.278 431.088C106.162 430.987 105.426 430.683 104.908 430.315C104.385 429.945 103.965 429.424 103.611 428.712L100.029 430.493ZM98.4972 422.161C98.4972 424.995 98.8173 428.057 100.029 430.493L103.611 428.712C102.819 427.12 102.497 424.816 102.497 422.161H98.4972ZM96.6972 424.161L100.497 424.161L100.497 420.161L96.6972 420.161L96.6972 424.161ZM100.208 430.404C99.0174 428.01 98.6972 424.986 98.6972 422.161H94.6972C94.6972 425.167 95.0164 428.947 96.6265 432.185L100.208 430.404ZM106.934 434.872C103.449 434.556 101.395 432.792 100.208 430.404L96.6265 432.185C98.3828 435.717 101.597 438.404 106.572 438.856L106.934 434.872ZM113.66 433.54C112.493 434.707 110.453 435.192 106.934 434.872L106.571 438.856C110.306 439.195 113.978 438.879 116.488 436.369L113.66 433.54ZM115.152 427.926C115.152 430.485 114.83 432.37 113.66 433.54L116.488 436.369C118.919 433.937 119.152 430.492 119.152 427.926H115.152ZM117.174 425.926L117.152 425.926L117.152 429.926L117.174 429.926L117.174 425.926ZM115.174 378.153L115.174 427.926L119.174 427.926L119.174 378.153L115.174 378.153ZM126.86 387.569C126.86 381.951 122.871 377.269 117.572 376.193L116.776 380.113C120.248 380.818 122.86 383.891 122.86 387.569H126.86ZM127.491 385.569L124.86 385.569L124.86 389.569L127.491 389.569L127.491 385.569ZM133.712 377.242C131.02 377.242 128.993 378.651 127.669 380.604C126.384 382.498 125.712 384.944 125.499 387.396L129.484 387.742C129.66 385.717 130.199 383.999 130.979 382.849C131.719 381.757 132.608 381.242 133.712 381.242V377.242ZM144.604 387.191C144.08 384.473 142.548 382.024 140.632 380.256C138.735 378.506 136.256 377.242 133.712 377.242V381.242C134.962 381.242 136.517 381.902 137.919 383.196C139.303 384.473 140.337 386.188 140.676 387.947L144.604 387.191ZM143.543 385.569H142.64V389.569H143.543V385.569ZM115.265 303.984L141.635 388.167L145.452 386.971L119.082 302.788L115.265 303.984ZM115.174 296.609L115.174 303.386L119.174 303.386L119.174 296.609L115.174 296.609ZM115.252 296.688C115.209 296.688 115.174 296.652 115.174 296.609H119.174C119.174 294.443 117.418 292.687 115.252 292.687V296.688ZM115.411 375.962C115.358 375.961 115.305 375.961 115.252 375.961V379.961C115.287 379.961 115.322 379.961 115.357 379.961L115.411 375.962ZM115.119 379.961L115.384 379.961L115.384 375.961L115.119 375.961L115.119 379.961ZM115.252 375.961C115.198 375.961 115.145 375.961 115.092 375.962L115.146 379.961C115.181 379.961 115.216 379.961 115.252 379.961V375.961Z" fill="white" mask="url(#path-7-inside-4_657_6330)"/>
<mask id="path-9-inside-5_657_6330" fill="white">
<path fill-rule="evenodd" clip-rule="evenodd" d="M66.57 395.897C65.5086 395.897 64.6483 396.757 64.6483 397.818V404.594L38.2773 488.778H40.3311C40.6893 484.072 44.9108 479.81 48.634 479.81C52.3573 479.81 54.2333 484.072 54.3886 488.778H56.9614C56.9614 484.13 60.2625 480.252 64.6483 479.362V529.135H65.07C65.07 531.697 64.7155 533.032 63.9879 533.759C63.2902 534.457 61.8197 535 58.3784 534.687C55.4129 534.418 53.7669 532.975 52.7796 530.99C51.736 528.891 51.4152 526.132 51.4152 523.37H48.4152C48.4152 526.268 48.735 529.594 50.0934 532.326C51.5082 535.171 54.0259 537.304 58.1068 537.675C61.7117 538.003 64.4048 537.585 66.1093 535.881C67.7838 534.206 68.07 531.698 68.07 529.135H68.4917V479.362C72.8775 480.252 76.1785 484.13 76.1785 488.778H78.8097C79.1985 484.301 81.2343 480.451 85.03 480.451C88.8256 480.451 93.0959 484.301 93.958 488.778H94.8617L68.4917 404.594V397.818C68.4917 396.757 67.6313 395.897 66.57 395.897ZM66.57 479.17C66.6174 479.17 66.6648 479.17 66.7121 479.171H66.4278C66.4751 479.17 66.5225 479.17 66.57 479.17Z"/>
</mask>
<path d="M64.6483 397.818H66.6483H64.6483ZM64.6483 404.594L66.5568 405.192L66.6483 404.9L66.6483 404.594L64.6483 404.594ZM38.2773 488.778L36.3688 488.18L35.555 490.778H38.2773V488.778ZM40.3311 488.778V490.778H42.1847L42.3254 488.93L40.3311 488.778ZM54.3886 488.778L52.3897 488.844L52.4535 490.778H54.3886V488.778ZM56.9614 488.778V490.778H58.9614V488.778H56.9614ZM64.6483 479.362L66.6483 479.362L66.6483 476.915L64.2504 477.402L64.6483 479.362ZM64.6483 529.135L62.6483 529.135L62.6483 531.135L64.6483 531.135L64.6483 529.135ZM65.07 529.135H67.07V527.135L65.07 527.135L65.07 529.135ZM63.9879 533.759L62.5737 532.345L62.5737 532.345L63.9879 533.759ZM58.3784 534.687L58.1973 536.679L58.1973 536.679L58.3784 534.687ZM52.7796 530.99L50.9888 531.88L50.9888 531.88L52.7796 530.99ZM51.4152 523.37H53.4152V521.37L51.4152 521.37L51.4152 523.37ZM48.4152 523.37L48.4152 521.37L46.4152 521.37V523.37H48.4152ZM50.0934 532.326L48.3026 533.216L48.3026 533.216L50.0934 532.326ZM58.1068 537.675L58.2878 535.683L58.2878 535.683L58.1068 537.675ZM66.1093 535.88L64.6951 534.466L64.6951 534.466L66.1093 535.88ZM68.07 529.135V527.135H66.07V529.135H68.07ZM68.4917 529.135V531.135H70.4917V529.135H68.4917ZM68.4917 479.362L68.8895 477.402L66.4917 476.915V479.362H68.4917ZM76.1785 488.778H74.1785V490.778H76.1785V488.778ZM78.8097 488.778V490.778H80.6436L80.8022 488.951L78.8097 488.778ZM93.958 488.778L91.994 489.156L92.3063 490.778H93.958V488.778ZM94.8617 488.778V490.778H97.584L96.7703 488.18L94.8617 488.778ZM68.4917 404.594L66.4917 404.594L66.4917 404.9L66.5831 405.192L68.4917 404.594ZM68.4917 397.818H70.4917H68.4917ZM66.7121 479.17V481.17L66.7411 477.171L66.7121 479.17ZM66.4278 479.17L66.3988 477.171L66.4278 481.17V479.17ZM66.6483 397.818C66.6483 397.861 66.6132 397.896 66.57 397.896V393.896C64.4041 393.896 62.6483 395.652 62.6483 397.818H66.6483ZM66.6483 404.594L66.6483 397.818L62.6483 397.818L62.6483 404.594L66.6483 404.594ZM40.1859 489.376L66.5568 405.192L62.7397 403.996L36.3688 488.18L40.1859 489.376ZM40.3311 486.778H38.2773V490.778H40.3311V486.778ZM48.634 477.81C46.0453 477.81 43.569 479.252 41.7683 481.154C39.9407 483.085 38.5563 485.743 38.3369 488.626L42.3254 488.93C42.4641 487.107 43.3695 485.281 44.6731 483.904C46.0035 482.499 47.4996 481.81 48.634 481.81V477.81ZM56.3875 488.712C56.3031 486.154 55.752 483.559 54.5818 481.53C53.3837 479.453 51.4108 477.81 48.634 477.81V481.81C49.5805 481.81 50.4073 482.298 51.1168 483.528C51.8543 484.807 52.3188 486.696 52.3897 488.844L56.3875 488.712ZM56.9614 486.778H54.3886V490.778H56.9614V486.778ZM64.2504 477.402C58.9509 478.477 54.9614 483.159 54.9614 488.778H58.9614C58.9614 485.099 61.5741 482.026 65.0461 481.322L64.2504 477.402ZM66.6483 529.135L66.6483 479.362L62.6483 479.362L62.6483 529.135L66.6483 529.135ZM65.07 527.135L64.6483 527.135L64.6483 531.135L65.07 531.135L65.07 527.135ZM65.4022 535.173C66.7623 533.813 67.07 531.693 67.07 529.135H63.07C63.07 530.344 62.9842 531.141 62.8575 531.666C62.735 532.174 62.6011 532.318 62.5737 532.345L65.4022 535.173ZM58.1973 536.679C61.7498 537.002 64.0341 536.541 65.4022 535.173L62.5737 532.345C62.5464 532.372 61.8896 532.998 58.5594 532.695L58.1973 536.679ZM50.9888 531.88C51.5956 533.101 52.4496 534.24 53.68 535.113C54.9148 535.989 56.4172 536.517 58.1973 536.679L58.5594 532.695C57.3741 532.588 56.5708 532.26 55.9944 531.851C55.4136 531.439 54.951 530.865 54.5704 530.099L50.9888 531.88ZM49.4152 523.37C49.4152 526.222 49.7352 529.359 50.9888 531.88L54.5704 530.099C53.7367 528.423 53.4152 526.042 53.4152 523.37H49.4152ZM48.4152 525.37L51.4152 525.37L51.4152 521.37L48.4152 521.37L48.4152 525.37ZM51.8842 531.435C50.7355 529.125 50.4152 526.177 50.4152 523.37H46.4152C46.4152 526.358 46.7344 530.063 48.3026 533.216L51.8842 531.435ZM58.2878 535.683C54.9515 535.38 53.0145 533.708 51.8842 531.435L48.3026 533.216C50.002 536.633 53.1004 539.228 57.9257 539.667L58.2878 535.683ZM64.6951 534.466C63.6623 535.499 61.7851 536.001 58.2878 535.683L57.9257 539.667C61.6383 540.004 65.1474 539.671 67.5235 537.295L64.6951 534.466ZM66.07 529.135C66.07 531.694 65.7391 533.422 64.6951 534.466L67.5235 537.295C69.8285 534.99 70.07 531.701 70.07 529.135H66.07ZM68.4917 527.135H68.07V531.135H68.4917V527.135ZM66.4917 479.362V529.135H70.4917V479.362H66.4917ZM78.1785 488.778C78.1785 483.159 74.1891 478.477 68.8895 477.402L68.0938 481.322C71.5659 482.026 74.1785 485.099 74.1785 488.778H78.1785ZM78.8097 486.778H76.1785V490.778H78.8097V486.778ZM85.03 478.451C82.3381 478.451 80.311 479.86 78.9869 481.813C77.7028 483.707 77.0301 486.153 76.8172 488.605L80.8022 488.951C80.9781 486.926 81.5177 485.208 82.2977 484.057C83.0375 482.966 83.9262 482.451 85.03 482.451V478.451ZM95.9219 488.4C95.3986 485.682 93.8661 483.233 91.9503 481.465C90.053 479.715 87.5747 478.451 85.03 478.451V482.451C86.2809 482.451 87.8356 483.111 89.2378 484.405C90.6216 485.682 91.6553 487.397 91.994 489.156L95.9219 488.4ZM94.8617 486.778H93.958V490.778H94.8617V486.778ZM66.5831 405.192L92.9532 489.376L96.7703 488.18L70.4002 403.996L66.5831 405.192ZM66.4917 397.818L66.4917 404.594L70.4917 404.594L70.4917 397.818L66.4917 397.818ZM66.57 397.896C66.5267 397.896 66.4917 397.861 66.4917 397.818H70.4917C70.4917 395.652 68.7359 393.896 66.57 393.896V397.896ZM66.7411 477.171C66.6841 477.17 66.6271 477.169 66.57 477.169V481.169C66.6078 481.169 66.6455 481.17 66.6831 481.17L66.7411 477.171ZM66.4278 481.17H66.7121V477.17H66.4278V481.17ZM66.57 477.169C66.5129 477.169 66.4558 477.17 66.3988 477.171L66.4568 481.17C66.4944 481.17 66.5321 481.169 66.57 481.169V477.169Z" fill="white" mask="url(#path-9-inside-5_657_6330)"/>
<mask id="path-11-inside-6_657_6330" fill="white">
<path fill-rule="evenodd" clip-rule="evenodd" d="M162.656 395.896C161.594 395.896 160.734 396.757 160.734 397.818V404.595L134.363 488.778H136.417C136.775 484.072 140.997 479.81 144.72 479.81C148.443 479.81 150.319 484.072 150.475 488.778H153.047C153.047 484.129 156.348 480.252 160.734 479.362V529.135H161.156C161.156 531.697 160.801 533.032 160.074 533.759C159.376 534.457 157.905 535 154.464 534.687C151.499 534.418 149.853 532.975 148.865 530.99C147.822 528.891 147.501 526.132 147.501 523.37H144.501C144.501 526.268 144.821 529.594 146.179 532.326C147.594 535.171 150.112 537.304 154.192 537.675C157.797 538.003 160.49 537.585 162.195 535.88C163.869 534.206 164.156 531.698 164.156 529.135H164.577V479.362C168.963 480.252 172.264 484.129 172.264 488.778H174.896C175.284 484.3 177.32 480.451 181.116 480.451C184.912 480.451 189.182 484.3 190.044 488.778H190.948L164.577 404.593V397.818C164.577 396.757 163.717 395.896 162.656 395.896ZM162.656 479.169C162.703 479.169 162.751 479.17 162.798 479.17H162.514C162.561 479.17 162.608 479.169 162.656 479.169Z"/>
</mask>
<path d="M160.734 397.818H162.734H160.734ZM160.734 404.595L162.642 405.193L162.734 404.901L162.734 404.595L160.734 404.595ZM134.363 488.778L132.455 488.18L131.641 490.778L134.363 490.778L134.363 488.778ZM136.417 488.778L136.417 490.778L138.271 490.778L138.411 488.93L136.417 488.778ZM150.475 488.778L148.476 488.844L148.539 490.778H150.475V488.778ZM153.047 488.778V490.778H155.047V488.778H153.047ZM160.734 479.362H162.734V476.915L160.336 477.402L160.734 479.362ZM160.734 529.135H158.734V531.135H160.734V529.135ZM161.156 529.135H163.156V527.135H161.156V529.135ZM160.074 533.759L158.659 532.345L158.659 532.345L160.074 533.759ZM154.464 534.687L154.645 532.695L154.645 532.695L154.464 534.687ZM148.865 530.99L150.656 530.099L150.656 530.099L148.865 530.99ZM147.501 523.37H149.501V521.37H147.501V523.37ZM144.501 523.37V521.37H142.501V523.37H144.501ZM146.179 532.326L147.97 531.435L147.97 531.435L146.179 532.326ZM154.192 537.675L154.011 539.667L154.011 539.667L154.192 537.675ZM162.195 535.88L163.609 537.295L163.609 537.295L162.195 535.88ZM164.156 529.135V527.135H162.156V529.135H164.156ZM164.577 529.135V531.135H166.577L166.577 529.135L164.577 529.135ZM164.577 479.362L164.975 477.401L162.577 476.915L162.577 479.362L164.577 479.362ZM172.264 488.778H170.264V490.778L172.264 490.778L172.264 488.778ZM174.896 488.778L174.896 490.778L176.73 490.778L176.888 488.951L174.896 488.778ZM190.044 488.778L188.08 489.156L188.392 490.778H190.044V488.778ZM190.948 488.778V490.778H193.67L192.856 488.18L190.948 488.778ZM164.577 404.593H162.577V404.899L162.669 405.191L164.577 404.593ZM162.798 479.17V481.17L162.827 477.171L162.798 479.17ZM162.514 479.17L162.485 477.171L162.514 481.17V479.17ZM162.734 397.818C162.734 397.861 162.699 397.896 162.656 397.896V393.896C160.49 393.896 158.734 395.652 158.734 397.818H162.734ZM162.734 404.595L162.734 397.818L158.734 397.818L158.734 404.595L162.734 404.595ZM136.272 489.376L162.642 405.193L158.825 403.997L132.455 488.18L136.272 489.376ZM136.417 486.778L134.363 486.778L134.363 490.778L136.417 490.778L136.417 486.778ZM144.72 477.81C142.131 477.81 139.655 479.252 137.854 481.154C136.027 483.085 134.642 485.743 134.423 488.626L138.411 488.93C138.55 487.107 139.455 485.281 140.759 483.904C142.089 482.499 143.586 481.81 144.72 481.81V477.81ZM152.473 488.712C152.389 486.154 151.838 483.559 150.668 481.53C149.47 479.453 147.497 477.81 144.72 477.81V481.81C145.666 481.81 146.493 482.298 147.203 483.528C147.94 484.807 148.405 486.696 148.476 488.844L152.473 488.712ZM153.047 486.778H150.475V490.778H153.047V486.778ZM160.336 477.402C155.037 478.478 151.047 483.16 151.047 488.778H155.047C155.047 485.099 157.66 482.027 161.132 481.322L160.336 477.402ZM162.734 529.135V479.362H158.734V529.135H162.734ZM161.156 527.135H160.734V531.135H161.156V527.135ZM161.488 535.173C162.848 533.813 163.156 531.693 163.156 529.135H159.156C159.156 530.344 159.07 531.141 158.943 531.666C158.821 532.174 158.687 532.318 158.659 532.345L161.488 535.173ZM154.283 536.679C157.835 537.002 160.12 536.541 161.488 535.173L158.659 532.345C158.632 532.372 157.975 532.998 154.645 532.695L154.283 536.679ZM147.074 531.88C147.681 533.101 148.535 534.24 149.766 535.113C151 535.989 152.503 536.517 154.283 536.679L154.645 532.695C153.46 532.588 152.656 532.26 152.08 531.851C151.499 531.439 151.037 530.865 150.656 530.099L147.074 531.88ZM145.501 523.37C145.501 526.222 145.821 529.359 147.074 531.88L150.656 530.099C149.822 528.423 149.501 526.043 149.501 523.37H145.501ZM144.501 525.37H147.501V521.37H144.501V525.37ZM147.97 531.435C146.821 529.125 146.501 526.177 146.501 523.37H142.501C142.501 526.358 142.82 530.063 144.388 533.216L147.97 531.435ZM154.373 535.683C151.037 535.38 149.1 533.708 147.97 531.435L144.388 533.216C146.088 536.633 149.186 539.228 154.011 539.667L154.373 535.683ZM160.781 534.466C159.748 535.499 157.871 536.001 154.373 535.683L154.011 539.667C157.724 540.004 161.233 539.671 163.609 537.295L160.781 534.466ZM162.156 529.135C162.156 531.694 161.825 533.422 160.781 534.466L163.609 537.295C165.914 534.99 166.156 531.701 166.156 529.135H162.156ZM164.577 527.135H164.156V531.135H164.577V527.135ZM162.577 479.362L162.577 529.135L166.577 529.135L166.577 479.362L162.577 479.362ZM174.264 488.778C174.264 483.159 170.275 478.477 164.975 477.401L164.179 481.322C167.652 482.026 170.264 485.099 170.264 488.778H174.264ZM174.896 486.778L172.264 486.778L172.264 490.778L174.896 490.778L174.896 486.778ZM181.116 478.451C178.424 478.451 176.397 479.86 175.073 481.813C173.789 483.707 173.116 486.153 172.903 488.605L176.888 488.951C177.064 486.926 177.604 485.208 178.384 484.058C179.123 482.966 180.012 482.451 181.116 482.451V478.451ZM192.008 488.4C191.485 485.682 189.952 483.233 188.036 481.465C186.139 479.715 183.661 478.451 181.116 478.451V482.451C182.367 482.451 183.922 483.111 185.324 484.405C186.707 485.682 187.741 487.397 188.08 489.156L192.008 488.4ZM190.948 486.778H190.044V490.778H190.948V486.778ZM162.669 405.191L189.039 489.376L192.856 488.18L166.486 403.995L162.669 405.191ZM162.577 397.818V404.593H166.577V397.818H162.577ZM162.656 397.896C162.612 397.896 162.577 397.861 162.577 397.818H166.577C166.577 395.652 164.821 393.896 162.656 393.896V397.896ZM162.827 477.171C162.77 477.17 162.713 477.169 162.656 477.169V481.169C162.694 481.169 162.731 481.17 162.769 481.17L162.827 477.171ZM162.514 481.17H162.798V477.17H162.514V481.17ZM162.656 477.169C162.599 477.169 162.542 477.17 162.485 477.171L162.543 481.17C162.58 481.17 162.618 481.169 162.656 481.169V477.169Z" fill="white" mask="url(#path-11-inside-6_657_6330)"/>
<mask id="path-13-inside-7_657_6330" fill="white">
<path fill-rule="evenodd" clip-rule="evenodd" d="M263.865 395.896C262.803 395.896 261.943 396.757 261.943 397.818V404.594L235.572 488.778H237.626C237.984 484.072 242.206 479.81 245.929 479.81C249.652 479.81 251.528 484.072 251.684 488.778H254.256C254.256 484.129 257.557 480.252 261.943 479.362V529.135H262.365C262.365 531.697 262.01 533.032 261.283 533.759C260.585 534.457 259.114 535 255.673 534.687C252.708 534.418 251.062 532.975 250.074 530.99C249.031 528.891 248.71 526.132 248.71 523.37H245.71C245.71 526.268 246.03 529.594 247.388 532.326C248.803 535.171 251.321 537.304 255.402 537.675C259.006 538.003 261.7 537.585 263.404 535.88C265.079 534.206 265.365 531.698 265.365 529.135H265.786V479.362C270.172 480.252 273.473 484.129 273.473 488.778H276.105C276.493 484.3 278.529 480.451 282.325 480.451C286.121 480.451 290.391 484.3 291.253 488.778H292.157L265.786 404.593V397.818C265.786 396.757 264.926 395.896 263.865 395.896ZM263.865 479.169C263.912 479.169 263.96 479.17 264.007 479.17H263.723C263.77 479.17 263.817 479.169 263.865 479.169Z"/>
</mask>
<path d="M261.943 404.594L263.852 405.192L263.943 404.9V404.594H261.943ZM235.572 488.778L233.664 488.18L232.85 490.778H235.572V488.778ZM237.626 488.778V490.778H239.48L239.62 488.93L237.626 488.778ZM251.684 488.778L249.685 488.844L249.748 490.778H251.684V488.778ZM254.256 488.778V490.778H256.256V488.778H254.256ZM261.943 479.362H263.943V476.915L261.545 477.402L261.943 479.362ZM261.943 529.135H259.943V531.135H261.943V529.135ZM262.365 529.135H264.365V527.135H262.365V529.135ZM261.283 533.759L259.868 532.345L259.868 532.345L261.283 533.759ZM255.673 534.687L255.854 532.695L255.854 532.695L255.673 534.687ZM250.074 530.99L251.865 530.099L251.865 530.099L250.074 530.99ZM248.71 523.37H250.71V521.37H248.71V523.37ZM245.71 523.37V521.37H243.71V523.37H245.71ZM247.388 532.326L249.179 531.435L249.179 531.435L247.388 532.326ZM255.402 537.675L255.22 539.667L255.22 539.667L255.402 537.675ZM263.404 535.88L264.818 537.295L264.818 537.295L263.404 535.88ZM265.365 529.135V527.135H263.365V529.135H265.365ZM265.786 529.135V531.135H267.786V529.135H265.786ZM265.786 479.362L266.184 477.402L263.786 476.915V479.362H265.786ZM273.473 488.778H271.473V490.778H273.473V488.778ZM276.105 488.778V490.778H277.939L278.097 488.951L276.105 488.778ZM291.253 488.778L289.289 489.156L289.601 490.778L291.253 490.778L291.253 488.778ZM292.157 488.778L292.157 490.778L294.879 490.778L294.065 488.18L292.157 488.778ZM265.786 404.593L263.786 404.593L263.786 404.899L263.878 405.191L265.786 404.593ZM265.786 397.818H267.786H265.786ZM264.007 479.17V481.17L264.036 477.171L264.007 479.17ZM263.723 479.17L263.694 477.171L263.723 481.17V479.17ZM263.943 397.818C263.943 397.861 263.908 397.896 263.865 397.896V393.896C261.699 393.896 259.943 395.652 259.943 397.818H263.943ZM263.943 404.594V397.818H259.943V404.594H263.943ZM237.481 489.376L263.852 405.192L260.034 403.996L233.664 488.18L237.481 489.376ZM237.626 486.778H235.572V490.778H237.626V486.778ZM245.929 477.81C243.34 477.81 240.864 479.252 239.063 481.154C237.236 483.085 235.851 485.743 235.632 488.626L239.62 488.93C239.759 487.107 240.664 485.281 241.968 483.904C243.298 482.499 244.794 481.81 245.929 481.81V477.81ZM253.682 488.712C253.598 486.154 253.047 483.559 251.877 481.53C250.679 479.453 248.706 477.81 245.929 477.81V481.81C246.875 481.81 247.702 482.298 248.412 483.528C249.149 484.807 249.614 486.696 249.685 488.844L253.682 488.712ZM254.256 486.778H251.684V490.778H254.256V486.778ZM261.545 477.402C256.246 478.477 252.256 483.16 252.256 488.778H256.256C256.256 485.099 258.869 482.026 262.341 481.322L261.545 477.402ZM263.943 529.135V479.362H259.943V529.135H263.943ZM262.365 527.135H261.943V531.135H262.365V527.135ZM262.697 535.173C264.057 533.813 264.365 531.693 264.365 529.135H260.365C260.365 530.344 260.279 531.141 260.152 531.666C260.03 532.174 259.896 532.318 259.868 532.345L262.697 535.173ZM255.492 536.679C259.045 537.002 261.329 536.541 262.697 535.173L259.868 532.345C259.841 532.372 259.184 532.998 255.854 532.695L255.492 536.679ZM248.284 531.88C248.89 533.101 249.744 534.24 250.975 535.113C252.21 535.989 253.712 536.517 255.492 536.679L255.854 532.695C254.669 532.588 253.866 532.26 253.289 531.851C252.708 531.439 252.246 530.865 251.865 530.099L248.284 531.88ZM246.71 523.37C246.71 526.222 247.03 529.359 248.284 531.88L251.865 530.099C251.031 528.423 250.71 526.043 250.71 523.37H246.71ZM245.71 525.37H248.71V521.37H245.71V525.37ZM249.179 531.435C248.03 529.125 247.71 526.177 247.71 523.37H243.71C243.71 526.358 244.029 530.063 245.597 533.216L249.179 531.435ZM255.583 535.683C252.246 535.38 250.309 533.708 249.179 531.435L245.597 533.216C247.297 536.633 250.395 539.228 255.22 539.667L255.583 535.683ZM261.99 534.466C260.957 535.499 259.08 536.001 255.583 535.683L255.22 539.667C258.933 540.004 262.442 539.671 264.818 537.295L261.99 534.466ZM263.365 529.135C263.365 531.694 263.034 533.422 261.99 534.466L264.818 537.295C267.123 534.99 267.365 531.701 267.365 529.135H263.365ZM265.786 527.135H265.365V531.135H265.786V527.135ZM263.786 479.362V529.135H267.786V479.362H263.786ZM275.473 488.778C275.473 483.159 271.484 478.477 266.184 477.402L265.389 481.322C268.861 482.026 271.473 485.099 271.473 488.778H275.473ZM276.105 486.778H273.473V490.778H276.105V486.778ZM282.325 478.451C279.633 478.451 277.606 479.86 276.282 481.813C274.998 483.707 274.325 486.153 274.112 488.605L278.097 488.951C278.273 486.926 278.813 485.208 279.593 484.058C280.332 482.966 281.221 482.451 282.325 482.451V478.451ZM293.217 488.4C292.694 485.682 291.161 483.233 289.245 481.465C287.348 479.715 284.87 478.451 282.325 478.451V482.451C283.576 482.451 285.131 483.111 286.533 484.405C287.916 485.682 288.95 487.397 289.289 489.156L293.217 488.4ZM292.157 486.778L291.253 486.778L291.253 490.778L292.157 490.778L292.157 486.778ZM263.878 405.191L290.248 489.376L294.065 488.18L267.695 403.995L263.878 405.191ZM263.786 397.818L263.786 404.593L267.786 404.593L267.786 397.818L263.786 397.818ZM263.865 397.896C263.821 397.896 263.786 397.861 263.786 397.818H267.786C267.786 395.652 266.031 393.896 263.865 393.896V397.896ZM264.036 477.171C263.979 477.17 263.922 477.169 263.865 477.169V481.169C263.903 481.169 263.94 481.17 263.978 481.17L264.036 477.171ZM263.723 481.17H264.007V477.17H263.723V481.17ZM263.865 477.169C263.808 477.169 263.751 477.17 263.694 477.171L263.752 481.17C263.789 481.17 263.827 481.169 263.865 481.169V477.169Z" fill="white" mask="url(#path-13-inside-7_657_6330)"/>
<mask id="path-15-inside-8_657_6330" fill="white">
<path fill-rule="evenodd" clip-rule="evenodd" d="M66.57 187.07C65.5086 187.07 64.6483 187.931 64.6483 188.992V195.767L38.2773 279.952H40.3311C40.6893 275.245 44.9108 270.984 48.634 270.984C52.3573 270.984 54.2333 275.245 54.3886 279.952H56.9614C56.9614 275.303 60.2625 271.426 64.6483 270.535V320.309H64.67C64.67 322.87 64.3064 324.049 63.7051 324.65C63.1416 325.214 61.8341 325.774 58.4146 325.463C55.5979 325.207 54.0681 323.856 53.1378 321.986C52.1361 319.971 51.8152 317.288 51.8152 314.543H48.0152C48.0152 317.459 48.3348 320.861 49.7353 323.678C51.2071 326.637 53.841 328.863 58.0705 329.247C61.6973 329.577 64.5535 329.176 66.3921 327.337C68.1929 325.536 68.47 322.871 68.47 320.309H68.4917V270.535C72.8775 271.426 76.1785 275.303 76.1785 279.952H78.8097C79.1985 275.474 81.2343 271.624 85.03 271.624C88.8256 271.624 93.0959 275.474 93.958 279.952H94.8617L68.4917 195.768V188.992C68.4917 187.931 67.6313 187.07 66.57 187.07ZM66.57 270.343C66.6205 270.343 66.6709 270.343 66.7213 270.344H66.4186C66.469 270.343 66.5194 270.343 66.57 270.343Z"/>
</mask>
<path d="M64.6483 195.767L66.5568 196.365L66.6483 196.073V195.767H64.6483ZM38.2773 279.952L36.3688 279.354L35.555 281.952L38.2773 281.952L38.2773 279.952ZM40.3311 279.952L40.3311 281.952L42.1847 281.952L42.3254 280.103L40.3311 279.952ZM54.3886 279.952L52.3897 280.018L52.4535 281.952L54.3886 281.952L54.3886 279.952ZM56.9614 279.952L56.9614 281.952L58.9614 281.952V279.952H56.9614ZM64.6483 270.535L66.6483 270.535L66.6483 268.089L64.2504 268.575L64.6483 270.535ZM64.6483 320.309L62.6483 320.309L62.6483 322.309H64.6483V320.309ZM64.67 320.309H66.67V318.309H64.67V320.309ZM63.7051 324.65L62.2909 323.236L62.2909 323.236L63.7051 324.65ZM58.4146 325.463L58.5957 323.471L58.5957 323.471L58.4146 325.463ZM53.1378 321.986L54.9286 321.095L54.9286 321.095L53.1378 321.986ZM51.8152 314.543H53.8152V312.543L51.8152 312.543L51.8152 314.543ZM48.0152 314.543L48.0152 312.543L46.0152 312.543V314.543H48.0152ZM49.7353 323.678L51.5261 322.787L51.5261 322.787L49.7353 323.678ZM58.0705 329.247L58.2516 327.255L58.2516 327.255L58.0705 329.247ZM66.3921 327.337L67.8063 328.751L67.8063 328.751L66.3921 327.337ZM68.47 320.309V318.309H66.47V320.309H68.47ZM68.4917 320.309V322.309H70.4917V320.309H68.4917ZM68.4917 270.535L68.8895 268.575L66.4917 268.089V270.535H68.4917ZM76.1785 279.952H74.1785V281.952H76.1785V279.952ZM78.8097 279.952V281.952H80.6436L80.8022 280.125L78.8097 279.952ZM93.958 279.952L91.994 280.33L92.3063 281.952L93.958 281.952L93.958 279.952ZM94.8617 279.952L94.8617 281.952L97.584 281.952L96.7703 279.354L94.8617 279.952ZM68.4917 195.768L66.4917 195.768L66.4917 196.073L66.5831 196.365L68.4917 195.768ZM68.4917 188.992H70.4917H68.4917ZM66.7213 270.344V272.344L66.7522 268.344L66.7213 270.344ZM66.4186 270.344L66.3877 268.344L66.4186 272.344V270.344ZM66.6483 188.992C66.6483 189.035 66.6132 189.07 66.57 189.07V185.07C64.4041 185.07 62.6483 186.826 62.6483 188.992H66.6483ZM66.6483 195.767V188.992H62.6483V195.767H66.6483ZM40.1859 280.549L66.5568 196.365L62.7397 195.17L36.3688 279.354L40.1859 280.549ZM40.3311 277.952L38.2773 277.952L38.2773 281.952L40.3311 281.952L40.3311 277.952ZM48.634 268.984C46.0453 268.984 43.569 270.426 41.7683 272.328C39.9407 274.258 38.5563 276.917 38.3369 279.8L42.3254 280.103C42.4641 278.28 43.3695 276.455 44.6731 275.078C46.0035 273.672 47.4996 272.984 48.634 272.984V268.984ZM56.3875 279.886C56.3031 277.328 55.752 274.732 54.5818 272.703C53.3837 270.626 51.4108 268.984 48.634 268.984V272.984C49.5805 272.984 50.4073 273.472 51.1168 274.702C51.8543 275.981 52.3188 277.869 52.3897 280.018L56.3875 279.886ZM56.9614 277.952L54.3886 277.952L54.3886 281.952L56.9614 281.952L56.9614 277.952ZM64.2504 268.575C58.9509 269.651 54.9614 274.333 54.9614 279.952H58.9614C58.9614 276.273 61.5741 273.2 65.0461 272.495L64.2504 268.575ZM66.6483 320.309L66.6483 270.535L62.6483 270.535L62.6483 320.309L66.6483 320.309ZM64.67 318.309H64.6483V322.309H64.67V318.309ZM65.1193 326.064C66.3537 324.83 66.67 322.865 66.67 320.309H62.67C62.67 321.515 62.5823 322.274 62.4685 322.747C62.3584 323.204 62.2526 323.274 62.2909 323.236L65.1193 326.064ZM58.2335 327.454C61.765 327.775 63.8858 327.298 65.1193 326.064L62.2909 323.236C62.3975 323.129 61.9032 323.772 58.5957 323.471L58.2335 327.454ZM51.347 322.876C51.9231 324.035 52.7329 325.125 53.9118 325.961C55.0948 326.8 56.5322 327.3 58.2335 327.454L58.5957 323.471C57.4803 323.369 56.7444 323.066 56.2258 322.698C55.7031 322.328 55.2828 321.807 54.9286 321.095L51.347 322.876ZM49.8152 314.543C49.8152 317.377 50.1352 320.439 51.347 322.876L54.9286 321.095C54.1369 319.503 53.8152 317.198 53.8152 314.543H49.8152ZM48.0152 316.543L51.8152 316.543L51.8152 312.543L48.0152 312.543L48.0152 316.543ZM51.5261 322.787C50.3353 320.393 50.0152 317.369 50.0152 314.543H46.0152C46.0152 317.55 46.3343 321.33 47.9445 324.568L51.5261 322.787ZM58.2516 327.255C54.7667 326.938 52.7134 325.175 51.5261 322.787L47.9445 324.568C49.7008 328.1 52.9153 330.787 57.8895 331.239L58.2516 327.255ZM64.9779 325.923C63.811 327.09 61.771 327.575 58.2516 327.255L57.8895 331.239C61.6236 331.578 65.2959 331.262 67.8063 328.751L64.9779 325.923ZM66.47 320.309C66.47 322.868 66.1484 324.752 64.9779 325.923L67.8063 328.751C70.2374 326.32 70.47 322.875 70.47 320.309H66.47ZM68.4917 318.309H68.47V322.309H68.4917V318.309ZM66.4917 270.535V320.309H70.4917V270.535H66.4917ZM78.1785 279.952C78.1785 274.333 74.1891 269.651 68.8895 268.575L68.0938 272.495C71.5659 273.2 74.1785 276.273 74.1785 279.952H78.1785ZM78.8097 277.952H76.1785V281.952H78.8097V277.952ZM85.03 269.624C82.3381 269.624 80.311 271.033 78.9869 272.986C77.7028 274.88 77.0301 277.327 76.8172 279.779L80.8022 280.125C80.9781 278.099 81.5177 276.382 82.2977 275.231C83.0375 274.14 83.9262 273.624 85.03 273.624V269.624ZM95.9219 279.573C95.3986 276.855 93.8661 274.407 91.9503 272.639C90.053 270.888 87.5747 269.624 85.03 269.624V273.624C86.2809 273.624 87.8356 274.285 89.2378 275.579C90.6216 276.855 91.6553 278.57 91.994 280.33L95.9219 279.573ZM94.8617 277.952L93.958 277.952L93.958 281.952L94.8617 281.952L94.8617 277.952ZM66.5831 196.365L92.9532 280.549L96.7703 279.354L70.4002 195.17L66.5831 196.365ZM66.4917 188.992L66.4917 195.768L70.4917 195.768L70.4917 188.992L66.4917 188.992ZM66.57 189.07C66.5267 189.07 66.4917 189.035 66.4917 188.992H70.4917C70.4917 186.826 68.7359 185.07 66.57 185.07V189.07ZM66.7522 268.344C66.6915 268.344 66.6308 268.343 66.57 268.343V272.343C66.6102 272.343 66.6504 272.343 66.6904 272.344L66.7522 268.344ZM66.4186 272.344H66.7213V268.344H66.4186V272.344ZM66.57 268.343C66.5092 268.343 66.4484 268.344 66.3877 268.344L66.4496 272.344C66.4896 272.343 66.5297 272.343 66.57 272.343V268.343Z" fill="white" mask="url(#path-15-inside-8_657_6330)"/>
<mask id="path-17-inside-9_657_6330" fill="white">
<path fill-rule="evenodd" clip-rule="evenodd" d="M162.656 187.072C161.594 187.072 160.734 187.933 160.734 188.994V195.77L134.363 279.954H136.417C136.775 275.247 140.997 270.986 144.72 270.986C148.443 270.986 150.319 275.247 150.475 279.954H153.047C153.047 275.305 156.348 271.428 160.734 270.537V320.311H160.756C160.756 322.872 160.392 324.051 159.791 324.652C159.227 325.216 157.92 325.775 154.5 325.465C151.684 325.209 150.154 323.858 149.223 321.988C148.222 319.973 147.901 317.29 147.901 314.545H144.101C144.101 317.461 144.42 320.863 145.821 323.68C147.293 326.639 149.927 328.864 154.156 329.249C157.783 329.579 160.639 329.178 162.478 327.339C164.279 325.538 164.556 322.873 164.556 320.311H164.577V270.537C168.963 271.427 172.264 275.305 172.264 279.954H174.896C175.284 275.476 177.32 271.626 181.116 271.626C184.912 271.626 189.182 275.476 190.044 279.954H190.948L164.577 195.769V188.994C164.577 187.933 163.717 187.072 162.656 187.072ZM162.656 270.345C162.706 270.345 162.757 270.345 162.807 270.346H162.505C162.555 270.345 162.606 270.345 162.656 270.345Z"/>
</mask>
<path d="M160.734 195.77L162.642 196.368L162.734 196.076V195.77H160.734ZM134.363 279.954L132.455 279.356L131.641 281.954L134.363 281.954L134.363 279.954ZM136.417 279.954L136.417 281.954L138.271 281.954L138.411 280.105L136.417 279.954ZM150.475 279.954L148.476 280.02L148.539 281.954L150.475 281.954L150.475 279.954ZM153.047 279.954L153.047 281.954L155.047 281.954V279.954H153.047ZM160.734 270.537L162.734 270.537L162.734 268.09L160.336 268.577L160.734 270.537ZM160.734 320.311L158.734 320.311L158.734 322.311H160.734V320.311ZM160.756 320.311H162.756V318.311H160.756V320.311ZM159.791 324.652L158.377 323.238L158.377 323.238L159.791 324.652ZM154.5 325.465L154.681 323.473L154.681 323.473L154.5 325.465ZM149.223 321.988L151.014 321.097L151.014 321.097L149.223 321.988ZM147.901 314.545H149.901V312.545H147.901V314.545ZM144.101 314.545V312.545H142.101V314.545H144.101ZM145.821 323.68L147.612 322.789L147.612 322.789L145.821 323.68ZM154.156 329.249L154.337 327.257L154.337 327.257L154.156 329.249ZM162.478 327.339L163.892 328.753L163.892 328.753L162.478 327.339ZM164.556 320.311V318.311H162.556V320.311H164.556ZM164.577 320.311V322.311H166.577V320.311H164.577ZM164.577 270.537L164.975 268.577L162.577 268.09V270.537H164.577ZM172.264 279.954H170.264V281.954H172.264V279.954ZM174.896 279.954V281.954H176.73L176.888 280.127L174.896 279.954ZM190.044 279.954L188.08 280.332L188.392 281.954L190.044 281.954L190.044 279.954ZM190.948 279.954L190.948 281.954L193.67 281.954L192.856 279.356L190.948 279.954ZM164.577 195.769H162.577V196.074L162.669 196.366L164.577 195.769ZM162.807 270.346L162.807 272.346L162.837 268.346L162.807 270.346ZM162.505 270.346L162.474 268.346L162.505 272.346L162.505 270.346ZM162.734 188.994C162.734 189.037 162.699 189.072 162.656 189.072V185.072C160.49 185.072 158.734 186.828 158.734 188.994H162.734ZM162.734 195.77V188.994H158.734V195.77H162.734ZM136.272 280.551L162.642 196.368L158.825 195.172L132.455 279.356L136.272 280.551ZM136.417 277.954L134.363 277.954L134.363 281.954L136.417 281.954L136.417 277.954ZM144.72 268.986C142.131 268.986 139.655 270.428 137.854 272.33C136.027 274.26 134.642 276.919 134.423 279.802L138.411 280.105C138.55 278.282 139.455 276.457 140.759 275.08C142.089 273.674 143.586 272.986 144.72 272.986V268.986ZM152.473 279.888C152.389 277.33 151.838 274.734 150.668 272.705C149.47 270.628 147.497 268.986 144.72 268.986V272.986C145.666 272.986 146.493 273.474 147.203 274.704C147.94 275.983 148.405 277.871 148.476 280.02L152.473 279.888ZM153.047 277.954L150.475 277.954L150.475 281.954L153.047 281.954L153.047 277.954ZM160.336 268.577C155.037 269.653 151.047 274.335 151.047 279.954H155.047C155.047 276.275 157.66 273.202 161.132 272.497L160.336 268.577ZM162.734 320.311L162.734 270.537L158.734 270.537L158.734 320.311L162.734 320.311ZM160.756 318.311H160.734V322.311H160.756V318.311ZM161.205 326.066C162.439 324.832 162.756 322.867 162.756 320.311H158.756C158.756 321.517 158.668 322.276 158.554 322.748C158.444 323.206 158.338 323.276 158.377 323.238L161.205 326.066ZM154.319 327.456C157.851 327.777 159.971 327.3 161.205 326.066L158.377 323.238C158.483 323.131 157.989 323.773 154.681 323.473L154.319 327.456ZM147.433 322.878C148.009 324.037 148.819 325.127 149.997 325.963C151.18 326.802 152.618 327.302 154.319 327.456L154.681 323.473C153.566 323.371 152.83 323.068 152.311 322.7C151.789 322.329 151.368 321.809 151.014 321.097L147.433 322.878ZM145.901 314.545C145.901 317.379 146.221 320.441 147.433 322.878L151.014 321.097C150.223 319.505 149.901 317.2 149.901 314.545H145.901ZM144.101 316.545H147.901V312.545H144.101V316.545ZM147.612 322.789C146.421 320.395 146.101 317.37 146.101 314.545H142.101C142.101 317.552 142.42 321.332 144.03 324.57L147.612 322.789ZM154.337 327.257C150.852 326.94 148.799 325.177 147.612 322.789L144.03 324.57C145.786 328.102 149.001 330.789 153.975 331.241L154.337 327.257ZM161.064 325.925C159.897 327.092 157.857 327.577 154.337 327.257L153.975 331.241C157.709 331.58 161.381 331.264 163.892 328.753L161.064 325.925ZM162.556 320.311C162.556 322.87 162.234 324.754 161.064 325.925L163.892 328.753C166.323 326.322 166.556 322.877 166.556 320.311H162.556ZM164.577 318.311H164.556V322.311H164.577V318.311ZM162.577 270.537V320.311H166.577V270.537H162.577ZM174.264 279.954C174.264 274.335 170.275 269.653 164.975 268.577L164.179 272.497C167.652 273.202 170.264 276.275 170.264 279.954H174.264ZM174.896 277.954H172.264V281.954H174.896V277.954ZM181.116 269.626C178.424 269.626 176.397 271.035 175.073 272.988C173.789 274.882 173.116 277.328 172.903 279.781L176.888 280.127C177.064 278.101 177.604 276.384 178.384 275.233C179.123 274.142 180.012 273.626 181.116 273.626V269.626ZM192.008 279.575C191.485 276.857 189.952 274.409 188.036 272.641C186.139 270.89 183.661 269.626 181.116 269.626V273.626C182.367 273.626 183.922 274.287 185.324 275.581C186.707 276.857 187.741 278.572 188.08 280.332L192.008 279.575ZM190.948 277.954L190.044 277.954L190.044 281.954L190.948 281.954L190.948 277.954ZM162.669 196.366L189.039 280.551L192.856 279.356L166.486 195.171L162.669 196.366ZM162.577 188.994V195.769H166.577V188.994H162.577ZM162.656 189.072C162.612 189.072 162.577 189.037 162.577 188.994H166.577C166.577 186.828 164.821 185.072 162.656 185.072V189.072ZM162.837 268.346C162.777 268.345 162.717 268.345 162.656 268.345V272.345C162.696 272.345 162.736 272.345 162.776 272.346L162.837 268.346ZM162.505 272.346L162.807 272.346L162.807 268.346L162.505 268.346L162.505 272.346ZM162.656 268.345C162.595 268.345 162.535 268.345 162.474 268.346L162.536 272.346C162.576 272.345 162.616 272.345 162.656 272.345V268.345Z" fill="white" mask="url(#path-17-inside-9_657_6330)"/>
<path d="M174.011 278.996L162.758 191.648L151.556 279.139" stroke="white" stroke-width="2"/>
<path d="M126.175 386.759L115.902 299.605L104.701 387.096" stroke="white" stroke-width="2"/>
<path d="M223.536 381.565L212.773 294.314L201.572 381.805" stroke="white" stroke-width="2"/>
<path d="M320.612 380.393L309.85 293.143L298.648 380.633" stroke="white" stroke-width="2"/>
<path d="M274.933 487.563L264.17 400.312L252.968 487.803" stroke="white" stroke-width="2"/>
<path d="M173.739 488.94L162.977 401.689L151.775 489.18" stroke="white" stroke-width="2"/>
<path d="M78.2277 487.364L67.4648 400.113L56.2631 487.603" stroke="white" stroke-width="2"/>
<path d="M77.6211 279.285L66.4648 191.447L55.3774 279.47" stroke="white" stroke-width="2"/>
<path fill-rule="evenodd" clip-rule="evenodd" d="M264.768 194.761C245.668 193.211 229.085 206.767 225.191 226.435C223.089 237.058 225.708 247.565 231.483 255.911C231.821 255.289 232.18 254.629 232.561 253.93C227.478 246.148 225.232 236.527 227.153 226.824C230.808 208.362 246.087 195.726 263.715 196.695C264.062 196.056 264.413 195.412 264.768 194.761Z" fill="white"/>
<path fill-rule="evenodd" clip-rule="evenodd" d="M261.06 194.688C280.043 193.171 296.527 206.438 300.397 225.687C302.487 236.083 299.884 246.365 294.143 254.534C293.802 253.917 293.441 253.262 293.057 252.567C298.11 244.954 300.339 235.547 298.434 226.069C294.811 208.048 279.654 195.676 262.128 196.621C261.775 195.982 261.419 195.338 261.06 194.688Z" fill="white"/>
<path d="M264.451 195.468L261.74 200.479C252.515 217.532 253.374 238.269 263.979 254.5V254.5" stroke="white" stroke-width="2"/>
<path d="M264.537 196.058V196.058C276.53 212.168 277.177 234.056 266.154 250.846L264.077 254.01" stroke="white" stroke-width="2"/>
<mask id="path-31-inside-10_657_6330" fill="white">
<path fill-rule="evenodd" clip-rule="evenodd" d="M327.815 258.817C327.815 223.439 299.136 194.76 263.758 194.76C228.38 194.76 199.701 223.439 199.701 258.817H199.795C202.498 252.798 208.895 248.568 216.356 248.568C223.353 248.568 229.414 252.288 232.37 257.714C235.327 252.288 241.388 248.568 248.384 248.568C253.704 248.568 258.483 250.718 261.768 254.134L261.197 322.013C260.882 323.59 260.275 324.908 259.303 325.826C258.213 326.856 256.38 327.649 253.134 327.365C250.192 327.107 248.65 325.738 247.732 323.886C246.735 321.878 246.441 319.207 246.441 316.467H242.641C242.641 319.346 242.927 322.752 244.328 325.575C245.806 328.555 248.478 330.772 252.803 331.15C256.824 331.502 259.835 330.552 261.913 328.588C263.606 326.988 264.48 324.901 264.904 322.851L265.039 322.873V322.11C265.063 321.956 265.085 321.802 265.105 321.649L265.039 321.64V254.919C268.323 251.051 273.415 248.568 279.132 248.568C285.656 248.568 291.367 251.802 294.505 256.639C297.644 251.802 303.355 248.568 309.879 248.568C317.34 248.568 323.737 252.798 326.44 258.817H327.815Z"/>
</mask>
<path d="M327.815 258.817V260.817H329.815V258.817H327.815ZM199.701 258.817H197.701V260.817L199.701 260.817L199.701 258.817ZM199.795 258.817L199.795 260.817L201.089 260.817L201.619 259.636L199.795 258.817ZM232.37 257.714L230.614 258.671L232.37 261.894L234.126 258.671L232.37 257.714ZM261.768 254.134L263.768 254.151L263.774 253.336L263.209 252.748L261.768 254.134ZM261.197 322.013L263.158 322.405L263.196 322.219L263.197 322.029L261.197 322.013ZM259.303 325.826L257.929 324.372L257.929 324.372L259.303 325.826ZM253.134 327.365L252.96 329.357L252.96 329.357L253.134 327.365ZM247.732 323.886L245.94 324.775L245.94 324.775L247.732 323.886ZM246.441 316.467H248.441V314.467H246.441V316.467ZM242.641 316.467V314.467H240.641V316.467H242.641ZM244.328 325.575L242.536 326.464L242.536 326.464L244.328 325.575ZM252.803 331.15L252.629 333.143L252.629 333.143L252.803 331.15ZM261.913 328.588L260.539 327.134L260.539 327.134L261.913 328.588ZM264.904 322.851L265.233 320.878L263.335 320.562L262.946 322.446L264.904 322.851ZM265.039 322.873L264.71 324.846L267.039 325.234V322.873H265.039ZM265.039 322.11L263.063 321.799L263.039 321.954V322.11H265.039ZM265.105 321.649L267.088 321.905L267.345 319.922L265.361 319.665L265.105 321.649ZM265.039 321.64L263.039 321.64L263.039 323.398L264.782 323.624L265.039 321.64ZM265.039 254.919L263.514 253.625L263.039 254.185V254.919L265.039 254.919ZM294.505 256.639L292.828 257.728L294.505 260.313L296.183 257.728L294.505 256.639ZM326.44 258.817L324.616 259.636L325.146 260.817H326.44V258.817ZM263.758 196.76C298.031 196.76 325.815 224.544 325.815 258.817H329.815C329.815 222.334 300.24 192.76 263.758 192.76V196.76ZM201.701 258.817C201.701 224.544 229.485 196.76 263.758 196.76V192.76C227.276 192.76 197.701 222.334 197.701 258.817H201.701ZM199.795 256.817L199.701 256.817L199.701 260.817L199.795 260.817L199.795 256.817ZM216.356 246.568C208.145 246.568 201.011 251.227 197.97 257.997L201.619 259.636C203.984 254.369 209.645 250.568 216.356 250.568V246.568ZM234.126 256.757C230.808 250.666 224.059 246.568 216.356 246.568V250.568C222.646 250.568 228.02 253.91 230.614 258.671L234.126 256.757ZM248.384 246.568C240.681 246.568 233.933 250.666 230.614 256.757L234.126 258.671C236.72 253.91 242.094 250.568 248.384 250.568V246.568ZM263.209 252.748C259.546 248.938 254.246 246.568 248.384 246.568V250.568C253.162 250.568 257.42 252.498 260.326 255.52L263.209 252.748ZM263.197 322.029L263.768 254.151L259.768 254.117L259.197 321.996L263.197 322.029ZM260.677 327.28C262.046 325.986 262.793 324.234 263.158 322.405L259.236 321.621C258.971 322.945 258.503 323.83 257.929 324.372L260.677 327.28ZM252.96 329.357C256.616 329.677 259.068 328.8 260.677 327.28L257.929 324.372C257.357 324.913 256.143 325.62 253.308 325.372L252.96 329.357ZM245.94 324.775C246.513 325.93 247.327 327.024 248.529 327.863C249.733 328.704 251.204 329.204 252.96 329.357L253.308 325.372C252.122 325.269 251.351 324.955 250.819 324.583C250.285 324.211 249.869 323.695 249.523 322.997L245.94 324.775ZM244.441 316.467C244.441 319.279 244.73 322.338 245.94 324.775L249.523 322.997C248.74 321.419 248.441 319.134 248.441 316.467H244.441ZM242.641 318.467H246.441V314.467H242.641V318.467ZM246.119 324.686C244.931 322.292 244.641 319.272 244.641 316.467H240.641C240.641 319.421 240.922 323.212 242.536 326.464L246.119 324.686ZM252.977 329.158C249.381 328.843 247.303 327.073 246.119 324.686L242.536 326.464C244.309 330.038 247.575 332.701 252.629 333.143L252.977 329.158ZM260.539 327.134C258.982 328.606 256.592 329.474 252.977 329.158L252.629 333.143C257.056 333.53 260.687 332.498 263.286 330.042L260.539 327.134ZM262.946 322.446C262.574 324.242 261.841 325.904 260.539 327.134L263.286 330.042C265.371 328.073 266.387 325.56 266.863 323.256L262.946 322.446ZM265.368 320.9L265.233 320.878L264.575 324.824L264.71 324.846L265.368 320.9ZM263.039 322.11V322.873H267.039V322.11H263.039ZM263.121 321.392C263.104 321.528 263.084 321.663 263.063 321.799L267.014 322.421C267.042 322.248 267.066 322.076 267.088 321.905L263.121 321.392ZM264.782 323.624L264.848 323.632L265.361 319.665L265.295 319.657L264.782 323.624ZM263.039 254.919L263.039 321.64L267.039 321.64L267.039 254.919L263.039 254.919ZM279.132 246.568C272.833 246.568 267.182 249.305 263.514 253.625L266.563 256.214C269.464 252.797 273.997 250.568 279.132 250.568V246.568ZM296.183 255.55C292.667 250.132 286.317 246.568 279.132 246.568V250.568C284.995 250.568 290.067 253.473 292.828 257.728L296.183 255.55ZM309.879 246.568C302.693 246.568 296.344 250.132 292.828 255.55L296.183 257.728C298.944 253.473 304.016 250.568 309.879 250.568V246.568ZM328.265 257.997C325.224 251.227 318.09 246.568 309.879 246.568V250.568C316.59 250.568 322.251 254.369 324.616 259.636L328.265 257.997ZM327.815 256.817H326.44V260.817H327.815V256.817Z" fill="white" mask="url(#path-31-inside-10_657_6330)"/>
<ellipse cx="16.7246" cy="500.219" rx="27" ry="24" fill="#FCB74B"/>
<rect x="0.724609" y="502.219" width="366" height="16" fill="#FCB74B"/>
</g>
<defs>
<clipPath id="clip0_657_6330">
<rect width="366" height="517.886" fill="white" transform="translate(0.783203 0.541016)"/>
</clipPath>
</defs>
</svg>
