<svg width="394" height="624" viewBox="0 0 394 624" fill="none" xmlns="http://www.w3.org/2000/svg">
<g clip-path="url(#clip0_623_1444)">
<rect width="361.12" height="511.03" transform="translate(0 180.561) rotate(-30)" fill="#DA5125"/>
<path d="M143.028 317.359L135.318 318.006L140.176 319.639L145.229 319.058L145.594 317.644L132.172 312.668L131.989 313.375L143.028 317.359Z" fill="white"/>
<rect x="106.15" y="333.098" width="43.0862" height="13.8752" transform="rotate(14.4867 106.15 333.098)" fill="white"/>
<path d="M91.0572 315.623C96.9719 313.703 103.312 313.51 109.332 315.065L152.558 326.233C159.2 327.95 165.291 331.341 170.247 336.084V336.084L91.0572 315.623V315.623Z" fill="white"/>
<rect x="117.287" y="313.348" width="32.1321" height="5.8422" rx="2.9211" transform="rotate(14.4867 117.287 313.348)" fill="#DA5125"/>
<rect x="118.178" y="312.822" width="30.6715" height="5.8422" rx="2.9211" transform="rotate(14.4867 118.178 312.822)" fill="white"/>
<circle cx="133.025" cy="316.66" r="1.46055" transform="rotate(14.4867 133.025 316.66)" fill="white"/>
<ellipse cx="131.019" cy="312.746" rx="1.46055" ry="1.09541" transform="rotate(14.4867 131.019 312.746)" fill="white"/>
<rect x="90.873" y="316.328" width="81.7907" height="1.46055" rx="0.730275" transform="rotate(14.4867 90.873 316.328)" fill="white"/>
<rect x="96.3477" y="318.498" width="2.9211" height="24.8293" transform="rotate(14.4867 96.3477 318.498)" fill="white"/>
<rect x="87.7676" y="328.35" width="8.76329" height="13.8752" transform="rotate(14.4867 87.7676 328.35)" fill="white"/>
<rect width="2.9211" height="24.8293" transform="matrix(-0.968206 -0.250155 -0.250155 0.968206 164.223 336.033)" fill="white"/>
<rect width="8.76329" height="13.8752" transform="matrix(-0.968206 -0.250155 -0.250155 0.968206 166.957 348.809)" fill="white"/>
<rect x="159.615" y="336.354" width="0.730274" height="21.9082" rx="0.365137" transform="rotate(14.4867 159.615 336.354)" fill="white"/>
<rect x="151.133" y="334.16" width="5.11192" height="21.9082" transform="rotate(14.4867 151.133 334.16)" fill="white"/>
<rect width="0.730275" height="21.9082" rx="0.365137" transform="matrix(-0.968206 -0.250155 -0.250155 0.968206 100.223 321.008)" fill="white"/>
<rect width="5.11192" height="21.9082" transform="matrix(-0.968206 -0.250155 -0.250155 0.968206 108 323.018)" fill="white"/>
<rect x="151.656" y="335.051" width="3.65137" height="7.30274" transform="rotate(14.4867 151.656 335.051)" fill="#DA5125"/>
<rect x="103.576" y="322.627" width="3.65137" height="7.30274" transform="rotate(14.4867 103.576 322.627)" fill="#DA5125"/>
<rect x="147.961" y="331.834" width="2.9211" height="15.3358" transform="rotate(14.4867 147.961 331.834)" fill="white"/>
<rect x="109.074" y="321.785" width="2.9211" height="15.3358" transform="rotate(14.4867 109.074 321.785)" fill="white"/>
<rect x="120.385" y="324.707" width="0.730274" height="12.4147" transform="rotate(14.4867 120.385 324.707)" fill="white"/>
<rect x="138.77" y="329.459" width="0.730274" height="12.4147" transform="rotate(14.4867 138.77 329.459)" fill="white"/>
<rect x="129.396" y="327.789" width="0.730274" height="12.4147" transform="rotate(14.4867 129.396 327.789)" fill="white"/>
<rect x="166.781" y="326.135" width="0.730274" height="7.30274" transform="rotate(14.4867 166.781 326.135)" fill="white"/>
<rect x="160.545" y="331.898" width="0.730274" height="7.30274" transform="rotate(-120.513 160.545 331.898)" fill="white"/>
<rect width="0.730275" height="7.30274" transform="matrix(-0.968206 -0.250155 -0.250155 0.968206 98.1973 308.414)" fill="white"/>
<rect width="0.730275" height="7.30275" transform="matrix(0.861511 -0.507738 -0.507738 -0.861511 100.861 316.479)" fill="white"/>
<rect x="93.6699" y="343.451" width="8.76329" height="0.730274" transform="rotate(14.4867 93.6699 343.451)" fill="white"/>
<rect x="93.123" y="345.572" width="8.76329" height="0.730274" transform="rotate(14.4867 93.123 345.572)" fill="white"/>
<rect x="91.1602" y="347.328" width="11.6844" height="0.730274" transform="rotate(14.4867 91.1602 347.328)" fill="white"/>
<rect x="102.861" y="345.826" width="0.730274" height="5.11192" transform="rotate(14.4867 102.861 345.826)" fill="white"/>
<rect x="92.2559" y="343.084" width="0.730274" height="5.11192" transform="rotate(14.4867 92.2559 343.084)" fill="white"/>
<rect x="145.287" y="356.787" width="9.49357" height="0.730274" transform="rotate(14.4867 145.287 356.787)" fill="white"/>
<rect x="144.738" y="358.908" width="9.49357" height="0.730274" transform="rotate(14.4867 144.738 358.908)" fill="white"/>
<rect x="142.777" y="360.664" width="12.4147" height="0.730274" transform="rotate(14.4867 142.777 360.664)" fill="white"/>
<rect x="155.186" y="359.344" width="0.730274" height="5.11192" transform="rotate(14.4867 155.186 359.344)" fill="white"/>
<rect x="143.871" y="356.42" width="0.730274" height="5.11192" transform="rotate(14.4867 143.871 356.42)" fill="white"/>
<rect x="103.729" y="348.312" width="40.8954" height="5.11192" transform="rotate(14.4867 103.729 348.312)" fill="white"/>
<path d="M97.1582 350.387L147.353 363.356V363.356C146.214 364.027 144.854 364.218 143.574 363.888L100.196 352.68C98.9189 352.35 97.8256 351.525 97.1582 350.387V350.387Z" fill="white"/>
<rect x="83.4062" y="342.307" width="8.03302" height="1.46055" transform="rotate(14.4867 83.4062 342.307)" fill="white"/>
<path d="M83.5768 343.106L80.8958 346.184L82.7226 339.114L83.5768 343.106Z" fill="white"/>
<path d="M163.829 363.84L164.329 367.741L166.156 360.67L163.829 363.84Z" fill="white"/>
<path d="M247.26 385.395L247.761 389.295L249.588 382.225L247.26 385.395Z" fill="white"/>
<circle cx="108.812" cy="354.904" r="1.46055" transform="rotate(14.4867 108.812 354.904)" fill="white"/>
<circle cx="134.973" cy="361.666" r="1.46055" transform="rotate(14.4867 134.973 361.666)" fill="white"/>
<circle cx="129.318" cy="360.202" r="2.55596" transform="rotate(14.4867 129.318 360.202)" stroke="white" stroke-width="0.730274"/>
<path d="M143.104 363.768C142.751 365.135 141.357 365.957 139.99 365.603C138.623 365.25 137.802 363.856 138.155 362.489C138.252 362.112 138.347 361.888 138.44 361.756C138.52 361.641 138.592 361.602 138.679 361.585C138.791 361.564 138.954 361.575 139.22 361.633C139.395 361.671 139.588 361.722 139.814 361.783C139.932 361.814 140.059 361.848 140.197 361.884C140.325 361.917 140.454 361.949 140.582 361.981C141.266 362.153 141.937 362.322 142.442 362.584C142.735 362.737 142.932 362.902 143.039 363.081C143.139 363.247 143.184 363.46 143.104 363.768Z" stroke="white" stroke-width="0.730274"/>
<path d="M105.631 354.086C105.278 355.452 103.884 356.274 102.517 355.921C101.15 355.568 100.329 354.174 100.682 352.807C100.683 352.803 100.711 352.717 100.987 352.628C101.242 352.546 101.616 352.494 102.091 352.475C103.037 352.438 104.293 352.535 105.604 352.695C106.366 352.788 107.141 352.902 107.875 353.022C107.651 353.039 107.434 353.063 107.23 353.097C106.868 353.156 106.525 353.246 106.249 353.388C105.973 353.53 105.718 353.75 105.631 354.086Z" stroke="white" stroke-width="0.730274"/>
<path d="M116.944 357.01C116.591 358.377 115.197 359.199 113.83 358.846C112.463 358.492 111.641 357.098 111.995 355.731C112.092 355.354 112.187 355.13 112.28 354.998C112.36 354.883 112.432 354.844 112.519 354.828C112.631 354.806 112.794 354.817 113.06 354.875C113.235 354.913 113.427 354.964 113.654 355.025C113.772 355.056 113.898 355.09 114.037 355.126C114.165 355.159 114.294 355.191 114.422 355.223C115.106 355.395 115.777 355.564 116.281 355.826C116.575 355.979 116.772 356.144 116.879 356.323C116.979 356.489 117.024 356.702 116.944 357.01Z" stroke="white" stroke-width="0.730274"/>
<rect x="155.525" y="360.941" width="9.49357" height="1.46055" transform="rotate(14.4867 155.525 360.941)" fill="white"/>
<path d="M226.458 338.915L218.748 339.563L223.606 341.195L228.658 340.615L229.024 339.201L215.602 334.225L215.419 334.932L226.458 338.915Z" fill="white"/>
<rect x="189.58" y="354.654" width="43.0862" height="13.8752" transform="rotate(14.4867 189.58 354.654)" fill="white"/>
<path d="M174.487 337.18C180.402 335.26 186.741 335.066 192.762 336.622L235.988 347.79C242.63 349.506 248.72 352.898 253.677 357.64V357.64L174.487 337.18V337.18Z" fill="white"/>
<rect x="200.717" y="334.904" width="32.1321" height="5.8422" rx="2.9211" transform="rotate(14.4867 200.717 334.904)" fill="#DA5125"/>
<rect x="201.607" y="334.379" width="30.6715" height="5.8422" rx="2.9211" transform="rotate(14.4867 201.607 334.379)" fill="white"/>
<circle cx="216.455" cy="338.217" r="1.46055" transform="rotate(14.4867 216.455 338.217)" fill="white"/>
<ellipse cx="214.449" cy="334.303" rx="1.46055" ry="1.09541" transform="rotate(14.4867 214.449 334.303)" fill="white"/>
<rect x="174.303" y="337.885" width="81.7907" height="1.46055" rx="0.730275" transform="rotate(14.4867 174.303 337.885)" fill="white"/>
<rect x="179.777" y="340.055" width="2.9211" height="24.8293" transform="rotate(14.4867 179.777 340.055)" fill="white"/>
<rect x="171.197" y="349.906" width="8.76329" height="13.8752" transform="rotate(14.4867 171.197 349.906)" fill="white"/>
<rect width="2.9211" height="24.8293" transform="matrix(-0.968206 -0.250155 -0.250155 0.968206 247.652 357.59)" fill="white"/>
<rect width="8.76329" height="13.8752" transform="matrix(-0.968206 -0.250155 -0.250155 0.968206 250.387 370.365)" fill="white"/>
<rect x="243.045" y="357.91" width="0.730274" height="21.9082" rx="0.365137" transform="rotate(14.4867 243.045 357.91)" fill="white"/>
<rect x="234.562" y="355.717" width="5.11192" height="21.9082" transform="rotate(14.4867 234.562 355.717)" fill="white"/>
<rect width="0.730275" height="21.9082" rx="0.365137" transform="matrix(-0.968206 -0.250155 -0.250155 0.968206 183.652 342.564)" fill="white"/>
<rect width="5.11192" height="21.9082" transform="matrix(-0.968206 -0.250155 -0.250155 0.968206 191.43 344.574)" fill="white"/>
<rect x="235.086" y="356.607" width="3.65137" height="7.30274" transform="rotate(14.4867 235.086 356.607)" fill="#DA5125"/>
<rect x="187.006" y="344.184" width="3.65137" height="7.30274" transform="rotate(14.4867 187.006 344.184)" fill="#DA5125"/>
<rect x="231.391" y="353.391" width="2.9211" height="15.3358" transform="rotate(14.4867 231.391 353.391)" fill="white"/>
<rect x="192.504" y="343.342" width="2.9211" height="15.3358" transform="rotate(14.4867 192.504 343.342)" fill="white"/>
<rect x="203.814" y="346.264" width="0.730274" height="12.4147" transform="rotate(14.4867 203.814 346.264)" fill="white"/>
<rect x="222.199" y="351.016" width="0.730274" height="12.4147" transform="rotate(14.4867 222.199 351.016)" fill="white"/>
<rect x="212.826" y="349.346" width="0.730274" height="12.4147" transform="rotate(14.4867 212.826 349.346)" fill="white"/>
<rect x="250.211" y="347.691" width="0.730274" height="7.30274" transform="rotate(14.4867 250.211 347.691)" fill="white"/>
<rect x="243.975" y="353.455" width="0.730274" height="7.30274" transform="rotate(-120.513 243.975 353.455)" fill="white"/>
<rect width="0.730275" height="7.30274" transform="matrix(-0.968206 -0.250155 -0.250155 0.968206 181.627 329.971)" fill="white"/>
<rect width="0.730275" height="7.30275" transform="matrix(0.861511 -0.507738 -0.507738 -0.861511 184.291 338.035)" fill="white"/>
<rect x="177.1" y="365.008" width="8.76329" height="0.730274" transform="rotate(14.4867 177.1 365.008)" fill="white"/>
<rect x="176.553" y="367.129" width="8.76329" height="0.730274" transform="rotate(14.4867 176.553 367.129)" fill="white"/>
<rect x="174.59" y="368.885" width="11.6844" height="0.730274" transform="rotate(14.4867 174.59 368.885)" fill="white"/>
<rect x="186.291" y="367.383" width="0.730274" height="5.11192" transform="rotate(14.4867 186.291 367.383)" fill="white"/>
<rect x="175.686" y="364.641" width="0.730274" height="5.11192" transform="rotate(14.4867 175.686 364.641)" fill="white"/>
<rect x="228.717" y="378.344" width="9.49357" height="0.730274" transform="rotate(14.4867 228.717 378.344)" fill="white"/>
<rect x="228.168" y="380.465" width="9.49357" height="0.730274" transform="rotate(14.4867 228.168 380.465)" fill="white"/>
<rect x="226.207" y="382.221" width="12.4147" height="0.730274" transform="rotate(14.4867 226.207 382.221)" fill="white"/>
<rect x="238.615" y="380.9" width="0.730274" height="5.11192" transform="rotate(14.4867 238.615 380.9)" fill="white"/>
<rect x="227.301" y="377.977" width="0.730274" height="5.11192" transform="rotate(14.4867 227.301 377.977)" fill="white"/>
<rect x="187.158" y="369.869" width="40.8954" height="5.11192" transform="rotate(14.4867 187.158 369.869)" fill="white"/>
<path d="M180.588 371.943L230.783 384.912V384.912C229.643 385.584 228.284 385.775 227.003 385.444L183.626 374.237C182.349 373.907 181.255 373.081 180.588 371.943V371.943Z" fill="white"/>
<rect x="166.836" y="363.863" width="8.03302" height="1.46055" transform="rotate(14.4867 166.836 363.863)" fill="white"/>
<path d="M167.007 364.662L164.325 367.741L166.152 360.67L167.007 364.662Z" fill="white"/>
<circle cx="192.242" cy="376.461" r="1.46055" transform="rotate(14.4867 192.242 376.461)" fill="white"/>
<circle cx="218.402" cy="383.223" r="1.46055" transform="rotate(14.4867 218.402 383.223)" fill="white"/>
<circle cx="212.748" cy="381.758" r="2.55596" transform="rotate(14.4867 212.748 381.758)" stroke="white" stroke-width="0.730274"/>
<path d="M226.534 385.325C226.181 386.691 224.786 387.513 223.42 387.16C222.053 386.807 221.231 385.413 221.584 384.046C221.682 383.668 221.777 383.444 221.869 383.312C221.95 383.197 222.022 383.159 222.109 383.142C222.22 383.121 222.384 383.132 222.65 383.189C222.825 383.227 223.017 383.279 223.244 383.339C223.362 383.371 223.488 383.404 223.627 383.44C223.755 383.473 223.884 383.506 224.012 383.538C224.695 383.71 225.366 383.878 225.871 384.141C226.165 384.294 226.361 384.459 226.469 384.638C226.569 384.804 226.613 385.017 226.534 385.325Z" stroke="white" stroke-width="0.730274"/>
<path d="M189.061 375.642C188.708 377.009 187.314 377.831 185.947 377.478C184.58 377.124 183.758 375.73 184.111 374.363C184.112 374.36 184.141 374.274 184.416 374.185C184.672 374.102 185.045 374.051 185.521 374.032C186.467 373.995 187.723 374.091 189.033 374.251C189.796 374.345 190.571 374.459 191.305 374.578C191.08 374.596 190.864 374.62 190.66 374.653C190.298 374.712 189.955 374.802 189.678 374.945C189.403 375.087 189.148 375.306 189.061 375.642Z" stroke="white" stroke-width="0.730274"/>
<path d="M200.374 378.567C200.021 379.934 198.626 380.755 197.26 380.402C195.893 380.049 195.071 378.655 195.424 377.288C195.522 376.911 195.617 376.687 195.709 376.555C195.79 376.439 195.862 376.401 195.949 376.384C196.06 376.363 196.224 376.374 196.49 376.431C196.665 376.469 196.857 376.521 197.084 376.581C197.201 376.613 197.328 376.647 197.466 376.682C197.595 376.715 197.723 376.748 197.852 376.78C198.535 376.952 199.206 377.121 199.711 377.383C200.005 377.536 200.201 377.701 200.309 377.88C200.408 378.046 200.453 378.259 200.374 378.567Z" stroke="white" stroke-width="0.730274"/>
<rect x="238.955" y="382.498" width="9.49357" height="1.46055" transform="rotate(14.4867 238.955 382.498)" fill="white"/>
<path d="M305.119 413.971L305.791 421.679L307.408 416.815L306.812 411.765L305.397 411.404L300.463 424.842L301.171 425.022L305.119 413.971Z" fill="white"/>
<rect x="320.975" y="450.799" width="43.0862" height="13.8752" transform="rotate(-75.6956 320.975 450.799)" fill="white"/>
<path d="M303.545 465.949C301.606 460.04 301.393 453.701 302.929 447.675L313.96 404.414C315.655 397.767 319.027 391.665 323.754 386.694V386.694L303.545 465.949V465.949Z" fill="white"/>
<rect x="301.189" y="439.727" width="32.1321" height="5.8422" rx="2.9211" transform="rotate(-75.6956 301.189 439.727)" fill="#DA5125"/>
<rect x="300.662" y="438.836" width="30.6715" height="5.8422" rx="2.9211" transform="rotate(-75.6956 300.662 438.836)" fill="white"/>
<circle cx="304.452" cy="423.975" r="1.46055" transform="rotate(-75.6956 304.452 423.975)" fill="white"/>
<ellipse cx="300.547" cy="425.992" rx="1.46055" ry="1.09541" transform="rotate(-75.6956 300.547 425.992)" fill="white"/>
<rect x="304.254" y="466.129" width="81.7907" height="1.46055" rx="0.730275" transform="rotate(-75.6956 304.254 466.129)" fill="white"/>
<rect x="306.406" y="460.648" width="2.9211" height="24.8293" transform="rotate(-75.6956 306.406 460.648)" fill="white"/>
<rect x="316.283" y="469.195" width="8.76329" height="13.8752" transform="rotate(-75.6956 316.283 469.195)" fill="white"/>
<rect width="2.9211" height="24.8293" transform="matrix(-0.247074 0.968997 0.968997 0.247074 323.727 392.715)" fill="white"/>
<rect width="8.76329" height="13.8752" transform="matrix(-0.247074 0.968997 0.968997 0.247074 336.492 389.941)" fill="white"/>
<rect x="324.059" y="397.322" width="0.730274" height="21.9082" rx="0.365137" transform="rotate(-75.6956 324.059 397.322)" fill="white"/>
<rect x="321.895" y="405.814" width="5.11192" height="21.9082" transform="rotate(-75.6956 321.895 405.814)" fill="white"/>
<rect width="0.730275" height="21.9082" rx="0.365137" transform="matrix(-0.247074 0.968997 0.968997 0.247074 308.904 456.764)" fill="white"/>
<rect width="5.11192" height="21.9082" transform="matrix(-0.247074 0.968997 0.968997 0.247074 310.889 448.98)" fill="white"/>
<rect x="322.783" y="405.287" width="3.65137" height="7.30274" transform="rotate(-75.6956 322.783 405.287)" fill="#DA5125"/>
<rect x="310.514" y="453.406" width="3.65137" height="7.30274" transform="rotate(-75.6956 310.514 453.406)" fill="#DA5125"/>
<rect x="319.576" y="408.992" width="2.9211" height="15.3358" transform="rotate(-75.6956 319.576 408.992)" fill="white"/>
<rect x="309.654" y="447.91" width="2.9211" height="15.3358" transform="rotate(-75.6956 309.654 447.91)" fill="white"/>
<rect x="312.541" y="436.588" width="0.730274" height="12.4147" transform="rotate(-75.6956 312.541 436.588)" fill="white"/>
<rect x="317.232" y="418.191" width="0.730274" height="12.4147" transform="rotate(-75.6956 317.232 418.191)" fill="white"/>
<rect x="315.592" y="427.572" width="0.730274" height="12.4147" transform="rotate(-75.6956 315.592 427.572)" fill="white"/>
<rect x="313.82" y="390.191" width="0.730274" height="7.30274" transform="rotate(-75.6956 313.82 390.191)" fill="white"/>
<rect x="319.604" y="396.408" width="0.730274" height="7.30274" transform="rotate(149.304 319.604 396.408)" fill="white"/>
<rect width="0.730275" height="7.30274" transform="matrix(-0.247074 0.968997 0.968997 0.247074 296.318 458.832)" fill="white"/>
<rect width="0.730275" height="7.30275" transform="matrix(-0.510476 -0.859892 -0.859892 0.510476 304.373 456.141)" fill="white"/>
<rect x="331.369" y="463.246" width="8.76329" height="0.730274" transform="rotate(-75.6956 331.369 463.246)" fill="white"/>
<rect x="333.49" y="463.787" width="8.76329" height="0.730274" transform="rotate(-75.6956 333.49 463.787)" fill="white"/>
<rect x="335.252" y="465.742" width="11.6844" height="0.730274" transform="rotate(-75.6956 335.252 465.742)" fill="white"/>
<rect x="333.713" y="454.047" width="0.730274" height="5.11192" transform="rotate(-75.6956 333.713 454.047)" fill="white"/>
<rect x="331.006" y="464.66" width="0.730274" height="5.11192" transform="rotate(-75.6956 331.006 464.66)" fill="white"/>
<rect x="344.539" y="411.588" width="9.49357" height="0.730274" transform="rotate(-75.6956 344.539 411.588)" fill="white"/>
<rect x="346.662" y="412.129" width="9.49357" height="0.730274" transform="rotate(-75.6956 346.662 412.129)" fill="white"/>
<rect x="348.424" y="414.086" width="12.4147" height="0.730274" transform="rotate(-75.6956 348.424 414.086)" fill="white"/>
<rect x="347.066" y="401.682" width="0.730274" height="5.11192" transform="rotate(-75.6956 347.066 401.682)" fill="white"/>
<rect x="344.178" y="413.004" width="0.730274" height="5.11192" transform="rotate(-75.6956 344.178 413.004)" fill="white"/>
<rect x="336.197" y="453.172" width="40.8954" height="5.11192" transform="rotate(-75.6956 336.197 453.172)" fill="white"/>
<path d="M338.291 459.736L351.1 409.5V409.5C351.775 410.638 351.971 411.997 351.644 413.278L340.575 456.691C340.249 457.969 339.427 459.065 338.291 459.736V459.736Z" fill="white"/>
<rect x="330.256" y="473.514" width="8.03302" height="1.46055" transform="rotate(-75.6956 330.256 473.514)" fill="white"/>
<path d="M331.054 473.34L334.141 476.011L327.065 474.207L331.054 473.34Z" fill="white"/>
<path d="M351.534 393.023L355.433 392.51L348.357 390.706L351.534 393.023Z" fill="white"/>
<path d="M372.825 309.523L376.724 309.01L369.648 307.206L372.825 309.523Z" fill="white"/>
<circle cx="342.774" cy="448.067" r="1.46055" transform="rotate(-75.6956 342.774 448.067)" fill="white"/>
<circle cx="349.45" cy="421.883" r="1.46055" transform="rotate(-75.6956 349.45 421.883)" fill="white"/>
<circle cx="348.007" cy="427.546" r="2.55596" transform="rotate(-75.6956 348.007 427.546)" stroke="white" stroke-width="0.730274"/>
<path d="M351.526 413.748C352.894 414.097 353.72 415.489 353.371 416.857C353.022 418.224 351.631 419.051 350.263 418.702C349.885 418.605 349.661 418.511 349.528 418.419C349.413 418.339 349.374 418.267 349.357 418.18C349.336 418.069 349.346 417.905 349.403 417.639C349.44 417.464 349.491 417.271 349.551 417.044C349.582 416.927 349.615 416.8 349.651 416.662C349.683 416.533 349.715 416.404 349.747 416.276C349.917 415.592 350.083 414.92 350.344 414.415C350.496 414.121 350.66 413.923 350.839 413.815C351.005 413.715 351.218 413.67 351.526 413.748Z" stroke="white" stroke-width="0.730274"/>
<path d="M341.965 451.25C343.333 451.599 344.159 452.991 343.81 454.359C343.461 455.726 342.07 456.553 340.702 456.204C340.698 456.203 340.612 456.175 340.523 455.899C340.439 455.644 340.386 455.271 340.366 454.795C340.326 453.849 340.418 452.593 340.574 451.282C340.665 450.519 340.777 449.744 340.894 449.01C340.912 449.234 340.937 449.451 340.971 449.654C341.031 450.016 341.122 450.359 341.265 450.635C341.408 450.91 341.629 451.165 341.965 451.25Z" stroke="white" stroke-width="0.730274"/>
<path d="M344.852 439.93C346.22 440.279 347.046 441.67 346.697 443.038C346.348 444.406 344.957 445.232 343.589 444.883C343.211 444.787 342.987 444.693 342.855 444.601C342.739 444.521 342.7 444.449 342.683 444.362C342.662 444.25 342.672 444.087 342.729 443.821C342.766 443.646 342.817 443.453 342.877 443.226C342.908 443.108 342.941 442.982 342.977 442.843C343.009 442.715 343.041 442.586 343.073 442.458C343.243 441.773 343.409 441.102 343.67 440.596C343.822 440.302 343.987 440.105 344.165 439.997C344.331 439.897 344.544 439.851 344.852 439.93Z" stroke="white" stroke-width="0.730274"/>
<rect x="348.658" y="401.334" width="9.49357" height="1.46055" transform="rotate(-75.6956 348.658 401.334)" fill="white"/>
<path d="M326.408 330.471L327.08 338.179L328.697 333.315L328.101 328.265L326.686 327.904L321.752 341.342L322.46 341.522L326.408 330.471Z" fill="white"/>
<rect x="342.264" y="367.299" width="43.0862" height="13.8752" transform="rotate(-75.6956 342.264 367.299)" fill="white"/>
<path d="M324.834 382.449C322.895 376.54 322.682 370.201 324.218 364.175L335.249 320.914C336.944 314.267 340.316 308.165 345.043 303.194V303.194L324.834 382.449V382.449Z" fill="white"/>
<rect x="322.479" y="356.227" width="32.1321" height="5.8422" rx="2.9211" transform="rotate(-75.6956 322.479 356.227)" fill="#DA5125"/>
<rect x="321.951" y="355.336" width="30.6715" height="5.8422" rx="2.9211" transform="rotate(-75.6956 321.951 355.336)" fill="white"/>
<circle cx="325.741" cy="340.475" r="1.46055" transform="rotate(-75.6956 325.741 340.475)" fill="white"/>
<ellipse cx="321.836" cy="342.492" rx="1.46055" ry="1.09541" transform="rotate(-75.6956 321.836 342.492)" fill="white"/>
<rect x="325.543" y="382.629" width="81.7907" height="1.46055" rx="0.730275" transform="rotate(-75.6956 325.543 382.629)" fill="white"/>
<rect x="327.695" y="377.148" width="2.9211" height="24.8293" transform="rotate(-75.6956 327.695 377.148)" fill="white"/>
<rect x="337.572" y="385.695" width="8.76329" height="13.8752" transform="rotate(-75.6956 337.572 385.695)" fill="white"/>
<rect width="2.9211" height="24.8293" transform="matrix(-0.247074 0.968997 0.968997 0.247074 345.016 309.215)" fill="white"/>
<rect width="8.76329" height="13.8752" transform="matrix(-0.247074 0.968997 0.968997 0.247074 357.781 306.441)" fill="white"/>
<rect x="345.348" y="313.822" width="0.730274" height="21.9082" rx="0.365137" transform="rotate(-75.6956 345.348 313.822)" fill="white"/>
<rect x="343.184" y="322.314" width="5.11192" height="21.9082" transform="rotate(-75.6956 343.184 322.314)" fill="white"/>
<rect width="0.730275" height="21.9082" rx="0.365137" transform="matrix(-0.247074 0.968997 0.968997 0.247074 330.193 373.264)" fill="white"/>
<rect width="5.11192" height="21.9082" transform="matrix(-0.247074 0.968997 0.968997 0.247074 332.178 365.48)" fill="white"/>
<rect x="344.072" y="321.787" width="3.65137" height="7.30274" transform="rotate(-75.6956 344.072 321.787)" fill="#DA5125"/>
<rect x="331.803" y="369.906" width="3.65137" height="7.30274" transform="rotate(-75.6956 331.803 369.906)" fill="#DA5125"/>
<rect x="340.865" y="325.492" width="2.9211" height="15.3358" transform="rotate(-75.6956 340.865 325.492)" fill="white"/>
<rect x="330.943" y="364.41" width="2.9211" height="15.3358" transform="rotate(-75.6956 330.943 364.41)" fill="white"/>
<rect x="333.83" y="353.088" width="0.730274" height="12.4147" transform="rotate(-75.6956 333.83 353.088)" fill="white"/>
<rect x="338.521" y="334.691" width="0.730274" height="12.4147" transform="rotate(-75.6956 338.521 334.691)" fill="white"/>
<rect x="336.881" y="344.072" width="0.730274" height="12.4147" transform="rotate(-75.6956 336.881 344.072)" fill="white"/>
<rect x="335.109" y="306.691" width="0.730274" height="7.30274" transform="rotate(-75.6956 335.109 306.691)" fill="white"/>
<rect x="340.893" y="312.908" width="0.730274" height="7.30274" transform="rotate(149.304 340.893 312.908)" fill="white"/>
<rect width="0.730275" height="7.30274" transform="matrix(-0.247074 0.968997 0.968997 0.247074 317.607 375.332)" fill="white"/>
<rect width="0.730275" height="7.30275" transform="matrix(-0.510476 -0.859892 -0.859892 0.510476 325.662 372.641)" fill="white"/>
<rect x="352.658" y="379.746" width="8.76329" height="0.730274" transform="rotate(-75.6956 352.658 379.746)" fill="white"/>
<rect x="354.779" y="380.287" width="8.76329" height="0.730274" transform="rotate(-75.6956 354.779 380.287)" fill="white"/>
<rect x="356.541" y="382.242" width="11.6844" height="0.730274" transform="rotate(-75.6956 356.541 382.242)" fill="white"/>
<rect x="355.002" y="370.547" width="0.730274" height="5.11192" transform="rotate(-75.6956 355.002 370.547)" fill="white"/>
<rect x="352.295" y="381.16" width="0.730274" height="5.11192" transform="rotate(-75.6956 352.295 381.16)" fill="white"/>
<rect x="365.828" y="328.088" width="9.49357" height="0.730274" transform="rotate(-75.6956 365.828 328.088)" fill="white"/>
<rect x="367.951" y="328.629" width="9.49357" height="0.730274" transform="rotate(-75.6956 367.951 328.629)" fill="white"/>
<rect x="369.713" y="330.586" width="12.4147" height="0.730274" transform="rotate(-75.6956 369.713 330.586)" fill="white"/>
<rect x="368.355" y="318.182" width="0.730274" height="5.11192" transform="rotate(-75.6956 368.355 318.182)" fill="white"/>
<rect x="365.467" y="329.504" width="0.730274" height="5.11192" transform="rotate(-75.6956 365.467 329.504)" fill="white"/>
<rect x="357.486" y="369.672" width="40.8954" height="5.11192" transform="rotate(-75.6956 357.486 369.672)" fill="white"/>
<path d="M359.58 376.236L372.389 326V326C373.064 327.138 373.26 328.497 372.933 329.778L361.864 373.191C361.538 374.469 360.716 375.565 359.58 376.236V376.236Z" fill="white"/>
<rect x="351.545" y="390.014" width="8.03302" height="1.46055" transform="rotate(-75.6956 351.545 390.014)" fill="white"/>
<path d="M352.343 389.84L355.43 392.511L348.354 390.707L352.343 389.84Z" fill="white"/>
<circle cx="364.063" cy="364.567" r="1.46055" transform="rotate(-75.6956 364.063 364.567)" fill="white"/>
<circle cx="370.739" cy="338.383" r="1.46055" transform="rotate(-75.6956 370.739 338.383)" fill="white"/>
<circle cx="369.296" cy="344.046" r="2.55596" transform="rotate(-75.6956 369.296 344.046)" stroke="white" stroke-width="0.730274"/>
<path d="M372.815 330.248C374.183 330.597 375.009 331.989 374.66 333.357C374.311 334.724 372.92 335.551 371.552 335.202C371.174 335.105 370.95 335.011 370.817 334.919C370.702 334.839 370.663 334.767 370.646 334.68C370.625 334.569 370.635 334.405 370.692 334.139C370.729 333.964 370.78 333.771 370.84 333.544C370.871 333.427 370.904 333.3 370.94 333.162C370.972 333.033 371.004 332.904 371.036 332.776C371.206 332.092 371.372 331.42 371.633 330.915C371.785 330.621 371.949 330.423 372.128 330.315C372.294 330.215 372.507 330.17 372.815 330.248Z" stroke="white" stroke-width="0.730274"/>
<path d="M363.254 367.75C364.622 368.099 365.448 369.491 365.099 370.859C364.75 372.226 363.359 373.053 361.991 372.704C361.987 372.703 361.901 372.675 361.812 372.399C361.728 372.144 361.675 371.771 361.655 371.295C361.615 370.349 361.707 369.093 361.863 367.782C361.954 367.019 362.066 366.244 362.183 365.51C362.201 365.734 362.226 365.951 362.26 366.154C362.32 366.516 362.411 366.859 362.555 367.135C362.697 367.41 362.918 367.665 363.254 367.75Z" stroke="white" stroke-width="0.730274"/>
<path d="M366.141 356.43C367.509 356.779 368.335 358.17 367.986 359.538C367.637 360.906 366.246 361.732 364.878 361.383C364.5 361.287 364.276 361.193 364.144 361.101C364.028 361.021 363.989 360.949 363.973 360.862C363.951 360.75 363.961 360.587 364.018 360.321C364.055 360.146 364.106 359.953 364.166 359.726C364.197 359.608 364.23 359.482 364.266 359.343C364.298 359.215 364.33 359.086 364.362 358.958C364.532 358.273 364.698 357.602 364.959 357.096C365.111 356.802 365.276 356.605 365.454 356.497C365.62 356.397 365.833 356.351 366.141 356.43Z" stroke="white" stroke-width="0.730274"/>
<rect x="369.947" y="317.834" width="9.49357" height="1.46055" transform="rotate(-75.6956 369.947 317.834)" fill="white"/>
<path d="M368.456 191.208L360.752 191.921L365.624 193.512L370.671 192.889L371.025 191.472L357.561 186.609L357.384 187.318L368.456 191.208Z" fill="white"/>
<rect x="331.715" y="207.26" width="43.0862" height="13.8752" transform="rotate(14.0007 331.715 207.26)" fill="white"/>
<path d="M316.47 189.913C322.369 187.943 328.706 187.696 334.74 189.2L378.059 200.001C384.715 201.661 390.835 205.001 395.831 209.701V209.701L316.47 189.913V189.913Z" fill="white"/>
<rect x="342.684" y="187.416" width="32.1321" height="5.8422" rx="2.9211" transform="rotate(14.0007 342.684 187.416)" fill="#DA5125"/>
<rect x="343.568" y="186.885" width="30.6715" height="5.8422" rx="2.9211" transform="rotate(14.0007 343.568 186.885)" fill="white"/>
<circle cx="358.447" cy="190.597" r="1.46055" transform="rotate(14.0007 358.447 190.597)" fill="white"/>
<ellipse cx="356.41" cy="186.699" rx="1.46055" ry="1.09541" transform="rotate(14.0007 356.41 186.699)" fill="white"/>
<rect x="316.293" y="190.621" width="81.7907" height="1.46055" rx="0.730275" transform="rotate(14.0007 316.293 190.621)" fill="white"/>
<rect x="321.787" y="192.744" width="2.9211" height="24.8293" transform="rotate(14.0007 321.787 192.744)" fill="white"/>
<rect x="313.293" y="202.668" width="8.76329" height="13.8752" transform="rotate(14.0007 313.293 202.668)" fill="white"/>
<rect width="2.9211" height="24.8293" transform="matrix(-0.970293 -0.241934 -0.241934 0.970293 389.811 209.703)" fill="white"/>
<rect width="8.76329" height="13.8752" transform="matrix(-0.970293 -0.241934 -0.241934 0.970293 392.652 222.455)" fill="white"/>
<rect x="385.205" y="210.062" width="0.730274" height="21.9082" rx="0.365137" transform="rotate(14.0007 385.205 210.062)" fill="white"/>
<rect x="376.701" y="207.941" width="5.11192" height="21.9082" transform="rotate(14.0007 376.701 207.941)" fill="white"/>
<rect width="0.730275" height="21.9082" rx="0.365137" transform="matrix(-0.970293 -0.241934 -0.241934 0.970293 325.684 195.221)" fill="white"/>
<rect width="5.11192" height="21.9082" transform="matrix(-0.970293 -0.241934 -0.241934 0.970293 333.479 197.164)" fill="white"/>
<rect x="377.232" y="208.826" width="3.65137" height="7.30274" transform="rotate(14.0007 377.232 208.826)" fill="#DA5125"/>
<rect x="329.051" y="196.811" width="3.65137" height="7.30274" transform="rotate(14.0007 329.051 196.811)" fill="#DA5125"/>
<rect x="373.514" y="205.639" width="2.9211" height="15.3358" transform="rotate(14.0007 373.514 205.639)" fill="white"/>
<rect x="334.541" y="195.924" width="2.9211" height="15.3358" transform="rotate(14.0007 334.541 195.924)" fill="white"/>
<rect x="345.879" y="198.75" width="0.730274" height="12.4147" transform="rotate(14.0007 345.879 198.75)" fill="white"/>
<rect x="364.301" y="203.344" width="0.730274" height="12.4147" transform="rotate(14.0007 364.301 203.344)" fill="white"/>
<rect x="354.914" y="201.754" width="0.730274" height="12.4147" transform="rotate(14.0007 354.914 201.754)" fill="white"/>
<rect x="392.283" y="199.783" width="0.730274" height="7.30274" transform="rotate(14.0007 392.283 199.783)" fill="white"/>
<rect x="386.098" y="205.602" width="0.730274" height="7.30274" transform="rotate(-120.999 386.098 205.602)" fill="white"/>
<rect width="0.730275" height="7.30274" transform="matrix(-0.970293 -0.241934 -0.241934 0.970293 323.551 182.646)" fill="white"/>
<rect width="0.730275" height="7.30274" transform="matrix(0.857174 -0.515027 -0.515027 -0.857174 326.283 190.688)" fill="white"/>
<rect x="319.322" y="217.719" width="8.76329" height="0.730274" transform="rotate(14.0007 319.322 217.719)" fill="white"/>
<rect x="318.793" y="219.844" width="8.76329" height="0.730274" transform="rotate(14.0007 318.793 219.844)" fill="white"/>
<rect x="316.844" y="221.615" width="11.6844" height="0.730274" transform="rotate(14.0007 316.844 221.615)" fill="white"/>
<rect x="328.535" y="220.016" width="0.730274" height="5.11192" transform="rotate(14.0007 328.535 220.016)" fill="white"/>
<rect x="317.904" y="217.365" width="0.730274" height="5.11192" transform="rotate(14.0007 317.904 217.365)" fill="white"/>
<rect x="371.049" y="230.615" width="9.49357" height="0.730274" transform="rotate(14.0007 371.049 230.615)" fill="white"/>
<rect x="370.518" y="232.74" width="9.49357" height="0.730274" transform="rotate(14.0007 370.518 232.74)" fill="white"/>
<rect x="368.572" y="234.514" width="12.4147" height="0.730274" transform="rotate(14.0007 368.572 234.514)" fill="white"/>
<rect x="380.969" y="233.088" width="0.730274" height="5.11192" transform="rotate(14.0007 380.969 233.088)" fill="white"/>
<rect x="369.631" y="230.262" width="0.730274" height="5.11192" transform="rotate(14.0007 369.631 230.262)" fill="white"/>
<rect x="329.422" y="222.492" width="40.8954" height="5.11192" transform="rotate(14.0007 329.422 222.492)" fill="white"/>
<path d="M322.869 224.621L373.172 237.164V237.164C372.039 237.845 370.681 238.048 369.398 237.728L325.927 226.889C324.646 226.57 323.546 225.753 322.869 224.621V224.621Z" fill="white"/>
<rect x="309.047" y="216.662" width="8.03302" height="1.46055" transform="rotate(14.0007 309.047 216.662)" fill="white"/>
<path d="M309.228 217.457L306.573 220.558L308.34 213.472L309.228 217.457Z" fill="white"/>
<path d="M389.65 237.512L390.184 241.408L391.95 234.322L389.65 237.512Z" fill="white"/>
<circle cx="334.562" cy="229.044" r="1.46055" transform="rotate(14.0007 334.562 229.044)" fill="white"/>
<circle cx="360.781" cy="235.581" r="1.46055" transform="rotate(14.0007 360.781 235.581)" fill="white"/>
<circle cx="355.11" cy="234.168" r="2.55596" transform="rotate(14.0007 355.11 234.168)" stroke="white" stroke-width="0.730274"/>
<path d="M368.928 237.615C368.587 238.984 367.2 239.818 365.83 239.476C364.46 239.135 363.627 237.748 363.968 236.378C364.063 236 364.156 235.775 364.247 235.642C364.327 235.526 364.399 235.487 364.485 235.47C364.597 235.447 364.76 235.457 365.026 235.512C365.202 235.549 365.395 235.599 365.622 235.657C365.74 235.688 365.867 235.72 366.005 235.755C366.134 235.787 366.263 235.818 366.391 235.849C367.076 236.015 367.749 236.178 368.256 236.437C368.551 236.587 368.749 236.75 368.858 236.928C368.959 237.094 369.005 237.306 368.928 237.615Z" stroke="white" stroke-width="0.730274"/>
<path d="M331.372 228.25C331.03 229.62 329.643 230.453 328.273 230.112C326.903 229.77 326.07 228.383 326.412 227.013C326.412 227.01 326.44 226.924 326.715 226.832C326.97 226.748 327.343 226.693 327.818 226.67C328.764 226.625 330.021 226.711 331.332 226.86C332.096 226.946 332.872 227.054 333.607 227.167C333.382 227.187 333.166 227.213 332.962 227.248C332.601 227.31 332.258 227.403 331.983 227.547C331.709 227.692 331.456 227.914 331.372 228.25Z" stroke="white" stroke-width="0.730274"/>
<path d="M342.71 231.078C342.368 232.447 340.981 233.281 339.611 232.939C338.242 232.598 337.408 231.211 337.75 229.841C337.844 229.463 337.937 229.238 338.028 229.105C338.108 228.989 338.18 228.95 338.266 228.933C338.378 228.91 338.541 228.92 338.808 228.975C338.983 229.012 339.176 229.061 339.403 229.12C339.521 229.151 339.648 229.183 339.787 229.218C339.915 229.25 340.044 229.281 340.173 229.312C340.858 229.478 341.53 229.641 342.037 229.9C342.332 230.05 342.53 230.213 342.639 230.391C342.74 230.556 342.787 230.769 342.71 231.078Z" stroke="white" stroke-width="0.730274"/>
<rect x="381.324" y="234.684" width="9.49357" height="1.46055" transform="rotate(14.0007 381.324 234.684)" fill="white"/>
<rect x="396.904" y="223.516" width="8.76329" height="13.8752" transform="rotate(14.0007 396.904 223.516)" fill="white"/>
<rect x="392.658" y="237.51" width="8.03302" height="1.46055" transform="rotate(14.0007 392.658 237.51)" fill="white"/>
<path d="M392.839 238.305L390.184 241.406L391.951 234.32L392.839 238.305Z" fill="white"/>
<path d="M257.189 510.706L249.484 511.419L254.356 513.01L259.404 512.387L259.757 510.97L246.293 506.107L246.116 506.816L257.189 510.706Z" fill="white"/>
<rect x="220.447" y="526.758" width="43.0862" height="13.8752" transform="rotate(14.0007 220.447 526.758)" fill="white"/>
<path d="M205.203 509.411C211.101 507.441 217.439 507.194 223.473 508.698L266.792 519.499C273.448 521.159 279.567 524.499 284.564 529.199V529.199L205.203 509.411V509.411Z" fill="white"/>
<rect x="231.416" y="506.914" width="32.1321" height="5.8422" rx="2.9211" transform="rotate(14.0007 231.416 506.914)" fill="#DA5125"/>
<rect x="232.301" y="506.383" width="30.6715" height="5.8422" rx="2.9211" transform="rotate(14.0007 232.301 506.383)" fill="white"/>
<circle cx="247.179" cy="510.095" r="1.46055" transform="rotate(14.0007 247.179 510.095)" fill="white"/>
<ellipse cx="245.142" cy="506.197" rx="1.46055" ry="1.09541" transform="rotate(14.0007 245.142 506.197)" fill="white"/>
<rect x="205.025" y="510.119" width="81.7907" height="1.46055" rx="0.730275" transform="rotate(14.0007 205.025 510.119)" fill="white"/>
<rect x="210.52" y="512.242" width="2.9211" height="24.8293" transform="rotate(14.0007 210.52 512.242)" fill="white"/>
<rect x="202.025" y="522.166" width="8.76329" height="13.8752" transform="rotate(14.0007 202.025 522.166)" fill="white"/>
<rect width="2.9211" height="24.8293" transform="matrix(-0.970293 -0.241934 -0.241934 0.970293 278.543 529.201)" fill="white"/>
<rect width="8.76329" height="13.8752" transform="matrix(-0.970293 -0.241934 -0.241934 0.970293 281.385 541.953)" fill="white"/>
<rect x="273.938" y="529.561" width="0.730274" height="21.9082" rx="0.365137" transform="rotate(14.0007 273.938 529.561)" fill="white"/>
<rect x="265.434" y="527.439" width="5.11192" height="21.9082" transform="rotate(14.0007 265.434 527.439)" fill="white"/>
<rect width="0.730275" height="21.9082" rx="0.365137" transform="matrix(-0.970293 -0.241934 -0.241934 0.970293 214.416 514.719)" fill="white"/>
<rect width="5.11192" height="21.9082" transform="matrix(-0.970293 -0.241934 -0.241934 0.970293 222.211 516.662)" fill="white"/>
<rect x="265.965" y="528.324" width="3.65137" height="7.30274" transform="rotate(14.0007 265.965 528.324)" fill="#DA5125"/>
<rect x="217.783" y="516.309" width="3.65137" height="7.30274" transform="rotate(14.0007 217.783 516.309)" fill="#DA5125"/>
<rect x="262.246" y="525.137" width="2.9211" height="15.3358" transform="rotate(14.0007 262.246 525.137)" fill="white"/>
<rect x="223.273" y="515.422" width="2.9211" height="15.3358" transform="rotate(14.0007 223.273 515.422)" fill="white"/>
<rect x="234.611" y="518.248" width="0.730274" height="12.4147" transform="rotate(14.0007 234.611 518.248)" fill="white"/>
<rect x="253.033" y="522.842" width="0.730274" height="12.4147" transform="rotate(14.0007 253.033 522.842)" fill="white"/>
<rect x="243.646" y="521.252" width="0.730274" height="12.4147" transform="rotate(14.0007 243.646 521.252)" fill="white"/>
<rect x="281.016" y="519.281" width="0.730274" height="7.30274" transform="rotate(14.0007 281.016 519.281)" fill="white"/>
<rect x="274.83" y="525.1" width="0.730274" height="7.30274" transform="rotate(-120.999 274.83 525.1)" fill="white"/>
<rect width="0.730275" height="7.30274" transform="matrix(-0.970293 -0.241934 -0.241934 0.970293 212.283 502.145)" fill="white"/>
<rect width="0.730275" height="7.30274" transform="matrix(0.857174 -0.515027 -0.515027 -0.857174 215.016 510.186)" fill="white"/>
<rect x="208.055" y="537.217" width="8.76329" height="0.730274" transform="rotate(14.0007 208.055 537.217)" fill="white"/>
<rect x="207.525" y="539.342" width="8.76329" height="0.730274" transform="rotate(14.0007 207.525 539.342)" fill="white"/>
<rect x="205.576" y="541.113" width="11.6844" height="0.730274" transform="rotate(14.0007 205.576 541.113)" fill="white"/>
<rect x="217.268" y="539.514" width="0.730274" height="5.11192" transform="rotate(14.0007 217.268 539.514)" fill="white"/>
<rect x="206.637" y="536.863" width="0.730274" height="5.11192" transform="rotate(14.0007 206.637 536.863)" fill="white"/>
<rect x="259.781" y="550.113" width="9.49357" height="0.730274" transform="rotate(14.0007 259.781 550.113)" fill="white"/>
<rect x="259.25" y="552.238" width="9.49357" height="0.730274" transform="rotate(14.0007 259.25 552.238)" fill="white"/>
<rect x="257.305" y="554.012" width="12.4147" height="0.730274" transform="rotate(14.0007 257.305 554.012)" fill="white"/>
<rect x="269.701" y="552.586" width="0.730274" height="5.11192" transform="rotate(14.0007 269.701 552.586)" fill="white"/>
<rect x="258.363" y="549.76" width="0.730274" height="5.11192" transform="rotate(14.0007 258.363 549.76)" fill="white"/>
<rect x="218.154" y="541.99" width="40.8954" height="5.11192" transform="rotate(14.0007 218.154 541.99)" fill="white"/>
<path d="M211.602 544.119L261.905 556.662V556.662C260.771 557.343 259.413 557.546 258.13 557.226L214.659 546.387C213.379 546.068 212.279 545.252 211.602 544.119V544.119Z" fill="white"/>
<rect x="197.779" y="536.16" width="8.03302" height="1.46055" transform="rotate(14.0007 197.779 536.16)" fill="white"/>
<path d="M197.96 536.955L195.306 540.056L197.072 532.97L197.96 536.955Z" fill="white"/>
<path d="M278.382 557.01L278.916 560.906L280.683 553.82L278.382 557.01Z" fill="white"/>
<path d="M361.994 577.857L362.527 581.754L364.294 574.668L361.994 577.857Z" fill="white"/>
<circle cx="223.294" cy="548.542" r="1.46055" transform="rotate(14.0007 223.294 548.542)" fill="white"/>
<circle cx="249.513" cy="555.079" r="1.46055" transform="rotate(14.0007 249.513 555.079)" fill="white"/>
<circle cx="243.842" cy="553.666" r="2.55596" transform="rotate(14.0007 243.842 553.666)" stroke="white" stroke-width="0.730274"/>
<path d="M257.661 557.113C257.319 558.483 255.932 559.316 254.562 558.974C253.193 558.633 252.359 557.246 252.701 555.876C252.795 555.498 252.888 555.273 252.98 555.14C253.059 555.024 253.131 554.985 253.217 554.968C253.329 554.945 253.492 554.955 253.759 555.01C253.934 555.047 254.127 555.097 254.354 555.155C254.472 555.186 254.599 555.218 254.738 555.253C254.866 555.285 254.995 555.316 255.124 555.348C255.809 555.514 256.481 555.676 256.988 555.935C257.283 556.085 257.481 556.248 257.59 556.427C257.691 556.592 257.738 556.804 257.661 557.113Z" stroke="white" stroke-width="0.730274"/>
<path d="M220.104 547.748C219.762 549.118 218.375 549.951 217.006 549.61C215.636 549.268 214.802 547.881 215.144 546.511C215.145 546.508 215.173 546.422 215.447 546.33C215.702 546.246 216.075 546.191 216.551 546.168C217.496 546.123 218.753 546.209 220.065 546.358C220.828 546.445 221.604 546.552 222.339 546.665C222.115 546.685 221.898 546.711 221.695 546.746C221.333 546.808 220.991 546.901 220.716 547.046C220.442 547.19 220.188 547.412 220.104 547.748Z" stroke="white" stroke-width="0.730274"/>
<path d="M231.442 550.576C231.101 551.945 229.713 552.779 228.344 552.437C226.974 552.096 226.141 550.709 226.482 549.339C226.576 548.961 226.67 548.736 226.761 548.603C226.84 548.487 226.912 548.448 226.999 548.431C227.11 548.408 227.274 548.418 227.54 548.473C227.716 548.51 227.908 548.559 228.136 548.618C228.253 548.649 228.38 548.681 228.519 548.716C228.647 548.748 228.777 548.779 228.905 548.81C229.59 548.976 230.262 549.139 230.77 549.398C231.064 549.548 231.262 549.711 231.371 549.889C231.472 550.054 231.519 550.267 231.442 550.576Z" stroke="white" stroke-width="0.730274"/>
<rect x="270.057" y="554.182" width="9.49357" height="1.46055" transform="rotate(14.0007 270.057 554.182)" fill="white"/>
<path d="M340.8 531.551L333.096 532.265L337.967 533.856L343.015 533.233L343.368 531.816L329.904 526.953L329.728 527.662L340.8 531.551Z" fill="white"/>
<rect x="304.059" y="547.604" width="43.0862" height="13.8752" transform="rotate(14.0007 304.059 547.604)" fill="white"/>
<path d="M288.814 530.257C294.712 528.287 301.05 528.039 307.084 529.544L350.403 540.345C357.059 542.005 363.178 545.345 368.175 550.045V550.045L288.814 530.257V530.257Z" fill="white"/>
<rect x="315.027" y="527.76" width="32.1321" height="5.8422" rx="2.9211" transform="rotate(14.0007 315.027 527.76)" fill="#DA5125"/>
<rect x="315.914" y="527.229" width="30.6715" height="5.8422" rx="2.9211" transform="rotate(14.0007 315.914 527.229)" fill="white"/>
<circle cx="330.792" cy="530.938" r="1.46055" transform="rotate(14.0007 330.792 530.938)" fill="white"/>
<ellipse cx="328.754" cy="527.043" rx="1.46055" ry="1.09541" transform="rotate(14.0007 328.754 527.043)" fill="white"/>
<rect x="288.639" y="530.965" width="81.7907" height="1.46055" rx="0.730275" transform="rotate(14.0007 288.639 530.965)" fill="white"/>
<rect x="294.131" y="533.088" width="2.9211" height="24.8293" transform="rotate(14.0007 294.131 533.088)" fill="white"/>
<rect x="285.637" y="543.012" width="8.76329" height="13.8752" transform="rotate(14.0007 285.637 543.012)" fill="white"/>
<rect width="2.9211" height="24.8293" transform="matrix(-0.970293 -0.241934 -0.241934 0.970293 362.154 550.047)" fill="white"/>
<rect width="8.76329" height="13.8752" transform="matrix(-0.970293 -0.241934 -0.241934 0.970293 364.996 562.799)" fill="white"/>
<rect x="357.549" y="550.404" width="0.730274" height="21.9082" rx="0.365137" transform="rotate(14.0007 357.549 550.404)" fill="white"/>
<rect x="349.045" y="548.285" width="5.11192" height="21.9082" transform="rotate(14.0007 349.045 548.285)" fill="white"/>
<rect width="0.730275" height="21.9082" rx="0.365137" transform="matrix(-0.970293 -0.241934 -0.241934 0.970293 298.027 535.562)" fill="white"/>
<rect width="5.11192" height="21.9082" transform="matrix(-0.970293 -0.241934 -0.241934 0.970293 305.822 537.508)" fill="white"/>
<rect x="349.576" y="549.17" width="3.65137" height="7.30274" transform="rotate(14.0007 349.576 549.17)" fill="#DA5125"/>
<rect x="301.395" y="537.154" width="3.65137" height="7.30274" transform="rotate(14.0007 301.395 537.154)" fill="#DA5125"/>
<rect x="345.857" y="545.982" width="2.9211" height="15.3358" transform="rotate(14.0007 345.857 545.982)" fill="white"/>
<rect x="306.885" y="536.268" width="2.9211" height="15.3358" transform="rotate(14.0007 306.885 536.268)" fill="white"/>
<rect x="318.223" y="539.094" width="0.730274" height="12.4147" transform="rotate(14.0007 318.223 539.094)" fill="white"/>
<rect x="336.646" y="543.686" width="0.730274" height="12.4147" transform="rotate(14.0007 336.646 543.686)" fill="white"/>
<rect x="327.258" y="542.098" width="0.730274" height="12.4147" transform="rotate(14.0007 327.258 542.098)" fill="white"/>
<rect x="364.627" y="540.125" width="0.730274" height="7.30274" transform="rotate(14.0007 364.627 540.125)" fill="white"/>
<rect x="358.441" y="545.945" width="0.730274" height="7.30274" transform="rotate(-120.999 358.441 545.945)" fill="white"/>
<rect width="0.730275" height="7.30274" transform="matrix(-0.970293 -0.241934 -0.241934 0.970293 295.895 522.99)" fill="white"/>
<rect width="0.730275" height="7.30274" transform="matrix(0.857174 -0.515027 -0.515027 -0.857174 298.627 531.031)" fill="white"/>
<rect x="291.666" y="558.062" width="8.76329" height="0.730274" transform="rotate(14.0007 291.666 558.062)" fill="white"/>
<rect x="291.137" y="560.188" width="8.76329" height="0.730274" transform="rotate(14.0007 291.137 560.188)" fill="white"/>
<rect x="289.189" y="561.959" width="11.6844" height="0.730274" transform="rotate(14.0007 289.189 561.959)" fill="white"/>
<rect x="300.879" y="560.359" width="0.730274" height="5.11192" transform="rotate(14.0007 300.879 560.359)" fill="white"/>
<rect x="290.248" y="557.709" width="0.730274" height="5.11192" transform="rotate(14.0007 290.248 557.709)" fill="white"/>
<rect x="343.393" y="570.959" width="9.49357" height="0.730274" transform="rotate(14.0007 343.393 570.959)" fill="white"/>
<rect x="342.861" y="573.084" width="9.49357" height="0.730274" transform="rotate(14.0007 342.861 573.084)" fill="white"/>
<rect x="340.916" y="574.857" width="12.4147" height="0.730274" transform="rotate(14.0007 340.916 574.857)" fill="white"/>
<rect x="353.312" y="573.432" width="0.730274" height="5.11192" transform="rotate(14.0007 353.312 573.432)" fill="white"/>
<rect x="341.975" y="570.605" width="0.730274" height="5.11192" transform="rotate(14.0007 341.975 570.605)" fill="white"/>
<rect x="301.766" y="562.836" width="40.8954" height="5.11192" transform="rotate(14.0007 301.766 562.836)" fill="white"/>
<path d="M295.213 564.965L345.516 577.507V577.507C344.382 578.189 343.025 578.392 341.741 578.072L298.27 567.232C296.99 566.913 295.89 566.097 295.213 564.965V564.965Z" fill="white"/>
<rect x="281.393" y="557.006" width="8.03302" height="1.46055" transform="rotate(14.0007 281.393 557.006)" fill="white"/>
<path d="M281.572 557.801L278.917 560.902L280.684 553.816L281.572 557.801Z" fill="white"/>
<circle cx="306.906" cy="569.388" r="1.46055" transform="rotate(14.0007 306.906 569.388)" fill="white"/>
<circle cx="333.124" cy="575.925" r="1.46055" transform="rotate(14.0007 333.124 575.925)" fill="white"/>
<circle cx="327.454" cy="574.512" r="2.55596" transform="rotate(14.0007 327.454 574.512)" stroke="white" stroke-width="0.730274"/>
<path d="M341.272 577.959C340.931 579.328 339.543 580.162 338.174 579.82C336.804 579.479 335.971 578.091 336.312 576.722C336.406 576.343 336.5 576.119 336.591 575.986C336.67 575.87 336.742 575.831 336.829 575.814C336.94 575.791 337.104 575.801 337.37 575.856C337.546 575.893 337.738 575.942 337.966 576.001C338.083 576.031 338.21 576.064 338.349 576.099C338.478 576.131 338.607 576.162 338.735 576.193C339.42 576.359 340.092 576.522 340.6 576.78C340.895 576.931 341.092 577.094 341.202 577.272C341.303 577.437 341.349 577.65 341.272 577.959Z" stroke="white" stroke-width="0.730274"/>
<path d="M303.715 568.594C303.374 569.964 301.987 570.797 300.617 570.456C299.247 570.114 298.414 568.727 298.755 567.357C298.756 567.354 298.784 567.267 299.059 567.176C299.314 567.091 299.686 567.036 300.162 567.014C301.107 566.968 302.364 567.054 303.676 567.203C304.439 567.29 305.215 567.398 305.95 567.511C305.726 567.53 305.509 567.557 305.306 567.591C304.945 567.653 304.602 567.747 304.327 567.891C304.053 568.035 303.799 568.257 303.715 568.594Z" stroke="white" stroke-width="0.730274"/>
<path d="M315.053 571.421C314.712 572.791 313.325 573.625 311.955 573.283C310.585 572.942 309.752 571.554 310.093 570.185C310.188 569.806 310.281 569.582 310.372 569.449C310.452 569.333 310.524 569.294 310.61 569.276C310.722 569.254 310.885 569.264 311.151 569.319C311.327 569.355 311.52 569.405 311.747 569.464C311.865 569.494 311.992 569.527 312.13 569.562C312.259 569.594 312.388 569.625 312.516 569.656C313.201 569.822 313.874 569.985 314.381 570.243C314.676 570.393 314.874 570.557 314.983 570.735C315.084 570.9 315.13 571.113 315.053 571.421Z" stroke="white" stroke-width="0.730274"/>
<rect x="353.67" y="575.027" width="9.49357" height="1.46055" transform="rotate(14.0007 353.67 575.027)" fill="white"/>
<path fill-rule="evenodd" clip-rule="evenodd" d="M310.495 -1.28402L-4.46484 183.176L254.79 625.845L569.749 441.385L310.495 -1.28402ZM47.9682 179.219C54.1371 189.752 50.5871 203.472 40.1494 211.034L252.824 574.17C264.526 568.766 278.229 572.382 284.398 582.915C284.581 583.228 284.756 583.543 284.922 583.861L520.822 445.704C520.625 445.403 520.435 445.096 520.252 444.783C513.986 434.085 517.746 420.1 528.565 412.618L315.943 49.5726C304.124 55.3477 290.088 51.7852 283.823 41.0875C283.639 40.7742 283.464 40.4581 283.298 40.1395L47.398 178.297C47.5946 178.598 47.7847 178.905 47.9682 179.219Z" fill="#DA5125"/>
<mask id="path-348-inside-1_623_1444" fill="white">
<path fill-rule="evenodd" clip-rule="evenodd" d="M38.7468 207.489C49.1478 199.935 52.6259 186.147 46.399 175.515C46.2137 175.199 46.0218 174.888 45.8235 174.584L281.051 36.8205C281.22 37.1421 281.396 37.4613 281.582 37.7777C287.906 48.5756 301.965 52.2354 313.756 46.4875L528.373 412.941C517.592 420.413 513.906 434.465 520.23 445.263C520.415 445.579 520.607 445.889 520.805 446.193L285.577 583.957C285.409 583.636 285.233 583.317 285.048 583.001C278.821 572.369 265.094 568.658 253.418 574.034L38.7468 207.489Z"/>
</mask>
<path d="M38.7468 207.489L37.6908 206.035L36.3731 206.992L37.1961 208.397L38.7468 207.489ZM45.8235 174.584L44.9154 173.034L43.2882 173.987L44.3184 175.566L45.8235 174.584ZM281.051 36.8205L282.644 35.9879L281.77 34.3169L280.143 35.2698L281.051 36.8205ZM313.756 46.4875L315.306 45.5794L314.465 44.1426L312.968 44.8722L313.756 46.4875ZM528.373 412.941L529.397 414.418L530.766 413.469L529.924 412.033L528.373 412.941ZM520.805 446.193L521.713 447.743L523.34 446.79L522.31 445.211L520.805 446.193ZM285.577 583.957L283.985 584.789L284.858 586.46L286.485 585.507L285.577 583.957ZM253.418 574.034L251.867 574.942L252.69 576.347L254.17 575.666L253.418 574.034ZM44.8483 176.423C50.5566 186.17 47.4297 198.962 37.6908 206.035L39.8028 208.943C50.8659 200.908 54.6952 186.125 47.9496 174.607L44.8483 176.423ZM44.3184 175.566C44.5009 175.846 44.6776 176.132 44.8483 176.423L47.9496 174.607C47.7498 174.266 47.5427 173.931 47.3287 173.603L44.3184 175.566ZM280.143 35.2698L44.9154 173.034L46.7317 176.135L281.96 38.3711L280.143 35.2698ZM283.132 36.8695C282.962 36.578 282.799 36.2841 282.644 35.9879L279.459 37.653C279.64 38.0002 279.831 38.3446 280.031 38.6858L283.132 36.8695ZM312.968 44.8722C301.925 50.2555 288.929 46.7675 283.132 36.8695L280.031 38.6858C286.882 50.3837 302.004 54.2154 314.543 48.1028L312.968 44.8722ZM529.924 412.033L315.306 45.5794L312.205 47.3957L526.823 413.849L529.924 412.033ZM521.781 444.355C515.984 434.457 519.3 421.416 529.397 414.418L527.35 411.464C515.885 419.41 511.829 434.473 518.68 446.171L521.781 444.355ZM522.31 445.211C522.128 444.931 521.951 444.646 521.781 444.355L518.68 446.171C518.879 446.512 519.086 446.847 519.3 447.174L522.31 445.211ZM286.485 585.507L521.713 447.743L519.897 444.642L284.669 582.406L286.485 585.507ZM283.497 583.91C283.668 584.2 283.83 584.494 283.985 584.789L287.17 583.124C286.989 582.778 286.798 582.434 286.599 582.093L283.497 583.91ZM254.17 575.666C265.103 570.632 277.789 574.163 283.497 583.91L286.599 582.093C279.853 570.575 265.086 566.683 252.667 572.401L254.17 575.666ZM37.1961 208.397L251.867 574.942L254.969 573.126L40.2974 206.581L37.1961 208.397Z" fill="white" mask="url(#path-348-inside-1_623_1444)"/>
</g>
<defs>
<clipPath id="clip0_623_1444">
<rect width="361.12" height="511.03" fill="white" transform="translate(0 180.561) rotate(-30)"/>
</clipPath>
</defs>
</svg>
