<svg width="364" height="514" viewBox="0 0 364 514" fill="none" xmlns="http://www.w3.org/2000/svg">
<rect width="362.509" height="512.996" transform="translate(0.964844 0.263672)" fill="#DA5125"/>
<mask id="path-1-inside-1_616_2" fill="white">
<path fill-rule="evenodd" clip-rule="evenodd" d="M20.4629 40.737C33.4737 39.453 43.6128 29.14 43.6128 16.6079C43.6128 16.2353 43.6038 15.8646 43.5861 15.4961L320.852 15.4961C320.834 15.8646 320.825 16.2353 320.825 16.6079C320.825 29.3363 331.284 39.7755 344.589 40.7906L344.589 472.735C331.284 473.75 320.825 484.189 320.825 496.917C320.825 497.29 320.834 497.661 320.852 498.029L43.5861 498.029C43.6038 497.661 43.6128 497.29 43.6128 496.917C43.6128 484.385 33.4737 474.072 20.4629 472.788L20.4629 40.737Z"/>
</mask>
<path d="M20.4629 40.737L20.2834 38.918L18.6351 39.0807L18.6351 40.737L20.4629 40.737ZM43.5861 15.4961L43.5861 13.6683L41.6682 13.6683L41.7604 15.584L43.5861 15.4961ZM320.852 15.4961L322.678 15.5839L322.77 13.6683L320.852 13.6683V15.4961ZM344.589 40.7906L346.416 40.7906V39.097L344.728 38.9682L344.589 40.7906ZM344.589 472.735L344.728 474.557L346.416 474.428V472.735L344.589 472.735ZM320.852 498.029V499.857H322.77L322.678 497.941L320.852 498.029ZM43.5861 498.029L41.7604 497.941L41.6682 499.857H43.5861L43.5861 498.029ZM20.4629 472.788H18.6351L18.6351 474.445L20.2834 474.607L20.4629 472.788ZM41.785 16.6079C41.785 28.0962 32.4659 37.7158 20.2834 38.918L20.6424 42.5559C34.4815 41.1902 45.4405 30.1838 45.4405 16.6079H41.785ZM41.7604 15.584C41.7767 15.9232 41.785 16.2646 41.785 16.6079H45.4405C45.4405 16.206 45.4309 15.806 45.4117 15.4082L41.7604 15.584ZM320.852 13.6683L43.5861 13.6683L43.5861 17.3239L320.852 17.3239V13.6683ZM322.653 16.6079C322.653 16.2646 322.661 15.9233 322.678 15.5839L319.026 15.4083C319.007 15.806 318.997 16.2059 318.997 16.6079H322.653ZM344.728 38.9682C332.268 38.0174 322.653 28.2754 322.653 16.6079H318.997C318.997 30.3972 330.301 41.5336 344.45 42.6131L344.728 38.9682ZM346.416 472.735L346.416 40.7906L342.761 40.7906L342.761 472.735L346.416 472.735ZM322.653 496.917C322.653 485.25 332.268 475.508 344.728 474.557L344.45 470.912C330.301 471.992 318.997 483.128 318.997 496.917H322.653ZM322.678 497.941C322.661 497.602 322.653 497.261 322.653 496.917H318.997C318.997 497.319 319.007 497.719 319.026 498.117L322.678 497.941ZM43.5861 499.857L320.852 499.857V496.201L43.5861 496.201L43.5861 499.857ZM41.785 496.917C41.785 497.261 41.7767 497.602 41.7604 497.941L45.4117 498.117C45.4309 497.719 45.4405 497.319 45.4405 496.917H41.785ZM20.2834 474.607C32.4659 475.81 41.785 485.429 41.785 496.917H45.4405C45.4405 483.342 34.4815 472.335 20.6424 470.969L20.2834 474.607ZM18.6351 40.737L18.6351 472.788H22.2907L22.2907 40.737L18.6351 40.737Z" fill="white" mask="url(#path-1-inside-1_616_2)"/>
<circle cx="88.0038" cy="421.934" r="40.565" stroke="white" stroke-width="1.22924"/>
<circle cx="88.6179" cy="422.548" r="53.472" stroke="white" stroke-width="1.22924"/>
<circle cx="88.0035" cy="421.933" r="14.1363" fill="white"/>
<path fill-rule="evenodd" clip-rule="evenodd" d="M88.0032 452.049C104.636 452.049 118.12 438.566 118.12 421.933C118.12 405.3 104.636 391.816 88.0032 391.816C71.3703 391.816 57.8867 405.3 57.8867 421.933C57.8867 438.566 71.3703 452.049 88.0032 452.049ZM88.004 438.528C97.169 438.528 104.599 431.099 104.599 421.934C104.599 412.769 97.169 405.339 88.004 405.339C78.8389 405.339 71.4092 412.769 71.4092 421.934C71.4092 431.099 78.8389 438.528 88.004 438.528Z" fill="white"/>
<circle cx="276.17" cy="249.021" r="40.565" stroke="white" stroke-width="1.22924"/>
<circle cx="276.784" cy="249.635" r="53.472" stroke="white" stroke-width="1.22924"/>
<circle cx="276.169" cy="249.021" r="14.1363" fill="white"/>
<path fill-rule="evenodd" clip-rule="evenodd" d="M276.169 279.137C292.802 279.137 306.286 265.654 306.286 249.021C306.286 232.388 292.802 218.904 276.169 218.904C259.536 218.904 246.053 232.388 246.053 249.021C246.053 265.654 259.536 279.137 276.169 279.137ZM276.17 265.616C285.335 265.616 292.765 258.187 292.765 249.022C292.765 239.857 285.335 232.427 276.17 232.427C267.005 232.427 259.575 239.857 259.575 249.022C259.575 258.187 267.005 265.616 276.17 265.616Z" fill="white"/>
<circle cx="88.0038" cy="249.021" r="40.565" stroke="white" stroke-width="1.22924"/>
<circle cx="88.6179" cy="249.635" r="53.472" stroke="white" stroke-width="1.22924"/>
<circle cx="88.0035" cy="249.021" r="14.1363" fill="white"/>
<path fill-rule="evenodd" clip-rule="evenodd" d="M88.0032 279.137C104.636 279.137 118.12 265.654 118.12 249.021C118.12 232.388 104.636 218.904 88.0032 218.904C71.3703 218.904 57.8867 232.388 57.8867 249.021C57.8867 265.654 71.3703 279.137 88.0032 279.137ZM88.004 265.616C97.169 265.616 104.599 258.187 104.599 249.022C104.599 239.857 97.169 232.427 88.004 232.427C78.8389 232.427 71.4092 239.857 71.4092 249.022C71.4092 258.187 78.8389 265.616 88.004 265.616Z" fill="white"/>
<circle cx="276.17" cy="421.934" r="40.565" stroke="white" stroke-width="1.22924"/>
<circle cx="276.784" cy="422.548" r="53.472" stroke="white" stroke-width="1.22924"/>
<circle cx="276.169" cy="421.933" r="14.1363" fill="white"/>
<path fill-rule="evenodd" clip-rule="evenodd" d="M276.169 452.049C292.802 452.049 306.286 438.566 306.286 421.933C306.286 405.3 292.802 391.816 276.169 391.816C259.536 391.816 246.053 405.3 246.053 421.933C246.053 438.566 259.536 452.049 276.169 452.049ZM276.17 438.528C285.335 438.528 292.765 431.099 292.765 421.934C292.765 412.769 285.335 405.339 276.17 405.339C267.005 405.339 259.575 412.769 259.575 421.934C259.575 431.099 267.005 438.528 276.17 438.528Z" fill="white"/>
<circle cx="181.576" cy="326.322" r="40.565" stroke="white" stroke-width="1.22924"/>
<circle cx="182.19" cy="326.936" r="53.472" stroke="white" stroke-width="1.22924"/>
<path d="M208.589 308.971L208.096 309.313L208.389 309.837C210.729 314.018 212.065 318.837 212.069 323.967C212.07 324.425 212.06 324.88 212.039 325.332L211.983 326.56L210.862 343.037L210.84 343.007L210.721 344.786C210.52 347.802 208.793 350.4 206.302 351.814L205.271 352.399L205.382 352.46L188.811 362.978L188.774 363.001L188.741 363.029C187.22 364.3 185.262 365.064 183.123 365.062C181.062 365.06 179.169 364.348 177.67 363.158L177.638 363.132L177.603 363.111L162.211 353.755L162.3 353.707L161.269 353.121C160.322 352.582 159.484 351.872 158.798 351.032L158.755 350.981L158.704 350.939C156.874 349.445 155.658 347.231 155.487 344.733L155.363 342.925L155.34 342.957L154.107 325.297L154.135 325.289C154.113 324.833 154.102 324.375 154.101 323.914C154.098 319.654 155.012 315.612 156.657 311.972L156.865 311.513L156.477 311.191C154.399 309.467 152.377 306.212 150.637 302.643C148.909 299.099 147.504 295.341 146.63 292.7C146.223 291.473 146.219 290.725 146.342 290.285C146.453 289.886 146.683 289.687 146.963 289.57C147.274 289.442 147.655 289.416 147.995 289.436C148.158 289.445 148.298 289.465 148.396 289.482C148.445 289.49 148.482 289.498 148.506 289.503L148.531 289.508L148.533 289.509L148.533 289.509L148.534 289.509L148.535 289.509L148.535 289.509L148.539 289.51L148.539 289.51L148.539 289.51L148.54 289.51L148.546 289.512L148.569 289.517L148.66 289.54C148.741 289.56 148.86 289.589 149.015 289.629C149.325 289.707 149.776 289.823 150.338 289.974C151.462 290.275 153.029 290.714 154.799 291.262C157.341 292.049 160.289 293.06 162.942 294.213C165.615 295.375 167.908 296.649 169.204 297.936L169.543 298.273L169.969 298.057C173.899 296.066 178.346 294.945 183.059 294.949C187.378 294.953 191.477 295.902 195.159 297.599L195.751 297.871L196.032 297.284C196.268 296.792 196.734 296.257 197.435 295.694C198.128 295.136 199.013 294.581 200.033 294.04C202.074 292.957 204.594 291.958 207.062 291.106C209.527 290.255 211.921 289.557 213.7 289.071C214.589 288.828 215.323 288.638 215.835 288.51C216.091 288.446 216.291 288.396 216.426 288.364C216.458 288.356 216.486 288.349 216.51 288.343C216.538 288.337 216.562 288.331 216.581 288.326L216.62 288.317L216.629 288.315L216.631 288.314L216.632 288.314L216.481 287.671L216.632 288.314L216.636 288.313L216.636 288.313L216.637 288.313L216.637 288.313L216.638 288.313L216.639 288.313L216.663 288.307C216.685 288.303 216.721 288.296 216.767 288.288C216.861 288.272 216.994 288.254 217.15 288.246C217.474 288.227 217.837 288.253 218.131 288.373C218.397 288.481 218.608 288.664 218.71 289.024C218.825 289.424 218.825 290.117 218.439 291.266C217.574 293.845 216.16 297.559 214.422 301C212.667 304.473 210.64 307.546 208.589 308.971Z" fill="#DA5125" stroke="white" stroke-width="1.32225"/>
<path d="M175.659 331.641C175.659 331.641 171.152 333.338 167.638 331.506C164.124 329.674 162.933 325.008 162.933 325.008C162.933 325.008 167.441 323.311 170.955 325.143C174.469 326.975 175.659 331.641 175.659 331.641Z" fill="white"/>
<path d="M187.808 332.032C187.808 332.032 192.163 333.951 195.782 332.352C199.401 330.752 200.914 326.239 200.914 326.239C200.914 326.239 196.558 324.32 192.939 325.92C189.32 327.519 187.808 332.032 187.808 332.032Z" fill="white"/>
<path d="M191.174 314.652C191.174 312.67 189.567 311.064 187.586 311.064C186.047 311.064 184.734 312.034 184.225 313.396C183.963 313.118 183.66 312.881 183.321 312.696C182.812 312.418 182.228 312.26 181.607 312.26C180.574 312.26 179.642 312.697 178.988 313.396C178.479 312.034 177.166 311.064 175.627 311.064C175.139 311.064 174.674 311.161 174.251 311.338C173.821 311.516 173.434 311.777 173.107 312.099C172.448 312.75 172.039 313.654 172.039 314.652" stroke="white" stroke-width="1.19593"/>
<path d="M174.828 344.02C174.828 344.02 178.549 350.796 182.137 351.992M182.137 351.992C186.322 350.796 188.781 344.02 188.781 344.02M182.137 351.992C182.137 354.094 182.137 356.643 182.137 356.643" stroke="white" stroke-width="1.19593"/>
<path d="M185.193 325.416C185.193 324.095 186.157 323.025 187.346 323.025C187.409 323.025 187.471 323.028 187.533 323.033C187.412 322.657 187.346 322.251 187.346 321.829C187.346 319.847 188.792 318.241 190.575 318.241C191.505 318.241 192.342 318.677 192.931 319.376C193.39 318.014 194.571 317.045 195.957 317.045C197.657 317.045 199.051 318.506 199.177 320.36C199.749 319.786 200.507 319.437 201.338 319.437C203.122 319.437 204.567 321.043 204.567 323.025C205.756 323.025 206.72 324.095 206.72 325.416" stroke="white" stroke-width="1.19593"/>
<path d="M158.881 325.416C158.881 324.095 159.845 323.025 161.034 323.025C161.096 323.025 161.159 323.028 161.22 323.033C161.099 322.657 161.034 322.251 161.034 321.829C161.034 319.847 162.479 318.241 164.263 318.241C165.192 318.241 166.03 318.677 166.619 319.376C167.077 318.014 168.259 317.045 169.644 317.045C171.345 317.045 172.738 318.506 172.864 320.36C173.436 319.786 174.195 319.437 175.026 319.437C176.809 319.437 178.255 321.043 178.255 323.025C179.444 323.025 180.408 324.095 180.408 325.416" stroke="white" stroke-width="1.19593"/>
<path d="M164.861 306.88C164.861 304.568 166.735 302.694 169.047 302.694C169.769 302.694 170.446 302.876 171.037 303.196C171.521 303.458 171.948 303.813 172.294 304.237C172.607 303.385 173.188 302.665 173.936 302.177C174.595 301.747 175.379 301.498 176.223 301.498C176.58 301.498 176.928 301.544 177.262 301.629C177.542 301.7 177.811 301.801 178.066 301.925C178.495 302.136 178.881 302.417 179.213 302.755C179.972 301.979 181.03 301.498 182.202 301.498C183.492 301.498 184.646 302.081 185.414 302.999C185.9 302.801 186.43 302.694 186.986 302.694C189.119 302.694 190.878 304.288 191.139 306.348C191.235 306.327 191.333 306.311 191.433 306.299C191.543 306.288 191.655 306.282 191.77 306.282C191.992 306.282 192.207 306.306 192.415 306.352C192.664 304.953 193.886 303.89 195.358 303.89C196.007 303.89 196.607 304.097 197.098 304.448C197.752 304.917 198.235 306.045 198.347 306.88C199.754 307.364 200.739 308.298 200.739 309.87" stroke="white" stroke-width="1.19593"/>
<path d="M164.886 298.834C160.671 295.512 149.316 292.627 149.316 292.627C149.316 292.627 152.316 301.482 157.281 307.949" stroke="white" stroke-width="1.32882" stroke-linecap="round"/>
<path d="M198.678 298.163C203.329 294.841 215.355 291.531 215.355 291.531C215.355 291.531 210.05 302.456 206.728 306.663" stroke="white" stroke-width="1.32882" stroke-linecap="round"/>
</svg>
