<svg width="364" height="516" viewBox="0 0 364 516" fill="none" xmlns="http://www.w3.org/2000/svg">
<g clip-path="url(#clip0_626_3874)">
<rect width="363.946" height="515.03" fill="#77A78B"/>
<path d="M105.873 345.094L101.861 348.143L102.202 403.068L106.252 406.066L106.48 442.851" stroke="white" stroke-width="1.00783"/>
<path d="M59.6218 307.082L66.6165 312.609L74.6475 312.559L94.5673 330.161L96.0376 394.468L90.1828 400.075L90.3243 422.864L97.3191 428.391L97.489 455.737L67.1569 485.805L62.8737 485.832L59.1479 489.4L59.2077 499.022L46.4305 510.749" stroke="white" stroke-width="1.00783"/>
<path d="M63.293 305.045L68.5643 309.077L76.4335 309.028L98.0688 329.216L98.5327 403.899L102.224 406.924L102.527 455.697L69.6814 488.925L68.117 490.459" stroke="white" stroke-width="2.01565"/>
<path d="M110.586 308.447L121.734 318.456" stroke="white" stroke-width="1.00783"/>
<path d="M149.248 351.317L149.349 367.587L123.979 392.583L124.319 447.326L44.5016 524.872" stroke="white" stroke-width="3.02348"/>
<path d="M-18.5137 163.949L81.5624 163.328L81.9769 230.048L94.2729 241.087L94.6338 299.188L115.898 299.056L150.127 330.57L150.168 337.19L150.209 343.81" stroke="white" stroke-width="1.00783"/>
<path d="M-9.06641 224.363L50.8982 223.991L76.0512 249.377L75.8049 294.979L62.5668 295.062L14.9135 343.311" stroke="white" stroke-width="1.51174"/>
<path d="M-5.23047 193.213L67.7682 192.76L68.0225 233.694L81.0727 246.834L81.4075 300.735L64.8083 300.838L9.88984 356.443" stroke="white" stroke-width="4.03131"/>
<path d="M-10.3828 174.984L74.5762 174.457L74.9246 230.549L88.2742 243.171L88.6404 302.12L145.246 356.146L145.3 364.785L119.444 389.848L119.781 444.223L112.922 450.872" stroke="white" stroke-width="2.01565"/>
<path d="M86.498 308.932L114.992 336.511L115.084 351.416L125.104 360.092L138.215 360.011" stroke="white" stroke-width="1.00783"/>
<circle cx="109.573" cy="307.446" r="2.01565" transform="rotate(-0.355868 109.573 307.446)" fill="white"/>
<circle cx="109.573" cy="307.446" r="2.01565" transform="rotate(-0.355868 109.573 307.446)" fill="white"/>
<circle cx="109.573" cy="307.446" r="2.01565" transform="rotate(-0.355868 109.573 307.446)" fill="white"/>
<circle cx="109.573" cy="307.446" r="2.01565" transform="rotate(-0.355868 109.573 307.446)" fill="white"/>
<circle cx="121.737" cy="318.458" r="2.01565" transform="rotate(-0.355868 121.737 318.458)" fill="white"/>
<circle cx="121.737" cy="318.458" r="2.01565" transform="rotate(-0.355868 121.737 318.458)" fill="white"/>
<circle cx="121.737" cy="318.458" r="2.01565" transform="rotate(-0.355868 121.737 318.458)" fill="white"/>
<circle cx="121.737" cy="318.458" r="2.01565" transform="rotate(-0.355868 121.737 318.458)" fill="white"/>
<path d="M103.531 308.492L114.68 318.501" stroke="white" stroke-width="1.00783"/>
<circle cx="102.518" cy="307.489" r="2.01565" transform="rotate(-0.355868 102.518 307.489)" fill="white"/>
<circle cx="102.518" cy="307.489" r="2.01565" transform="rotate(-0.355868 102.518 307.489)" fill="white"/>
<circle cx="102.518" cy="307.489" r="2.01565" transform="rotate(-0.355868 102.518 307.489)" fill="white"/>
<circle cx="102.518" cy="307.489" r="2.01565" transform="rotate(-0.355868 102.518 307.489)" fill="white"/>
<circle cx="113.575" cy="318.175" r="2.01565" transform="rotate(-0.355868 113.575 318.175)" fill="white"/>
<circle cx="113.575" cy="318.175" r="2.01565" transform="rotate(-0.355868 113.575 318.175)" fill="white"/>
<circle cx="113.575" cy="318.175" r="2.01565" transform="rotate(-0.355868 113.575 318.175)" fill="white"/>
<circle cx="113.575" cy="318.175" r="2.01565" transform="rotate(-0.355868 113.575 318.175)" fill="white"/>
<path d="M118.648 308.398L128.789 318.414" stroke="white" stroke-width="1.00783"/>
<circle cx="117.636" cy="307.396" r="2.01565" transform="rotate(-0.355868 117.636 307.396)" fill="white"/>
<circle cx="117.636" cy="307.396" r="2.01565" transform="rotate(-0.355868 117.636 307.396)" fill="white"/>
<circle cx="117.636" cy="307.396" r="2.01565" transform="rotate(-0.355868 117.636 307.396)" fill="white"/>
<circle cx="117.636" cy="307.396" r="2.01565" transform="rotate(-0.355868 117.636 307.396)" fill="white"/>
<circle cx="128.792" cy="318.413" r="2.01565" transform="rotate(-0.355868 128.792 318.413)" fill="white"/>
<circle cx="128.792" cy="318.413" r="2.01565" transform="rotate(-0.355868 128.792 318.413)" fill="white"/>
<circle cx="128.792" cy="318.413" r="2.01565" transform="rotate(-0.355868 128.792 318.413)" fill="white"/>
<circle cx="128.792" cy="318.413" r="2.01565" transform="rotate(-0.355868 128.792 318.413)" fill="white"/>
<path d="M121.998 344.992L132.139 355.008" stroke="white" stroke-width="1.00783"/>
<circle cx="120.983" cy="343.991" r="2.01565" transform="rotate(-0.355868 120.983 343.991)" fill="white"/>
<circle cx="120.983" cy="343.991" r="2.01565" transform="rotate(-0.355868 120.983 343.991)" fill="white"/>
<circle cx="120.983" cy="343.991" r="2.01565" transform="rotate(-0.355868 120.983 343.991)" fill="white"/>
<circle cx="120.983" cy="343.991" r="2.01565" transform="rotate(-0.355868 120.983 343.991)" fill="white"/>
<circle cx="86.3992" cy="308.599" r="2.01565" transform="rotate(-0.355868 86.3992 308.599)" fill="white"/>
<circle cx="86.3992" cy="308.599" r="2.01565" transform="rotate(-0.355868 86.3992 308.599)" fill="white"/>
<circle cx="86.3992" cy="308.599" r="2.01565" transform="rotate(-0.355868 86.3992 308.599)" fill="white"/>
<circle cx="86.3992" cy="308.599" r="2.01565" transform="rotate(-0.355868 86.3992 308.599)" fill="white"/>
<ellipse cx="139.727" cy="360" rx="2.51957" ry="2.01565" transform="rotate(-0.355868 139.727 360)" fill="white"/>
<ellipse cx="139.727" cy="360" rx="2.51957" ry="2.01565" transform="rotate(-0.355868 139.727 360)" fill="white"/>
<ellipse cx="139.727" cy="360" rx="2.51957" ry="2.01565" transform="rotate(-0.355868 139.727 360)" fill="white"/>
<ellipse cx="139.727" cy="360" rx="2.51957" ry="2.01565" transform="rotate(-0.355868 139.727 360)" fill="white"/>
<circle cx="111.98" cy="451.324" r="2.51957" transform="rotate(-0.355868 111.98 451.324)" fill="white"/>
<circle cx="111.98" cy="451.324" r="2.51957" transform="rotate(-0.355868 111.98 451.324)" fill="white"/>
<circle cx="111.98" cy="451.324" r="2.51957" transform="rotate(-0.355868 111.98 451.324)" fill="white"/>
<circle cx="111.98" cy="451.324" r="2.51957" transform="rotate(-0.355868 111.98 451.324)" fill="white"/>
<path fill-rule="evenodd" clip-rule="evenodd" d="M149.914 352.478C152.855 352.459 155.224 350.176 155.207 347.377C155.189 344.578 152.792 342.324 149.851 342.342C146.911 342.36 144.541 344.644 144.559 347.443C144.576 350.242 146.974 352.496 149.914 352.478ZM149.902 350.634C151.773 350.623 153.281 349.17 153.27 347.388C153.259 345.607 151.733 344.173 149.862 344.185C147.991 344.196 146.483 345.649 146.494 347.431C146.505 349.212 148.031 350.646 149.902 350.634Z" fill="white"/>
<path fill-rule="evenodd" clip-rule="evenodd" d="M149.914 352.478C152.855 352.459 155.224 350.176 155.207 347.377C155.189 344.578 152.792 342.324 149.851 342.342C146.911 342.36 144.541 344.644 144.559 347.443C144.576 350.242 146.974 352.496 149.914 352.478ZM149.902 350.634C151.773 350.623 153.281 349.17 153.27 347.388C153.259 345.607 151.733 344.173 149.862 344.185C147.991 344.196 146.483 345.649 146.494 347.431C146.505 349.212 148.031 350.646 149.902 350.634Z" fill="white"/>
<path fill-rule="evenodd" clip-rule="evenodd" d="M149.914 352.478C152.855 352.459 155.224 350.176 155.207 347.377C155.189 344.578 152.792 342.324 149.851 342.342C146.911 342.36 144.541 344.644 144.559 347.443C144.576 350.242 146.974 352.496 149.914 352.478ZM149.902 350.634C151.773 350.623 153.281 349.17 153.27 347.388C153.259 345.607 151.733 344.173 149.862 344.185C147.991 344.196 146.483 345.649 146.494 347.431C146.505 349.212 148.031 350.646 149.902 350.634Z" fill="white"/>
<path fill-rule="evenodd" clip-rule="evenodd" d="M149.914 352.478C152.855 352.459 155.224 350.176 155.207 347.377C155.189 344.578 152.792 342.324 149.851 342.342C146.911 342.36 144.541 344.644 144.559 347.443C144.576 350.242 146.974 352.496 149.914 352.478ZM149.902 350.634C151.773 350.623 153.281 349.17 153.27 347.388C153.259 345.607 151.733 344.173 149.862 344.185C147.991 344.196 146.483 345.649 146.494 347.431C146.505 349.212 148.031 350.646 149.902 350.634Z" fill="white"/>
<path fill-rule="evenodd" clip-rule="evenodd" d="M64.5536 495.924C66.9059 495.909 68.8015 494.082 68.7876 491.843C68.7737 489.604 66.8555 487.801 64.5033 487.815C62.151 487.83 60.2554 489.657 60.2693 491.896C60.2832 494.135 62.2014 495.938 64.5536 495.924ZM64.5454 494.449C66.0423 494.44 67.2486 493.277 67.2398 491.852C67.2309 490.427 66.0103 489.28 64.5134 489.289C63.0165 489.299 61.8102 490.461 61.819 491.886C61.8279 493.311 63.0485 494.458 64.5454 494.449Z" fill="white"/>
<path fill-rule="evenodd" clip-rule="evenodd" d="M64.5536 495.924C66.9059 495.909 68.8015 494.082 68.7876 491.843C68.7737 489.604 66.8555 487.801 64.5033 487.815C62.151 487.83 60.2554 489.657 60.2693 491.896C60.2832 494.135 62.2014 495.938 64.5536 495.924ZM64.5454 494.449C66.0423 494.44 67.2486 493.277 67.2398 491.852C67.2309 490.427 66.0103 489.28 64.5134 489.289C63.0165 489.299 61.8102 490.461 61.819 491.886C61.8279 493.311 63.0485 494.458 64.5454 494.449Z" fill="white"/>
<path fill-rule="evenodd" clip-rule="evenodd" d="M64.5536 495.924C66.9059 495.909 68.8015 494.082 68.7876 491.843C68.7737 489.604 66.8555 487.801 64.5033 487.815C62.151 487.83 60.2554 489.657 60.2693 491.896C60.2832 494.135 62.2014 495.938 64.5536 495.924ZM64.5454 494.449C66.0423 494.44 67.2486 493.277 67.2398 491.852C67.2309 490.427 66.0103 489.28 64.5134 489.289C63.0165 489.299 61.8102 490.461 61.819 491.886C61.8279 493.311 63.0485 494.458 64.5454 494.449Z" fill="white"/>
<path fill-rule="evenodd" clip-rule="evenodd" d="M64.5536 495.924C66.9059 495.909 68.8015 494.082 68.7876 491.843C68.7737 489.604 66.8555 487.801 64.5033 487.815C62.151 487.83 60.2554 489.657 60.2693 491.896C60.2832 494.135 62.2014 495.938 64.5536 495.924ZM64.5454 494.449C66.0423 494.44 67.2486 493.277 67.2398 491.852C67.2309 490.427 66.0103 489.28 64.5134 489.289C63.0165 489.299 61.8102 490.461 61.819 491.886C61.8279 493.311 63.0485 494.458 64.5454 494.449Z" fill="white"/>
<ellipse cx="132.641" cy="355.006" rx="2.51957" ry="2.01565" transform="rotate(-0.355868 132.641 355.006)" fill="white"/>
<ellipse cx="132.641" cy="355.006" rx="2.51957" ry="2.01565" transform="rotate(-0.355868 132.641 355.006)" fill="white"/>
<ellipse cx="132.641" cy="355.006" rx="2.51957" ry="2.01565" transform="rotate(-0.355868 132.641 355.006)" fill="white"/>
<ellipse cx="132.641" cy="355.006" rx="2.51957" ry="2.01565" transform="rotate(-0.355868 132.641 355.006)" fill="white"/>
<circle cx="105.866" cy="344.087" r="2.01565" transform="rotate(-0.355868 105.866 344.087)" fill="white"/>
<circle cx="105.978" cy="443.36" r="1.51174" transform="rotate(-0.355868 105.978 443.36)" fill="white"/>
<path d="M132.57 586.812L136.583 583.733L136.238 528.241L132.188 525.211L131.957 488.047" stroke="white" stroke-width="1.00783"/>
<path d="M179.545 623.811L172.603 618.284L164.632 618.334L144.86 600.735L143.398 536.438L149.209 530.832L149.067 508.047L142.124 502.52L141.955 475.179L172.059 445.117L176.31 445.091L180.007 441.524L179.948 431.903L200.024 413.044" stroke="white" stroke-width="1.00783"/>
<path d="M176.148 625.846L170.739 621.815L162.663 621.865L140.461 601.68L139.998 526.998L136.21 523.973L135.907 475.2L169.622 441.967L171.228 440.432" stroke="white" stroke-width="2.01565"/>
<path d="M89.1841 579.016L89.0928 564.317L114.22 539.322L113.88 484.578L192.932 407.038" stroke="white" stroke-width="3.02348"/>
<path d="M164 779.115L163.511 700.347L150.161 687.725L149.795 628.776L93.1892 574.75L93.1356 566.111L118.992 541.048L118.654 486.673L125.514 480.024" stroke="white" stroke-width="2.01565"/>
<ellipse cx="126.266" cy="479.457" rx="2.51957" ry="2.51957" transform="rotate(179.644 126.266 479.457)" fill="white"/>
<ellipse cx="126.266" cy="479.457" rx="2.51957" ry="2.51957" transform="rotate(179.644 126.266 479.457)" fill="white"/>
<ellipse cx="126.266" cy="479.457" rx="2.51957" ry="2.51957" transform="rotate(179.644 126.266 479.457)" fill="white"/>
<ellipse cx="126.266" cy="479.457" rx="2.51957" ry="2.51957" transform="rotate(179.644 126.266 479.457)" fill="white"/>
<path fill-rule="evenodd" clip-rule="evenodd" d="M173.853 434.938C171.5 434.952 169.605 436.779 169.619 439.018C169.633 441.257 171.551 443.061 173.903 443.046C176.255 443.031 178.151 441.204 178.137 438.965C178.123 436.726 176.205 434.923 173.853 434.938ZM173.861 436.412C172.364 436.421 171.158 437.584 171.166 439.009C171.175 440.434 172.396 441.581 173.893 441.572C175.39 441.563 176.596 440.4 176.587 438.975C176.578 437.55 175.358 436.403 173.861 436.412Z" fill="white"/>
<path fill-rule="evenodd" clip-rule="evenodd" d="M173.853 434.938C171.5 434.952 169.605 436.779 169.619 439.018C169.633 441.257 171.551 443.061 173.903 443.046C176.255 443.031 178.151 441.204 178.137 438.965C178.123 436.726 176.205 434.923 173.853 434.938ZM173.861 436.412C172.364 436.421 171.158 437.584 171.166 439.009C171.175 440.434 172.396 441.581 173.893 441.572C175.39 441.563 176.596 440.4 176.587 438.975C176.578 437.55 175.358 436.403 173.861 436.412Z" fill="white"/>
<path fill-rule="evenodd" clip-rule="evenodd" d="M173.853 434.938C171.5 434.952 169.605 436.779 169.619 439.018C169.633 441.257 171.551 443.061 173.903 443.046C176.255 443.031 178.151 441.204 178.137 438.965C178.123 436.726 176.205 434.923 173.853 434.938ZM173.861 436.412C172.364 436.421 171.158 437.584 171.166 439.009C171.175 440.434 172.396 441.581 173.893 441.572C175.39 441.563 176.596 440.4 176.587 438.975C176.578 437.55 175.358 436.403 173.861 436.412Z" fill="white"/>
<path fill-rule="evenodd" clip-rule="evenodd" d="M173.853 434.938C171.5 434.952 169.605 436.779 169.619 439.018C169.633 441.257 171.551 443.061 173.903 443.046C176.255 443.031 178.151 441.204 178.137 438.965C178.123 436.726 176.205 434.923 173.853 434.938ZM173.861 436.412C172.364 436.421 171.158 437.584 171.166 439.009C171.175 440.434 172.396 441.581 173.893 441.572C175.39 441.563 176.596 440.4 176.587 438.975C176.578 437.55 175.358 436.403 173.861 436.412Z" fill="white"/>
<ellipse cx="131.445" cy="487.041" rx="1.51174" ry="2.01565" transform="rotate(179.644 131.445 487.041)" fill="white"/>
<path d="M183.016 271.041L187.067 274.226L187.429 332.549L183.418 335.785L183.66 374.845" stroke="white" stroke-width="1.00783"/>
<path d="M231.659 231.433L224.194 237.352L215.539 237.406L194.304 256.225L193.572 324.035L199.955 329.868L200.105 353.893L192.64 359.813L192.819 388.643L225.905 419.937L230.522 419.909L235.275 424.583L234.647 433.765L257.13 454.455" stroke="white" stroke-width="1.00783"/>
<path d="M228.111 229.439L222.478 233.76L213.987 233.813L190.913 255.383L191.402 334.125L187.46 337.363L187.779 388.786L223.655 423.382L225.363 424.979" stroke="white" stroke-width="2.01565"/>
<path d="M175.729 233.738L166.124 244.322" stroke="white" stroke-width="1.00783"/>
<path d="M137.715 279.386L137.812 294.993L165.073 321.195L165.434 379.319L250.613 460.039" stroke="white" stroke-width="3.02348"/>
<path d="M201.467 207.322L194.86 207.363L194.956 222.874L172.422 223.014L136.565 256.458L136.608 263.39L136.651 270.322" stroke="white" stroke-width="1.00783"/>
<path d="M301.723 203.283L285.598 203.383L269.562 182.822L218.33 183.687L218.415 197.352L200.51 215.502" stroke="white" stroke-width="1.51174"/>
<path d="M193.902 287.5L279.716 286.967L300.364 309.115" stroke="white" stroke-width="4.03131"/>
<path d="M368.309 133.152L345.051 168.413L345.023 163.862L262.205 164.376L200.759 164.758L201.145 226.883L142.787 284.552L142.843 293.657L170.148 319.731L170.504 377.035L177.748 383.953" stroke="white" stroke-width="2.01565"/>
<path d="M203.949 233.623L173.586 262.656L173.682 278.146L162.992 287.293L148.852 287.381" stroke="white" stroke-width="1.00783"/>
<circle r="2.01565" transform="matrix(-0.999981 0.00621103 0.00621103 0.999981 176.429 232.727)" fill="white"/>
<circle r="2.01565" transform="matrix(-0.999981 0.00621103 0.00621103 0.999981 176.429 232.727)" fill="white"/>
<circle r="2.01565" transform="matrix(-0.999981 0.00621103 0.00621103 0.999981 176.429 232.727)" fill="white"/>
<circle r="2.01565" transform="matrix(-0.999981 0.00621103 0.00621103 0.999981 176.429 232.727)" fill="white"/>
<circle r="2.01565" transform="matrix(-0.999981 0.00621103 0.00621103 0.999981 165.722 244.886)" fill="white"/>
<circle r="2.01565" transform="matrix(-0.999981 0.00621103 0.00621103 0.999981 165.722 244.886)" fill="white"/>
<circle r="2.01565" transform="matrix(-0.999981 0.00621103 0.00621103 0.999981 165.722 244.886)" fill="white"/>
<circle r="2.01565" transform="matrix(-0.999981 0.00621103 0.00621103 0.999981 165.722 244.886)" fill="white"/>
<path d="M183.791 233.689L173.776 243.83" stroke="white" stroke-width="1.00783"/>
<circle r="2.01565" transform="matrix(-0.999981 0.00621103 0.00621103 0.999981 184.794 232.675)" fill="white"/>
<circle r="2.01565" transform="matrix(-0.999981 0.00621103 0.00621103 0.999981 184.794 232.675)" fill="white"/>
<circle r="2.01565" transform="matrix(-0.999981 0.00621103 0.00621103 0.999981 184.794 232.675)" fill="white"/>
<circle r="2.01565" transform="matrix(-0.999981 0.00621103 0.00621103 0.999981 184.794 232.675)" fill="white"/>
<circle r="2.01565" transform="matrix(-0.999981 0.00621103 0.00621103 0.999981 227.807 229.442)" fill="white"/>
<circle r="2.01565" transform="matrix(-0.999981 0.00621103 0.00621103 0.999981 227.807 229.442)" fill="white"/>
<circle r="2.01565" transform="matrix(-0.999981 0.00621103 0.00621103 0.999981 227.807 229.442)" fill="white"/>
<circle r="2.01565" transform="matrix(-0.999981 0.00621103 0.00621103 0.999981 227.807 229.442)" fill="white"/>
<circle r="2.51957" transform="matrix(-0.999981 0.00621103 0.00621103 0.999981 301.578 180.104)" fill="white"/>
<circle r="2.51957" transform="matrix(-0.999981 0.00621103 0.00621103 0.999981 301.578 180.104)" fill="white"/>
<circle r="2.51957" transform="matrix(-0.999981 0.00621103 0.00621103 0.999981 301.578 180.104)" fill="white"/>
<circle r="2.51957" transform="matrix(-0.999981 0.00621103 0.00621103 0.999981 301.578 180.104)" fill="white"/>
<circle r="5.54305" transform="matrix(-0.999981 0.00621103 0.00621103 0.999981 300.365 309.116)" fill="white"/>
<circle r="5.54305" transform="matrix(-0.999981 0.00621103 0.00621103 0.999981 300.365 309.116)" fill="white"/>
<circle r="5.54305" transform="matrix(-0.999981 0.00621103 0.00621103 0.999981 300.365 309.116)" fill="white"/>
<circle r="5.54305" transform="matrix(-0.999981 0.00621103 0.00621103 0.999981 300.365 309.116)" fill="white"/>
<circle r="2.01565" transform="matrix(-0.999981 0.00621103 0.00621103 0.999981 172.776 244.843)" fill="white"/>
<circle r="2.01565" transform="matrix(-0.999981 0.00621103 0.00621103 0.999981 172.776 244.843)" fill="white"/>
<circle r="2.01565" transform="matrix(-0.999981 0.00621103 0.00621103 0.999981 172.776 244.843)" fill="white"/>
<circle r="2.01565" transform="matrix(-0.999981 0.00621103 0.00621103 0.999981 172.776 244.843)" fill="white"/>
<path d="M168.674 233.781L159.07 244.365" stroke="white" stroke-width="1.00783"/>
<circle r="2.01565" transform="matrix(-0.999981 0.00621103 0.00621103 0.999981 169.677 232.768)" fill="white"/>
<circle r="2.01565" transform="matrix(-0.999981 0.00621103 0.00621103 0.999981 169.677 232.768)" fill="white"/>
<circle r="2.01565" transform="matrix(-0.999981 0.00621103 0.00621103 0.999981 169.677 232.768)" fill="white"/>
<circle r="2.01565" transform="matrix(-0.999981 0.00621103 0.00621103 0.999981 169.677 232.768)" fill="white"/>
<circle r="2.01565" transform="matrix(-0.999981 0.00621103 0.00621103 0.999981 158.569 244.872)" fill="white"/>
<circle r="2.01565" transform="matrix(-0.999981 0.00621103 0.00621103 0.999981 158.569 244.872)" fill="white"/>
<circle r="2.01565" transform="matrix(-0.999981 0.00621103 0.00621103 0.999981 158.569 244.872)" fill="white"/>
<circle r="2.01565" transform="matrix(-0.999981 0.00621103 0.00621103 0.999981 158.569 244.872)" fill="white"/>
<path d="M166.891 271.143L155.867 281.29" stroke="white" stroke-width="1.00783"/>
<circle r="2.01565" transform="matrix(-0.999981 0.00621103 0.00621103 0.999981 166.794 270.807)" fill="white"/>
<circle r="2.01565" transform="matrix(-0.999981 0.00621103 0.00621103 0.999981 166.794 270.807)" fill="white"/>
<circle r="2.01565" transform="matrix(-0.999981 0.00621103 0.00621103 0.999981 166.794 270.807)" fill="white"/>
<circle r="2.01565" transform="matrix(-0.999981 0.00621103 0.00621103 0.999981 166.794 270.807)" fill="white"/>
<circle r="2.01565" transform="matrix(-0.999981 0.00621103 0.00621103 0.999981 204.95 232.606)" fill="white"/>
<circle r="2.01565" transform="matrix(-0.999981 0.00621103 0.00621103 0.999981 204.95 232.606)" fill="white"/>
<circle r="2.01565" transform="matrix(-0.999981 0.00621103 0.00621103 0.999981 204.95 232.606)" fill="white"/>
<circle r="2.01565" transform="matrix(-0.999981 0.00621103 0.00621103 0.999981 204.95 232.606)" fill="white"/>
<circle r="1.51174" transform="matrix(-0.999981 0.00621103 0.00621103 0.999981 231.351 231.939)" fill="white"/>
<circle r="1.51174" transform="matrix(-0.999981 0.00621103 0.00621103 0.999981 231.351 231.939)" fill="white"/>
<circle r="1.51174" transform="matrix(-0.999981 0.00621103 0.00621103 0.999981 231.351 231.939)" fill="white"/>
<circle r="1.51174" transform="matrix(-0.999981 0.00621103 0.00621103 0.999981 231.351 231.939)" fill="white"/>
<circle r="2.01565" transform="matrix(-0.999981 0.00621103 0.00621103 0.999981 148.85 287.38)" fill="white"/>
<circle r="2.01565" transform="matrix(-0.999981 0.00621103 0.00621103 0.999981 148.85 287.38)" fill="white"/>
<circle r="2.01565" transform="matrix(-0.999981 0.00621103 0.00621103 0.999981 148.85 287.38)" fill="white"/>
<circle r="2.01565" transform="matrix(-0.999981 0.00621103 0.00621103 0.999981 148.85 287.38)" fill="white"/>
<circle r="3.02348" transform="matrix(-0.999981 0.00621103 0.00621103 0.999981 178.685 384.954)" fill="white"/>
<circle r="3.02348" transform="matrix(-0.999981 0.00621103 0.00621103 0.999981 178.685 384.954)" fill="white"/>
<circle r="3.02348" transform="matrix(-0.999981 0.00621103 0.00621103 0.999981 178.685 384.954)" fill="white"/>
<circle r="3.02348" transform="matrix(-0.999981 0.00621103 0.00621103 0.999981 178.685 384.954)" fill="white"/>
<path fill-rule="evenodd" clip-rule="evenodd" d="M136.993 280.433C133.885 280.453 131.35 278.07 131.332 275.111C131.313 272.152 133.818 269.738 136.927 269.719C140.035 269.699 142.57 272.082 142.588 275.041C142.606 278 140.101 280.414 136.993 280.433ZM136.98 278.485C135.002 278.497 133.389 276.981 133.377 275.098C133.366 273.215 134.96 271.679 136.938 271.666C138.916 271.654 140.529 273.171 140.541 275.053C140.552 276.936 138.958 278.473 136.98 278.485Z" fill="white"/>
<path fill-rule="evenodd" clip-rule="evenodd" d="M136.993 280.433C133.885 280.453 131.35 278.07 131.332 275.111C131.313 272.152 133.818 269.738 136.927 269.719C140.035 269.699 142.57 272.082 142.588 275.041C142.606 278 140.101 280.414 136.993 280.433ZM136.98 278.485C135.002 278.497 133.389 276.981 133.377 275.098C133.366 273.215 134.96 271.679 136.938 271.666C138.916 271.654 140.529 273.171 140.541 275.053C140.552 276.936 138.958 278.473 136.98 278.485Z" fill="white"/>
<path fill-rule="evenodd" clip-rule="evenodd" d="M136.993 280.433C133.885 280.453 131.35 278.07 131.332 275.111C131.313 272.152 133.818 269.738 136.927 269.719C140.035 269.699 142.57 272.082 142.588 275.041C142.606 278 140.101 280.414 136.993 280.433ZM136.98 278.485C135.002 278.497 133.389 276.981 133.377 275.098C133.366 273.215 134.96 271.679 136.938 271.666C138.916 271.654 140.529 273.171 140.541 275.053C140.552 276.936 138.958 278.473 136.98 278.485Z" fill="white"/>
<path fill-rule="evenodd" clip-rule="evenodd" d="M136.993 280.433C133.885 280.453 131.35 278.07 131.332 275.111C131.313 272.152 133.818 269.738 136.927 269.719C140.035 269.699 142.57 272.082 142.588 275.041C142.606 278 140.101 280.414 136.993 280.433ZM136.98 278.485C135.002 278.497 133.389 276.981 133.377 275.098C133.366 273.215 134.96 271.679 136.938 271.666C138.916 271.654 140.529 273.171 140.541 275.053C140.552 276.936 138.958 278.473 136.98 278.485Z" fill="white"/>
<path fill-rule="evenodd" clip-rule="evenodd" d="M229.105 430.945C226.619 430.961 224.591 429.055 224.576 426.688C224.562 424.321 226.565 422.389 229.052 422.374C231.539 422.358 233.567 424.265 233.581 426.632C233.596 428.999 231.592 430.93 229.105 430.945ZM229.095 429.387C227.513 429.397 226.223 428.184 226.213 426.678C226.204 425.171 227.479 423.942 229.062 423.932C230.644 423.922 231.934 425.136 231.944 426.642C231.953 428.148 230.678 429.377 229.095 429.387Z" fill="white"/>
<path fill-rule="evenodd" clip-rule="evenodd" d="M229.105 430.945C226.619 430.961 224.591 429.055 224.576 426.688C224.562 424.321 226.565 422.389 229.052 422.374C231.539 422.358 233.567 424.265 233.581 426.632C233.596 428.999 231.592 430.93 229.105 430.945ZM229.095 429.387C227.513 429.397 226.223 428.184 226.213 426.678C226.204 425.171 227.479 423.942 229.062 423.932C230.644 423.922 231.934 425.136 231.944 426.642C231.953 428.148 230.678 429.377 229.095 429.387Z" fill="white"/>
<path fill-rule="evenodd" clip-rule="evenodd" d="M229.105 430.945C226.619 430.961 224.591 429.055 224.576 426.688C224.562 424.321 226.565 422.389 229.052 422.374C231.539 422.358 233.567 424.265 233.581 426.632C233.596 428.999 231.592 430.93 229.105 430.945ZM229.095 429.387C227.513 429.397 226.223 428.184 226.213 426.678C226.204 425.171 227.479 423.942 229.062 423.932C230.644 423.922 231.934 425.136 231.944 426.642C231.953 428.148 230.678 429.377 229.095 429.387Z" fill="white"/>
<path fill-rule="evenodd" clip-rule="evenodd" d="M229.105 430.945C226.619 430.961 224.591 429.055 224.576 426.688C224.562 424.321 226.565 422.389 229.052 422.374C231.539 422.358 233.567 424.265 233.581 426.632C233.596 428.999 231.592 430.93 229.105 430.945ZM229.095 429.387C227.513 429.397 226.223 428.184 226.213 426.678C226.204 425.171 227.479 423.942 229.062 423.932C230.644 423.922 231.934 425.136 231.944 426.642C231.953 428.148 230.678 429.377 229.095 429.387Z" fill="white"/>
<circle r="2.01565" transform="matrix(-0.999981 0.00621103 0.00621103 0.999981 154.866 282.304)" fill="white"/>
<circle r="2.01565" transform="matrix(-0.999981 0.00621103 0.00621103 0.999981 154.866 282.304)" fill="white"/>
<circle r="2.01565" transform="matrix(-0.999981 0.00621103 0.00621103 0.999981 154.866 282.304)" fill="white"/>
<circle r="2.01565" transform="matrix(-0.999981 0.00621103 0.00621103 0.999981 154.866 282.304)" fill="white"/>
<circle r="2.01565" transform="matrix(-0.999981 0.00621103 0.00621103 0.999981 183.009 270.034)" fill="white"/>
<circle r="1.51174" transform="matrix(-0.999981 0.00621103 0.00621103 0.999981 184.173 376.355)" fill="white"/>
<path d="M280.137 492.166L284.188 495.351L284.55 553.674L280.539 556.91L280.781 595.97" stroke="white" stroke-width="1.00783"/>
<path d="M328.077 452.562L320.744 458.482L312.24 458.534L291.381 477.354L290.669 545.178L296.941 551.013L297.09 575.042L289.757 580.962L289.936 609.797L322.445 641.102L326.98 641.074L330.971 644.787L331.034 654.933L344.716 667.13" stroke="white" stroke-width="1.00783"/>
<path d="M324.223 450.568L318.727 454.888L310.444 454.939L287.936 476.506L288.425 555.248L284.579 558.486L284.898 609.909L319.905 644.51L321.571 646.107" stroke="white" stroke-width="2.01565"/>
<path d="M272.164 454.305L262.149 464.445" stroke="white" stroke-width="1.00783"/>
<path d="M233.825 500.515L233.921 516.08L261.068 542.21L261.428 600.174L346.818 681.226" stroke="white" stroke-width="3.02348"/>
<path d="M301.383 181.113L302.566 371.541L289.863 383.251L290.241 444.045L268.024 444.183L232.675 477.599L232.718 484.526L232.761 491.452" stroke="white" stroke-width="1.00783"/>
<path d="M342.257 361.767L309.749 391.923L310.615 440.593L324.707 440.505L343.415 457.505" stroke="white" stroke-width="1.51174"/>
<path d="M388.592 153.357L316.113 225.869L317.041 375.29L302.677 389.22L303.028 445.645L321.524 445.53L342.451 464.565" stroke="white" stroke-width="4.03131"/>
<path d="M372.5 159.002L309.902 220.869L310.418 303.944L310.847 373.067L296.85 386.506L297.235 448.456L237.891 505.97L237.947 515.048L265.707 541.045L266.062 598.188L273.426 605.086" stroke="white" stroke-width="2.01565"/>
<path d="M299.053 454.758L268.689 483.791L268.785 499.281L258.095 508.428L243.955 508.516" stroke="white" stroke-width="1.00783"/>
<circle r="2.01565" transform="matrix(-0.999981 0.00621102 0.00621102 0.999981 273.071 453.235)" fill="white"/>
<circle r="2.01565" transform="matrix(-0.999981 0.00621102 0.00621102 0.999981 273.071 453.235)" fill="white"/>
<circle r="2.01565" transform="matrix(-0.999981 0.00621102 0.00621102 0.999981 273.071 453.235)" fill="white"/>
<circle r="2.01565" transform="matrix(-0.999981 0.00621102 0.00621102 0.999981 273.071 453.235)" fill="white"/>
<circle r="2.01565" transform="matrix(-0.999981 0.00621102 0.00621102 0.999981 262.155 465.454)" fill="white"/>
<circle r="2.01565" transform="matrix(-0.999981 0.00621102 0.00621102 0.999981 262.155 465.454)" fill="white"/>
<circle r="2.01565" transform="matrix(-0.999981 0.00621102 0.00621102 0.999981 262.155 465.454)" fill="white"/>
<circle r="2.01565" transform="matrix(-0.999981 0.00621102 0.00621102 0.999981 262.155 465.454)" fill="white"/>
<path d="M280.129 453.695L270.212 464.397" stroke="white" stroke-width="1.00783"/>
<circle r="2.01565" transform="matrix(-0.999981 0.00621102 0.00621102 0.999981 280.124 453.19)" fill="white"/>
<circle r="2.01565" transform="matrix(-0.999981 0.00621102 0.00621102 0.999981 280.124 453.19)" fill="white"/>
<circle r="2.01565" transform="matrix(-0.999981 0.00621102 0.00621102 0.999981 280.124 453.19)" fill="white"/>
<circle r="2.01565" transform="matrix(-0.999981 0.00621102 0.00621102 0.999981 280.124 453.19)" fill="white"/>
<circle r="2.01565" transform="matrix(-0.999981 0.00621102 0.00621102 0.999981 269.21 465.411)" fill="white"/>
<circle r="2.01565" transform="matrix(-0.999981 0.00621102 0.00621102 0.999981 269.21 465.411)" fill="white"/>
<circle r="2.01565" transform="matrix(-0.999981 0.00621102 0.00621102 0.999981 269.21 465.411)" fill="white"/>
<circle r="2.01565" transform="matrix(-0.999981 0.00621102 0.00621102 0.999981 269.21 465.411)" fill="white"/>
<path d="M265.109 454.35L255.094 464.49" stroke="white" stroke-width="1.00783"/>
<circle r="2.01565" transform="matrix(-0.999981 0.00621102 0.00621102 0.999981 266.112 453.335)" fill="white"/>
<circle r="2.01565" transform="matrix(-0.999981 0.00621102 0.00621102 0.999981 266.112 453.335)" fill="white"/>
<circle r="2.01565" transform="matrix(-0.999981 0.00621102 0.00621102 0.999981 266.112 453.335)" fill="white"/>
<circle r="2.01565" transform="matrix(-0.999981 0.00621102 0.00621102 0.999981 266.112 453.335)" fill="white"/>
<circle r="2.01565" transform="matrix(-0.999981 0.00621102 0.00621102 0.999981 255.007 465.44)" fill="white"/>
<circle r="2.01565" transform="matrix(-0.999981 0.00621102 0.00621102 0.999981 255.007 465.44)" fill="white"/>
<circle r="2.01565" transform="matrix(-0.999981 0.00621102 0.00621102 0.999981 255.007 465.44)" fill="white"/>
<circle r="2.01565" transform="matrix(-0.999981 0.00621102 0.00621102 0.999981 255.007 465.44)" fill="white"/>
<path d="M263.002 492.271L251.979 502.418" stroke="white" stroke-width="1.00783"/>
<circle r="2.01565" transform="matrix(-0.999981 0.00621103 0.00621103 0.999981 264.003 491.257)" fill="white"/>
<circle r="2.01565" transform="matrix(-0.999981 0.00621103 0.00621103 0.999981 264.003 491.257)" fill="white"/>
<circle r="2.01565" transform="matrix(-0.999981 0.00621103 0.00621103 0.999981 264.003 491.257)" fill="white"/>
<circle r="2.01565" transform="matrix(-0.999981 0.00621103 0.00621103 0.999981 264.003 491.257)" fill="white"/>
<circle r="2.01565" transform="matrix(-0.999981 0.00621103 0.00621103 0.999981 300.054 453.743)" fill="white"/>
<circle r="2.01565" transform="matrix(-0.999981 0.00621103 0.00621103 0.999981 300.054 453.743)" fill="white"/>
<circle r="2.01565" transform="matrix(-0.999981 0.00621103 0.00621103 0.999981 300.054 453.743)" fill="white"/>
<circle r="2.01565" transform="matrix(-0.999981 0.00621103 0.00621103 0.999981 300.054 453.743)" fill="white"/>
<circle r="2.01565" transform="matrix(-0.999981 0.00621103 0.00621103 0.999981 243.954 508.516)" fill="white"/>
<circle r="2.01565" transform="matrix(-0.999981 0.00621103 0.00621103 0.999981 243.954 508.516)" fill="white"/>
<circle r="2.01565" transform="matrix(-0.999981 0.00621103 0.00621103 0.999981 243.954 508.516)" fill="white"/>
<circle r="2.01565" transform="matrix(-0.999981 0.00621103 0.00621103 0.999981 243.954 508.516)" fill="white"/>
<path fill-rule="evenodd" clip-rule="evenodd" d="M233.136 501.812C230.027 501.832 227.493 499.449 227.474 496.49C227.456 493.531 229.961 491.117 233.069 491.097C236.177 491.078 238.712 493.461 238.731 496.42C238.749 499.379 236.244 501.793 233.136 501.812ZM233.123 499.864C231.145 499.876 229.532 498.36 229.52 496.477C229.508 494.594 231.102 493.058 233.08 493.045C235.058 493.033 236.671 494.549 236.683 496.432C236.695 498.315 235.101 499.851 233.123 499.864Z" fill="white"/>
<path fill-rule="evenodd" clip-rule="evenodd" d="M233.136 501.812C230.027 501.832 227.493 499.449 227.474 496.49C227.456 493.531 229.961 491.117 233.069 491.097C236.177 491.078 238.712 493.461 238.731 496.42C238.749 499.379 236.244 501.793 233.136 501.812ZM233.123 499.864C231.145 499.876 229.532 498.36 229.52 496.477C229.508 494.594 231.102 493.058 233.08 493.045C235.058 493.033 236.671 494.549 236.683 496.432C236.695 498.315 235.101 499.851 233.123 499.864Z" fill="white"/>
<path fill-rule="evenodd" clip-rule="evenodd" d="M233.136 501.812C230.027 501.832 227.493 499.449 227.474 496.49C227.456 493.531 229.961 491.117 233.069 491.097C236.177 491.078 238.712 493.461 238.731 496.42C238.749 499.379 236.244 501.793 233.136 501.812ZM233.123 499.864C231.145 499.876 229.532 498.36 229.52 496.477C229.508 494.594 231.102 493.058 233.08 493.045C235.058 493.033 236.671 494.549 236.683 496.432C236.695 498.315 235.101 499.851 233.123 499.864Z" fill="white"/>
<path fill-rule="evenodd" clip-rule="evenodd" d="M233.136 501.812C230.027 501.832 227.493 499.449 227.474 496.49C227.456 493.531 229.961 491.117 233.069 491.097C236.177 491.078 238.712 493.461 238.731 496.42C238.749 499.379 236.244 501.793 233.136 501.812ZM233.123 499.864C231.145 499.876 229.532 498.36 229.52 496.477C229.508 494.594 231.102 493.058 233.08 493.045C235.058 493.033 236.671 494.549 236.683 496.432C236.695 498.315 235.101 499.851 233.123 499.864Z" fill="white"/>
<ellipse rx="2.51957" ry="2.01565" transform="matrix(-0.999981 0.00621103 0.00621103 0.999981 250.473 503.434)" fill="white"/>
<ellipse rx="2.51957" ry="2.01565" transform="matrix(-0.999981 0.00621103 0.00621103 0.999981 250.473 503.434)" fill="white"/>
<ellipse rx="2.51957" ry="2.01565" transform="matrix(-0.999981 0.00621103 0.00621103 0.999981 250.473 503.434)" fill="white"/>
<ellipse rx="2.51957" ry="2.01565" transform="matrix(-0.999981 0.00621103 0.00621103 0.999981 250.473 503.434)" fill="white"/>
<circle r="2.01565" transform="matrix(-0.999981 0.00621103 0.00621103 0.999981 280.13 491.157)" fill="white"/>
<path d="M276.404 345.537C277.87 347.048 280.438 349.939 280.959 351.325C281.703 353.301 281.076 355.316 279.625 356.723C278.462 357.85 276.731 358.473 274.898 358.138C274.186 358.008 273.209 357.665 272.239 356.846C271.764 356.446 270.814 355.375 269.717 354.14" stroke="white" stroke-width="1.15795" stroke-linecap="round"/>
<path d="M220.245 342.679L219.965 343.038C219.894 343.13 219.825 343.224 219.76 343.321C218.192 345.638 218.797 348.783 221.107 350.345C222.277 351.137 223.659 351.371 224.944 351.109L225.772 350.941L225.63 351.774C225.135 354.681 226.326 357.739 228.921 359.494C231.035 360.924 233.604 361.168 235.844 360.376L236.202 360.249L236.461 360.527C236.617 360.694 236.782 360.854 236.956 361.006C236.956 361.006 236.956 361.006 236.957 361.006L236.576 361.443C236.671 361.525 236.767 361.605 236.867 361.683C237 361.788 237.139 361.889 237.282 361.986C239.954 363.794 243.405 363.57 245.814 361.668L220.245 342.679ZM220.245 342.679L219.962 342.322C217.378 339.072 217.075 334.39 219.529 330.762C219.96 330.124 220.453 329.554 220.994 329.053L221.307 328.763L221.123 328.379C220.373 326.81 220.453 324.896 221.498 323.351C222.112 322.443 222.967 321.798 223.92 321.443L224.672 321.162L224.168 320.537C223.351 319.525 223.252 318.059 224.019 316.924C224.961 315.531 226.85 315.166 228.238 316.105C228.997 316.618 229.449 317.415 229.55 318.262L229.597 318.667L229.995 318.758C230.347 318.839 230.692 318.985 231.01 319.2M220.245 342.679L231.01 319.2M231.01 319.2L231.052 319.229L231.053 319.229L231.075 319.245C231.121 319.278 231.165 319.312 231.21 319.347L231.212 319.348C231.236 319.367 231.26 319.387 231.285 319.409L231.288 319.411C231.315 319.435 231.343 319.459 231.371 319.485L231.01 319.2Z" fill="#77A78B" stroke="white" stroke-width="1.15795"/>
<circle cx="275.291" cy="349.455" r="0.628442" transform="rotate(34.0767 275.291 349.455)" fill="white"/>
<path d="M206.521 446.795C207.945 446.222 210.604 445.285 211.683 445.316C213.221 445.359 214.409 446.337 214.958 447.704C215.398 448.8 215.342 450.139 214.611 451.284C214.326 451.729 213.826 452.294 213.006 452.723C212.605 452.933 211.62 453.279 210.485 453.679" stroke="white" stroke-width="0.972789" stroke-linecap="round"/>
<path d="M189.15 483.831L189.34 484.163C189.381 484.235 189.425 484.306 189.472 484.376C190.584 486.043 192.833 486.493 194.495 485.384C195.336 484.823 195.866 483.97 196.04 483.047L196.172 482.349L196.775 482.725C198.58 483.847 200.944 483.885 202.822 482.632C204.352 481.611 205.215 479.964 205.296 478.253L205.312 477.935L205.61 477.822C205.763 477.764 205.915 477.697 206.064 477.622L189.15 483.831ZM189.15 483.831L188.782 483.938M189.15 483.831L188.782 483.938M188.782 483.938C185.902 484.779 182.689 483.703 180.933 481.071C180.624 480.608 180.377 480.123 180.19 479.624L180.064 479.289M188.782 483.938L180.064 479.289M180.064 479.289L179.706 479.31M180.064 479.289L179.706 479.31M179.706 479.31C178.463 479.383 177.215 478.811 176.474 477.7C176.038 477.047 175.842 476.305 175.864 475.577L175.885 474.903M179.706 479.31L175.885 474.903M175.885 474.903L175.238 475.097M175.885 474.903L175.238 475.097M175.238 475.097C174.357 475.361 173.369 475.034 172.831 474.227C172.17 473.237 172.437 471.902 173.423 471.244C173.962 470.884 174.605 470.8 175.187 470.961L175.517 471.053M175.238 475.097L175.517 471.053M175.517 471.053L175.715 470.773M175.517 471.053L175.715 470.773M175.715 470.773C175.862 470.563 176.049 470.377 176.276 470.226L176.306 470.206L176.307 470.206M175.715 470.773L176.307 470.206M176.307 470.206L176.323 470.195C176.356 470.174 176.391 470.154 176.426 470.134L176.427 470.133M176.307 470.206L176.427 470.133M176.427 470.133C176.446 470.123 176.465 470.112 176.486 470.101L176.489 470.1M176.427 470.133L176.489 470.1M176.489 470.1C176.511 470.089 176.535 470.077 176.56 470.065L176.352 469.625L176.559 470.065C176.655 470.02 176.754 469.983 176.853 469.953L177.325 469.812M176.489 470.1L177.325 469.812M177.325 469.812L177.178 469.342M177.325 469.812L177.178 469.342M177.178 469.342C176.535 467.288 177.285 464.977 179.16 463.726C179.553 463.464 179.97 463.265 180.397 463.128L180.807 462.996M177.178 469.342L180.807 462.996M180.807 462.996L180.726 462.573M180.807 462.996L180.726 462.573M180.726 462.573C180.22 459.938 181.289 457.14 183.655 455.561C184.638 454.906 185.727 454.538 186.825 454.437L187.087 454.413M180.726 462.573L187.087 454.413M187.087 454.413L187.21 454.179M187.087 454.413L187.21 454.179M187.21 454.179C187.725 453.204 188.483 452.34 189.465 451.685C191.313 450.452 193.542 450.235 195.497 450.903L195.963 451.062M187.21 454.179L195.963 451.062M195.963 451.062L196.116 450.594M195.963 451.062L196.116 450.594M196.116 450.594C196.377 449.803 196.893 449.09 197.64 448.592C198.446 448.054 199.379 447.86 200.271 447.975L200.674 448.027M196.116 450.594L200.674 448.027M200.674 448.027L200.797 447.639M200.674 448.027L200.797 447.639M200.797 447.639C200.976 447.075 201.34 446.566 201.87 446.212C202.328 445.907 202.844 445.76 203.355 445.759L203.722 445.758M200.797 447.639L203.722 445.758M203.722 445.758L203.821 445.405M203.722 445.758L203.821 445.405M203.821 445.405C203.929 445.024 204.166 444.68 204.52 444.444C205.309 443.918 206.378 444.131 206.907 444.923C207.436 445.716 207.222 446.785 206.433 447.311C206.381 447.346 206.327 447.378 206.272 447.407L205.949 447.576M203.821 445.405L205.949 447.576M205.949 447.576L206.021 447.934M205.949 447.576L206.021 447.934M206.021 447.934C206.15 448.579 206.039 449.252 205.713 449.818L205.498 450.192M206.021 447.934L205.498 450.192M205.498 450.192L205.843 450.451M205.498 450.192L205.843 450.451M205.843 450.451C206.082 450.63 206.296 450.852 206.473 451.117C206.886 451.736 207.011 452.462 206.878 453.139L206.808 453.499M205.843 450.451L206.808 453.499M206.808 453.499L207.134 453.666M206.808 453.499L207.134 453.666M207.134 453.666C208.126 454.172 209.042 454.968 209.743 456.019C210.902 457.756 211.189 459.759 210.714 461.402L210.624 461.715M207.134 453.666L210.624 461.715M210.624 461.715L210.879 461.918M210.624 461.715L210.879 461.918M210.879 461.918C211.289 462.244 211.656 462.638 211.963 463.098C213.545 465.47 212.908 468.671 210.543 470.249C209.979 470.625 209.37 470.875 208.746 471.006L208.19 471.122M210.879 461.918L208.19 471.122M208.19 471.122L208.391 471.654M208.19 471.122L208.391 471.654M208.391 471.654C209.163 473.694 208.46 476.067 206.573 477.326C206.478 477.389 206.381 477.449 206.284 477.504L206.284 477.504M208.391 471.654L206.284 477.504M206.284 477.504C206.211 477.545 206.138 477.585 206.064 477.622L206.284 477.504Z" fill="#77A78B" stroke="white" stroke-width="0.972789"/>
<circle cx="208.858" cy="448.623" r="0.458115" transform="rotate(-33.7117 208.858 448.623)" fill="white"/>
<path d="M156.914 178.561C158.991 178.092 162.841 177.398 164.312 177.678C166.411 178.078 167.82 179.682 168.27 181.676C168.63 183.275 168.255 185.097 167 186.503C166.512 187.05 165.701 187.713 164.483 188.118C163.887 188.317 162.461 188.573 160.817 188.869" stroke="white" stroke-width="1.25571" stroke-linecap="round"/>
<path d="M124.873 225.497L125.047 225.959C125.088 226.068 125.133 226.176 125.182 226.283C126.347 228.837 129.356 229.962 131.901 228.801C133.19 228.213 134.114 227.153 134.561 225.915L134.873 225.053L135.564 225.656C137.801 227.606 141.052 228.185 143.919 226.877C146.256 225.812 147.812 223.734 148.306 221.394L148.391 220.991L148.794 220.909C149.019 220.863 149.243 220.805 149.465 220.735C149.465 220.735 149.465 220.735 149.465 220.735L149.655 221.333C149.775 221.295 149.895 221.254 150.015 221.209L124.873 225.497ZM124.873 225.497L124.382 225.558C120.232 226.073 116.048 223.876 114.217 219.862C113.895 219.156 113.663 218.433 113.517 217.706L113.426 217.252L112.965 217.205C111.23 217.027 109.633 215.958 108.856 214.256C108.4 213.255 108.295 212.186 108.488 211.184L108.653 210.329L107.79 210.443C106.504 210.612 105.203 209.934 104.636 208.691C103.94 207.164 104.611 205.366 106.131 204.673C106.963 204.293 107.877 204.322 108.65 204.677L109.052 204.861L109.361 204.545C109.614 204.287 109.917 204.07 110.265 203.911L124.873 225.497ZM135.666 226.543C138.049 228.311 141.293 228.765 144.18 227.448C146.706 226.296 148.387 224.05 148.92 221.524L135.666 226.543ZM135.666 226.543C135.692 226.476 135.718 226.41 135.742 226.342L135.152 226.129M135.666 226.543L135.152 226.129M135.152 226.129L134.739 226.602C134.79 226.646 134.841 226.69 134.893 226.733M135.152 226.129L134.893 226.733M134.893 226.733C134.332 227.861 133.396 228.81 132.162 229.372C129.3 230.678 125.919 229.412 124.611 226.544C124.556 226.423 124.506 226.302 124.46 226.181C120.044 226.729 115.593 224.393 113.646 220.123C113.304 219.373 113.057 218.604 112.901 217.829L134.893 226.733Z" fill="#77A78B" stroke="white" stroke-width="1.25571"/>
<circle cx="159.709" cy="181.584" r="0.635726" transform="rotate(-24.5186 159.709 181.584)" fill="white"/>
<path d="M43.2656 384.057C43.9461 382.018 45.3575 378.331 46.368 377.207C47.8096 375.604 49.9305 375.225 51.8876 375.878C53.4561 376.402 54.8344 377.678 55.3928 379.495C55.6099 380.202 55.7589 381.249 55.4728 382.513C55.3328 383.132 54.8097 384.496 54.2064 386.071" stroke="white" stroke-width="1.16451" stroke-linecap="round"/>
<path d="M67.5414 436.383L67.0906 436.299L66.9035 436.718C65.1715 440.591 61.0679 443.07 56.6225 442.551C55.8409 442.46 55.0916 442.282 54.383 442.027L53.9792 441.881L53.7209 442.224C52.6506 443.644 50.8756 444.473 48.9808 444.252C47.8673 444.122 46.8792 443.65 46.1079 442.953L45.5085 442.411L45.1842 443.151C44.65 444.37 43.3641 445.152 41.9706 444.99C40.2609 444.79 39.0383 443.246 39.2369 441.543C39.3456 440.611 39.8563 439.823 40.5787 439.333L40.9179 439.103L40.8154 438.706C40.7229 438.347 40.693 437.965 40.7382 437.574L40.7448 437.523L40.7449 437.522L40.7485 437.494C40.7565 437.438 40.7663 437.381 40.7774 437.324L40.7779 437.322C40.7838 437.291 40.7907 437.259 40.7986 437.226L40.7993 437.223C40.8076 437.187 40.8169 437.15 40.8272 437.112C40.8675 436.964 40.9184 436.82 40.9788 436.683L41.2154 436.143L40.6729 435.913C37.8591 434.719 36.0472 431.783 36.4181 428.601C36.4958 427.935 36.664 427.302 36.9087 426.712L37.1064 426.236L36.6576 425.982C33.3526 424.113 31.316 420.397 31.7821 416.399C31.9756 414.739 32.5768 413.228 33.474 411.951L33.6554 411.693L33.5382 411.4C32.9588 409.951 32.7214 408.342 32.9148 406.683C33.2788 403.561 35.087 400.959 37.5988 399.463L38.1049 399.162L37.7976 398.659C37.1778 397.645 36.8803 396.426 37.0285 395.155C37.1885 393.782 37.84 392.588 38.7883 391.725L39.148 391.397L38.8897 390.985C38.4379 390.264 38.2197 389.392 38.3258 388.481C38.4174 387.696 38.7371 386.995 39.2112 386.433L39.4946 386.098L39.2498 385.733C38.9288 385.255 38.7707 384.666 38.8425 384.05C39.0027 382.675 40.2491 381.69 41.6286 381.851C43.008 382.011 43.9942 383.257 43.834 384.631C43.8234 384.723 43.8079 384.813 43.7881 384.901L43.6916 385.327L44.0737 385.538C44.9011 385.997 45.5339 386.745 45.8509 387.63L46.0251 388.115L46.5283 388.001C46.9475 387.905 47.3904 387.878 47.8438 387.931C48.9068 388.055 49.8179 388.595 50.436 389.369L50.7097 389.713L51.1149 389.544C52.5708 388.938 54.2672 388.68 56.0414 388.887C58.973 389.229 61.398 390.754 62.7386 392.777L62.954 393.102L63.3366 393.027C64.0657 392.883 64.8295 392.849 65.609 392.94C69.6292 393.408 72.5074 397.041 72.0399 401.051C71.9286 402.006 71.6379 402.895 71.2058 403.69L70.8808 404.288L71.5217 404.516C74.4417 405.558 76.3643 408.502 75.9909 411.705C75.9721 411.867 75.9479 412.026 75.9182 412.182L75.9181 412.183C75.8961 412.299 75.8711 412.415 75.8433 412.529C75.7876 412.76 75.72 412.985 75.6416 413.205L75.5136 413.565L75.7924 413.825C77.566 415.484 78.5542 417.929 78.2521 420.521C77.8813 423.701 75.6685 426.222 72.7975 427.141L71.9877 427.4L72.5222 428.061C73.3653 429.104 73.8033 430.469 73.636 431.904C73.3057 434.737 70.7363 436.768 67.8948 436.436C67.7755 436.422 67.6576 436.405 67.5414 436.383Z" fill="#77A78B" stroke="white" stroke-width="1.16451"/>
<circle cx="47.3366" cy="383.222" r="0.6416" transform="rotate(-83.3502 47.3366 383.222)" fill="white"/>
<path fill-rule="evenodd" clip-rule="evenodd" d="M359.819 -2.23577L-5.17383 0.03125L-1.98757 513.021L363.005 510.754L359.819 -2.23577ZM42.2131 22.8208C42.2889 35.0272 32.3545 45.1343 19.534 46.4644L22.1478 467.287C34.9838 468.458 45.043 478.441 45.1189 490.647C45.1211 491.009 45.1145 491.37 45.0993 491.729L318.473 490.031C318.454 489.672 318.443 489.311 318.44 488.948C318.363 476.551 328.612 466.319 341.722 465.249L339.109 44.5315C325.986 43.6236 315.612 33.52 315.535 21.1229C315.532 20.7599 315.539 20.3987 315.554 20.0396L42.18 21.7376C42.1998 22.0965 42.2109 22.4577 42.2131 22.8208Z" fill="#77A78B"/>
<mask id="path-107-inside-1_626_3874" fill="white">
<path fill-rule="evenodd" clip-rule="evenodd" d="M20.0916 42.6934C32.8761 41.3521 42.7821 31.1507 42.7055 18.8293C42.7033 18.4628 42.6922 18.0982 42.6725 17.7357L315.268 16.0426C315.253 16.4053 315.246 16.77 315.248 17.1366C315.326 29.6499 325.672 39.849 338.757 40.7667L341.395 465.433C328.322 466.514 318.104 476.84 318.181 489.354C318.184 489.72 318.195 490.084 318.214 490.446L45.6191 492.139C45.6343 491.777 45.6408 491.413 45.6385 491.048C45.562 478.726 35.53 468.649 22.73 467.466L20.0916 42.6934Z"/>
</mask>
<path d="M20.0916 42.6934L19.9041 40.9062L18.2845 41.0761L18.2947 42.7045L20.0916 42.6934ZM42.6725 17.7357L42.6613 15.9388L40.7757 15.9505L40.8781 17.8333L42.6725 17.7357ZM315.268 16.0426L317.063 16.1179L317.142 14.2339L315.257 14.2456L315.268 16.0426ZM338.757 40.7667L340.554 40.7555L340.544 39.0905L338.883 38.9741L338.757 40.7667ZM341.395 465.433L341.543 467.224L343.202 467.087L343.192 465.422L341.395 465.433ZM318.214 490.446L318.226 492.243L320.111 492.232L320.009 490.349L318.214 490.446ZM45.6191 492.139L43.8237 492.064L43.7448 493.948L45.6303 493.936L45.6191 492.139ZM22.73 467.466L20.933 467.477L20.9431 469.106L22.5647 469.256L22.73 467.466ZM40.9086 18.8405C40.9787 30.1356 31.8747 39.6503 19.9041 40.9062L20.2791 44.4806C33.8774 43.054 44.5854 32.1658 44.5025 18.8182L40.9086 18.8405ZM40.8781 17.8333C40.8962 18.167 40.9065 18.5028 40.9086 18.8405L44.5025 18.8182C44.5001 18.4228 44.4881 18.0293 44.4668 17.6382L40.8781 17.8333ZM315.257 14.2456L42.6613 15.9388L42.6836 19.5327L315.279 17.8396L315.257 14.2456ZM317.045 17.1255C317.043 16.7877 317.049 16.4518 317.063 16.1179L313.472 15.9673C313.456 16.3588 313.449 16.7524 313.451 17.1478L317.045 17.1255ZM338.883 38.9741C326.628 38.1146 317.117 28.5958 317.045 17.1255L313.451 17.1478C313.536 30.704 324.716 41.5834 338.631 42.5593L338.883 38.9741ZM343.192 465.422L340.554 40.7555L336.96 40.7778L339.598 465.445L343.192 465.422ZM319.978 489.343C319.907 477.872 329.299 468.236 341.543 467.224L341.247 463.643C327.345 464.791 316.3 475.809 316.384 489.365L319.978 489.343ZM320.009 490.349C319.991 490.015 319.981 489.68 319.978 489.343L316.384 489.365C316.387 489.76 316.399 490.153 316.42 490.544L320.009 490.349ZM45.6303 493.936L318.226 492.243L318.203 488.649L45.6079 490.342L45.6303 493.936ZM43.8415 491.059C43.8436 491.396 43.8376 491.731 43.8237 492.064L47.4146 492.214C47.4309 491.824 47.4379 491.431 47.4355 491.036L43.8415 491.059ZM22.5647 469.256C34.5499 470.363 43.7714 479.764 43.8415 491.059L47.4355 491.036C47.3526 477.689 36.5102 466.934 22.8952 465.677L22.5647 469.256ZM18.2947 42.7045L20.933 467.477L24.5269 467.455L21.8886 42.6822L18.2947 42.7045Z" fill="white" mask="url(#path-107-inside-1_626_3874)"/>
<rect x="340.695" y="35.1738" width="23.18" height="342.661" transform="rotate(-0.355868 340.695 35.1738)" fill="#77A78B"/>
<rect x="-2.56055" y="102.816" width="23.18" height="342.661" transform="rotate(-0.355868 -2.56055 102.816)" fill="#77A78B"/>
<path d="M301.52 218.342L301.89 277.803L244.949 278.157L244.765 248.627L261.145 231.036L261.148 231.033L273.013 218.519L301.52 218.342Z" stroke="white" stroke-width="1.00783"/>
<path d="M250.811 248.391L274.348 224.56" stroke="white" stroke-width="1.00783"/>
<path d="M255.348 248.863L278.885 225.033" stroke="white" stroke-width="1.00783"/>
<path d="M260.387 248.832L283.924 225.001" stroke="white" stroke-width="1.00783"/>
<path d="M40.666 328.305L95.4225 381.884" stroke="white" stroke-width="1.00783"/>
<path d="M50.1484 313.129L77.5267 339.919L75.1402 361.35" stroke="white" stroke-width="1.00783"/>
<path d="M203.359 397.34L290.031 396.802" stroke="white" stroke-width="1.00783"/>
<path d="M281.973 397.355L282.095 417.008L290.201 424.011" stroke="white" stroke-width="1.00783"/>
<path d="M277.438 397.383L277.722 443.238" stroke="white" stroke-width="1.00783"/>
<path d="M277.585 421.573L269.019 421.626L268.947 410.035L256.268 397.012" stroke="white" stroke-width="1.00783"/>
<rect x="23" y="498" width="305" height="23" fill="#77A78B"/>
</g>
<defs>
<clipPath id="clip0_626_3874">
<rect width="363.946" height="515.03" fill="white"/>
</clipPath>
</defs>
</svg>
