<svg width="431" height="626" viewBox="0 0 431 626" fill="none" xmlns="http://www.w3.org/2000/svg">
<g clip-path="url(#clip0_526_2174)">
<rect width="362.509" height="512.996" transform="translate(116.498) rotate(30)" fill="#DA5125"/>
<mask id="path-1-inside-1_526_2174" fill="white">
<path fill-rule="evenodd" clip-rule="evenodd" d="M113.147 44.8006C125.057 50.1941 138.994 46.3323 145.26 35.4792C145.446 35.1565 145.624 34.831 145.793 34.503L385.912 173.136C385.712 173.446 385.519 173.763 385.333 174.085C378.969 185.109 382.807 199.379 393.821 206.91L177.849 580.985C165.82 575.212 151.543 579.023 145.178 590.046C144.992 590.368 144.814 590.694 144.646 591.022L-95.4737 452.389C-95.2741 452.079 -95.081 451.762 -94.8947 451.439C-88.6287 440.586 -92.2529 426.585 -102.879 418.968L113.147 44.8006Z"/>
</mask>
<path d="M113.147 44.8006L113.901 43.1356L112.392 42.4524L111.564 43.8868L113.147 44.8006ZM145.793 34.503L146.707 32.9201L145.046 31.9612L144.168 33.6663L145.793 34.503ZM385.912 173.136L387.449 174.125L388.487 172.512L386.826 171.553L385.912 173.136ZM393.821 206.91L395.404 207.824L396.251 206.357L394.853 205.401L393.821 206.91ZM177.849 580.985L177.059 582.632L178.586 583.365L179.432 581.898L177.849 580.985ZM144.646 591.022L143.732 592.605L145.393 593.564L146.271 591.859L144.646 591.022ZM-95.4737 452.389L-97.0108 451.4L-98.0485 453.013L-96.3876 453.972L-95.4737 452.389ZM-102.879 418.968L-104.461 418.054L-105.29 419.489L-103.943 420.454L-102.879 418.968ZM143.677 34.5653C137.933 44.5144 125.053 48.1857 113.901 43.1356L112.393 46.4656C125.061 52.2024 140.055 48.1501 146.843 36.3931L143.677 34.5653ZM144.168 33.6663C144.012 33.9682 143.849 34.268 143.677 34.5653L146.843 36.3931C147.044 36.045 147.236 35.6938 147.418 35.3397L144.168 33.6663ZM386.826 171.553L146.707 32.9201L144.879 36.0859L384.998 174.719L386.826 171.553ZM386.916 174.999C387.088 174.702 387.265 174.411 387.449 174.125L384.375 172.147C384.16 172.482 383.951 172.823 383.75 173.172L386.916 174.999ZM394.853 205.401C384.538 198.348 381.082 185.104 386.916 174.999L383.75 173.172C376.856 185.113 381.077 200.41 392.79 208.419L394.853 205.401ZM179.432 581.898L395.404 207.824L392.239 205.996L176.266 580.071L179.432 581.898ZM146.761 590.96C152.595 580.855 165.792 577.226 177.059 582.632L178.64 579.337C165.848 573.197 150.49 577.19 143.595 589.132L146.761 590.96ZM146.271 591.859C146.426 591.557 146.59 591.257 146.761 590.96L143.595 589.132C143.394 589.48 143.203 589.831 143.021 590.185L146.271 591.859ZM-96.3876 453.972L143.732 592.605L145.559 589.439L-94.5598 450.806L-96.3876 453.972ZM-96.4776 450.526C-96.6492 450.823 -96.8271 451.114 -97.0108 451.4L-93.9366 453.378C-93.7211 453.043 -93.5128 452.701 -93.3118 452.353L-96.4776 450.526ZM-103.943 420.454C-93.9943 427.586 -90.7335 440.576 -96.4776 450.526L-93.3118 452.353C-86.5239 440.596 -90.5115 425.585 -101.814 417.483L-103.943 420.454ZM111.564 43.8868L-104.461 418.054L-101.296 419.882L114.73 45.7145L111.564 43.8868Z" fill="white" mask="url(#path-1-inside-1_526_2174)"/>
<path d="M149.635 98.9116C149.526 98.8484 149.438 98.7489 149.371 98.6129C149.303 98.4769 149.325 98.3556 149.435 98.2491C149.584 98.1167 149.758 98.047 149.956 98.0401C150.165 98.0149 150.371 98.0367 150.575 98.1054C151.416 98.3728 152.068 98.5062 152.53 98.5056C153.021 98.4973 153.52 98.2634 154.029 97.8037L164.37 88.2866C165.319 87.4009 165.868 86.807 166.018 86.5049C166.187 86.2134 166.107 85.973 165.779 85.7836L164.713 85.1682C164.112 84.821 163.392 84.6364 162.555 84.6145C161.735 84.603 160.952 84.6973 160.205 84.8976C160.003 84.9515 159.707 85.0232 159.315 85.1128C158.941 85.2129 158.565 85.2752 158.187 85.2996C157.826 85.3346 157.546 85.2942 157.346 85.1784C157.182 85.0838 157.117 84.9856 157.151 84.884C157.196 84.7641 157.265 84.6457 157.356 84.5287C157.456 84.4404 157.579 84.3535 157.726 84.268C157.883 84.1644 158.038 84.0841 158.192 84.0274C159.193 83.6822 159.992 83.3295 160.589 82.9694C161.186 82.6093 161.806 82.1658 162.45 81.6389C162.689 81.4364 162.903 81.3173 163.094 81.2817C163.303 81.2565 163.498 81.2965 163.681 81.4017C163.881 81.5174 164.038 81.7295 164.151 82.038C164.294 82.3387 164.419 82.6055 164.528 82.8382C164.647 83.0527 164.757 83.262 164.857 83.466C164.987 83.6623 165.195 83.8916 165.481 84.1538C165.777 84.3978 166.235 84.6987 166.855 85.0564L173.949 89.116C174.751 89.5789 175.386 89.9093 175.855 90.1071C176.342 90.3154 176.707 90.441 176.95 90.4838C177.21 90.5372 177.397 90.5719 177.509 90.5881C177.994 90.6738 178.427 90.6809 178.808 90.6095C179.208 90.5487 179.526 90.5866 179.763 90.7234C180.018 90.8707 180.007 91.0585 179.729 91.2869C179.669 91.3493 179.594 91.4155 179.505 91.4856C179.416 91.5556 179.318 91.6205 179.211 91.68C178.46 92.0968 177.78 92.5179 177.17 92.9431C176.56 93.3684 175.956 93.8459 175.359 94.3756C175.06 94.6405 174.803 94.8325 174.589 94.9515C174.385 95.0524 174.192 95.0503 174.009 94.9451C173.827 94.8399 173.747 94.6842 173.769 94.4782C173.809 94.2826 173.93 93.9882 174.133 93.5951C174.535 92.8557 174.701 92.2106 174.631 91.6596C174.56 91.1086 174.133 90.607 173.35 90.1546L172.284 89.5392C171.992 89.3709 171.709 89.2926 171.435 89.3045C171.161 89.3163 170.837 89.4571 170.463 89.7268C170.117 89.9889 169.645 90.3848 169.048 90.9145L158.691 100.459C158.232 100.875 158.044 101.264 158.126 101.627C158.218 101.972 158.535 102.434 159.075 103.013C159.189 103.152 159.271 103.284 159.32 103.409C159.369 103.535 159.313 103.673 159.153 103.824C159.043 103.93 158.903 103.983 158.734 103.982C158.582 103.992 158.434 103.955 158.288 103.871C157.905 103.65 157.446 103.372 156.91 103.039C156.374 102.705 155.847 102.376 155.329 102.053C154.811 101.73 154.37 101.463 154.005 101.252C153.641 101.042 153.189 100.793 152.65 100.506C152.13 100.23 151.6 99.9485 151.061 99.6617C150.512 99.393 150.036 99.143 149.635 98.9116ZM167.76 109.776C167.596 109.682 167.414 109.492 167.214 109.206C167.022 108.95 166.88 108.649 166.788 108.304C166.695 107.959 166.733 107.641 166.902 107.35C167.08 107.04 167.287 106.746 167.52 106.468C167.772 106.2 168.072 105.912 168.42 105.603L178.746 96.1127C178.995 95.892 179.206 95.6738 179.379 95.4579C179.581 95.2344 179.751 95.0042 179.887 94.7673C180.035 94.5122 180.027 94.2525 179.863 93.9882C179.729 93.7162 179.56 93.461 179.358 93.2226C179.262 93.0943 179.166 92.966 179.07 92.8377C179.003 92.7017 179.001 92.579 179.064 92.4697C179.127 92.3604 179.225 92.2956 179.358 92.2753C179.502 92.2368 179.784 92.2537 180.204 92.326C180.464 92.3794 180.859 92.4738 181.388 92.6092C181.946 92.737 182.517 92.8844 183.101 93.0514C183.714 93.2107 184.256 93.3658 184.727 93.5166C185.21 93.6493 185.533 93.7629 185.697 93.8576C185.842 93.9418 185.996 94.0547 186.157 94.1963C186.329 94.3197 186.357 94.4816 186.241 94.6821C186.104 94.9189 185.956 95.1127 185.796 95.2634C185.647 95.3958 185.478 95.5412 185.289 95.6995L174.914 104.833C174.804 104.939 174.78 105.023 174.842 105.083C174.934 105.136 175.047 105.128 175.183 105.061C176.41 104.409 177.639 103.879 178.87 103.473C180.111 103.048 181.266 102.815 182.333 102.776C183.412 102.718 184.324 102.905 185.071 103.336C185.855 103.788 186.296 104.371 186.394 105.084C186.522 105.789 186.385 106.488 185.986 107.18C185.428 108.146 184.784 108.988 184.052 109.708C183.35 110.42 182.582 111.034 181.75 111.549C180.936 112.076 180.099 112.515 179.239 112.869C179.017 112.96 178.63 113.04 178.079 113.111C177.528 113.181 176.917 113.229 176.247 113.255C175.605 113.273 175.007 113.256 174.454 113.204C173.909 113.181 173.536 113.111 173.335 112.996C173.08 112.848 172.863 112.614 172.685 112.292C172.496 111.988 172.359 111.679 172.274 111.362C172.218 111.039 172.232 110.804 172.316 110.658C172.369 110.567 172.504 110.438 172.721 110.272C172.967 110.098 173.221 109.953 173.483 109.837C173.762 109.731 173.984 109.726 174.148 109.821C174.349 109.936 174.463 110.075 174.491 110.237C174.547 110.391 174.607 110.583 174.668 110.813C174.74 111.025 174.812 111.237 174.885 111.448C174.967 111.642 175.1 111.791 175.282 111.896C175.446 111.991 175.724 111.909 176.117 111.65C176.52 111.372 176.972 110.989 177.472 110.501C178.002 110.005 178.525 109.456 179.042 108.856C179.569 108.237 180.053 107.63 180.494 107.034C180.964 106.431 181.33 105.901 181.593 105.446C181.751 105.173 181.823 104.922 181.808 104.695C181.822 104.461 181.72 104.28 181.501 104.154C181.283 104.028 180.899 104.061 180.35 104.254C179.812 104.429 179.149 104.715 178.362 105.111C177.592 105.517 176.745 105.975 175.819 106.485C174.921 106.987 173.995 107.497 173.04 108.015C172.104 108.543 171.194 109.026 170.31 109.463C169.726 109.758 169.222 109.916 168.796 109.938C168.379 109.988 168.033 109.934 167.76 109.776ZM185.145 119.814C184.398 119.383 183.792 118.814 183.325 118.107C182.869 117.382 182.614 116.603 182.56 115.771C182.507 114.938 182.716 114.112 183.19 113.292C183.674 112.453 184.371 111.666 185.283 110.929C186.205 110.173 187.263 109.582 188.458 109.154C189.663 108.708 190.928 108.515 192.253 108.576C193.589 108.618 194.913 109.018 196.225 109.776C197.501 110.512 198.325 111.462 198.698 112.625C199.1 113.78 198.928 115.004 198.181 116.298C197.697 117.136 196.994 117.933 196.072 118.688C195.161 119.425 194.102 120.017 192.897 120.463C191.703 120.891 190.437 121.084 189.101 121.041C187.776 120.981 186.457 120.572 185.145 119.814ZM186.339 119.009C186.685 119.209 187.147 119.208 187.725 119.007C188.331 118.799 188.993 118.452 189.71 117.967C190.427 117.482 191.145 116.913 191.863 116.258C192.591 115.586 193.26 114.89 193.869 114.173C194.506 113.448 195.014 112.757 195.393 112.101C195.603 111.737 195.683 111.43 195.632 111.182C195.591 110.916 195.425 110.699 195.134 110.53C194.842 110.362 194.402 110.387 193.814 110.607C193.236 110.808 192.58 111.145 191.844 111.619C191.127 112.104 190.395 112.678 189.649 113.34C188.912 113.984 188.222 114.654 187.577 115.351C186.95 116.058 186.447 116.739 186.068 117.395C185.858 117.76 185.782 118.08 185.841 118.357C185.918 118.644 186.084 118.862 186.339 119.009ZM196.477 126.357C196.295 126.251 196.095 126.051 195.877 125.755C195.659 125.459 195.515 125.121 195.443 124.739C195.39 124.368 195.469 124.001 195.679 123.636C195.75 123.556 195.821 123.475 195.892 123.395C195.973 123.296 196.058 123.211 196.147 123.141L203.166 117.864C203.344 117.724 203.432 117.593 203.43 117.47C203.457 117.34 203.379 117.222 203.197 117.117C203.033 117.022 202.71 116.909 202.227 116.776C201.763 116.654 201.177 116.68 200.469 116.854C200.344 116.903 200.199 116.88 200.035 116.786C199.9 116.683 199.88 116.55 199.974 116.386C200.059 116.24 200.227 116.095 200.481 115.95C200.764 115.797 201.065 115.655 201.384 115.523C201.721 115.402 201.994 115.329 202.203 115.304C202.937 115.169 203.657 115.099 204.364 115.094C205.072 115.09 205.881 115.35 206.792 115.876C207.247 116.139 207.533 116.486 207.648 116.917C207.774 117.33 207.735 117.757 207.529 118.197C207.342 118.648 207.022 119.034 206.569 119.355L202.991 121.954C202.863 122.05 202.839 122.134 202.92 122.205C203.018 122.286 203.141 122.284 203.288 122.198C204.585 121.466 205.817 120.804 206.984 120.214C208.169 119.635 209.266 119.249 210.277 119.055C211.288 118.861 212.194 118.995 212.996 119.458C213.78 119.911 214.199 120.468 214.253 121.132C214.336 121.787 214.151 122.445 213.696 123.106C213.271 123.759 212.691 124.299 211.959 124.727L211.445 125.049C211.298 125.135 211.283 125.223 211.4 125.315C211.536 125.418 211.676 125.426 211.823 125.341C212.807 124.815 213.796 124.342 214.793 123.921C215.789 123.5 216.752 123.242 217.681 123.147C218.621 123.034 219.492 123.209 220.294 123.672C221.077 124.124 221.474 124.657 221.484 125.27C221.505 125.865 221.275 126.474 220.795 127.095C220.333 127.727 219.747 128.3 219.038 128.814L214.91 131.86C214.386 132.262 214.261 132.542 214.534 132.7C214.625 132.753 214.779 132.781 214.996 132.785C215.231 132.799 215.49 132.791 215.775 132.761C216.06 132.731 216.335 132.695 216.601 132.655C216.868 132.614 217.082 132.58 217.244 132.552C217.416 132.506 217.589 132.459 217.761 132.413C217.952 132.378 218.084 132.381 218.156 132.423C218.211 132.454 218.245 132.522 218.257 132.627C218.288 132.742 218.277 132.845 218.225 132.936C218.091 133.126 217.935 133.291 217.757 133.431C217.579 133.571 217.369 133.681 217.129 133.761C215.723 134.261 214.298 134.519 212.855 134.537C211.411 134.554 210.143 134.247 209.05 133.615C208.886 133.521 208.704 133.331 208.504 133.045C208.312 132.789 208.183 132.508 208.117 132.202C208.068 131.907 208.162 131.682 208.398 131.526L216.99 125.481C217.293 125.292 217.447 125.089 217.45 124.872C217.483 124.648 217.426 124.494 217.28 124.41C217.043 124.273 216.679 124.294 216.188 124.471C215.696 124.649 215.076 124.923 214.328 125.293C213.667 125.64 212.887 126.064 211.99 126.567C211.103 127.051 210.148 127.568 209.125 128.12C208.121 128.681 207.078 129.246 205.998 129.812C205.658 129.981 205.264 130.094 204.818 130.152C204.371 130.21 203.957 130.213 203.573 130.162C203.197 130.139 202.909 130.07 202.709 129.954C202.527 129.849 202.359 129.655 202.207 129.373C202.054 129.09 201.944 128.796 201.878 128.491C201.84 128.177 201.874 127.929 201.979 127.747C202.042 127.638 202.144 127.503 202.286 127.342C202.428 127.18 202.612 127.008 202.84 126.823L210.04 121.359C210.325 121.16 210.483 120.971 210.512 120.794C210.57 120.609 210.509 120.464 210.326 120.359C210.126 120.243 209.724 120.266 209.12 120.428C208.535 120.6 207.762 120.907 206.803 121.349C206.298 121.592 205.743 121.879 205.139 122.21C204.553 122.552 203.937 122.925 203.29 123.33C202.673 123.726 202.026 124.13 201.351 124.542C200.694 124.965 200.033 125.373 199.369 125.767C198.762 126.145 198.219 126.39 197.741 126.503C197.263 126.616 196.842 126.567 196.477 126.357ZM217.546 138.52C217.291 138.373 217.068 138.148 216.879 137.844C216.69 137.541 216.568 137.227 216.512 136.903C216.466 136.561 216.501 136.29 216.617 136.089C216.922 135.561 217.408 135.076 218.076 134.636C218.736 134.166 219.712 133.673 221.007 133.157C222.311 132.623 224.07 131.974 226.284 131.212C227.526 130.787 228.66 130.506 229.686 130.37C230.712 130.233 231.398 130.265 231.744 130.465C232.273 130.77 232.722 131.381 233.091 132.299C233.129 132.443 233.152 132.529 233.16 132.558C233.186 132.597 233.208 132.622 233.226 132.632C233.263 132.653 233.281 132.664 233.281 132.664C233.31 132.656 233.383 132.613 233.501 132.536C233.736 132.38 233.913 132.263 234.031 132.186C234.159 132.09 234.287 131.994 234.416 131.898C234.633 131.732 234.942 131.764 235.343 131.996C235.653 132.175 235.939 132.437 236.201 132.783C236.463 133.128 236.654 133.47 236.775 133.807C236.915 134.155 236.932 134.419 236.827 134.602C236.764 134.711 236.718 134.77 236.689 134.777L229.84 140.517C229.442 140.87 229.407 141.141 229.735 141.331C229.917 141.436 230.307 141.454 230.905 141.387C231.521 141.329 232.188 141.204 232.907 141.012C232.993 140.989 233.036 140.977 233.036 140.977C233.036 140.977 233.045 140.983 233.064 140.993C233.155 141.046 233.21 141.139 233.231 141.272C233.251 141.405 233.224 141.535 233.151 141.663C232.982 141.954 232.579 142.232 231.941 142.495C231.314 142.74 230.558 142.935 229.672 143.08C228.654 143.245 227.713 143.297 226.849 143.236C226.004 143.185 225.372 143.039 224.953 142.797C224.661 142.628 224.408 142.373 224.193 142.03C223.978 141.687 223.838 141.339 223.774 140.987C223.721 140.616 223.763 140.312 223.9 140.075C223.963 139.966 224.13 139.783 224.399 139.526C224.549 139.393 224.713 139.257 224.891 139.117C225.069 138.977 225.247 138.837 225.425 138.696C225.603 138.556 225.781 138.416 225.959 138.276C226.155 138.146 226.343 138.012 226.521 137.871C226.599 137.82 226.613 137.754 226.561 137.676C226.509 137.597 226.454 137.566 226.397 137.581C224.904 138.104 223.581 138.482 222.426 138.714C221.29 138.957 220.317 139.064 219.509 139.034C218.728 138.997 218.074 138.825 217.546 138.52ZM222.531 137.208C222.822 137.376 223.445 137.371 224.398 137.193C225.38 137.006 226.422 136.697 227.522 136.263C228.487 135.897 229.286 135.544 229.919 135.205C230.562 134.848 230.947 134.56 231.073 134.341C231.168 134.177 231.11 133.815 230.898 133.256C230.8 133.005 230.677 132.776 230.529 132.569C230.392 132.344 230.26 132.195 230.132 132.121C229.859 131.964 229.391 131.912 228.727 131.966C228.064 132.021 227.402 132.137 226.741 132.314C226.224 132.452 225.667 132.702 225.07 133.062C224.502 133.414 223.959 133.829 223.44 134.307C222.95 134.777 222.563 135.258 222.279 135.75C222.1 136.06 222.031 136.348 222.072 136.615C222.123 136.863 222.276 137.06 222.531 137.208ZM233.801 147.906C232.945 147.411 232.367 146.834 232.067 146.175C231.778 145.498 231.812 144.85 232.17 144.23C232.443 143.757 232.789 143.41 233.208 143.19C233.608 142.959 234.009 142.96 234.41 143.191C234.555 143.275 234.661 143.47 234.728 143.776C234.823 144.074 234.916 144.419 235.005 144.811C235.121 145.242 235.257 145.721 235.414 146.249C235.571 146.777 235.822 147.141 236.168 147.341C236.423 147.488 236.633 147.524 236.798 147.449C236.991 147.367 237.176 147.194 237.352 146.931C237.518 146.686 237.572 146.256 237.515 145.64C237.486 145.016 237.433 144.414 237.354 143.835C237.282 143.161 237.272 142.463 237.324 141.74C237.396 141.028 237.594 140.39 237.92 139.825C238.194 139.351 238.651 138.959 239.292 138.649C239.932 138.338 240.648 138.108 241.44 137.958C242.242 137.789 242.986 137.72 243.672 137.752C244.369 137.766 244.89 137.872 245.236 138.072C245.747 138.367 246.166 138.755 246.496 139.237C246.854 139.711 247.103 140.183 247.245 140.653C247.386 141.123 247.389 141.477 247.252 141.714C247.126 141.933 246.873 142.139 246.494 142.333C246.114 142.527 245.72 142.664 245.31 142.743C244.928 142.814 244.619 142.781 244.382 142.645C244.145 142.508 243.979 142.291 243.884 141.993C243.799 141.676 243.742 141.376 243.712 141.091C243.688 140.713 243.591 140.354 243.423 140.014C243.284 139.666 243.087 139.418 242.832 139.271C242.595 139.134 242.365 139.111 242.143 139.202C241.921 139.292 241.762 139.419 241.668 139.583C241.583 139.729 241.555 139.968 241.582 140.299C241.62 140.612 241.678 140.974 241.757 141.384C241.836 141.794 241.905 142.223 241.963 142.669C242.133 143.763 242.205 144.607 242.179 145.199C242.181 145.783 242.051 146.303 241.788 146.759C241.588 147.105 241.191 147.435 240.598 147.748C240.014 148.043 239.322 148.275 238.52 148.443C237.736 148.623 236.927 148.678 236.092 148.609C235.257 148.54 234.494 148.305 233.801 147.906ZM246.528 154.853C246.419 154.789 246.349 154.7 246.318 154.585C246.269 154.46 246.299 154.344 246.409 154.237C246.559 154.105 246.723 154.03 246.904 154.013C247.076 153.966 247.264 153.978 247.467 154.046C248.207 154.279 248.786 154.371 249.204 154.32C249.64 154.28 250.112 154.031 250.621 153.571L261.638 143.388C262.157 142.91 262.403 142.505 262.376 142.173C262.367 141.852 262.109 141.436 261.602 140.925C261.478 140.805 261.405 140.678 261.385 140.544C261.393 140.404 261.472 140.267 261.621 140.134C261.732 140.028 261.871 139.975 262.041 139.976C262.229 139.987 262.377 140.024 262.487 140.087C262.888 140.319 263.311 140.575 263.756 140.856C264.219 141.148 264.659 141.438 265.075 141.727C265.52 142.009 265.925 142.254 266.289 142.465C266.653 142.675 267.096 142.919 267.617 143.195C268.156 143.482 268.695 143.769 269.233 144.056C269.791 144.353 270.261 144.612 270.643 144.833C270.935 145.001 270.956 145.196 270.707 145.416C270.547 145.567 270.392 145.647 270.24 145.657C270.089 145.667 269.897 145.641 269.665 145.58C269.034 145.41 268.522 145.309 268.128 145.276C267.752 145.253 267.419 145.304 267.129 145.428C266.857 145.562 266.561 145.78 266.242 146.082L261.882 150.161C261.652 150.392 261.673 150.587 261.946 150.744L268.15 154.326C268.424 154.484 268.676 154.447 268.906 154.216L273.266 150.137C273.745 149.685 273.97 149.317 273.94 149.032C273.921 148.729 273.653 148.247 273.136 147.584C273.04 147.456 272.977 147.334 272.946 147.219C272.915 147.104 272.98 146.972 273.14 146.821C273.26 146.696 273.391 146.638 273.532 146.646C273.683 146.637 273.823 146.669 273.95 146.742C274.333 146.963 274.774 147.23 275.274 147.543C275.792 147.866 276.3 148.184 276.8 148.497C277.3 148.81 277.723 149.066 278.069 149.266C278.433 149.476 278.849 149.704 279.315 149.949C279.809 150.186 280.299 150.432 280.783 150.687C281.286 150.953 281.737 151.202 282.138 151.433C282.248 151.496 282.318 151.585 282.348 151.7C282.397 151.826 282.367 151.942 282.257 152.048C281.969 152.295 281.616 152.359 281.199 152.239C280.43 152.014 279.823 151.93 279.376 151.988C278.948 152.057 278.474 152.33 277.955 152.808L266.937 162.992C266.429 163.451 266.203 163.843 266.259 164.167C266.315 164.491 266.583 164.889 267.064 165.361C267.189 165.481 267.247 165.612 267.238 165.753C267.259 165.886 267.194 166.019 267.045 166.151C266.935 166.258 266.786 166.305 266.598 166.294C266.428 166.293 266.289 166.261 266.179 166.198C265.833 165.998 265.434 165.743 264.981 165.433C264.536 165.152 264.082 164.866 263.619 164.574C263.155 164.282 262.742 164.031 262.377 163.821C262.031 163.621 261.588 163.378 261.05 163.091C260.511 162.804 259.963 162.512 259.405 162.214C258.866 161.928 258.406 161.674 258.023 161.453C257.75 161.295 257.728 161.1 257.959 160.869C258.119 160.719 258.275 160.638 258.426 160.629C258.596 160.629 258.787 160.655 259.001 160.705C259.893 160.929 260.556 161.02 260.992 160.981C261.428 160.941 261.867 160.708 262.307 160.282L266.906 155.977C267.045 155.862 267.117 155.758 267.123 155.664C267.157 155.563 267.101 155.47 266.956 155.386L260.751 151.804C260.442 151.625 260.152 151.664 259.882 151.921L255.283 156.226C254.842 156.652 254.646 157.013 254.695 157.308C254.761 157.614 255.04 158.078 255.53 158.701C255.644 158.84 255.708 158.962 255.72 159.066C255.751 159.181 255.686 159.314 255.527 159.465C255.417 159.571 255.286 159.629 255.134 159.639C255.001 159.659 254.862 159.628 254.716 159.543C254.333 159.322 253.883 159.05 253.365 158.727C252.865 158.414 252.366 158.101 251.866 157.789C251.385 157.486 250.962 157.23 250.597 157.02C250.233 156.809 249.799 156.571 249.297 156.305C248.794 156.04 248.292 155.774 247.789 155.508C247.295 155.271 246.874 155.052 246.528 154.853ZM269.727 168.647C269.471 168.5 269.249 168.274 269.06 167.971C268.871 167.667 268.748 167.353 268.692 167.03C268.647 166.688 268.682 166.416 268.798 166.216C269.103 165.687 269.589 165.203 270.257 164.762C270.916 164.293 271.893 163.8 273.187 163.284C274.492 162.749 276.251 162.101 278.465 161.338C279.707 160.913 280.84 160.633 281.867 160.496C282.893 160.36 283.579 160.392 283.925 160.591C284.454 160.897 284.902 161.508 285.272 162.426C285.31 162.569 285.333 162.656 285.341 162.684C285.367 162.724 285.389 162.748 285.407 162.759C285.443 162.78 285.462 162.79 285.462 162.79C285.49 162.783 285.564 162.74 285.681 162.662C285.917 162.507 286.094 162.39 286.212 162.312C286.34 162.216 286.468 162.12 286.596 162.024C286.814 161.858 287.123 161.891 287.524 162.122C287.833 162.301 288.119 162.564 288.381 162.909C288.643 163.255 288.835 163.596 288.956 163.933C289.096 164.281 289.113 164.546 289.007 164.728C288.944 164.838 288.898 164.896 288.87 164.904L282.021 170.643C281.623 170.997 281.588 171.268 281.916 171.457C282.098 171.562 282.488 171.581 283.086 171.513C283.702 171.456 284.369 171.331 285.088 171.139C285.174 171.115 285.217 171.104 285.217 171.104C285.217 171.104 285.226 171.109 285.245 171.12C285.336 171.172 285.391 171.265 285.412 171.398C285.432 171.532 285.405 171.662 285.332 171.789C285.163 172.081 284.76 172.358 284.122 172.622C283.495 172.867 282.738 173.062 281.853 173.207C280.835 173.372 279.894 173.424 279.03 173.362C278.185 173.312 277.552 173.165 277.133 172.923C276.842 172.755 276.589 172.5 276.373 172.157C276.158 171.814 276.019 171.466 275.955 171.114C275.902 170.743 275.944 170.439 276.081 170.202C276.144 170.093 276.31 169.909 276.58 169.652C276.73 169.52 276.893 169.384 277.071 169.243C277.25 169.103 277.428 168.963 277.606 168.823C277.784 168.683 277.962 168.543 278.14 168.403C278.336 168.273 278.523 168.138 278.702 167.998C278.78 167.946 278.793 167.881 278.742 167.802C278.69 167.724 278.635 167.692 278.578 167.708C277.085 168.231 275.762 168.609 274.607 168.841C273.471 169.084 272.498 169.19 271.689 169.161C270.909 169.123 270.255 168.952 269.727 168.647ZM274.712 167.334C275.003 167.503 275.626 167.498 276.579 167.319C277.561 167.133 278.602 166.823 279.703 166.39C280.668 166.023 281.466 165.671 282.1 165.332C282.743 164.974 283.128 164.686 283.254 164.468C283.349 164.304 283.291 163.942 283.079 163.383C282.981 163.132 282.858 162.903 282.71 162.696C282.573 162.471 282.44 162.322 282.313 162.248C282.04 162.09 281.571 162.039 280.908 162.093C280.245 162.147 279.583 162.263 278.922 162.44C278.405 162.579 277.848 162.828 277.251 163.188C276.683 163.541 276.14 163.956 275.621 164.434C275.131 164.904 274.744 165.385 274.46 165.877C274.281 166.187 274.212 166.475 274.252 166.741C274.304 166.989 274.457 167.187 274.712 167.334ZM286.05 178.071C285.867 177.966 285.662 177.775 285.434 177.497C285.224 177.23 285.067 176.933 284.964 176.606C284.872 176.261 284.904 175.952 285.062 175.679C285.125 175.57 285.192 175.475 285.263 175.394C285.344 175.295 285.435 175.202 285.534 175.113L292.547 169.469C292.725 169.328 292.813 169.197 292.811 169.074C292.819 168.933 292.733 168.81 292.55 168.705C292.15 168.474 291.792 168.377 291.479 168.415C291.166 168.452 290.795 168.506 290.367 168.574C290.233 168.594 290.094 168.563 289.948 168.478C289.802 168.394 289.768 168.265 289.844 168.09C290.05 167.65 290.456 167.326 291.062 167.117C291.697 166.901 292.387 166.801 293.13 166.817C293.715 166.814 294.295 166.882 294.871 167.021C295.466 167.169 295.991 167.375 296.446 167.638C296.956 167.933 297.246 168.294 297.314 168.723C297.412 169.143 297.318 169.599 297.034 170.091C296.779 170.576 296.336 171.049 295.705 171.51L293.336 173.277C293.208 173.373 293.184 173.456 293.265 173.527C293.364 173.609 293.486 173.607 293.633 173.521C294.894 172.767 296.058 172.14 297.125 171.638C298.192 171.137 299.172 170.828 300.065 170.712C300.987 170.588 301.803 170.731 302.514 171.141C303.115 171.489 303.48 171.93 303.608 172.465C303.736 173.001 303.648 173.533 303.342 174.061C303.048 174.572 302.636 174.99 302.108 175.316C301.597 175.653 301.085 175.868 300.57 175.959C300.074 176.062 299.68 176.028 299.389 175.86C299.17 175.734 299.049 175.543 299.027 175.287C299.033 175.023 299.107 174.665 299.247 174.212C299.364 173.841 299.441 173.497 299.479 173.179C299.527 172.843 299.433 172.606 299.196 172.469C298.85 172.269 298.381 172.303 297.79 172.569C297.199 172.835 296.479 173.221 295.628 173.726C295.375 173.871 294.989 174.097 294.471 174.406C293.981 174.706 293.424 175.04 292.798 175.408C292.202 175.768 291.605 176.128 291.009 176.488C290.423 176.83 289.915 177.12 289.486 177.358C288.861 177.726 288.223 177.99 287.572 178.148C286.922 178.307 286.414 178.282 286.05 178.071ZM298.995 185.545C298.813 185.44 298.607 185.248 298.379 184.971C298.169 184.704 298.012 184.407 297.909 184.08C297.817 183.735 297.849 183.426 298.007 183.153C298.07 183.043 298.137 182.949 298.208 182.868C298.29 182.769 298.38 182.676 298.48 182.587L305.492 176.942C305.67 176.802 305.758 176.671 305.756 176.548C305.765 176.407 305.678 176.284 305.496 176.179C305.095 175.948 304.738 175.851 304.424 175.889C304.111 175.926 303.74 175.979 303.312 176.048C303.179 176.068 303.039 176.036 302.893 175.952C302.748 175.868 302.713 175.739 302.789 175.564C302.995 175.124 303.401 174.8 304.007 174.591C304.642 174.375 305.332 174.275 306.075 174.291C306.66 174.288 307.24 174.356 307.817 174.494C308.411 174.643 308.936 174.849 309.391 175.112C309.902 175.407 310.191 175.768 310.259 176.196C310.357 176.617 310.263 177.073 309.979 177.565C309.724 178.05 309.281 178.523 308.65 178.984L306.282 180.751C306.153 180.847 306.129 180.93 306.21 181.001C306.309 181.082 306.431 181.08 306.578 180.995C307.839 180.241 309.003 179.613 310.07 179.112C311.137 178.61 312.117 178.302 313.01 178.186C313.932 178.062 314.748 178.205 315.459 178.615C316.06 178.962 316.425 179.404 316.553 179.939C316.681 180.475 316.593 181.007 316.288 181.535C315.993 182.045 315.581 182.464 315.053 182.79C314.542 183.127 314.03 183.342 313.515 183.433C313.019 183.535 312.625 183.502 312.334 183.334C312.115 183.208 311.995 183.017 311.972 182.761C311.979 182.497 312.052 182.139 312.192 181.685C312.309 181.315 312.386 180.971 312.424 180.653C312.472 180.317 312.378 180.08 312.141 179.943C311.795 179.743 311.327 179.776 310.736 180.043C310.145 180.309 309.424 180.694 308.573 181.2C308.32 181.345 307.934 181.571 307.416 181.879C306.926 182.18 306.369 182.514 305.744 182.882C305.147 183.242 304.55 183.602 303.954 183.962C303.368 184.304 302.86 184.594 302.431 184.832C301.806 185.2 301.168 185.463 300.517 185.622C299.867 185.781 299.359 185.755 298.995 185.545ZM311.639 192.845C311.184 192.582 310.874 192.173 310.709 191.616C310.555 191.041 310.578 190.581 310.778 190.234C310.831 190.143 310.892 190.058 310.963 189.977C311.044 189.878 311.149 189.781 311.278 189.685C312.372 188.883 313.453 188.062 314.522 187.221C315.609 186.391 316.676 185.574 317.723 184.769C317.812 184.699 317.802 184.633 317.693 184.57C317.547 184.485 317.357 184.436 317.122 184.422C316.898 184.39 316.648 184.38 316.374 184.391C316.129 184.396 315.875 184.394 315.611 184.388C315.254 184.376 315.041 184.302 314.974 184.166C314.917 184.012 314.931 183.862 315.015 183.716C315.099 183.57 315.348 183.434 315.761 183.308C316.202 183.175 316.727 183.065 317.336 182.979C317.955 182.874 318.596 182.795 319.259 182.741C319.922 182.686 320.532 182.661 321.087 182.667C321.672 182.664 322.118 182.691 322.426 182.747C322.78 182.806 323.071 182.998 323.296 183.322C323.532 183.629 323.659 183.957 323.675 184.307C323.721 184.649 323.63 184.912 323.402 185.096L316.072 190.849C316.022 190.893 315.967 190.947 315.907 191.009C315.875 191.064 315.849 191.109 315.828 191.146C315.796 191.2 315.779 191.251 315.776 191.298C315.791 191.355 315.817 191.395 315.854 191.416C315.981 191.489 316.276 191.526 316.738 191.525C317.21 191.507 317.717 191.471 318.257 191.419C318.808 191.348 319.271 191.263 319.644 191.163C319.73 191.139 319.783 191.133 319.801 191.144C319.91 191.207 319.975 191.305 319.995 191.438C320.016 191.571 319.994 191.693 319.931 191.802C319.742 192.13 319.305 192.424 318.62 192.685C317.935 192.945 317.15 193.148 316.264 193.293C315.389 193.419 314.529 193.457 313.684 193.406C312.849 193.337 312.168 193.15 311.639 192.845ZM324.701 181.583C324.264 181.33 323.994 180.956 323.892 180.46C323.801 179.945 323.876 179.478 324.118 179.059C324.496 178.403 325.07 177.957 325.838 177.72C326.606 177.483 327.337 177.565 328.029 177.965C328.503 178.238 328.757 178.64 328.791 179.17C328.825 179.7 328.721 180.174 328.479 180.593C328.122 181.213 327.564 181.632 326.806 181.85C326.059 182.051 325.357 181.961 324.701 181.583ZM320.627 198.034C319.771 197.54 319.193 196.963 318.893 196.304C318.604 195.627 318.638 194.979 318.995 194.359C319.269 193.886 319.615 193.539 320.034 193.319C320.434 193.088 320.834 193.089 321.235 193.32C321.381 193.404 321.487 193.599 321.554 193.905C321.649 194.203 321.741 194.548 321.831 194.94C321.946 195.371 322.083 195.85 322.239 196.378C322.396 196.906 322.648 197.27 322.994 197.47C323.249 197.617 323.459 197.653 323.624 197.578C323.817 197.495 324.002 197.323 324.178 197.06C324.344 196.815 324.398 196.385 324.34 195.769C324.312 195.145 324.258 194.543 324.18 193.964C324.107 193.29 324.097 192.592 324.15 191.869C324.221 191.157 324.42 190.518 324.746 189.954C325.019 189.48 325.477 189.088 326.117 188.778C326.758 188.467 327.474 188.237 328.266 188.086C329.068 187.918 329.812 187.849 330.498 187.881C331.195 187.895 331.716 188.001 332.062 188.201C332.572 188.496 332.992 188.884 333.321 189.365C333.679 189.839 333.929 190.312 334.071 190.782C334.212 191.252 334.214 191.606 334.078 191.843C333.951 192.062 333.699 192.268 333.319 192.462C332.94 192.656 332.545 192.792 332.135 192.872C331.754 192.943 331.445 192.91 331.208 192.773C330.971 192.637 330.805 192.419 330.71 192.121C330.625 191.805 330.568 191.505 330.538 191.22C330.513 190.842 330.417 190.483 330.249 190.143C330.11 189.795 329.912 189.547 329.657 189.4C329.42 189.263 329.191 189.24 328.969 189.33C328.746 189.421 328.588 189.548 328.493 189.712C328.409 189.858 328.381 190.096 328.408 190.428C328.446 190.741 328.504 191.103 328.583 191.513C328.662 191.923 328.731 192.351 328.789 192.798C328.959 193.892 329.031 194.735 329.005 195.328C329.007 195.912 328.877 196.432 328.614 196.888C328.414 197.234 328.017 197.564 327.423 197.877C326.84 198.172 326.148 198.404 325.346 198.572C324.562 198.751 323.753 198.807 322.918 198.738C322.083 198.669 321.32 198.434 320.627 198.034Z" fill="white"/>
<path d="M117.404 134.321C117.195 134.201 117.066 134.049 117.018 133.867C116.969 133.684 116.984 133.523 117.064 133.384C117.145 133.245 117.283 133.139 117.479 133.067C117.675 132.995 117.909 132.991 118.181 133.055C119.08 133.265 119.753 133.33 120.202 133.249C120.673 133.181 121.117 132.788 121.531 132.069L130.684 116.218C130.978 115.708 131.136 115.274 131.157 114.915C131.202 114.57 131.109 114.223 130.878 113.873C130.661 113.501 130.279 113.064 129.734 112.564C129.361 112.194 129.288 111.812 129.515 111.418C129.609 111.255 129.752 111.168 129.944 111.156C130.137 111.143 130.303 111.177 130.442 111.257C130.952 111.552 131.513 111.891 132.125 112.276C132.761 112.673 133.366 113.069 133.942 113.464C134.554 113.848 135.092 114.174 135.556 114.442C136.019 114.709 136.582 115.019 137.245 115.37C137.907 115.722 138.581 116.08 139.266 116.445C139.952 116.81 140.538 117.133 141.024 117.414C141.21 117.521 141.322 117.647 141.361 117.794C141.414 117.917 141.387 118.071 141.28 118.256C141.146 118.488 140.994 118.617 140.825 118.643C140.655 118.668 140.446 118.656 140.198 118.605C139.087 118.334 138.305 118.27 137.853 118.41C137.401 118.551 136.975 118.969 136.573 119.664L127.642 135.134C127.267 135.783 127.139 136.327 127.256 136.765C127.387 137.181 127.742 137.556 128.322 137.89L131.694 139.837C132.18 140.118 132.668 140.291 133.155 140.356C133.656 140.398 134.156 140.362 134.654 140.249C135.262 140.105 135.858 139.877 136.44 139.564C137.059 139.242 137.631 138.893 138.157 138.517C138.72 138.131 139.086 137.925 139.255 137.899C139.461 137.863 139.634 137.886 139.773 137.966C139.958 138.073 140.039 138.228 140.015 138.43C139.991 138.633 139.932 138.815 139.838 138.977C139.811 139.023 139.721 139.126 139.568 139.285C139.414 139.443 139.304 139.58 139.237 139.696C138.651 140.285 138.14 140.793 137.707 141.223C137.287 141.629 136.897 142.038 136.537 142.448C136.213 142.848 135.849 143.318 135.445 143.857C135.328 144.006 135.183 144.123 135.01 144.208C134.86 144.307 134.681 144.297 134.473 144.176C134.148 143.989 133.541 143.623 132.65 143.078C131.783 142.546 130.765 141.927 129.596 141.222C128.414 140.539 127.193 139.819 125.932 139.06C124.693 138.314 123.553 137.64 122.51 137.038C122.047 136.77 121.507 136.474 120.891 136.149C120.275 135.825 119.659 135.5 119.043 135.175C118.414 134.874 117.867 134.589 117.404 134.321ZM144.25 150.239C142.999 149.516 142.069 148.531 141.46 147.284C140.852 146.036 140.586 144.677 140.662 143.207C140.752 141.714 141.211 140.249 142.041 138.812C142.897 137.329 144.021 136.185 145.412 135.382C146.816 134.555 148.317 134.123 149.914 134.087C151.51 134.051 153.027 134.448 154.464 135.278C155.461 135.853 156.237 136.595 156.794 137.504C157.351 138.412 157.659 139.378 157.717 140.4C157.789 141.4 157.558 142.363 157.022 143.29C156.501 144.194 155.88 144.438 155.162 144.024L148.279 140.05C147.954 139.862 147.658 139.815 147.388 139.906C147.142 140.011 146.892 140.284 146.638 140.724C146.156 141.559 145.9 142.431 145.869 143.34C145.852 144.226 146.054 145.054 146.476 145.822C146.897 146.591 147.537 147.223 148.394 147.718C149.066 148.106 149.754 148.333 150.457 148.399C151.184 148.479 151.964 148.466 152.798 148.36C152.894 148.353 153.002 148.354 153.121 148.361C153.254 148.345 153.355 148.357 153.425 148.397C153.68 148.545 153.72 148.769 153.546 149.07C153.426 149.279 153.176 149.551 152.796 149.888C152.226 150.394 151.482 150.799 150.565 151.103C149.661 151.385 148.655 151.468 147.546 151.354C146.462 151.252 145.363 150.881 144.25 150.239ZM149.162 138.52L151.004 139.584C151.677 139.972 152.124 140.215 152.346 140.312C152.591 140.422 152.826 140.496 153.052 140.534C153.194 140.555 153.361 140.481 153.55 140.312C153.74 140.144 153.902 139.944 154.036 139.712C154.384 139.109 154.468 138.509 154.288 137.911C154.145 137.303 153.772 136.825 153.169 136.477C152.706 136.209 152.185 136.094 151.607 136.131C151.066 136.159 150.548 136.307 150.052 136.577C149.556 136.847 149.186 137.221 148.942 137.698C148.741 138.045 148.814 138.319 149.162 138.52ZM166.046 162.822C165.258 162.367 164.547 161.833 163.912 161.219C163.287 160.642 162.782 159.965 162.398 159.186C162.38 158.682 162.545 158.02 162.894 157.202C163.257 156.36 163.71 155.494 164.255 154.604C164.429 154.303 164.759 154.292 165.246 154.573C165.455 154.694 165.588 154.864 165.647 155.083C165.729 155.316 165.76 155.503 165.739 155.646C165.667 156.841 165.696 157.969 165.824 159.032C165.965 160.072 166.465 160.839 167.322 161.334C167.925 161.682 168.472 161.751 168.964 161.541C169.48 161.344 169.864 161.025 170.119 160.585C170.466 159.982 170.511 159.343 170.252 158.668C169.992 157.994 169.653 157.35 169.235 156.737C168.773 156.038 168.35 155.299 167.965 154.521C167.593 153.719 167.386 152.874 167.344 151.984C167.301 151.094 167.548 150.186 168.083 149.259C168.631 148.308 169.355 147.644 170.253 147.267C171.187 146.879 172.202 146.754 173.296 146.892C174.404 147.006 175.48 147.365 176.523 147.967C177.311 148.422 177.987 148.936 178.552 149.509C179.154 150.073 179.535 150.51 179.697 150.819C179.748 151.158 179.626 151.69 179.331 152.416C179.072 153.131 178.702 153.906 178.22 154.741C178.073 154.996 177.768 154.989 177.304 154.722C177.142 154.628 177.002 154.47 176.883 154.247C176.778 154.001 176.736 153.806 176.756 153.664C176.99 152.563 176.998 151.64 176.779 150.896C176.583 150.164 176.207 149.638 175.651 149.317C175.141 149.023 174.584 148.917 173.979 149.001C173.398 149.098 172.953 149.413 172.645 149.946C172.378 150.41 172.362 150.972 172.598 151.634C172.871 152.286 173.226 152.954 173.665 153.64C174.739 155.311 175.387 156.705 175.608 157.821C175.828 158.937 175.578 160.121 174.855 161.373C173.959 162.925 172.764 163.843 171.273 164.125C169.781 164.407 168.039 163.973 166.046 162.822ZM174.407 167.139C174.268 167.059 174.167 166.939 174.105 166.78C174.042 166.62 174.051 166.471 174.132 166.332C174.239 166.146 174.372 166.022 174.532 165.96C174.714 165.911 174.912 165.917 175.124 165.978C175.843 166.177 176.366 166.262 176.691 166.234C177.04 166.219 177.321 166.026 177.535 165.655L181.87 158.146C182.352 157.312 182.546 156.682 182.451 156.257C182.394 155.821 182.13 155.422 181.66 155.058C181.535 154.955 181.47 154.825 181.468 154.669C181.478 154.49 181.531 154.319 181.624 154.157C181.838 153.786 182.098 153.658 182.403 153.772C183.801 154.239 185.131 154.559 186.392 154.731C187.666 154.879 188.636 154.991 189.303 155.067C189.827 155.123 190.135 155.177 190.228 155.231C190.553 155.418 190.621 155.674 190.434 155.998C190.156 156.425 189.797 156.913 189.357 157.462C188.953 158.002 188.535 158.564 188.105 159.15C187.697 159.749 187.326 160.338 186.991 160.917L182.596 168.53C182.422 168.832 182.397 169.142 182.522 169.461C182.647 169.78 182.973 170.231 183.502 170.815C183.647 170.991 183.751 171.159 183.813 171.319C183.876 171.478 183.853 171.651 183.746 171.836C183.559 172.161 183.292 172.223 182.944 172.022C182.504 171.768 182.024 171.475 181.504 171.144C181.007 170.827 180.511 170.509 180.014 170.192C179.541 169.887 179.096 169.615 178.679 169.374C178.285 169.147 177.838 168.904 177.338 168.646C176.861 168.402 176.372 168.151 175.872 167.893C175.359 167.658 174.87 167.407 174.407 167.139ZM188.294 152.399C187.506 151.944 186.99 151.26 186.745 150.346C186.5 149.432 186.605 148.581 187.06 147.793C187.555 146.935 188.259 146.384 189.173 146.139C190.087 145.895 190.938 146 191.726 146.454C192.584 146.95 193.135 147.654 193.38 148.568C193.624 149.482 193.499 150.368 193.004 151.225C192.549 152.013 191.865 152.529 190.951 152.774C190.037 153.019 189.151 152.894 188.294 152.399ZM184.998 173.254C184.766 173.12 184.619 172.974 184.557 172.814C184.494 172.655 184.51 172.494 184.604 172.331C184.711 172.146 184.861 172.047 185.053 172.035C185.259 171.999 185.516 172.009 185.825 172.063C186.239 172.148 186.607 172.206 186.929 172.237C187.265 172.245 187.579 171.994 187.874 171.485L197.407 154.972C197.768 154.346 198.002 153.755 198.107 153.198C198.236 152.654 198.044 152.157 197.531 151.707C197.303 151.513 197.283 151.254 197.47 150.93C197.644 150.628 197.86 150.521 198.119 150.609C198.765 150.827 199.526 151.035 200.401 151.231C201.313 151.418 202.179 151.578 202.998 151.711C203.841 151.857 204.469 151.973 204.884 152.058C205.132 152.109 205.315 152.168 205.43 152.235C205.593 152.328 205.67 152.435 205.663 152.554C205.656 152.674 205.619 152.791 205.552 152.907C205.458 153.07 205.275 153.334 205.001 153.701C204.74 154.046 204.505 154.373 204.294 154.684L192.954 174.325C192.66 174.835 192.6 175.233 192.775 175.519C192.963 175.782 193.197 176.072 193.478 176.389C193.679 176.629 193.816 176.847 193.888 177.043C193.974 177.216 193.963 177.395 193.856 177.581C193.762 177.743 193.631 177.837 193.461 177.863C193.292 177.888 193.092 177.834 192.86 177.701C192.396 177.433 191.939 177.154 191.489 176.863C191.039 176.572 190.594 176.3 190.154 176.045C189.727 175.768 189.305 175.509 188.887 175.268C188.493 175.041 188.081 174.818 187.651 174.6C187.243 174.396 186.813 174.178 186.359 173.947C185.915 173.753 185.461 173.522 184.998 173.254ZM200.469 182.696C199.217 181.974 198.287 180.989 197.679 179.741C197.07 178.494 196.804 177.135 196.881 175.665C196.97 174.172 197.43 172.707 198.259 171.27C199.116 169.787 200.239 168.643 201.63 167.839C203.035 167.012 204.535 166.581 206.132 166.545C207.729 166.509 209.246 166.906 210.683 167.735C211.679 168.311 212.456 169.053 213.013 169.961C213.57 170.87 213.877 171.836 213.936 172.858C214.008 173.858 213.776 174.821 213.241 175.748C212.719 176.652 212.099 176.896 211.38 176.481L204.497 172.507C204.173 172.32 203.876 172.272 203.607 172.364C203.361 172.469 203.111 172.742 202.856 173.182C202.375 174.017 202.118 174.888 202.088 175.798C202.071 176.684 202.273 177.511 202.694 178.28C203.116 179.049 203.755 179.68 204.613 180.175C205.285 180.564 205.972 180.791 206.676 180.857C207.402 180.936 208.183 180.923 209.016 180.817C209.112 180.811 209.22 180.812 209.34 180.819C209.473 180.803 209.574 180.815 209.643 180.855C209.898 181.002 209.939 181.227 209.765 181.528C209.644 181.736 209.394 182.009 209.014 182.346C208.444 182.851 207.701 183.256 206.783 183.561C205.879 183.842 204.873 183.926 203.765 183.811C202.68 183.71 201.581 183.339 200.469 182.696ZM205.38 170.978L207.223 172.042C207.895 172.43 208.342 172.672 208.564 172.769C208.809 172.88 209.044 172.954 209.27 172.992C209.413 173.012 209.579 172.938 209.769 172.77C209.959 172.601 210.121 172.401 210.255 172.17C210.602 171.567 210.686 170.967 210.507 170.368C210.363 169.76 209.99 169.282 209.388 168.934C208.924 168.667 208.404 168.552 207.826 168.589C207.285 168.616 206.766 168.765 206.27 169.035C205.775 169.305 205.405 169.678 205.16 170.155C204.959 170.503 205.033 170.777 205.38 170.978ZM209.445 187.369C209.306 187.288 209.182 187.155 209.073 186.969C208.964 186.782 208.957 186.608 209.051 186.446C209.158 186.26 209.326 186.157 209.555 186.134C209.807 186.126 210.046 186.14 210.272 186.177C210.686 186.262 211.061 186.309 211.396 186.317C211.745 186.302 212.053 186.063 212.321 185.599L216.977 177.534C217.245 177.07 217.391 176.63 217.416 176.212C217.478 175.784 217.332 175.421 216.978 175.124C216.898 175.047 216.839 174.936 216.8 174.79C216.797 174.634 216.856 174.451 216.977 174.243C217.177 173.895 217.414 173.754 217.686 173.818C218.581 174.087 219.636 174.373 220.853 174.673C222.084 174.951 223.147 175.117 224.043 175.171C224.185 175.191 224.335 175.2 224.491 175.197C224.683 175.185 224.826 175.206 224.918 175.259C225.081 175.353 225.147 175.453 225.116 175.559C225.109 175.678 225.072 175.796 225.005 175.912C224.898 176.097 224.696 176.367 224.399 176.721C224.125 177.088 223.895 177.434 223.707 177.758C223.654 177.851 223.594 177.955 223.527 178.071C223.483 178.2 223.466 178.283 223.476 178.32C224.692 178.033 225.803 177.902 226.809 177.926C227.851 177.941 228.905 178.256 229.971 178.871C231.199 179.581 231.976 180.616 232.302 181.979C232.628 183.341 232.336 184.81 231.426 186.386L226.971 194.104C226.703 194.567 226.656 194.942 226.831 195.228C227.006 195.514 227.233 195.816 227.514 196.132C227.659 196.309 227.768 196.495 227.84 196.691C227.912 196.888 227.895 197.078 227.788 197.264C227.694 197.426 227.551 197.513 227.359 197.526C227.189 197.552 227.035 197.524 226.896 197.444C226.432 197.176 225.994 196.892 225.58 196.592C225.153 196.314 224.738 196.044 224.334 195.78C223.93 195.516 223.52 195.263 223.103 195.022C222.709 194.795 222.297 194.572 221.866 194.355C221.435 194.137 220.993 193.913 220.54 193.682C220.096 193.487 219.642 193.256 219.178 192.988C219.039 192.908 218.939 192.788 218.876 192.629C218.814 192.469 218.83 192.308 218.923 192.146C219.03 191.96 219.175 191.843 219.358 191.794C219.564 191.759 219.78 191.76 220.005 191.797C220.42 191.882 220.772 191.915 221.06 191.896C221.372 191.891 221.662 191.657 221.93 191.193L225.884 184.345C226.379 183.487 226.581 182.708 226.492 182.008C226.402 181.307 226.056 180.782 225.453 180.435C225.013 180.18 224.579 180.022 224.151 179.961C223.736 179.876 223.252 179.859 222.697 179.91C222.564 179.926 222.441 179.978 222.328 180.067C222.215 180.156 222.125 180.259 222.058 180.375L217.341 188.544C217.074 189.008 217.015 189.376 217.167 189.649C217.318 189.921 217.523 190.209 217.78 190.513C218.127 190.929 218.207 191.3 218.019 191.624C217.939 191.763 217.808 191.857 217.625 191.906C217.455 191.932 217.301 191.905 217.162 191.824C216.699 191.557 216.272 191.279 215.881 190.992C215.478 190.728 215.085 190.471 214.705 190.22C214.347 189.983 213.96 189.744 213.543 189.503C213.149 189.275 212.725 189.046 212.271 188.815C211.818 188.584 211.352 188.346 210.875 188.102C210.385 187.881 209.908 187.636 209.445 187.369ZM235.13 202.708C233.879 201.985 232.949 201 232.34 199.753C231.732 198.506 231.466 197.147 231.542 195.677C231.631 194.183 232.091 192.718 232.921 191.281C233.79 189.775 234.921 188.62 236.312 187.816C237.726 187.026 239.231 186.613 240.828 186.577C242.425 186.541 243.953 186.944 245.413 187.787C247.406 188.938 248.652 190.553 249.151 192.633C249.202 192.972 249.175 193.234 249.068 193.42C248.987 193.559 248.763 193.707 248.394 193.865C248.038 193.999 247.654 194.102 247.242 194.173C246.867 194.235 246.586 194.212 246.401 194.105C246.169 193.971 245.989 193.774 245.861 193.515C245.733 193.255 245.623 192.991 245.531 192.722C245.213 191.827 244.828 191.049 244.376 190.386C243.961 189.714 243.521 189.244 243.058 188.977C242.247 188.508 241.45 188.496 240.668 188.941C239.9 189.362 239.04 190.396 238.09 192.041C237.435 193.177 237.035 194.244 236.891 195.242C236.747 196.241 236.873 197.148 237.267 197.963C237.675 198.754 238.355 199.425 239.305 199.973C240 200.375 240.669 200.607 241.313 200.669C241.98 200.745 242.712 200.735 243.509 200.639C243.678 200.613 243.829 200.592 243.962 200.576C244.095 200.56 244.219 200.586 244.335 200.653C244.613 200.813 244.645 201.079 244.431 201.45C244.378 201.543 244.293 201.663 244.176 201.812C244.059 201.961 243.894 202.113 243.681 202.268C243.228 202.625 242.513 202.953 241.536 203.254C240.572 203.532 239.521 203.667 238.382 203.658C237.257 203.627 236.173 203.31 235.13 202.708ZM249.456 210.979C248.205 210.257 247.275 209.272 246.666 208.024C246.058 206.777 245.792 205.418 245.868 203.948C245.958 202.455 246.417 200.99 247.247 199.553C248.103 198.069 249.227 196.926 250.618 196.122C252.022 195.295 253.523 194.864 255.12 194.828C256.716 194.792 258.233 195.189 259.67 196.018C260.667 196.594 261.443 197.336 262 198.244C262.557 199.153 262.865 200.118 262.923 201.141C262.995 202.14 262.764 203.104 262.228 204.031C261.707 204.935 261.086 205.179 260.368 204.764L253.485 200.79C253.16 200.603 252.864 200.555 252.594 200.647C252.348 200.752 252.098 201.025 251.844 201.465C251.362 202.299 251.106 203.171 251.075 204.081C251.058 204.967 251.26 205.794 251.682 206.563C252.103 207.331 252.743 207.963 253.6 208.458C254.272 208.846 254.96 209.074 255.663 209.14C256.39 209.219 257.17 209.206 258.004 209.1C258.1 209.094 258.208 209.095 258.327 209.102C258.46 209.086 258.561 209.098 258.631 209.138C258.886 209.285 258.926 209.509 258.752 209.811C258.632 210.019 258.382 210.292 258.002 210.629C257.432 211.134 256.688 211.539 255.771 211.844C254.867 212.125 253.861 212.209 252.752 212.094C251.667 211.993 250.569 211.621 249.456 210.979ZM254.368 199.261L256.21 200.325C256.882 200.713 257.33 200.955 257.551 201.052C257.797 201.163 258.032 201.237 258.257 201.275C258.4 201.295 258.566 201.221 258.756 201.053C258.946 200.884 259.108 200.684 259.242 200.453C259.59 199.85 259.674 199.25 259.494 198.651C259.351 198.043 258.978 197.565 258.375 197.217C257.912 196.95 257.391 196.835 256.813 196.872C256.272 196.899 255.754 197.048 255.258 197.318C254.762 197.588 254.392 197.961 254.148 198.438C253.947 198.786 254.02 199.06 254.368 199.261ZM277.687 227.51C277.617 227.47 277.56 227.328 277.514 227.086C277.469 226.843 277.473 226.676 277.527 226.583C277.824 226.229 278.064 225.92 278.248 225.655C278.445 225.367 278.622 225.114 278.779 224.896L278.899 224.687C277.948 225.158 276.928 225.372 275.839 225.331C274.751 225.289 273.755 225.008 272.851 224.486C271.576 223.75 270.61 222.775 269.951 221.56C269.306 220.323 269.003 218.974 269.043 217.514C269.083 216.053 269.497 214.639 270.287 213.272C271.223 211.65 272.406 210.432 273.833 209.618C275.274 208.782 276.833 208.384 278.509 208.424C280.185 208.465 281.846 208.96 283.491 209.91C283.815 210.098 284.138 210.315 284.459 210.562C284.803 210.822 285.111 211.093 285.381 211.373C285.689 211.643 285.82 211.765 285.773 211.738C285.866 211.791 285.986 211.691 286.133 211.436L288.401 207.507C288.869 206.696 289.118 206.052 289.146 205.574C289.188 205.073 288.993 204.636 288.56 204.262C288.322 204.032 288.29 203.766 288.464 203.465C288.638 203.164 288.866 203.063 289.147 203.164C290.089 203.46 291.133 203.739 292.28 204C293.451 204.274 294.441 204.459 295.25 204.556C295.691 204.594 295.977 204.635 296.106 204.679C296.249 204.699 296.332 204.716 296.355 204.73C296.633 204.89 296.685 205.121 296.511 205.423C296.578 205.307 296.533 205.358 296.376 205.576C296.232 205.771 296.048 206.036 295.825 206.37C295.614 206.682 295.424 206.958 295.253 207.199L284.688 225.017C284.233 225.805 283.964 226.406 283.879 226.82C283.807 227.212 283.922 227.494 284.223 227.668C284.339 227.735 284.444 227.796 284.536 227.849C284.666 227.893 285.033 228.059 285.639 228.347C285.954 228.498 286.031 228.712 285.871 228.99C285.764 229.176 285.562 229.337 285.266 229.475C285.007 229.604 284.819 229.634 284.703 229.568C283.769 229.152 282.748 228.779 281.641 228.449C280.547 228.095 279.478 227.833 278.433 227.663C278.254 227.652 278.1 227.625 277.97 227.581C277.851 227.574 277.756 227.55 277.687 227.51ZM276.208 223.087C276.486 223.248 276.92 223.405 277.51 223.561C278.114 223.693 278.653 223.695 279.128 223.568L283.73 215.518C283.931 215.17 283.987 214.724 283.9 214.179C283.813 213.634 283.623 213.107 283.33 212.598C283.036 212.089 282.693 211.721 282.299 211.493C281.743 211.172 281.104 211.128 280.383 211.36C279.698 211.583 278.987 212.038 278.251 212.725C277.514 213.412 276.831 214.3 276.202 215.39C275.707 216.247 275.333 217.082 275.081 217.894C274.842 218.683 274.726 219.419 274.732 220.103C274.739 220.787 274.86 221.381 275.093 221.887C275.35 222.406 275.721 222.806 276.208 223.087ZM291.586 235.303C290.335 234.58 289.405 233.595 288.796 232.348C288.188 231.1 287.922 229.742 287.998 228.272C288.087 226.778 288.547 225.313 289.377 223.876C290.233 222.393 291.357 221.25 292.748 220.446C294.152 219.619 295.653 219.188 297.249 219.152C298.846 219.116 300.363 219.512 301.8 220.342C302.796 220.917 303.573 221.659 304.13 222.568C304.687 223.477 304.995 224.442 305.053 225.465C305.125 226.464 304.893 227.427 304.358 228.354C303.836 229.258 303.216 229.503 302.498 229.088L295.615 225.114C295.29 224.927 294.993 224.879 294.724 224.971C294.478 225.076 294.228 225.349 293.974 225.789C293.492 226.623 293.236 227.495 293.205 228.404C293.188 229.291 293.39 230.118 293.812 230.887C294.233 231.655 294.872 232.287 295.73 232.782C296.402 233.17 297.09 233.397 297.793 233.463C298.52 233.543 299.3 233.53 300.133 233.424C300.23 233.418 300.338 233.418 300.457 233.426C300.59 233.41 300.691 233.422 300.761 233.462C301.016 233.609 301.056 233.833 300.882 234.134C300.762 234.343 300.512 234.616 300.132 234.953C299.562 235.458 298.818 235.863 297.901 236.167C296.997 236.449 295.99 236.532 294.882 236.418C293.797 236.317 292.699 235.945 291.586 235.303ZM296.498 223.584L298.34 224.648C299.012 225.036 299.459 225.279 299.681 225.376C299.926 225.487 300.162 225.561 300.387 225.598C300.53 225.619 300.696 225.545 300.886 225.377C301.076 225.208 301.238 225.008 301.372 224.776C301.72 224.174 301.804 223.573 301.624 222.975C301.481 222.367 301.108 221.889 300.505 221.541C300.042 221.273 299.521 221.158 298.943 221.196C298.402 221.223 297.884 221.372 297.388 221.642C296.892 221.912 296.522 222.285 296.277 222.762C296.077 223.11 296.15 223.384 296.498 223.584ZM304.861 242.967C304.073 242.512 303.361 241.978 302.727 241.364C302.102 240.787 301.597 240.109 301.212 239.331C301.195 238.826 301.36 238.165 301.709 237.347C302.071 236.505 302.525 235.639 303.07 234.749C303.244 234.447 303.574 234.437 304.061 234.718C304.269 234.839 304.403 235.008 304.462 235.228C304.544 235.461 304.575 235.648 304.554 235.791C304.482 236.985 304.51 238.114 304.638 239.177C304.78 240.216 305.279 240.984 306.137 241.479C306.739 241.827 307.287 241.896 307.779 241.685C308.294 241.488 308.679 241.17 308.933 240.73C309.281 240.127 309.326 239.488 309.066 238.813C308.807 238.138 308.468 237.494 308.049 236.882C307.588 236.183 307.164 235.444 306.78 234.666C306.408 233.864 306.201 233.018 306.159 232.129C306.116 231.239 306.362 230.33 306.898 229.403C307.446 228.453 308.169 227.789 309.067 227.412C310.002 227.024 311.016 226.899 312.111 227.037C313.219 227.151 314.295 227.509 315.338 228.112C316.126 228.567 316.802 229.081 317.367 229.654C317.969 230.218 318.35 230.654 318.511 230.964C318.563 231.303 318.441 231.835 318.146 232.56C317.887 233.276 317.517 234.051 317.035 234.886C316.888 235.14 316.583 235.134 316.119 234.866C315.957 234.773 315.817 234.615 315.698 234.392C315.593 234.146 315.551 233.951 315.571 233.809C315.805 232.708 315.813 231.785 315.593 231.04C315.398 230.309 315.022 229.783 314.465 229.462C313.955 229.168 313.398 229.062 312.794 229.146C312.213 229.243 311.768 229.558 311.46 230.091C311.193 230.554 311.177 231.117 311.413 231.779C311.685 232.43 312.041 233.099 312.479 233.785C313.554 235.456 314.202 236.85 314.422 237.966C314.643 239.082 314.392 240.266 313.67 241.517C312.773 243.07 311.579 243.988 310.088 244.27C308.596 244.552 306.854 244.118 304.861 242.967ZM140.867 187.545C140.195 187.157 139.668 186.652 139.286 186.029C138.89 185.43 138.671 184.794 138.627 184.12C138.597 183.422 138.756 182.773 139.104 182.17C139.572 181.359 140.222 180.822 141.053 180.56C141.907 180.312 142.959 180.255 144.21 180.39L147.962 180.795C148.546 180.854 148.943 180.836 149.153 180.741C149.376 180.622 149.614 180.343 149.868 179.903L151.007 178.011C151.418 177.352 151.608 176.782 151.577 176.301C151.56 175.796 151.307 175.403 150.821 175.122C150.543 174.962 150.213 174.864 149.831 174.829C149.463 174.771 149.163 174.783 148.93 174.865C148.807 174.917 148.7 174.995 148.61 175.097C148.52 175.2 148.442 175.309 148.375 175.425C148.294 175.564 148.199 175.756 148.088 176.001C147.991 176.223 147.902 176.404 147.822 176.543C147.728 176.705 147.418 176.788 146.89 176.793C146.375 176.774 145.81 176.71 145.193 176.601C144.589 176.469 144.102 176.295 143.731 176.081C143.546 175.974 143.424 175.811 143.365 175.592C143.343 175.363 143.399 175.132 143.533 174.901C143.747 174.53 144.081 174.244 144.537 174.044C144.993 173.843 145.662 173.674 146.546 173.535C147.466 173.386 148.411 173.329 149.38 173.363C150.349 173.397 151.259 173.506 152.112 173.689C152.977 173.849 153.665 174.076 154.175 174.37C155.496 175.133 156.303 176.171 156.596 177.483C156.902 178.772 156.624 180.11 155.761 181.497L151.694 188.141C151.363 188.661 151.176 189.171 151.134 189.672C151.129 190.163 151.277 190.496 151.578 190.67C151.995 190.911 152.453 190.974 152.951 190.86C153.061 190.831 153.151 190.836 153.22 190.876C153.336 190.943 153.402 191.043 153.418 191.176C153.47 191.299 153.463 191.418 153.396 191.534C153.236 191.812 152.79 192.049 152.059 192.245C151.364 192.431 150.702 192.481 150.072 192.396C149.428 192.333 148.828 192.141 148.272 191.82C146.928 191.044 146.192 189.723 146.064 187.857L145.994 187.817C144.815 188.094 143.837 188.209 143.06 188.162C142.27 188.139 141.539 187.933 140.867 187.545ZM144.407 186.391C144.616 186.511 144.81 186.577 144.989 186.588C145.168 186.598 145.363 186.556 145.572 186.461C145.695 186.408 145.808 186.319 145.912 186.193C146.039 186.081 146.149 185.944 146.242 185.782L147.892 183.165C148.013 182.956 148.051 182.809 148.009 182.722C147.979 182.613 147.918 182.531 147.825 182.478C147.779 182.451 147.714 182.429 147.632 182.412C147.585 182.385 147.514 182.375 147.418 182.381C146.687 182.361 146.078 182.427 145.589 182.577C145.137 182.718 144.677 183.194 144.209 184.005C143.821 184.677 143.687 185.203 143.809 185.582C143.953 185.974 144.153 186.244 144.407 186.391ZM153.955 207.848C151.638 206.51 150.031 205.119 149.134 203.674C148.238 202.23 148.144 200.893 148.854 199.665C149.268 198.946 149.684 198.414 150.1 198.067C150.503 197.744 151.145 197.542 152.025 197.463C152.676 197.406 153.285 197.341 153.853 197.267C154.421 197.193 154.868 197.142 155.193 197.114L156.565 198.833C155.715 198.806 154.966 198.899 154.318 199.112C153.656 199.348 153.152 199.767 152.804 200.369C152.255 201.32 152.201 202.324 152.641 203.381C153.068 204.462 153.895 205.357 155.123 206.066C156.769 207.016 158.085 207.359 159.072 207.094C159.694 206.928 160.261 206.668 160.773 206.315C161.286 205.962 161.676 205.554 161.944 205.09C162.145 204.743 162.189 204.398 162.078 204.055C161.967 203.713 161.633 203.273 161.078 202.736C160.533 202.236 159.702 201.587 158.587 200.789C156.278 199.115 154.804 197.6 154.166 196.243C153.538 194.922 153.559 193.683 154.228 192.524C154.348 192.315 154.533 192.129 154.783 191.964C155.056 191.812 155.463 191.723 156.004 191.696C156.462 191.651 156.909 191.6 157.344 191.542C157.802 191.498 158.207 191.438 158.56 191.363C158.912 191.289 159.169 191.19 159.333 191.068L160.814 192.758C160.27 192.629 159.779 192.623 159.34 192.741C158.901 192.859 158.629 193.01 158.522 193.195C158.388 193.427 158.413 193.704 158.598 194.027C158.819 194.34 159.261 194.75 159.926 195.258C160.614 195.779 161.586 196.479 162.84 197.357C165.315 199.064 166.953 200.535 167.754 201.77C168.592 202.996 168.696 204.153 168.067 205.242C167.505 206.215 166.672 207.017 165.567 207.646C164.485 208.288 163.254 208.736 161.872 208.989C160.513 209.255 159.144 209.298 157.764 209.12C156.384 208.941 155.114 208.517 153.955 207.848ZM163.052 193.216C163.748 193.617 164.52 193.537 165.369 192.977C166.254 192.407 167.091 191.438 167.881 190.07C168.389 189.19 168.727 188.365 168.893 187.595C169.082 186.84 169.103 186.187 168.956 185.639C168.823 185.068 168.513 184.641 168.026 184.36C167.586 184.106 167.084 184.064 166.523 184.234C165.974 184.381 165.415 184.707 164.845 185.212C164.299 185.731 163.791 186.396 163.323 187.207C162.815 188.088 162.464 188.936 162.271 189.752C162.078 190.567 162.047 191.291 162.177 191.922C162.32 192.53 162.612 192.961 163.052 193.216ZM161.712 194.574C160.669 193.972 159.778 193.133 159.039 192.058C158.337 190.972 157.904 189.795 157.741 188.527C157.614 187.248 157.878 186.041 158.534 184.906C159.216 183.724 160.154 182.875 161.348 182.359C162.579 181.833 163.886 181.63 165.269 181.749C166.676 181.881 168.005 182.309 169.257 183.031C169.975 183.446 170.623 183.929 171.202 184.479C171.78 185.029 172.453 185.603 173.221 186.201C173.598 186.511 174.005 186.823 174.441 187.137C174.878 187.451 175.374 187.769 175.931 188.09C176.302 188.304 176.656 188.493 176.994 188.657C177.368 188.812 177.671 188.956 177.903 189.089C178.297 189.317 178.333 189.709 178.012 190.265C177.731 190.752 177.301 191.121 176.723 191.375C176.49 191.456 176.292 191.451 176.13 191.357L175.192 190.815C174.589 190.467 174.118 190.319 173.78 190.371C173.683 190.377 173.617 190.385 173.58 190.395C173.544 190.404 173.465 190.514 173.345 190.722C173.238 190.908 173.01 191.302 172.662 191.904C171.953 193.132 170.98 194.069 169.742 194.714C168.505 195.359 167.172 195.687 165.745 195.697C164.331 195.684 162.987 195.31 161.712 194.574ZM171.295 204.603C171.156 204.522 171.032 204.389 170.923 204.203C170.815 204.016 170.807 203.842 170.901 203.68C171.008 203.494 171.176 203.391 171.405 203.368C171.657 203.36 171.896 203.374 172.122 203.411C172.536 203.496 172.911 203.543 173.246 203.551C173.595 203.536 173.903 203.297 174.171 202.833L178.827 194.768C179.095 194.304 179.241 193.864 179.266 193.446C179.328 193.018 179.182 192.655 178.828 192.358C178.749 192.281 178.689 192.17 178.65 192.024C178.647 191.868 178.706 191.685 178.827 191.477C179.028 191.129 179.264 190.988 179.536 191.052C180.431 191.321 181.487 191.607 182.703 191.907C183.934 192.185 184.997 192.351 185.893 192.405C186.035 192.425 186.185 192.434 186.341 192.431C186.533 192.419 186.676 192.44 186.769 192.493C186.931 192.587 186.997 192.687 186.966 192.793C186.959 192.912 186.922 193.03 186.855 193.146C186.748 193.331 186.546 193.601 186.249 193.955C185.975 194.322 185.745 194.668 185.558 194.992C185.504 195.085 185.444 195.189 185.377 195.305C185.333 195.434 185.316 195.517 185.326 195.554C186.542 195.267 187.653 195.136 188.659 195.16C189.701 195.175 190.755 195.49 191.821 196.105C193.049 196.815 193.826 197.85 194.152 199.213C194.478 200.575 194.186 202.044 193.276 203.62L188.821 211.338C188.553 211.801 188.507 212.176 188.681 212.462C188.856 212.748 189.084 213.05 189.364 213.366C189.51 213.543 189.618 213.729 189.69 213.925C189.763 214.122 189.745 214.312 189.638 214.498C189.544 214.66 189.401 214.747 189.209 214.76C189.039 214.786 188.885 214.758 188.746 214.678C188.283 214.41 187.844 214.126 187.43 213.826C187.004 213.548 186.588 213.278 186.184 213.014C185.781 212.75 185.37 212.497 184.953 212.256C184.559 212.029 184.147 211.806 183.716 211.589C183.286 211.371 182.844 211.147 182.39 210.916C181.946 210.721 181.492 210.49 181.029 210.222C180.89 210.142 180.789 210.022 180.727 209.863C180.664 209.703 180.68 209.542 180.774 209.38C180.881 209.194 181.025 209.077 181.208 209.028C181.414 208.993 181.63 208.994 181.855 209.031C182.27 209.116 182.622 209.149 182.911 209.13C183.223 209.125 183.512 208.891 183.78 208.427L187.734 201.579C188.229 200.721 188.432 199.942 188.342 199.242C188.252 198.541 187.906 198.016 187.303 197.669C186.863 197.414 186.429 197.256 186.001 197.195C185.586 197.11 185.102 197.093 184.547 197.144C184.414 197.16 184.291 197.212 184.178 197.301C184.065 197.39 183.975 197.493 183.908 197.609L179.191 205.778C178.924 206.242 178.866 206.61 179.017 206.883C179.169 207.155 179.373 207.443 179.631 207.747C179.977 208.163 180.057 208.534 179.87 208.858C179.789 208.997 179.658 209.091 179.475 209.14C179.306 209.166 179.151 209.139 179.012 209.058C178.549 208.791 178.122 208.513 177.732 208.226C177.328 207.962 176.936 207.705 176.555 207.454C176.198 207.217 175.81 206.978 175.393 206.737C174.999 206.51 174.575 206.28 174.122 206.049C173.668 205.818 173.203 205.58 172.726 205.336C172.235 205.115 171.759 204.87 171.295 204.603ZM196.98 219.942C195.729 219.219 194.799 218.234 194.19 216.987C193.582 215.74 193.316 214.381 193.392 212.911C193.482 211.417 193.941 209.952 194.771 208.515C195.627 207.032 196.751 205.889 198.142 205.085C199.546 204.258 201.047 203.827 202.644 203.791C204.24 203.755 205.757 204.151 207.194 204.981C208.191 205.556 208.967 206.298 209.524 207.207C210.081 208.116 210.389 209.081 210.447 210.104C210.519 211.103 210.288 212.066 209.752 212.994C209.231 213.897 208.61 214.142 207.892 213.727L201.009 209.753C200.684 209.566 200.388 209.518 200.118 209.61C199.872 209.715 199.622 209.988 199.368 210.428C198.886 211.262 198.63 212.134 198.599 213.043C198.582 213.93 198.784 214.757 199.206 215.526C199.627 216.294 200.267 216.926 201.124 217.421C201.796 217.809 202.484 218.036 203.187 218.103C203.914 218.182 204.694 218.169 205.528 218.063C205.624 218.057 205.732 218.057 205.851 218.065C205.984 218.049 206.085 218.061 206.155 218.101C206.41 218.248 206.45 218.472 206.276 218.773C206.156 218.982 205.906 219.255 205.526 219.592C204.956 220.097 204.212 220.502 203.295 220.807C202.391 221.088 201.385 221.171 200.276 221.057C199.191 220.956 198.093 220.584 196.98 219.942ZM201.892 208.224L203.734 209.287C204.406 209.675 204.854 209.918 205.075 210.015C205.321 210.126 205.556 210.2 205.781 210.237C205.924 210.258 206.09 210.184 206.28 210.016C206.47 209.847 206.632 209.647 206.766 209.415C207.114 208.813 207.198 208.212 207.018 207.614C206.875 207.006 206.502 206.528 205.899 206.18C205.436 205.913 204.915 205.797 204.337 205.835C203.796 205.862 203.278 206.011 202.782 206.281C202.286 206.551 201.916 206.924 201.672 207.401C201.471 207.749 201.544 208.023 201.892 208.224ZM208.934 226.843C208.262 226.455 207.734 225.95 207.352 225.328C206.957 224.728 206.737 224.092 206.693 223.418C206.663 222.721 206.822 222.071 207.17 221.468C207.638 220.657 208.288 220.12 209.119 219.859C209.973 219.61 211.026 219.553 212.277 219.688L216.029 220.094C216.613 220.153 217.009 220.134 217.219 220.039C217.442 219.921 217.681 219.641 217.935 219.201L219.073 217.309C219.485 216.65 219.675 216.08 219.644 215.599C219.626 215.094 219.374 214.701 218.887 214.42C218.609 214.26 218.279 214.162 217.898 214.127C217.529 214.069 217.229 214.081 216.996 214.163C216.873 214.216 216.767 214.293 216.677 214.396C216.586 214.498 216.508 214.607 216.441 214.723C216.361 214.862 216.265 215.054 216.155 215.299C216.057 215.521 215.969 215.702 215.888 215.841C215.795 216.003 215.484 216.086 214.956 216.091C214.442 216.072 213.876 216.008 213.259 215.899C212.656 215.767 212.169 215.594 211.798 215.38C211.612 215.273 211.49 215.109 211.432 214.89C211.409 214.661 211.465 214.43 211.599 214.199C211.813 213.828 212.148 213.542 212.604 213.342C213.059 213.141 213.729 212.972 214.612 212.833C215.532 212.684 216.477 212.627 217.446 212.661C218.415 212.696 219.326 212.804 220.178 212.987C221.044 213.147 221.731 213.374 222.241 213.669C223.562 214.431 224.369 215.469 224.662 216.781C224.968 218.07 224.69 219.409 223.828 220.795L219.76 227.439C219.429 227.959 219.243 228.469 219.201 228.97C219.195 229.461 219.343 229.794 219.644 229.968C220.062 230.209 220.519 230.272 221.018 230.158C221.127 230.129 221.217 230.134 221.286 230.174C221.402 230.241 221.468 230.341 221.484 230.474C221.537 230.597 221.53 230.717 221.463 230.832C221.302 231.11 220.856 231.347 220.125 231.543C219.431 231.729 218.768 231.78 218.138 231.694C217.494 231.631 216.894 231.439 216.338 231.118C214.994 230.342 214.258 229.021 214.13 227.155L214.061 227.115C212.881 227.392 211.903 227.507 211.127 227.46C210.337 227.437 209.606 227.231 208.934 226.843ZM212.474 225.689C212.682 225.809 212.876 225.875 213.056 225.886C213.235 225.896 213.429 225.854 213.639 225.759C213.762 225.706 213.875 225.617 213.978 225.492C214.105 225.379 214.215 225.242 214.309 225.08L215.959 222.463C216.079 222.255 216.118 222.107 216.075 222.021C216.046 221.911 215.985 221.829 215.892 221.776C215.846 221.749 215.781 221.727 215.698 221.71C215.652 221.683 215.58 221.673 215.484 221.679C214.754 221.66 214.145 221.725 213.656 221.875C213.204 222.016 212.744 222.492 212.275 223.303C211.887 223.975 211.754 224.501 211.875 224.88C212.019 225.272 212.219 225.542 212.474 225.689ZM231.642 240.278C231.433 240.158 231.396 239.982 231.53 239.75C231.69 239.472 231.927 239.114 232.241 238.678C232.592 238.231 232.834 237.892 232.968 237.66C233.035 237.544 233.077 237.445 233.094 237.362C233.134 237.293 233.149 237.239 233.139 237.203C232.168 237.6 231.024 237.789 229.706 237.77C228.389 237.751 227.197 237.434 226.131 236.818C225.412 236.403 224.89 235.809 224.565 235.034C224.253 234.236 224.144 233.354 224.238 232.389C224.355 231.436 224.682 230.497 225.217 229.57L228.91 223.173C229.218 222.64 229.372 222.158 229.374 221.727C229.39 221.272 229.158 220.844 228.678 220.444C228.552 220.34 228.458 220.209 228.396 220.049C228.347 219.867 228.383 219.671 228.503 219.462C228.597 219.3 228.723 219.188 228.883 219.125C229.043 219.063 229.21 219.067 229.386 219.138C230.432 219.68 231.431 220.118 232.382 220.45C233.357 220.797 234.333 221.113 235.311 221.4C235.453 221.42 235.601 221.459 235.753 221.516C235.942 221.563 236.106 221.627 236.245 221.707C236.57 221.895 236.627 222.144 236.416 222.455C236.016 222.935 235.685 223.346 235.425 223.69C235.178 224.011 234.9 224.438 234.593 224.971L230.759 231.611C230.438 232.167 230.238 232.701 230.16 233.212C230.094 233.699 230.146 234.146 230.313 234.552C230.494 234.934 230.763 235.244 231.12 235.481C231.445 235.669 231.796 235.81 232.174 235.904C232.589 235.989 233.034 235.968 233.509 235.84C233.692 235.791 233.93 235.62 234.223 235.326C234.54 235.045 234.865 234.615 235.2 234.036L238.331 228.613C238.558 228.219 238.683 227.842 238.704 227.484C238.749 227.139 238.679 226.805 238.494 226.482C238.347 226.15 238.082 225.858 237.702 225.607C237.437 225.424 237.257 225.227 237.162 225.018C237.09 224.821 237.134 224.584 237.294 224.306C237.441 224.051 237.63 223.913 237.859 223.89C238.111 223.882 238.353 223.944 238.585 224.078C239.913 224.721 240.961 225.234 241.73 225.615C242.511 225.974 243.154 226.252 243.658 226.45C244.161 226.649 244.66 226.828 245.154 226.99C245.237 227.007 245.331 227.031 245.437 227.061C245.544 227.091 245.631 227.126 245.701 227.167C246.049 227.367 246.142 227.607 245.982 227.885C245.928 227.978 245.863 228.064 245.786 228.143C245.709 228.222 245.615 228.306 245.501 228.396C245.425 228.475 245.269 228.663 245.036 228.961C244.839 229.249 244.616 229.553 244.369 229.874C244.146 230.208 243.973 230.48 243.853 230.688L239.197 238.753C238.902 239.263 238.766 239.633 238.788 239.862C238.834 240.104 238.938 240.273 239.1 240.366C239.193 240.42 239.325 240.512 239.497 240.642C239.705 240.762 239.845 240.843 239.914 240.883C240.146 241.016 240.279 241.186 240.315 241.392C240.364 241.575 240.335 241.759 240.228 241.945C240.094 242.176 239.941 242.335 239.768 242.42C239.618 242.519 239.409 242.507 239.141 242.383C237.928 241.807 236.76 241.395 235.636 241.147C234.512 240.9 233.54 240.71 232.721 240.577C232.519 240.553 232.323 240.517 232.134 240.47C231.945 240.422 231.781 240.359 231.642 240.278ZM240.453 244.578C240.291 244.484 240.119 244.354 239.937 244.187C239.756 244.02 239.718 243.844 239.825 243.659C239.946 243.45 240.079 243.326 240.225 243.287C240.385 243.225 240.607 243.214 240.893 243.255C241.178 243.296 241.508 243.286 241.883 243.225C242.272 243.14 242.861 242.924 243.649 242.575L249.595 239.983C249.841 239.878 249.998 239.767 250.065 239.652C250.132 239.536 250.161 239.352 250.152 239.099L249.747 233.86C249.713 233.222 249.668 232.686 249.61 232.251C249.552 231.816 249.366 231.415 249.053 231.048C248.874 230.822 248.766 230.636 248.726 230.489C248.701 230.32 248.748 230.131 248.868 229.922C248.975 229.737 249.147 229.681 249.382 229.755C249.617 229.829 249.816 229.913 249.978 230.007C250.558 230.341 250.996 230.626 251.294 230.859C251.628 231.083 251.944 231.312 252.242 231.546C252.553 231.756 252.963 232.009 253.473 232.303C254.215 232.731 254.849 233.051 255.376 233.262C255.926 233.487 256.63 233.847 257.487 234.342C257.649 234.436 257.803 234.571 257.948 234.748C258.117 234.937 258.148 235.125 258.04 235.311C257.92 235.519 257.747 235.605 257.522 235.567C257.296 235.53 257.064 235.504 256.825 235.489C256.54 235.448 256.241 235.43 255.929 235.436C255.653 235.431 255.442 235.556 255.295 235.811C255.215 235.95 255.167 236.139 255.153 236.378C255.139 236.617 255.136 236.863 255.145 237.115L255.399 240.367C255.395 240.643 255.499 240.703 255.712 240.548L257.579 239.401C257.865 239.227 258.142 239.015 258.408 238.768C258.712 238.51 258.925 238.247 259.049 237.979C259.277 237.585 259.217 237.18 258.87 236.763C258.739 236.563 258.623 236.389 258.524 236.239C258.425 236.089 258.436 235.91 258.557 235.701C258.664 235.516 258.83 235.442 259.055 235.479C259.304 235.53 259.51 235.603 259.672 235.696C260.331 236.107 260.811 236.4 261.112 236.574C261.413 236.748 261.714 236.922 262.016 237.096C262.294 237.256 262.567 237.399 262.835 237.523C263.127 237.66 263.615 237.911 264.301 238.276C264.463 238.37 264.635 238.5 264.817 238.667C264.999 238.833 265.036 239.01 264.929 239.195C264.809 239.404 264.669 239.539 264.509 239.601C264.363 239.641 264.147 239.64 263.862 239.598C263.576 239.557 263.239 239.579 262.851 239.664C262.498 239.738 261.917 239.943 261.105 240.278L256.606 242.13C256.273 242.278 256.079 242.428 256.022 242.581C255.978 242.71 255.96 242.901 255.969 243.153L256.256 249.159C256.3 249.833 256.416 250.487 256.606 251.122C256.809 251.734 257.084 252.248 257.43 252.664C257.609 252.891 257.711 253.089 257.737 253.258C257.776 253.404 257.735 253.582 257.615 253.79C257.508 253.976 257.336 254.032 257.101 253.957C256.866 253.883 256.667 253.8 256.505 253.706C255.949 253.385 255.445 253.079 254.995 252.788C254.582 252.487 254.161 252.198 253.734 251.921C253.344 251.634 252.894 251.343 252.384 251.049C251.642 250.62 250.95 250.267 250.308 249.989C249.665 249.711 248.915 249.324 248.057 248.829C247.501 248.508 247.317 248.185 247.504 247.86C247.624 247.652 247.774 247.553 247.953 247.564C248.146 247.551 248.378 247.577 248.65 247.641C249.005 247.723 249.329 247.724 249.621 247.646C249.927 247.544 250.214 247.262 250.481 246.798C250.628 246.543 250.732 246.31 250.793 246.098C250.854 245.885 250.867 245.568 250.832 245.147L250.534 241.73C250.504 241.62 250.435 241.58 250.325 241.609L247.245 243.493C247.058 243.601 246.809 243.766 246.496 243.987C246.196 244.185 245.966 244.423 245.805 244.701C245.658 244.956 245.577 245.203 245.563 245.442C245.585 245.671 245.679 245.91 245.844 246.16C245.975 246.36 246.102 246.541 246.225 246.705C246.347 246.868 246.347 247.054 246.227 247.262C246.12 247.448 245.942 247.515 245.693 247.464C245.468 247.426 245.274 247.361 245.112 247.267C244.43 246.843 243.98 246.552 243.761 246.395C243.53 246.261 243.263 246.107 242.962 245.933C242.684 245.773 242.371 245.592 242.023 245.391C241.676 245.191 241.152 244.919 240.453 244.578Z" fill="white"/>
<circle cx="-18.9585" cy="408.696" r="40.565" transform="rotate(30 -18.9585 408.696)" stroke="white" stroke-width="1.22924"/>
<circle cx="-18.7342" cy="409.534" r="53.472" transform="rotate(30 -18.7342 409.534)" stroke="white" stroke-width="1.22924"/>
<circle cx="-18.9586" cy="408.695" r="14.1363" transform="rotate(30 -18.9586 408.695)" fill="white"/>
<path fill-rule="evenodd" clip-rule="evenodd" d="M-34.0173 434.776C-19.6128 443.093 -1.19386 438.157 7.12256 423.753C15.439 409.348 10.5037 390.929 -3.90082 382.613C-18.3053 374.296 -36.7242 379.232 -45.0406 393.636C-53.3571 408.041 -48.4217 426.46 -34.0173 434.776ZM-27.2561 423.067C-19.319 427.65 -9.16977 424.93 -4.58725 416.993C-0.00472546 409.056 -2.7242 398.907 -10.6614 394.324C-18.5985 389.742 -28.7477 392.461 -33.3302 400.398C-37.9128 408.335 -35.1933 418.485 -27.2561 423.067Z" fill="white"/>
<circle cx="230.454" cy="353.034" r="40.565" transform="rotate(30 230.454 353.034)" stroke="white" stroke-width="1.22924"/>
<circle cx="230.678" cy="353.872" r="53.472" transform="rotate(30 230.678 353.872)" stroke="white" stroke-width="1.22924"/>
<circle cx="230.454" cy="353.033" r="14.1363" transform="rotate(30 230.454 353.033)" fill="white"/>
<path fill-rule="evenodd" clip-rule="evenodd" d="M215.395 379.114C229.799 387.43 248.218 382.495 256.535 368.091C264.851 353.686 259.916 335.267 245.511 326.951C231.107 318.634 212.688 323.57 204.371 337.974C196.055 352.379 200.99 370.798 215.395 379.114ZM222.156 367.405C230.093 371.988 240.242 369.268 244.825 361.331C249.407 353.394 246.688 343.245 238.751 338.662C230.814 334.08 220.664 336.799 216.082 344.736C211.499 352.673 214.219 362.822 222.156 367.405Z" fill="white"/>
<circle cx="67.4966" cy="258.952" r="40.565" transform="rotate(30 67.4966 258.952)" stroke="white" stroke-width="1.22924"/>
<circle cx="67.7209" cy="259.79" r="53.472" transform="rotate(30 67.7209 259.79)" stroke="white" stroke-width="1.22924"/>
<circle cx="67.4965" cy="258.951" r="14.1363" transform="rotate(30 67.4965 258.951)" fill="white"/>
<path fill-rule="evenodd" clip-rule="evenodd" d="M52.4378 285.032C66.8423 293.348 85.2612 288.413 93.5776 274.009C101.894 259.604 96.9587 241.185 82.5543 232.869C68.1498 224.552 49.7309 229.488 41.4144 243.892C33.098 258.297 38.0333 276.716 52.4378 285.032ZM59.1989 273.323C67.1361 277.906 77.2853 275.186 81.8678 267.249C86.4504 259.312 83.7309 249.163 75.7937 244.58C67.8566 239.997 57.7074 242.717 53.1248 250.654C48.5423 258.591 51.2618 268.74 59.1989 273.323Z" fill="white"/>
<circle cx="143.997" cy="502.78" r="40.565" transform="rotate(30 143.997 502.78)" stroke="white" stroke-width="1.22924"/>
<circle cx="144.221" cy="503.618" r="53.472" transform="rotate(30 144.221 503.618)" stroke="white" stroke-width="1.22924"/>
<circle cx="143.997" cy="502.779" r="14.1363" transform="rotate(30 143.997 502.779)" fill="white"/>
<path fill-rule="evenodd" clip-rule="evenodd" d="M128.938 528.86C143.342 537.177 161.761 532.241 170.078 517.837C178.394 503.432 173.459 485.013 159.054 476.697C144.65 468.38 126.231 473.316 117.914 487.72C109.598 502.125 114.533 520.544 128.938 528.86ZM135.699 517.151C143.636 521.734 153.785 519.014 158.368 511.077C162.95 503.14 160.231 492.991 152.294 488.408C144.357 483.826 134.207 486.545 129.625 494.482C125.042 502.419 127.762 512.569 135.699 517.151Z" fill="white"/>
<circle cx="109.883" cy="372.682" r="40.565" transform="rotate(30 109.883 372.682)" stroke="white" stroke-width="1.22924"/>
<circle cx="110.108" cy="373.52" r="53.472" transform="rotate(30 110.108 373.52)" stroke="white" stroke-width="1.22924"/>
<path d="M141.951 371.16L141.353 371.21L141.345 371.81C141.281 376.601 140.029 381.442 137.467 385.888C137.239 386.284 137.003 386.673 136.759 387.054L136.096 388.09L126.887 401.798L126.883 401.761L125.89 403.242C124.208 405.754 121.414 407.141 118.55 407.12L117.364 407.111L117.43 407.219L97.8196 408.043L97.7764 408.045L97.7338 408.052C95.7811 408.392 93.7036 408.074 91.8518 407.003C90.0683 405.971 88.7841 404.408 88.0818 402.628L88.0666 402.589L88.0467 402.553L79.3947 386.756L79.4959 386.758L78.8964 385.735C78.3455 384.795 77.9748 383.761 77.8002 382.691L77.7895 382.625L77.7659 382.563C76.928 380.354 76.9816 377.829 78.0828 375.58L78.8796 373.953L78.8436 373.969L86.6057 358.058L86.6335 358.065C86.8426 357.659 87.0622 357.257 87.2924 356.857C89.419 353.166 92.2322 350.123 95.4767 347.793L95.8861 347.499L95.7111 347.026C94.7738 344.495 94.6503 340.664 94.9278 336.704C95.2033 332.771 95.8653 328.813 96.4286 326.089C96.6903 324.824 97.0607 324.174 97.3865 323.854C97.6824 323.564 97.9811 323.506 98.2821 323.546C98.6156 323.589 98.9589 323.758 99.2428 323.945C99.3796 324.035 99.4913 324.122 99.5677 324.185C99.6057 324.217 99.6343 324.242 99.6523 324.259L99.6711 324.276L99.6725 324.277L99.673 324.278L99.6733 324.278L99.6739 324.278L99.674 324.279L99.6769 324.281L99.6769 324.281L99.6771 324.281L99.678 324.282L99.6822 324.286L99.6991 324.303L99.767 324.368C99.8269 324.425 99.9157 324.511 100.03 324.622C100.26 324.845 100.592 325.171 101.003 325.583C101.826 326.406 102.964 327.569 104.222 328.928C106.03 330.881 108.078 333.231 109.799 335.556C111.533 337.899 112.882 340.148 113.361 341.911L113.486 342.372L113.963 342.398C118.362 342.639 122.773 343.892 126.852 346.252C130.591 348.415 133.666 351.286 136.007 354.597L136.383 355.128L136.921 354.761C137.371 354.452 138.042 354.222 138.93 354.084C139.81 353.948 140.854 353.91 142.008 353.951C144.316 354.034 146.998 354.429 149.562 354.925C152.122 355.421 154.544 356.013 156.328 356.482C157.219 356.716 157.95 356.919 158.457 357.063C158.711 357.135 158.909 357.193 159.043 357.232C159.074 357.241 159.101 357.249 159.125 357.257C159.153 357.265 159.176 357.272 159.195 357.277L159.233 357.289L159.243 357.292L159.245 357.292L159.245 357.292L159.436 356.659L159.245 357.292L159.249 357.293L159.249 357.294L159.25 357.294L159.25 357.294L159.251 357.294L159.253 357.295L159.275 357.302C159.297 357.309 159.332 357.321 159.376 357.337C159.464 357.37 159.589 357.422 159.728 357.492C160.018 357.638 160.32 357.841 160.514 358.093C160.69 358.32 160.782 358.583 160.691 358.946C160.589 359.35 160.243 359.95 159.335 360.752C157.295 362.553 154.214 365.063 150.989 367.174C147.732 369.304 144.44 370.952 141.951 371.16Z" fill="#DA5125" stroke="white" stroke-width="1.32225"/>
<path d="M102.097 374.329C102.097 374.329 97.3455 373.545 95.218 370.201C93.0906 366.857 94.3929 362.221 94.3929 362.221C94.3929 362.221 99.1446 363.005 101.272 366.349C103.399 369.692 102.097 374.329 102.097 374.329Z" fill="white"/>
<path d="M112.424 380.743C112.424 380.743 115.236 384.582 119.17 385.007C123.104 385.431 126.67 382.279 126.67 382.279C126.67 382.279 123.858 378.439 119.924 378.015C115.99 377.591 112.424 380.743 112.424 380.743Z" fill="white"/>
<path d="M124.027 367.374C125.018 365.657 124.43 363.463 122.714 362.473C121.381 361.703 119.76 361.886 118.638 362.811C118.55 362.439 118.406 362.082 118.205 361.753C117.903 361.258 117.476 360.829 116.938 360.519C116.044 360.002 115.018 359.915 114.102 360.193C114.342 358.759 113.69 357.263 112.357 356.493C111.934 356.249 111.483 356.101 111.029 356.042C110.567 355.982 110.101 356.013 109.657 356.129C108.761 356.363 107.955 356.942 107.456 357.806" stroke="white" stroke-width="1.19593"/>
<path d="M95.1895 384.635C95.1895 384.635 95.0232 392.364 97.5323 395.194M97.5323 395.194C101.755 396.251 107.273 391.611 107.273 391.611M97.5323 395.194C96.4815 397.014 95.2069 399.221 95.2069 399.221" stroke="white" stroke-width="1.19593"/>
<path d="M113.469 373.705C114.129 372.561 115.499 372.116 116.529 372.71C116.583 372.741 116.636 372.775 116.686 372.811C116.77 372.424 116.915 372.04 117.127 371.674C118.117 369.958 120.173 369.29 121.717 370.182C122.522 370.646 123.029 371.443 123.19 372.343C124.268 371.393 125.776 371.144 126.976 371.837C128.448 372.687 128.925 374.649 128.107 376.317C128.889 376.107 129.72 376.183 130.44 376.599C131.985 377.491 132.434 379.605 131.443 381.321C132.473 381.915 132.772 383.324 132.111 384.468" stroke="white" stroke-width="1.19593"/>
<path d="M90.6814 360.549C91.3419 359.405 92.712 358.959 93.7416 359.554C93.7961 359.585 93.8485 359.619 93.8988 359.655C93.9824 359.268 94.1283 358.884 94.3396 358.518C95.3303 356.802 97.3855 356.134 98.9299 357.025C99.7349 357.49 100.242 358.287 100.403 359.186C101.481 358.237 102.989 357.988 104.189 358.681C105.661 359.531 106.138 361.493 105.32 363.161C106.102 362.95 106.933 363.027 107.653 363.443C109.198 364.334 109.647 366.448 108.656 368.164C109.685 368.759 109.985 370.168 109.324 371.312" stroke="white" stroke-width="1.19593"/>
<path d="M105.128 347.487C106.283 345.485 108.843 344.799 110.845 345.955C111.47 346.316 111.966 346.812 112.318 347.385C112.606 347.853 112.798 348.374 112.886 348.914C113.583 348.333 114.447 348 115.338 347.951C116.123 347.908 116.927 348.085 117.658 348.507C117.967 348.686 118.246 348.899 118.492 349.14C118.699 349.342 118.882 349.563 119.04 349.799C119.307 350.195 119.5 350.632 119.619 351.09C120.664 350.798 121.821 350.91 122.836 351.497C123.953 352.141 124.661 353.223 124.867 354.402C125.387 354.474 125.9 354.646 126.381 354.924C128.228 355.991 128.954 358.251 128.15 360.166C128.244 360.195 128.337 360.23 128.43 360.27C128.531 360.315 128.631 360.366 128.73 360.423C128.922 360.534 129.096 360.663 129.253 360.806C130.169 359.72 131.759 359.41 133.033 360.146C133.595 360.47 134.012 360.95 134.261 361.499C134.593 362.232 134.448 363.451 134.127 364.23C135.103 365.353 135.49 366.654 134.704 368.015" stroke="white" stroke-width="1.19593"/>
<path d="M109.171 340.532C107.182 335.547 98.791 327.371 98.791 327.371C98.791 327.371 96.9611 336.54 98.0277 344.623" stroke="white" stroke-width="1.32882" stroke-linecap="round"/>
<path d="M138.773 356.846C144.461 356.295 156.531 359.441 156.531 359.441C156.531 359.441 146.474 366.249 141.493 368.232" stroke="white" stroke-width="1.32882" stroke-linecap="round"/>
</g>
<defs>
<clipPath id="clip0_526_2174">
<rect width="362.509" height="512.996" fill="white" transform="translate(116.498) rotate(30)"/>
</clipPath>
</defs>
</svg>
