<svg width="1440" height="1812" viewBox="0 0 1440 1812" fill="none" xmlns="http://www.w3.org/2000/svg">
<g clip-path="url(#clip0_678_3)">
<rect width="1440" height="1811.61" fill="#EEE5DE"/>
<g clip-path="url(#clip1_678_3)">
<path d="M750.883 423.219C1246.8 290.337 1357.37 260.712 1350.66 262.509" stroke="#77A78B" stroke-width="2.21471"/>
<path d="M776.105 517.348C1272.03 384.466 1382.59 354.84 1375.88 356.638" stroke="#77A78B" stroke-width="2.21471"/>
<path d="M767.793 486.33C1263.72 353.448 1374.28 323.823 1367.57 325.621" stroke="#77A78B" stroke-width="2.21471"/>
<path d="M759.195 454.238C1255.12 321.356 1365.68 291.731 1358.97 293.529" stroke="#77A78B" stroke-width="2.21471"/>
<path d="M885.301 924.873C1381.22 791.991 1491.79 762.366 1485.08 764.164" stroke="#77A78B" stroke-width="2.21471"/>
<path d="M910.523 1019C1406.45 886.118 1517.01 856.493 1510.3 858.29" stroke="#77A78B" stroke-width="2.21471"/>
<path d="M902.211 987.98C1398.13 855.099 1508.7 825.473 1501.99 827.271" stroke="#77A78B" stroke-width="2.21471"/>
<path d="M893.613 955.893C1389.54 823.011 1500.1 793.385 1493.39 795.183" stroke="#77A78B" stroke-width="2.21471"/>
<path d="M851.77 799.727C1347.69 666.845 1458.25 637.219 1451.55 639.017" stroke="#77A78B" stroke-width="2.21471"/>
<path d="M876.988 893.854C1372.91 760.972 1483.47 731.346 1476.76 733.144" stroke="#77A78B" stroke-width="2.21471"/>
<path d="M868.393 861.764C1364.31 728.882 1474.88 699.257 1468.17 701.054" stroke="#77A78B" stroke-width="2.21471"/>
<path d="M860.08 830.746C1356 697.864 1466.57 668.239 1459.86 670.037" stroke="#77A78B" stroke-width="2.21471"/>
<path d="M818.234 674.582C1314.16 541.7 1424.72 512.075 1418.01 513.873" stroke="#77A78B" stroke-width="2.21471"/>
<path d="M843.457 768.707C1339.38 635.825 1449.94 606.2 1443.23 607.998" stroke="#77A78B" stroke-width="2.21471"/>
<path d="M834.857 736.617C1330.78 603.735 1441.34 574.11 1434.63 575.908" stroke="#77A78B" stroke-width="2.21471"/>
<path d="M826.547 705.6C1322.47 572.718 1433.03 543.092 1426.32 544.89" stroke="#77A78B" stroke-width="2.21471"/>
<path d="M784.416 548.365C1280.34 415.483 1390.9 385.858 1384.19 387.656" stroke="#77A78B" stroke-width="2.21471"/>
<path d="M809.637 642.492C1305.56 509.61 1416.12 479.985 1409.41 481.783" stroke="#77A78B" stroke-width="2.21471"/>
<path d="M801.326 611.473C1297.25 478.591 1407.81 448.965 1401.1 450.763" stroke="#77A78B" stroke-width="2.21471"/>
<path d="M793.014 580.455C1288.94 447.573 1399.5 417.948 1392.79 419.746" stroke="#77A78B" stroke-width="2.21471"/>
<path d="M918.832 1050.02C1414.75 917.138 1525.32 887.512 1518.61 889.31" stroke="#77A78B" stroke-width="2.21471"/>
<path d="M944.055 1144.15C1439.98 1011.26 1550.54 981.639 1543.83 983.437" stroke="#77A78B" stroke-width="2.21471"/>
<path d="M935.744 1113.13C1431.67 980.245 1542.23 950.62 1535.52 952.417" stroke="#77A78B" stroke-width="2.21471"/>
<path d="M927.432 1082.11C1423.35 949.224 1533.92 919.598 1527.21 921.396" stroke="#77A78B" stroke-width="2.21471"/>
<path d="M952.652 1176.23C1448.57 1043.35 1559.14 1013.73 1552.43 1015.52" stroke="#77A78B" stroke-width="2.21471"/>
<path d="M960.965 1207.25C1456.89 1074.37 1567.45 1044.75 1560.74 1046.54" stroke="#77A78B" stroke-width="2.21471"/>
<path d="M789.531 381.336L1016.09 1226.87" stroke="#DA5125" stroke-width="2.21471"/>
<circle cx="799.863" cy="511.062" r="13.2882" transform="rotate(-15 799.863 511.062)" fill="black"/>
<circle cx="799.863" cy="511.062" r="13.2882" transform="rotate(-15 799.863 511.062)" fill="black"/>
<circle cx="799.863" cy="511.062" r="13.2882" transform="rotate(-15 799.863 511.062)" fill="black"/>
<circle cx="799.863" cy="511.062" r="13.2882" transform="rotate(-15 799.863 511.062)" fill="black"/>
<circle cx="960.572" cy="1106.56" r="13.2882" transform="rotate(-15 960.572 1106.56)" fill="black"/>
<circle cx="960.572" cy="1106.56" r="13.2882" transform="rotate(-15 960.572 1106.56)" fill="black"/>
<circle cx="960.572" cy="1106.56" r="13.2882" transform="rotate(-15 960.572 1106.56)" fill="black"/>
<circle cx="960.572" cy="1106.56" r="13.2882" transform="rotate(-15 960.572 1106.56)" fill="black"/>
</g>
<rect x="744.837" y="394.865" width="592" height="839" transform="rotate(-15 744.837 394.865)" stroke="#77A78B" stroke-width="3"/>
<rect x="-260" y="82.8066" width="695" height="391" fill="#DA5125"/>
<path d="M-277.287 1092.39L745.84 1103.27C767.554 1103.5 785.035 1121.17 785.035 1142.89V1467.43C785.035 1586.91 687.741 1683.54 568.261 1682.73L-277.979 1676.95C-299.752 1676.8 -317.324 1659.11 -317.324 1637.34V1132C-317.324 1109.96 -299.33 1092.15 -277.287 1092.39Z" fill="white" stroke="black" stroke-width="31.0038"/>
<path d="M394.043 81.8066V469.31" stroke="white" stroke-width="6.88974"/>
<path d="M352.703 81.8066V469.31" stroke="white" stroke-width="6.88974"/>
<path d="M314.811 81.8066V469.31" stroke="white" stroke-width="6.88974"/>
<path d="M314.811 81.8066V469.31" stroke="white" stroke-width="6.88974"/>
<path d="M4.77344 81.8066V469.31" stroke="white" stroke-width="6.88974"/>
<path d="M49.5547 81.8066V469.31" stroke="white" stroke-width="6.88974"/>
<path d="M84.0059 81.8066V469.31" stroke="white" stroke-width="6.88974"/>
<path d="M125.344 81.8066V469.31" stroke="white" stroke-width="6.88974"/>
<path d="M163.238 81.8066V469.31" stroke="white" stroke-width="6.88974"/>
<path d="M201.129 81.8066V469.31" stroke="white" stroke-width="6.88974"/>
<path d="M239.027 81.8066V469.31" stroke="white" stroke-width="6.88974"/>
<path d="M276.916 81.8066V469.31" stroke="white" stroke-width="6.88974"/>
<path d="M-639.416 507.896C-639.416 486.968 -622.45 470.002 -601.522 470.002H800.54V1172.76C800.54 1193.68 783.575 1210.65 762.647 1210.65H-601.522C-622.451 1210.65 -639.416 1193.68 -639.416 1172.76V507.896Z" fill="#FCB74B"/>
<circle cx="595.552" cy="664.634" r="53.3955" fill="#D9D9D9"/>
<path fill-rule="evenodd" clip-rule="evenodd" d="M-614.674 469.512C-614.674 469.512 -614.674 469.512 -614.674 469.512C-614.674 822.302 -301.917 1108.3 83.8884 1108.3C469.694 1108.3 782.451 822.302 782.451 469.512C782.451 469.512 782.451 469.512 782.451 469.512H-614.674Z" fill="#77A78B"/>
<path fill-rule="evenodd" clip-rule="evenodd" d="M-406.467 924.478C-412.481 919.057 -418.388 913.537 -424.186 907.921L-372.079 849.291L-364.712 855.722L-126.147 609.569L-121.417 614.384L-359.622 860.165L-353.883 865.175L-406.467 924.478ZM-381.952 945.54C-388.221 940.406 -394.388 935.171 -400.45 929.836L-349.189 871.068L-342.512 876.892L-111.32 612.448L-106.233 616.884L-337.426 881.329L-330.905 887.017L-381.952 945.54ZM-326.29 986.644C-333.036 982.162 -339.691 977.572 -346.252 972.878L-300.348 906.432L-292.21 911.856L-87.5148 636.896L-82.2016 641.059L-286.588 915.603L-280.25 919.827L-326.29 986.644ZM-301.876 1002.15C-308.808 997.945 -315.654 993.628 -322.41 989.204L-278.026 923.719L-270.653 928.629L-79.9557 642.257L-74.3376 645.998L-265.035 932.37L-257.831 937.167L-301.876 1002.15ZM-226.145 1042.1C-233.522 1038.76 -240.825 1035.29 -248.051 1031.72L-216.282 962.176L-207.346 966.163L-51.5806 660.808L-45.6453 664.022L-201.176 968.915L-194.225 972.016L-226.145 1042.1ZM-199.586 1053.52C-207.098 1050.46 -214.54 1047.29 -221.91 1044.01L-191.372 975.483L-183.285 979.087L-43.2342 664.831L-37.0691 667.579L-177.12 981.834L-169.21 985.359L-199.586 1053.52ZM-105.211 1084.62C-113.061 1082.61 -120.854 1080.47 -128.589 1078.22L-109.27 1005.91L-99.793 1008.35L2.90115 681.304L9.28912 683.484L-93.2499 1010.03L-85.8808 1011.93L-105.211 1084.62ZM-77.0861 1091.26C-85.0184 1089.55 -92.8985 1087.71 -100.724 1085.76L-82.4891 1014.87L-73.915 1017.08L11.8013 683.876L18.3379 685.557L-67.3781 1018.76L-58.9912 1020.92L-77.0861 1091.26ZM21.882 1105.82C13.7991 1105.17 5.75564 1104.39 -2.24594 1103.49L4.99103 1027.17L14.7379 1028.01L61.7993 688.469L68.4602 689.56L21.4697 1028.59L29.0549 1029.24L21.882 1105.82ZM50.7416 1107.6C42.6279 1107.25 34.5503 1106.78 26.5113 1106.18L32.8867 1031.58L41.7081 1032.34L71.0063 689.53L77.7316 690.105L48.4333 1032.91L57.0615 1033.65L50.7416 1107.6ZM126.22 1107.15C118.182 1107.59 110.108 1107.9 101.998 1108.09L99.6353 1031.74L109.415 1031.35L113.611 688.592L120.356 688.841L116.166 1031.08L123.769 1030.78L126.22 1107.15ZM155.069 1105.03C147.039 1105.77 138.968 1106.39 130.86 1106.88L127.767 1030.01L136.609 1029.65L122.879 688.491L129.623 688.22L143.353 1029.38L152.01 1029.03L155.069 1105.03ZM251.542 1089.79C243.684 1091.56 235.773 1093.2 227.813 1094.73L212.158 1018.41L221.503 1016.34L159.407 679.676L166.09 678.728L228.494 1014.79L235.74 1013.19L251.542 1089.79ZM282.66 1082.07C274.873 1084.18 267.029 1086.17 259.131 1088.04L242.714 1011.07L252.039 1009L168.508 677.936L175.098 676.476L258.629 1007.54L266.402 1005.82L282.66 1082.07ZM389.897 1043.91C382.018 1047.43 374.056 1050.81 366.014 1054.06L330.107 977.186L338.836 972.761L199.966 659.364L206.203 656.782L344.863 969.706L351.65 966.265L389.897 1043.91ZM417.474 1030.9C409.537 1034.85 401.508 1038.67 393.39 1042.34L356.142 966.239L364.032 962.236L208.344 655.42L214.363 652.366L370.052 959.181L377.779 955.26L417.474 1030.9ZM490.898 988.737C484.047 993.236 477.103 997.624 470.07 1001.9L422.49 933.08L430.498 927.453L248.3 637.097L254.104 633.651L436.027 923.569L442.252 919.195L490.898 988.737ZM515.371 971.915C508.373 976.947 501.268 981.86 494.058 986.65L446.696 918.527L453.934 913.438L256.029 631.998L261.551 628.115L459.455 909.555L466.543 904.571L515.371 971.915ZM581.628 917.722C575.719 923.209 569.702 928.598 563.581 933.887L498.899 869.172L505.822 862.254L276.481 607.49L281.607 603.099L510.602 857.478L515.984 852.1L581.628 917.722ZM604.909 895.032C598.739 901.345 592.435 907.544 585.999 913.628L520.25 850.679L526.507 844.422L283.222 601.138L287.995 596.365L531.28 839.65L537.407 833.522L604.909 895.032Z" fill="white"/>
<path d="M780.233 520.744H-642V582.231H771.596C777.328 554.904 779.036 537.824 780.233 520.744Z" fill="#676360"/>
<circle cx="584.5" cy="656.307" r="125.252" fill="black" stroke="#65615E" stroke-width="20.4957"/>
<mask id="path-52-inside-1_678_3" fill="white">
<path fill-rule="evenodd" clip-rule="evenodd" d="M-153.711 497.557C-152.787 619.463 -41.3256 718.033 96.0364 718.033C233.398 718.033 344.86 619.463 345.784 497.557H-153.711Z"/>
</mask>
<path fill-rule="evenodd" clip-rule="evenodd" d="M-153.711 497.557C-152.787 619.463 -41.3256 718.033 96.0364 718.033C233.398 718.033 344.86 619.463 345.784 497.557H-153.711Z" fill="#2E2925"/>
<path d="M-153.711 497.557V490.667H-160.653L-160.6 497.609L-153.711 497.557ZM345.784 497.557L352.673 497.609L352.726 490.667H345.784V497.557ZM96.0364 711.143C-38.3146 711.143 -145.932 614.896 -146.821 497.504L-160.6 497.609C-159.643 624.029 -44.3366 724.923 96.0364 724.923V711.143ZM338.894 497.504C338.005 614.896 230.387 711.143 96.0364 711.143V724.923C236.409 724.923 351.716 624.029 352.673 497.609L338.894 497.504ZM345.784 490.667H-153.711V504.446H345.784V490.667Z" fill="#787471" mask="url(#path-52-inside-1_678_3)"/>
<path d="M27.5227 517.334H140.249L186.364 694.963V694.963C123.726 725.203 50.7617 725.446 -12.0769 695.624L-13.4688 694.963L27.5227 517.334Z" fill="white"/>
<rect x="63.3164" y="401.104" width="68.8974" height="20.6692" fill="#EEE5DE"/>
<mask id="path-56-inside-2_678_3" fill="white">
<path fill-rule="evenodd" clip-rule="evenodd" d="M-163.771 493.42C-162.83 618.081 -49.1145 718.878 91.0245 718.878C231.163 718.878 344.879 618.081 345.82 493.42H-163.771Z"/>
</mask>
<path d="M-163.771 493.42V469.508H-187.864L-187.682 493.601L-163.771 493.42ZM345.82 493.42L369.731 493.601L369.913 469.508H345.82V493.42ZM91.0245 694.966C-38.6099 694.966 -139.037 602.281 -139.861 493.239L-187.682 493.601C-186.623 633.88 -59.6191 742.79 91.0245 742.79V694.966ZM321.909 493.239C321.086 602.281 220.659 694.966 91.0245 694.966V742.79C241.668 742.79 368.672 633.88 369.731 493.601L321.909 493.239ZM345.82 469.508H-163.771V517.332H345.82V469.508Z" fill="#787471" mask="url(#path-56-inside-2_678_3)"/>
<rect x="27.5215" y="411.436" width="112.726" height="105.895" fill="#EEE5DE"/>
<circle cx="1.57547" cy="520.382" r="32.4515" fill="white" stroke="black" stroke-width="10.2478"/>
<circle cx="162.575" cy="520.382" r="32.4515" fill="white" stroke="black" stroke-width="10.2478"/>
<rect x="48.0234" y="469.51" width="68.319" height="68.319" fill="#2E2925"/>
<rect x="48.0254" y="571.992" width="68.319" height="51.2393" fill="#2E2925"/>
<rect x="48.0254" y="694.967" width="71.735" height="17.0798" transform="rotate(-90 48.0254 694.967)" fill="#2E2925"/>
<rect x="99.2695" y="694.967" width="71.735" height="17.0798" transform="rotate(-90 99.2695 694.967)" fill="#2E2925"/>
<path d="M431.939 228.859H779.541C791.139 228.859 800.541 238.261 800.541 249.859V470H431.939V228.859Z" fill="#2B2A26"/>
<path d="M431.939 228.859H748.868C756.478 228.859 762.647 235.029 762.647 242.639V283.977C762.647 291.588 756.478 297.757 748.868 297.757H431.939V228.859Z" fill="#38332F"/>
<path d="M431.939 173.744H645.521C668.352 173.744 686.86 192.252 686.86 215.083V228.862H431.939V173.744Z" fill="#38332F"/>
<path d="M431.939 325.316H748.868C756.478 325.316 762.647 331.486 762.647 339.096V380.434C762.647 388.045 756.478 394.214 748.868 394.214H431.939V325.316Z" fill="#38332F"/>
<rect x="800.541" y="366.654" width="24.1141" height="68.8974" fill="#2A2623"/>
<rect x="824.654" y="259.865" width="103.346" height="279.035" rx="20.6692" fill="#2A2623"/>
<rect x="834.988" y="308.092" width="24.1141" height="82.6769" rx="3.44487" transform="rotate(-90 834.988 308.092)" fill="#373634"/>
<rect x="834.988" y="308.092" width="24.1141" height="82.6769" rx="3.44487" transform="rotate(-90 834.988 308.092)" fill="#373634"/>
<rect x="834.988" y="308.092" width="24.1141" height="82.6769" rx="3.44487" transform="rotate(-90 834.988 308.092)" fill="#373634"/>
<rect x="834.988" y="342.545" width="24.1141" height="82.6769" rx="3.44487" transform="rotate(-90 834.988 342.545)" fill="#373634"/>
<rect x="834.988" y="342.545" width="24.1141" height="82.6769" rx="3.44487" transform="rotate(-90 834.988 342.545)" fill="#373634"/>
<rect x="834.988" y="342.545" width="24.1141" height="82.6769" rx="3.44487" transform="rotate(-90 834.988 342.545)" fill="#373634"/>
<rect x="834.988" y="514.787" width="24.1141" height="82.6769" rx="3.44487" transform="rotate(-90 834.988 514.787)" fill="#373634"/>
<rect x="834.988" y="514.787" width="24.1141" height="82.6769" rx="3.44487" transform="rotate(-90 834.988 514.787)" fill="#373634"/>
<rect x="834.988" y="514.787" width="24.1141" height="82.6769" rx="3.44487" transform="rotate(-90 834.988 514.787)" fill="#373634"/>
<rect x="834.988" y="480.342" width="24.1141" height="82.6769" rx="3.44487" transform="rotate(-90 834.988 480.342)" fill="#373634"/>
<rect x="834.988" y="480.342" width="24.1141" height="82.6769" rx="3.44487" transform="rotate(-90 834.988 480.342)" fill="#373634"/>
<rect x="834.988" y="480.342" width="24.1141" height="82.6769" rx="3.44487" transform="rotate(-90 834.988 480.342)" fill="#373634"/>
<rect x="834.988" y="445.889" width="24.1141" height="82.6769" rx="3.44487" transform="rotate(-90 834.988 445.889)" fill="#373634"/>
<rect x="834.988" y="445.889" width="24.1141" height="82.6769" rx="3.44487" transform="rotate(-90 834.988 445.889)" fill="#373634"/>
<rect x="834.988" y="445.889" width="24.1141" height="82.6769" rx="3.44487" transform="rotate(-90 834.988 445.889)" fill="#373634"/>
<rect x="834.988" y="411.438" width="24.1141" height="82.6769" rx="3.44487" transform="rotate(-90 834.988 411.438)" fill="#373634"/>
<rect x="834.988" y="411.438" width="24.1141" height="82.6769" rx="3.44487" transform="rotate(-90 834.988 411.438)" fill="#373634"/>
<rect x="834.988" y="411.438" width="24.1141" height="82.6769" rx="3.44487" transform="rotate(-90 834.988 411.438)" fill="#373634"/>
<rect x="834.988" y="376.988" width="24.1141" height="82.6769" rx="3.44487" transform="rotate(-90 834.988 376.988)" fill="#373634"/>
<rect x="834.988" y="376.988" width="24.1141" height="82.6769" rx="3.44487" transform="rotate(-90 834.988 376.988)" fill="#373634"/>
<rect x="834.988" y="376.988" width="24.1141" height="82.6769" rx="3.44487" transform="rotate(-90 834.988 376.988)" fill="#373634"/>
<ellipse cx="585.5" cy="656.807" rx="41.5" ry="42" fill="white"/>
<path d="M766.094 1189.98C771.801 1189.98 776.428 1185.35 776.428 1179.65C776.428 1173.94 771.801 1169.31 766.094 1169.31L766.094 1189.98ZM-332.82 1189.98L766.094 1189.98L766.094 1169.31L-332.82 1169.31L-332.82 1189.98Z" fill="white"/>
<path d="M-85 1210.81H735V1463.81C735 1560.46 656.65 1638.81 560 1638.81H-85V1210.81Z" fill="#DA5125"/>
<ellipse cx="459.241" cy="1297.45" rx="41.157" ry="40.6875" fill="white"/>
<ellipse cx="563.501" cy="1297.45" rx="41.157" ry="40.6875" fill="white"/>
<rect x="611.672" y="1210.81" width="10.9752" height="184.45" fill="#77A78B"/>
<rect x="558.025" y="1338.14" width="10.9752" height="143.762" fill="#77A78B"/>
<rect x="505.676" y="1210.81" width="10.9752" height="160.037" fill="#77A78B"/>
<rect x="453.76" y="1210.65" width="10.9752" height="46.1124" fill="#77A78B"/>
<rect x="558.025" y="1210.65" width="10.9752" height="46.1124" fill="#77A78B"/>
<ellipse cx="617.157" cy="1406.11" rx="41.157" ry="40.6875" fill="white"/>
<ellipse cx="511.157" cy="1406.11" rx="41.157" ry="40.6875" fill="white"/>
<rect x="402" y="1210.81" width="10.9752" height="184.45" fill="#77A78B"/>
<rect x="349.484" y="1338.14" width="10.9752" height="143.762" fill="#77A78B"/>
<rect x="453.75" y="1338.14" width="10.9752" height="143.762" fill="#77A78B"/>
<rect x="247.967" y="1332.71" width="10.9752" height="143.762" fill="#77A78B"/>
<rect x="40.6836" y="1330.16" width="10.9752" height="143.762" fill="#77A78B"/>
<rect x="297.674" y="1210.81" width="10.9752" height="160.037" fill="#77A78B"/>
<rect x="247.967" y="1210.65" width="10.9752" height="46.1124" fill="#77A78B"/>
<rect x="349.484" y="1210.65" width="10.9752" height="46.1124" fill="#77A78B"/>
<ellipse cx="407.157" cy="1406.11" rx="41.157" ry="40.6875" fill="white"/>
<ellipse cx="46.3699" cy="1297.65" rx="41.157" ry="40.6875" fill="white"/>
<rect x="197.674" y="1210.81" width="10.9752" height="184.45" fill="#77A78B"/>
<rect x="146.445" y="1338.14" width="10.9752" height="143.762" fill="#77A78B"/>
<rect x="92.666" y="1210.81" width="10.9752" height="160.037" fill="#77A78B"/>
<rect x="40.6836" y="1210.81" width="10.9752" height="46.1124" fill="#77A78B"/>
<rect x="146.445" y="1210.65" width="10.9752" height="46.1124" fill="#77A78B"/>
<ellipse cx="98.157" cy="1406.11" rx="41.157" ry="40.6875" fill="white"/>
<ellipse cx="-6.84301" cy="1406.49" rx="41.157" ry="40.6875" fill="white"/>
<ellipse cx="355.157" cy="1514.49" rx="41.157" ry="40.6875" fill="white"/>
<ellipse cx="564.157" cy="1514.49" rx="41.157" ry="40.6875" fill="white"/>
<ellipse cx="459.157" cy="1514.49" rx="41.157" ry="40.6875" fill="white"/>
<ellipse cx="46.157" cy="1514.61" rx="41.157" ry="40.6875" fill="white"/>
<rect x="667.766" y="1210.65" width="10.9752" height="59.6749" fill="#77A78B"/>
<ellipse cx="673.259" cy="1297.45" rx="41.157" ry="40.6875" fill="white"/>
<ellipse cx="151.936" cy="1297.45" rx="41.157" ry="40.6875" fill="white"/>
<ellipse cx="253.157" cy="1297.49" rx="41.157" ry="40.6875" fill="white"/>
<ellipse cx="203.157" cy="1406.11" rx="41.157" ry="40.6875" fill="white"/>
<ellipse cx="253.157" cy="1514.49" rx="41.157" ry="40.6875" fill="white"/>
<ellipse cx="151.936" cy="1514.45" rx="41.157" ry="40.6875" fill="white"/>
<ellipse cx="303.157" cy="1406.11" rx="41.157" ry="40.6875" fill="white"/>
<ellipse cx="354.157" cy="1297.49" rx="41.157" ry="40.6875" fill="white"/>
<path d="M-60 1602.81C-60 1589 -48.8071 1577.81 -35 1577.81H465C478.807 1577.81 490 1589 490 1602.81V1602.81C490 1616.61 478.807 1627.81 465 1627.81H-35C-48.8071 1627.81 -60 1616.61 -60 1602.81V1602.81Z" fill="#FCB74B"/>
<path d="M160 342.807H800.746V472.307L217.903 402.248C203.856 400.559 190.728 394.384 180.469 384.64L176.235 380.619C165.869 370.773 160 357.103 160 342.807V342.807Z" fill="#FCB74B"/>
<rect x="494" y="1094.81" width="287.871" height="61.947" rx="29.4118" fill="#77A78B"/>
<path d="M560.456 1135.41C560.252 1135.41 560.065 1135.34 559.895 1135.2C559.726 1135.07 559.641 1134.9 559.641 1134.69C559.641 1134.42 559.709 1134.2 559.845 1134.03C560.014 1133.86 560.235 1133.74 560.507 1133.67C561.424 1133.44 562.052 1133.2 562.391 1132.96C562.765 1132.72 562.952 1132.33 562.952 1131.79V1117.22C562.952 1116.68 562.765 1116.27 562.391 1116C562.018 1115.73 561.373 1115.47 560.456 1115.23C560.184 1115.17 559.963 1115.05 559.794 1114.88C559.658 1114.67 559.59 1114.45 559.59 1114.22C559.59 1114.01 559.675 1113.84 559.845 1113.71C560.014 1113.57 560.201 1113.5 560.405 1113.5C561.39 1113.5 562.425 1113.55 563.512 1113.65C564.633 1113.72 565.635 1113.76 566.517 1113.76H573.7C574.752 1113.76 575.584 1113.64 576.196 1113.4C576.807 1113.16 577.384 1113.04 577.928 1113.04C578.029 1113.04 578.148 1113.11 578.284 1113.25C578.42 1113.35 578.488 1113.5 578.488 1113.71C578.488 1114.32 578.437 1115.15 578.335 1116.2C578.267 1117.25 578.233 1118.14 578.233 1118.85C578.233 1119.46 578.182 1120.09 578.08 1120.74C578.012 1121.35 577.792 1121.65 577.418 1121.65C576.943 1121.65 576.637 1121.23 576.501 1120.38C576.399 1119.84 576.213 1119.24 575.941 1118.6C575.669 1117.92 575.313 1117.34 574.871 1116.86C574.43 1116.39 573.92 1116.15 573.343 1116.15C573.105 1116.15 572.868 1116.15 572.63 1116.15C572.392 1116.15 572.155 1116.15 571.917 1116.15C571.713 1116.15 571.492 1116.15 571.255 1116.15C570.813 1116.15 570.542 1116.3 570.44 1116.61C570.372 1116.88 570.338 1117.19 570.338 1117.53V1131.74C570.338 1132.18 570.508 1132.54 570.847 1132.81C571.187 1133.08 571.832 1133.37 572.783 1133.67C573.054 1133.78 573.275 1133.89 573.445 1134.03C573.615 1134.17 573.7 1134.37 573.7 1134.64C573.7 1134.88 573.632 1135.07 573.496 1135.2C573.36 1135.3 573.173 1135.35 572.936 1135.35C572.29 1135.35 571.577 1135.34 570.796 1135.3C570.049 1135.27 569.302 1135.24 568.555 1135.2C567.842 1135.17 567.18 1135.15 566.568 1135.15C565.991 1135.15 565.346 1135.17 564.633 1135.2C563.954 1135.24 563.257 1135.27 562.544 1135.3C561.831 1135.37 561.135 1135.41 560.456 1135.41Z" fill="white"/>
<path d="M582.358 1135.97C580.966 1135.97 579.879 1135.61 579.098 1134.9C578.351 1134.15 577.977 1133.28 577.977 1132.3C577.977 1131.55 578.198 1130.87 578.64 1130.26C579.081 1129.62 579.692 1129.29 580.473 1129.29C580.881 1129.29 581.288 1129.38 581.696 1129.55C582.103 1129.72 582.443 1129.94 582.715 1130.21C583.02 1130.52 583.292 1130.79 583.53 1131.02C583.801 1131.23 584.056 1131.33 584.294 1131.33C584.735 1131.33 585.126 1130.87 585.465 1129.95C585.805 1129.04 586.093 1127.87 586.331 1126.44C586.569 1125.01 586.756 1123.54 586.891 1122.01C587.027 1120.45 587.095 1119.04 587.095 1117.78C587.095 1116.9 586.841 1116.3 586.331 1116C585.856 1115.69 585.295 1115.45 584.65 1115.28C584.209 1115.15 583.869 1115.03 583.631 1114.93C583.394 1114.79 583.275 1114.55 583.275 1114.22C583.275 1113.98 583.394 1113.79 583.631 1113.65C583.869 1113.52 584.09 1113.45 584.294 1113.45C585.312 1113.45 586.314 1113.5 587.299 1113.6C588.318 1113.67 589.269 1113.71 590.152 1113.71H598.862C599.745 1113.71 600.662 1113.67 601.613 1113.6C602.563 1113.5 603.548 1113.45 604.567 1113.45C604.771 1113.45 604.958 1113.52 605.127 1113.65C605.331 1113.79 605.433 1113.98 605.433 1114.22C605.433 1114.49 605.331 1114.71 605.127 1114.88C604.924 1115.05 604.686 1115.18 604.414 1115.28C603.905 1115.42 603.463 1115.61 603.09 1115.85C602.716 1116.05 602.53 1116.49 602.53 1117.17V1131.69C602.53 1132.37 602.716 1132.81 603.09 1133.01C603.463 1133.21 603.905 1133.4 604.414 1133.57C604.686 1133.67 604.924 1133.81 605.127 1133.98C605.331 1134.15 605.433 1134.37 605.433 1134.64C605.433 1134.88 605.331 1135.07 605.127 1135.2C604.958 1135.34 604.771 1135.41 604.567 1135.41C603.888 1135.41 603.226 1135.37 602.58 1135.3C601.935 1135.27 601.307 1135.24 600.696 1135.2C600.084 1135.17 599.473 1135.15 598.862 1135.15C598.285 1135.15 597.69 1135.17 597.079 1135.2C596.468 1135.24 595.84 1135.27 595.194 1135.3C594.583 1135.37 593.938 1135.41 593.259 1135.41C593.055 1135.41 592.868 1135.34 592.698 1135.2C592.529 1135.07 592.444 1134.88 592.444 1134.64C592.444 1134.37 592.529 1134.15 592.698 1133.98C592.902 1133.81 593.14 1133.67 593.412 1133.57C593.921 1133.4 594.328 1133.21 594.634 1133.01C594.974 1132.81 595.143 1132.37 595.143 1131.69V1117.78C595.143 1117.1 594.974 1116.66 594.634 1116.46C594.328 1116.25 593.921 1116.15 593.412 1116.15H590.916C590.372 1116.15 589.982 1116.35 589.744 1116.76C589.54 1117.14 589.438 1117.51 589.438 1117.88C589.438 1119.21 589.37 1120.68 589.235 1122.31C589.133 1123.91 588.929 1125.51 588.623 1127.1C588.318 1128.7 587.893 1130.18 587.35 1131.53C586.807 1132.86 586.127 1133.93 585.312 1134.74C584.497 1135.56 583.513 1135.97 582.358 1135.97Z" fill="white"/>
<path d="M608.506 1135.41C608.303 1135.41 608.082 1135.34 607.844 1135.2C607.606 1135.07 607.488 1134.88 607.488 1134.64C607.488 1134.37 607.606 1134.15 607.844 1133.98C608.116 1133.81 608.388 1133.67 608.659 1133.57C609.169 1133.4 609.61 1133.21 609.984 1133.01C610.357 1132.77 610.544 1132.32 610.544 1131.64V1117.22C610.544 1116.54 610.357 1116.08 609.984 1115.85C609.61 1115.61 609.169 1115.42 608.659 1115.28C608.388 1115.18 608.116 1115.05 607.844 1114.88C607.606 1114.71 607.488 1114.49 607.488 1114.22C607.488 1113.98 607.606 1113.79 607.844 1113.65C608.082 1113.52 608.303 1113.45 608.506 1113.45C609.186 1113.45 609.865 1113.47 610.544 1113.5C611.223 1113.54 611.885 1113.59 612.53 1113.65C613.176 1113.69 613.787 1113.71 614.364 1113.71C614.976 1113.71 615.553 1113.69 616.096 1113.65C616.673 1113.59 617.268 1113.54 617.879 1113.5C618.49 1113.47 619.135 1113.45 619.815 1113.45C620.018 1113.45 620.205 1113.54 620.375 1113.71C620.545 1113.84 620.63 1114.01 620.63 1114.22C620.63 1114.45 620.528 1114.67 620.324 1114.88C620.154 1115.05 619.933 1115.18 619.662 1115.28C619.186 1115.45 618.779 1115.64 618.439 1115.85C618.1 1116.05 617.93 1116.49 617.93 1117.17V1125.47C617.93 1125.88 617.981 1126.13 618.083 1126.24C618.219 1126.34 618.422 1126.22 618.694 1125.88L625.265 1117.93C625.367 1117.8 625.469 1117.68 625.571 1117.58C625.673 1117.44 625.723 1117.31 625.723 1117.17C625.723 1116.49 625.554 1116.05 625.214 1115.85C624.908 1115.61 624.501 1115.42 623.992 1115.28C623.72 1115.18 623.482 1115.05 623.278 1114.88C623.109 1114.71 623.024 1114.49 623.024 1114.22C623.024 1113.98 623.109 1113.79 623.278 1113.65C623.448 1113.52 623.635 1113.45 623.839 1113.45C624.518 1113.45 625.163 1113.47 625.774 1113.5C626.42 1113.54 627.048 1113.59 627.659 1113.65C628.27 1113.69 628.865 1113.71 629.442 1113.71C630.053 1113.71 630.664 1113.69 631.276 1113.65C631.887 1113.59 632.515 1113.54 633.16 1113.5C633.806 1113.47 634.468 1113.45 635.147 1113.45C635.351 1113.45 635.538 1113.52 635.707 1113.65C635.911 1113.79 636.013 1113.98 636.013 1114.22C636.013 1114.49 635.911 1114.71 635.707 1114.88C635.504 1115.05 635.266 1115.18 634.994 1115.28C634.485 1115.42 634.043 1115.61 633.67 1115.85C633.296 1116.05 633.109 1116.49 633.109 1117.17V1131.69C633.109 1132.37 633.296 1132.81 633.67 1133.01C634.043 1133.21 634.485 1133.4 634.994 1133.57C635.266 1133.67 635.504 1133.81 635.707 1133.98C635.911 1134.15 636.013 1134.37 636.013 1134.64C636.013 1134.88 635.911 1135.07 635.707 1135.2C635.538 1135.34 635.351 1135.41 635.147 1135.41C634.468 1135.41 633.806 1135.37 633.16 1135.3C632.515 1135.27 631.887 1135.24 631.276 1135.2C630.664 1135.17 630.053 1135.15 629.442 1135.15C628.865 1135.15 628.27 1135.17 627.659 1135.2C627.048 1135.24 626.42 1135.27 625.774 1135.3C625.163 1135.37 624.518 1135.41 623.839 1135.41C623.635 1135.41 623.448 1135.34 623.278 1135.2C623.109 1135.07 623.024 1134.88 623.024 1134.64C623.024 1134.37 623.109 1134.15 623.278 1133.98C623.482 1133.81 623.72 1133.67 623.992 1133.57C624.501 1133.4 624.908 1133.21 625.214 1133.01C625.554 1132.81 625.723 1132.37 625.723 1131.69V1122.06C625.723 1121.82 625.673 1121.69 625.571 1121.65C625.469 1121.62 625.367 1121.65 625.265 1121.75L618.592 1130.01C618.151 1130.52 617.93 1131.08 617.93 1131.69C617.93 1132.37 618.1 1132.81 618.439 1133.01C618.779 1133.21 619.186 1133.4 619.662 1133.57C619.933 1133.67 620.154 1133.81 620.324 1133.98C620.528 1134.15 620.63 1134.37 620.63 1134.64C620.63 1134.85 620.545 1135.03 620.375 1135.2C620.205 1135.34 620.018 1135.41 619.815 1135.41C619.135 1135.41 618.49 1135.37 617.879 1135.3C617.268 1135.27 616.673 1135.24 616.096 1135.2C615.553 1135.17 614.976 1135.15 614.364 1135.15C613.787 1135.15 613.176 1135.17 612.53 1135.2C611.885 1135.24 611.223 1135.27 610.544 1135.3C609.865 1135.37 609.186 1135.41 608.506 1135.41Z" fill="white"/>
<path d="M647.454 1149.01C646.775 1149.01 646.435 1148.75 646.435 1148.24C646.435 1147.97 646.537 1147.75 646.741 1147.58C646.945 1147.44 647.233 1147.31 647.607 1147.17C648.116 1147 648.558 1146.82 648.931 1146.61C649.305 1146.44 649.492 1145.98 649.492 1145.24V1135.81C647.25 1135.51 645.264 1134.93 643.532 1134.08C641.8 1133.2 640.442 1132.03 639.457 1130.57C638.506 1129.07 638.031 1127.29 638.031 1125.22C638.031 1123.08 638.489 1121.21 639.406 1119.61C640.323 1118.02 641.63 1116.71 643.328 1115.69C645.06 1114.64 647.115 1113.91 649.492 1113.5V1110.19C649.492 1109.27 649.322 1108.48 648.982 1107.8C648.643 1107.12 648.048 1106.69 647.199 1106.52C646.826 1106.46 646.639 1106.18 646.639 1105.71C646.639 1105.27 646.809 1105.01 647.149 1104.94C647.997 1104.81 648.88 1104.55 649.797 1104.18C650.714 1103.81 651.58 1103.43 652.395 1103.06C653.244 1102.69 653.923 1102.41 654.433 1102.24C654.602 1102.18 654.738 1102.14 654.84 1102.14C654.942 1102.11 655.044 1102.09 655.146 1102.09C655.384 1102.09 655.536 1102.16 655.604 1102.3C655.672 1102.43 655.706 1102.58 655.706 1102.75C655.706 1102.99 655.672 1103.4 655.604 1103.98C655.536 1104.52 655.485 1105.03 655.451 1105.5V1113.4C657.727 1113.74 659.73 1114.37 661.462 1115.28C663.194 1116.2 664.552 1117.37 665.537 1118.8C666.522 1120.23 667.014 1121.87 667.014 1123.74C667.014 1125.78 666.59 1127.61 665.741 1129.24C664.926 1130.87 663.669 1132.23 661.972 1133.32C660.274 1134.37 658.117 1135.13 655.502 1135.61V1145.13C655.502 1145.88 655.689 1146.34 656.063 1146.51C656.436 1146.71 656.878 1146.9 657.387 1147.07C657.761 1147.21 658.049 1147.34 658.253 1147.48C658.457 1147.65 658.559 1147.87 658.559 1148.14C658.559 1148.38 658.474 1148.56 658.304 1148.7C658.134 1148.84 657.879 1148.9 657.54 1148.9C656.861 1148.9 656.216 1148.89 655.604 1148.85C655.027 1148.82 654.467 1148.79 653.923 1148.75C653.38 1148.75 652.854 1148.75 652.344 1148.75C651.801 1148.75 651.275 1148.77 650.765 1148.8C650.29 1148.84 649.78 1148.87 649.237 1148.9C648.728 1148.97 648.133 1149.01 647.454 1149.01ZM649.492 1133.47V1115.59C648.371 1115.9 647.454 1116.46 646.741 1117.27C646.028 1118.05 645.502 1119.02 645.162 1120.17C644.822 1121.3 644.653 1122.55 644.653 1123.94C644.653 1125.64 644.822 1127.14 645.162 1128.43C645.535 1129.72 646.079 1130.79 646.792 1131.64C647.505 1132.48 648.405 1133.1 649.492 1133.47ZM655.502 1133.57C656.691 1133.2 657.625 1132.59 658.304 1131.74C659.017 1130.89 659.526 1129.84 659.832 1128.58C660.172 1127.29 660.342 1125.83 660.342 1124.2C660.342 1122.64 660.155 1121.31 659.781 1120.23C659.442 1119.14 658.898 1118.22 658.151 1117.48C657.438 1116.73 656.538 1116.12 655.451 1115.64L655.502 1133.57Z" fill="white"/>
<path d="M669.835 1135.41C669.631 1135.41 669.479 1135.34 669.377 1135.2C669.275 1135.07 669.224 1134.93 669.224 1134.79C669.224 1134.66 669.275 1134.52 669.377 1134.39C669.512 1134.22 669.682 1134.11 669.886 1134.08C670.667 1133.81 671.21 1133.59 671.516 1133.42C671.822 1133.21 671.974 1132.79 671.974 1132.15V1116.97C671.974 1116.29 671.822 1115.83 671.516 1115.59C671.244 1115.32 670.667 1115.06 669.784 1114.83C669.512 1114.76 669.326 1114.66 669.224 1114.52C669.122 1114.38 669.071 1114.27 669.071 1114.16C669.071 1113.99 669.122 1113.86 669.224 1113.76C669.36 1113.62 669.529 1113.55 669.733 1113.55C670.616 1113.55 671.363 1113.59 671.974 1113.65C672.586 1113.69 673.163 1113.74 673.706 1113.81C674.284 1113.88 674.912 1113.91 675.591 1113.91C676.304 1113.91 676.949 1113.88 677.527 1113.81C678.104 1113.74 678.715 1113.69 679.361 1113.65C680.04 1113.59 680.804 1113.55 681.653 1113.55C681.856 1113.55 682.009 1113.62 682.111 1113.76C682.247 1113.86 682.315 1113.99 682.315 1114.16C682.315 1114.27 682.264 1114.38 682.162 1114.52C682.06 1114.66 681.873 1114.76 681.602 1114.83C680.719 1115.06 680.125 1115.32 679.819 1115.59C679.547 1115.83 679.411 1116.29 679.411 1116.97V1122.21C679.411 1122.45 679.479 1122.6 679.615 1122.67C679.751 1122.74 679.887 1122.76 680.023 1122.72C680.396 1122.55 680.94 1122.42 681.653 1122.31C682.366 1122.18 683.045 1122.11 683.69 1122.11C684.573 1122.11 685.456 1122.23 686.339 1122.47C687.256 1122.67 688.088 1123.01 688.835 1123.49C689.582 1123.96 690.176 1124.57 690.618 1125.32C691.059 1126.07 691.28 1126.97 691.28 1128.02C691.28 1129.89 690.822 1131.36 689.905 1132.45C688.988 1133.54 687.799 1134.3 686.339 1134.74C684.879 1135.18 683.3 1135.41 681.602 1135.41C680.889 1135.41 680.193 1135.39 679.513 1135.35C678.868 1135.32 678.206 1135.29 677.527 1135.25C676.882 1135.25 676.202 1135.25 675.489 1135.25C675.014 1135.25 674.42 1135.25 673.706 1135.25C672.993 1135.29 672.28 1135.32 671.567 1135.35C670.854 1135.39 670.277 1135.41 669.835 1135.41ZM680.787 1133.21C681.5 1133.21 682.111 1132.84 682.621 1132.09C683.164 1131.31 683.436 1130.18 683.436 1128.68C683.436 1127.36 683.164 1126.34 682.621 1125.63C682.111 1124.91 681.415 1124.56 680.532 1124.56C680.159 1124.56 679.887 1124.62 679.717 1124.76C679.615 1124.83 679.53 1124.93 679.462 1125.06C679.428 1125.2 679.411 1125.37 679.411 1125.57V1131.18C679.411 1131.72 679.513 1132.2 679.717 1132.6C679.921 1133.01 680.277 1133.21 680.787 1133.21ZM691.637 1135.41C691.433 1135.41 691.246 1135.34 691.076 1135.2C690.907 1135.07 690.822 1134.9 690.822 1134.69C690.822 1134.42 690.89 1134.2 691.025 1134.03C691.195 1133.86 691.416 1133.74 691.688 1133.67C692.604 1133.44 693.233 1133.2 693.572 1132.96C693.946 1132.72 694.133 1132.33 694.133 1131.79V1117.07C694.133 1116.52 693.946 1116.13 693.572 1115.9C693.233 1115.66 692.604 1115.42 691.688 1115.18C691.416 1115.11 691.195 1115 691.025 1114.83C690.89 1114.62 690.822 1114.4 690.822 1114.16C690.822 1113.96 690.907 1113.79 691.076 1113.65C691.246 1113.52 691.433 1113.45 691.637 1113.45C692.316 1113.45 693.012 1113.47 693.725 1113.5C694.438 1113.54 695.134 1113.59 695.814 1113.65C696.527 1113.69 697.172 1113.71 697.749 1113.71C698.36 1113.71 699.023 1113.69 699.736 1113.65C700.483 1113.62 701.23 1113.59 701.977 1113.55C702.758 1113.52 703.471 1113.5 704.116 1113.5C704.354 1113.5 704.541 1113.57 704.677 1113.71C704.813 1113.81 704.881 1113.98 704.881 1114.22C704.881 1114.49 704.796 1114.69 704.626 1114.83C704.456 1114.96 704.235 1115.08 703.964 1115.18C703.013 1115.49 702.368 1115.78 702.028 1116.05C701.688 1116.32 701.519 1116.68 701.519 1117.12V1131.74C701.519 1132.18 701.688 1132.54 702.028 1132.81C702.368 1133.08 703.013 1133.37 703.964 1133.67C704.235 1133.78 704.456 1133.89 704.626 1134.03C704.796 1134.17 704.881 1134.37 704.881 1134.64C704.881 1134.88 704.813 1135.07 704.677 1135.2C704.541 1135.3 704.354 1135.35 704.116 1135.35C703.471 1135.35 702.758 1135.34 701.977 1135.3C701.23 1135.27 700.483 1135.24 699.736 1135.2C699.023 1135.17 698.36 1135.15 697.749 1135.15C697.172 1135.15 696.527 1135.17 695.814 1135.2C695.134 1135.24 694.438 1135.27 693.725 1135.3C693.012 1135.37 692.316 1135.41 691.637 1135.41Z" fill="white"/>
<path d="M921.945 1111.81L1303 1214.75L1200.05 1595.81L937.549 1524.89L852.171 1370.08L921.945 1111.81Z" fill="#FCB74B"/>
<path d="M1150.51 1242.69C1026.27 1251.27 821.24 1282.03 964.771 1309.79C1144.19 1344.49 1337.71 1372.69 1183.81 1400.4C1060.69 1422.56 957.338 1436.8 935.5 1439.31" stroke="#DA5125"/>
<path d="M1499.78 1988.45C1506.28 1998.63 1503.29 2012.16 1493.1 2018.66V2018.66C1482.91 2025.16 1469.38 2022.17 1462.88 2011.98L1077.9 1408.51L1114.79 1384.97L1499.78 1988.45Z" fill="#DA5125"/>
<path d="M1069.45 1354.58L1077.9 1408.51L1114.79 1384.97L1069.45 1354.58Z" fill="#D9D9D9"/>
<path d="M1074 1380.31L1091.5 1369.81L1069.49 1354.56L1074 1380.31Z" fill="#DA5125"/>
<path d="M970.722 1402.1L937.55 1524.89L852.172 1370.08L970.722 1402.1Z" fill="#EEA128"/>
<path d="M39.2676 1317.84C38.2164 1317.84 37.1194 1317.47 35.9768 1316.74C34.8799 1316.01 33.9429 1315.05 33.1659 1313.86C32.4346 1312.67 32.069 1311.48 32.069 1310.29C32.069 1307.78 32.5489 1305.22 33.5087 1302.62C34.5142 1300.01 35.8625 1297.61 37.5536 1295.42C39.2448 1293.18 41.1644 1291.37 43.3125 1290C45.5064 1288.63 47.7917 1287.94 50.1683 1287.94C52.1337 1287.94 53.6191 1288.36 54.6246 1289.18C55.6301 1289.95 56.1329 1290.96 56.1329 1292.19C56.1329 1293.66 55.653 1294.94 54.6932 1296.03C53.7791 1297.08 52.545 1298 50.991 1298.78C49.4371 1299.55 47.7231 1300.19 45.8492 1300.7C44.021 1301.2 42.1699 1301.63 40.296 1302C40.0674 1302.04 39.8846 1302.11 39.7475 1302.2C39.6104 1302.25 39.4961 1302.39 39.4047 1302.62C39.1762 1303.39 38.9477 1304.24 38.7191 1305.15C38.4906 1306.07 38.3535 1306.91 38.3078 1307.69C38.3078 1309.29 38.6506 1310.59 39.3362 1311.6C40.0674 1312.56 41.1415 1313.04 42.5584 1313.04C44.0667 1313.04 45.3693 1312.67 46.4662 1311.94C47.5631 1311.16 48.5458 1310.32 49.4142 1309.4C49.8713 1308.9 50.2598 1308.65 50.5797 1308.65C51.0368 1308.65 51.2653 1308.88 51.2653 1309.33C51.2653 1309.43 51.2653 1309.54 51.2653 1309.68C51.2653 1309.81 51.2196 1309.93 51.1282 1310.02C50.2141 1311.57 49.1628 1312.94 47.9745 1314.13C46.7861 1315.28 45.4607 1316.17 43.9981 1316.81C42.5812 1317.49 41.0044 1317.84 39.2676 1317.84ZM40.7759 1300.08C41.4615 1299.99 42.3756 1299.78 43.5182 1299.46C44.6608 1299.14 45.8035 1298.66 46.9461 1298.02C48.1345 1297.38 49.14 1296.58 49.9627 1295.62C50.7854 1294.66 51.1967 1293.5 51.1967 1292.13C51.1967 1291.58 51.0368 1291.07 50.7168 1290.62C50.3969 1290.16 49.9398 1289.93 49.3457 1289.93C48.4315 1289.93 47.4717 1290.3 46.4662 1291.03C45.4607 1291.76 44.5009 1292.65 43.5868 1293.7C42.6727 1294.75 41.9185 1295.83 41.3243 1296.92C40.7302 1298.02 40.3874 1298.94 40.296 1299.67C40.296 1299.99 40.4559 1300.12 40.7759 1300.08ZM50.5797 1284.93C50.2141 1284.93 49.9398 1284.74 49.757 1284.38C49.6199 1284.01 49.4371 1283.42 49.2085 1282.6C49.0257 1281.86 48.82 1281.04 48.5915 1280.13C48.4087 1279.17 48.2259 1278.21 48.043 1277.25C47.8602 1276.29 47.7003 1275.42 47.5631 1274.64C47.4717 1273.87 47.4032 1273.3 47.3575 1272.93C47.3118 1272.52 47.3346 1272.11 47.426 1271.7C47.5631 1271.24 47.8145 1271.01 48.1802 1271.01C48.6829 1271.01 49.1628 1271.51 49.6199 1272.52C49.8941 1273.2 50.2598 1274.09 50.7168 1275.19C51.2196 1276.24 51.6995 1277.29 52.1565 1278.35C52.2937 1278.67 52.5222 1278.67 52.8421 1278.35C53.8933 1277.29 54.9903 1276.24 56.1329 1275.19C57.2755 1274.09 58.2125 1273.18 58.9438 1272.45C59.4008 1272.08 59.8122 1271.76 60.1778 1271.49C60.5892 1271.17 60.9091 1271.01 61.1377 1271.01C61.5947 1271.01 61.8232 1271.24 61.8232 1271.7C61.8232 1271.92 61.7547 1272.18 61.6176 1272.45C61.5262 1272.68 61.3662 1272.93 61.1377 1273.2C60.6349 1273.89 59.9493 1274.78 59.0809 1275.88C58.2125 1276.97 57.3213 1278.09 56.4071 1279.24C55.493 1280.33 54.716 1281.27 54.0762 1282.05C53.4363 1282.82 52.7964 1283.51 52.1565 1284.1C51.5167 1284.65 50.991 1284.93 50.5797 1284.93Z" fill="#77A78B"/>
<path d="M159.902 1284.64C159.584 1284.64 159.267 1284.53 158.95 1284.3C158.678 1284.08 158.406 1283.83 158.134 1283.55L151.538 1275.94C151.084 1275.44 150.744 1275.01 150.518 1274.65C150.291 1274.24 150.178 1273.92 150.178 1273.69C150.178 1273.29 150.359 1272.88 150.722 1272.47C151.13 1272.06 151.583 1271.7 152.082 1271.38C152.58 1271.07 152.988 1270.91 153.306 1270.91C153.714 1270.91 154.076 1271.09 154.394 1271.45C154.711 1271.81 155.006 1272.27 155.278 1272.81L160.378 1283.01C160.559 1283.37 160.627 1283.74 160.582 1284.1C160.536 1284.46 160.31 1284.64 159.902 1284.64ZM147.934 1317.83C146.891 1317.83 145.803 1317.46 144.67 1316.74C143.582 1316.01 142.652 1315.06 141.882 1313.88C141.156 1312.7 140.794 1311.53 140.794 1310.35C140.794 1307.85 141.27 1305.31 142.222 1302.73C143.219 1300.15 144.556 1297.77 146.234 1295.59C147.911 1293.37 149.815 1291.58 151.946 1290.22C154.122 1288.86 156.388 1288.18 158.746 1288.18C160.695 1288.18 162.168 1288.59 163.166 1289.4C164.163 1290.17 164.662 1291.17 164.662 1292.39C164.662 1293.85 164.186 1295.11 163.234 1296.2C162.327 1297.25 161.103 1298.15 159.562 1298.92C158.02 1299.69 156.32 1300.33 154.462 1300.83C152.648 1301.33 150.812 1301.76 148.954 1302.12C148.727 1302.16 148.546 1302.23 148.41 1302.32C148.274 1302.37 148.16 1302.5 148.07 1302.73C147.843 1303.5 147.616 1304.34 147.39 1305.25C147.163 1306.15 147.027 1306.99 146.982 1307.76C146.982 1309.35 147.322 1310.64 148.002 1311.64C148.727 1312.59 149.792 1313.07 151.198 1313.07C152.694 1313.07 153.986 1312.7 155.074 1311.98C156.162 1311.21 157.136 1310.37 157.998 1309.46C158.451 1308.96 158.836 1308.71 159.154 1308.71C159.607 1308.71 159.834 1308.94 159.834 1309.39C159.834 1309.49 159.834 1309.6 159.834 1309.73C159.834 1309.87 159.788 1309.98 159.698 1310.07C158.791 1311.62 157.748 1312.98 156.57 1314.15C155.391 1315.29 154.076 1316.17 152.626 1316.81C151.22 1317.49 149.656 1317.83 147.934 1317.83ZM149.43 1300.21C150.11 1300.12 151.016 1299.92 152.15 1299.6C153.283 1299.29 154.416 1298.81 155.55 1298.17C156.728 1297.54 157.726 1296.75 158.542 1295.79C159.358 1294.84 159.766 1293.69 159.766 1292.33C159.766 1291.78 159.607 1291.28 159.29 1290.83C158.972 1290.38 158.519 1290.15 157.93 1290.15C157.023 1290.15 156.071 1290.51 155.074 1291.24C154.076 1291.96 153.124 1292.85 152.218 1293.89C151.311 1294.93 150.563 1296 149.974 1297.09C149.384 1298.17 149.044 1299.08 148.954 1299.81C148.954 1300.12 149.112 1300.26 149.43 1300.21Z" fill="#77A78B"/>
<path d="M248.934 1317.83C247.891 1317.83 246.803 1317.46 245.67 1316.74C244.582 1316.01 243.652 1315.06 242.882 1313.88C242.156 1312.7 241.794 1311.53 241.794 1310.35C241.794 1307.85 242.27 1305.31 243.222 1302.73C244.219 1300.15 245.556 1297.77 247.234 1295.59C248.911 1293.37 250.815 1291.58 252.946 1290.22C255.122 1288.86 257.388 1288.18 259.746 1288.18C261.695 1288.18 263.168 1288.59 264.166 1289.4C265.163 1290.17 265.662 1291.17 265.662 1292.39C265.662 1293.85 265.186 1295.11 264.234 1296.2C263.327 1297.25 262.103 1298.15 260.562 1298.92C259.02 1299.69 257.32 1300.33 255.462 1300.83C253.648 1301.33 251.812 1301.76 249.954 1302.12C249.727 1302.16 249.546 1302.23 249.41 1302.32C249.274 1302.37 249.16 1302.5 249.07 1302.73C248.843 1303.5 248.616 1304.34 248.39 1305.25C248.163 1306.15 248.027 1306.99 247.982 1307.76C247.982 1309.35 248.322 1310.64 249.002 1311.64C249.727 1312.59 250.792 1313.07 252.198 1313.07C253.694 1313.07 254.986 1312.7 256.074 1311.98C257.162 1311.21 258.136 1310.37 258.998 1309.46C259.451 1308.96 259.836 1308.71 260.154 1308.71C260.607 1308.71 260.834 1308.94 260.834 1309.39C260.834 1309.49 260.834 1309.6 260.834 1309.73C260.834 1309.87 260.788 1309.98 260.698 1310.07C259.791 1311.62 258.748 1312.98 257.57 1314.15C256.391 1315.29 255.076 1316.17 253.626 1316.81C252.22 1317.49 250.656 1317.83 248.934 1317.83ZM250.43 1300.21C251.11 1300.12 252.016 1299.92 253.15 1299.6C254.283 1299.29 255.416 1298.81 256.55 1298.17C257.728 1297.54 258.726 1296.75 259.542 1295.79C260.358 1294.84 260.766 1293.69 260.766 1292.33C260.766 1291.78 260.607 1291.28 260.29 1290.83C259.972 1290.38 259.519 1290.15 258.93 1290.15C258.023 1290.15 257.071 1290.51 256.074 1291.24C255.076 1291.96 254.124 1292.85 253.218 1293.89C252.311 1294.93 251.563 1296 250.974 1297.09C250.384 1298.17 250.044 1299.08 249.954 1299.81C249.954 1300.12 250.112 1300.26 250.43 1300.21ZM260.154 1284.64C259.746 1284.64 259.519 1284.46 259.474 1284.1C259.428 1283.74 259.496 1283.37 259.678 1283.01L264.71 1272.81C265.027 1272.27 265.344 1271.81 265.662 1271.45C265.979 1271.09 266.342 1270.91 266.75 1270.91C267.022 1270.91 267.407 1271.07 267.906 1271.38C268.404 1271.7 268.858 1272.06 269.266 1272.47C269.674 1272.88 269.878 1273.29 269.878 1273.69C269.878 1273.92 269.764 1274.24 269.538 1274.65C269.311 1275.01 268.971 1275.44 268.518 1275.94L261.922 1283.55C261.695 1283.83 261.423 1284.08 261.106 1284.3C260.788 1284.53 260.471 1284.64 260.154 1284.64Z" fill="#77A78B"/>
<path d="M365.778 1272.06C366.14 1272.06 366.39 1272.24 366.526 1272.61C366.707 1272.97 366.911 1273.56 367.138 1274.37C367.319 1275.1 367.5 1275.94 367.682 1276.89C367.908 1277.8 368.112 1278.75 368.294 1279.75C368.475 1280.7 368.611 1281.56 368.702 1282.33C368.838 1283.06 368.928 1283.6 368.974 1283.96C369.019 1284.42 368.974 1284.85 368.838 1285.25C368.702 1285.66 368.475 1285.87 368.158 1285.87C367.659 1285.87 367.183 1285.37 366.73 1284.37C366.458 1283.69 366.072 1282.83 365.574 1281.79C365.12 1280.7 364.667 1279.66 364.214 1278.66C364.078 1278.3 363.851 1278.3 363.534 1278.66C362.536 1279.66 361.448 1280.7 360.27 1281.79C359.136 1282.83 358.207 1283.71 357.482 1284.44C357.074 1284.8 356.666 1285.14 356.258 1285.46C355.85 1285.73 355.532 1285.87 355.306 1285.87C354.852 1285.87 354.626 1285.64 354.626 1285.19C354.626 1284.96 354.671 1284.73 354.762 1284.51C354.898 1284.23 355.079 1283.96 355.306 1283.69C355.804 1283.01 356.484 1282.13 357.346 1281.04C358.207 1279.95 359.091 1278.86 359.998 1277.77C360.904 1276.64 361.675 1275.69 362.31 1274.92C362.99 1274.15 363.647 1273.49 364.282 1272.95C364.916 1272.36 365.415 1272.06 365.778 1272.06ZM349.934 1317.83C348.891 1317.83 347.803 1317.46 346.67 1316.74C345.582 1316.01 344.652 1315.06 343.882 1313.88C343.156 1312.7 342.794 1311.53 342.794 1310.35C342.794 1307.85 343.27 1305.31 344.222 1302.73C345.219 1300.15 346.556 1297.77 348.234 1295.59C349.911 1293.37 351.815 1291.58 353.946 1290.22C356.122 1288.86 358.388 1288.18 360.746 1288.18C362.695 1288.18 364.168 1288.59 365.166 1289.4C366.163 1290.17 366.662 1291.17 366.662 1292.39C366.662 1293.85 366.186 1295.11 365.234 1296.2C364.327 1297.25 363.103 1298.15 361.562 1298.92C360.02 1299.69 358.32 1300.33 356.462 1300.83C354.648 1301.33 352.812 1301.76 350.954 1302.12C350.727 1302.16 350.546 1302.23 350.41 1302.32C350.274 1302.37 350.16 1302.5 350.07 1302.73C349.843 1303.5 349.616 1304.34 349.39 1305.25C349.163 1306.15 349.027 1306.99 348.982 1307.76C348.982 1309.35 349.322 1310.64 350.002 1311.64C350.727 1312.59 351.792 1313.07 353.198 1313.07C354.694 1313.07 355.986 1312.7 357.074 1311.98C358.162 1311.21 359.136 1310.37 359.998 1309.46C360.451 1308.96 360.836 1308.71 361.154 1308.71C361.607 1308.71 361.834 1308.94 361.834 1309.39C361.834 1309.49 361.834 1309.6 361.834 1309.73C361.834 1309.87 361.788 1309.98 361.698 1310.07C360.791 1311.62 359.748 1312.98 358.57 1314.15C357.391 1315.29 356.076 1316.17 354.626 1316.81C353.22 1317.49 351.656 1317.83 349.934 1317.83ZM351.43 1300.21C352.11 1300.12 353.016 1299.92 354.15 1299.6C355.283 1299.29 356.416 1298.81 357.55 1298.17C358.728 1297.54 359.726 1296.75 360.542 1295.79C361.358 1294.84 361.766 1293.69 361.766 1292.33C361.766 1291.78 361.607 1291.28 361.29 1290.83C360.972 1290.38 360.519 1290.15 359.93 1290.15C359.023 1290.15 358.071 1290.51 357.074 1291.24C356.076 1291.96 355.124 1292.85 354.218 1293.89C353.311 1294.93 352.563 1296 351.974 1297.09C351.384 1298.17 351.044 1299.08 350.954 1299.81C350.954 1300.12 351.112 1300.26 351.43 1300.21Z" fill="#77A78B"/>
<path d="M454.934 1316.83C453.891 1316.83 452.803 1316.46 451.67 1315.74C450.582 1315.01 449.652 1314.06 448.882 1312.88C448.156 1311.7 447.794 1310.53 447.794 1309.35C447.794 1306.85 448.27 1304.31 449.222 1301.73C450.219 1299.15 451.556 1296.77 453.234 1294.59C454.911 1292.37 456.815 1290.58 458.946 1289.22C461.122 1287.86 463.388 1287.18 465.746 1287.18C467.695 1287.18 469.168 1287.59 470.166 1288.4C471.163 1289.17 471.662 1290.17 471.662 1291.39C471.662 1292.85 471.186 1294.11 470.234 1295.2C469.327 1296.25 468.103 1297.15 466.562 1297.92C465.02 1298.69 463.32 1299.33 461.462 1299.83C459.648 1300.33 457.812 1300.76 455.954 1301.12C455.727 1301.16 455.546 1301.23 455.41 1301.32C455.274 1301.37 455.16 1301.5 455.07 1301.73C454.843 1302.5 454.616 1303.34 454.39 1304.25C454.163 1305.15 454.027 1305.99 453.982 1306.76C453.982 1308.35 454.322 1309.64 455.002 1310.64C455.727 1311.59 456.792 1312.07 458.198 1312.07C459.694 1312.07 460.986 1311.7 462.074 1310.98C463.162 1310.21 464.136 1309.37 464.998 1308.46C465.451 1307.96 465.836 1307.71 466.154 1307.71C466.607 1307.71 466.834 1307.94 466.834 1308.39C466.834 1308.49 466.834 1308.6 466.834 1308.73C466.834 1308.87 466.788 1308.98 466.698 1309.07C465.791 1310.62 464.748 1311.98 463.57 1313.15C462.391 1314.29 461.076 1315.17 459.626 1315.81C458.22 1316.49 456.656 1316.83 454.934 1316.83ZM456.43 1299.21C457.11 1299.12 458.016 1298.92 459.15 1298.6C460.283 1298.29 461.416 1297.81 462.55 1297.17C463.728 1296.54 464.726 1295.75 465.542 1294.79C466.358 1293.84 466.766 1292.69 466.766 1291.33C466.766 1290.78 466.607 1290.28 466.29 1289.83C465.972 1289.38 465.519 1289.15 464.93 1289.15C464.023 1289.15 463.071 1289.51 462.074 1290.24C461.076 1290.96 460.124 1291.85 459.218 1292.89C458.311 1293.93 457.563 1295 456.974 1296.09C456.384 1297.17 456.044 1298.08 455.954 1298.81C455.954 1299.12 456.112 1299.26 456.43 1299.21ZM459.15 1279.49C458.878 1279.49 458.674 1279.43 458.538 1279.29C458.447 1279.11 458.402 1278.91 458.402 1278.68C458.402 1278.27 458.538 1277.84 458.81 1277.39C459.082 1276.89 459.399 1276.48 459.762 1276.16C460.124 1275.85 460.51 1275.69 460.918 1275.69H476.014C476.648 1275.69 476.966 1275.94 476.966 1276.43C476.966 1276.84 476.784 1277.3 476.422 1277.79C476.104 1278.25 475.719 1278.66 475.266 1279.02C474.858 1279.34 474.45 1279.49 474.042 1279.49H459.15Z" fill="#77A78B"/>
<path d="M560.066 1303.83C559.024 1303.83 557.936 1303.46 556.802 1302.74C555.714 1302.01 554.785 1301.06 554.014 1299.88C553.289 1298.7 552.926 1297.53 552.926 1296.35C552.926 1293.85 553.402 1291.31 554.354 1288.73C555.352 1286.15 556.689 1283.77 558.366 1281.59C560.044 1279.37 561.948 1277.58 564.078 1276.22C566.254 1274.86 568.521 1274.18 570.878 1274.18C572.828 1274.18 574.301 1274.59 575.298 1275.4C576.296 1276.17 576.794 1277.17 576.794 1278.39C576.794 1279.85 576.318 1281.11 575.366 1282.2C574.46 1283.25 573.236 1284.15 571.694 1284.92C570.153 1285.69 568.453 1286.33 566.594 1286.83C564.781 1287.33 562.945 1287.76 561.086 1288.12C560.86 1288.16 560.678 1288.23 560.542 1288.32C560.406 1288.37 560.293 1288.5 560.202 1288.73C559.976 1289.5 559.749 1290.34 559.522 1291.25C559.296 1292.15 559.16 1292.99 559.114 1293.76C559.114 1295.35 559.454 1296.64 560.134 1297.64C560.86 1298.59 561.925 1299.07 563.33 1299.07C564.826 1299.07 566.118 1298.7 567.206 1297.98C568.294 1297.21 569.269 1296.37 570.13 1295.46C570.584 1294.96 570.969 1294.71 571.286 1294.71C571.74 1294.71 571.966 1294.94 571.966 1295.39C571.966 1295.49 571.966 1295.6 571.966 1295.73C571.966 1295.87 571.921 1295.98 571.83 1296.07C570.924 1297.62 569.881 1298.98 568.702 1300.15C567.524 1301.29 566.209 1302.17 564.758 1302.81C563.353 1303.49 561.789 1303.83 560.066 1303.83ZM561.562 1286.21C562.242 1286.12 563.149 1285.92 564.282 1285.6C565.416 1285.29 566.549 1284.81 567.682 1284.17C568.861 1283.54 569.858 1282.75 570.674 1281.79C571.49 1280.84 571.898 1279.69 571.898 1278.33C571.898 1277.78 571.74 1277.28 571.422 1276.83C571.105 1276.38 570.652 1276.15 570.062 1276.15C569.156 1276.15 568.204 1276.51 567.206 1277.24C566.209 1277.96 565.257 1278.85 564.35 1279.89C563.444 1280.93 562.696 1282 562.106 1283.09C561.517 1284.17 561.177 1285.08 561.086 1285.81C561.086 1286.12 561.245 1286.26 561.562 1286.21ZM556.258 1322.25C555.488 1322.25 554.717 1322.01 553.946 1321.51C553.221 1321.05 552.632 1320.42 552.178 1319.6C551.725 1318.83 551.498 1318.04 551.498 1317.22C551.498 1315.45 551.906 1313.8 552.722 1312.26C553.584 1310.72 554.672 1309.29 555.986 1307.97C557.301 1306.71 558.729 1305.53 560.27 1304.44C561.812 1303.4 563.33 1302.44 564.826 1301.58H567.002C565.37 1302.72 563.852 1303.96 562.446 1305.32C561.086 1306.68 559.976 1308.16 559.114 1309.74C558.298 1311.33 557.89 1313.01 557.89 1314.77C557.89 1315.36 558.072 1315.95 558.434 1316.54C558.842 1317.13 559.454 1317.43 560.27 1317.43C560.95 1317.43 561.698 1317.11 562.514 1316.47C563.376 1315.89 564.033 1315.32 564.486 1314.77C564.577 1314.68 564.736 1314.55 564.962 1314.37C565.189 1314.19 565.416 1314.05 565.642 1313.96C565.914 1313.91 566.073 1314.07 566.118 1314.43C566.209 1314.48 566.186 1314.66 566.05 1314.98C565.96 1315.3 565.869 1315.55 565.778 1315.73C565.37 1316.54 564.826 1317.34 564.146 1318.11C563.466 1318.88 562.696 1319.56 561.834 1320.15C561.018 1320.78 560.134 1321.28 559.182 1321.64C558.23 1322.05 557.256 1322.25 556.258 1322.25Z" fill="#77A78B"/>
<path d="M666.302 1316.83C665.259 1316.83 664.171 1316.46 663.038 1315.74C661.95 1315.01 661.021 1314.06 660.25 1312.88C659.525 1311.7 659.162 1310.53 659.162 1309.35C659.162 1306.85 659.638 1304.31 660.59 1301.73C661.587 1299.15 662.925 1296.77 664.602 1294.59C666.279 1292.37 668.183 1290.58 670.314 1289.22C672.49 1287.86 674.757 1287.18 677.114 1287.18C679.063 1287.18 680.537 1287.59 681.534 1288.4C682.531 1289.17 683.03 1290.17 683.03 1291.39C683.03 1292.85 682.554 1294.11 681.602 1295.2C680.695 1296.25 679.471 1297.15 677.93 1297.92C676.389 1298.69 674.689 1299.33 672.83 1299.83C671.017 1300.33 669.181 1300.76 667.322 1301.12C667.095 1301.16 666.914 1301.23 666.778 1301.32C666.642 1301.37 666.529 1301.5 666.438 1301.73C666.211 1302.5 665.985 1303.34 665.758 1304.25C665.531 1305.15 665.395 1305.99 665.35 1306.76C665.35 1308.35 665.69 1309.64 666.37 1310.64C667.095 1311.59 668.161 1312.07 669.566 1312.07C671.062 1312.07 672.354 1311.7 673.442 1310.98C674.53 1310.21 675.505 1309.37 676.366 1308.46C676.819 1307.96 677.205 1307.71 677.522 1307.71C677.975 1307.71 678.202 1307.94 678.202 1308.39C678.202 1308.49 678.202 1308.6 678.202 1308.73C678.202 1308.87 678.157 1308.98 678.066 1309.07C677.159 1310.62 676.117 1311.98 674.938 1313.15C673.759 1314.29 672.445 1315.17 670.994 1315.81C669.589 1316.49 668.025 1316.83 666.302 1316.83ZM667.798 1299.21C668.478 1299.12 669.385 1298.92 670.518 1298.6C671.651 1298.29 672.785 1297.81 673.918 1297.17C675.097 1296.54 676.094 1295.75 676.91 1294.79C677.726 1293.84 678.134 1292.69 678.134 1291.33C678.134 1290.78 677.975 1290.28 677.658 1289.83C677.341 1289.38 676.887 1289.15 676.298 1289.15C675.391 1289.15 674.439 1289.51 673.442 1290.24C672.445 1290.96 671.493 1291.85 670.586 1292.89C669.679 1293.93 668.931 1295 668.342 1296.09C667.753 1297.17 667.413 1298.08 667.322 1298.81C667.322 1299.12 667.481 1299.26 667.798 1299.21ZM684.73 1281.4C683.959 1281.4 683.302 1281.1 682.758 1280.51C682.259 1279.93 682.01 1279.2 682.01 1278.34C682.01 1277.48 682.214 1276.68 682.622 1275.96C683.075 1275.23 683.642 1274.67 684.322 1274.26C685.047 1273.81 685.841 1273.58 686.702 1273.58C687.609 1273.58 688.311 1273.9 688.81 1274.53C689.309 1275.17 689.558 1275.91 689.558 1276.77C689.558 1277.95 689.082 1279.02 688.13 1279.97C687.223 1280.92 686.09 1281.4 684.73 1281.4ZM672.49 1281.4C671.674 1281.4 670.994 1281.1 670.45 1280.51C669.951 1279.93 669.702 1279.2 669.702 1278.34C669.702 1277.48 669.906 1276.68 670.314 1275.96C670.767 1275.23 671.357 1274.67 672.082 1274.26C672.807 1273.81 673.601 1273.58 674.462 1273.58C675.323 1273.58 676.003 1273.9 676.502 1274.53C677.001 1275.17 677.25 1275.91 677.25 1276.77C677.25 1277.95 676.774 1279.02 675.822 1279.97C674.915 1280.92 673.805 1281.4 672.49 1281.4Z" fill="#77A78B"/>
<path d="M-16.9618 1425.76C-17.8231 1425.76 -18.5711 1425.44 -19.2058 1424.81C-19.8404 1424.22 -20.1578 1423.61 -20.1578 1422.97C-20.1578 1422.79 -20.1351 1422.61 -20.0898 1422.43C-20.0444 1422.2 -19.9764 1421.97 -19.8858 1421.75C-18.2084 1418.3 -16.7578 1415.01 -15.5338 1411.89C-14.3098 1408.71 -13.1991 1405.86 -12.2018 1403.32C-12.0204 1402.87 -12.1338 1402.64 -12.5418 1402.64C-12.7684 1402.64 -13.1991 1402.75 -13.8338 1402.98C-14.4231 1403.21 -15.0578 1403.52 -15.7378 1403.93C-16.3724 1404.29 -16.9391 1404.66 -17.4378 1405.02C-17.8004 1405.25 -18.1178 1405.31 -18.3898 1405.22C-18.6164 1405.09 -18.7298 1404.88 -18.7298 1404.61C-18.7298 1404.34 -18.5258 1403.95 -18.1178 1403.45C-17.6644 1402.96 -17.0751 1402.39 -16.3498 1401.75C-15.5791 1401.12 -14.7178 1400.46 -13.7658 1399.78C-12.8138 1399.1 -11.8391 1398.47 -10.8418 1397.88C-9.79911 1397.24 -8.77911 1396.72 -7.78178 1396.31C-7.28311 1396.09 -6.78445 1396.13 -6.28578 1396.45C-5.74178 1396.72 -5.33378 1397.11 -5.06178 1397.61C-4.74445 1398.06 -4.65378 1398.45 -4.78978 1398.76L-12.8138 1418.14C-12.9498 1418.41 -13.0631 1418.71 -13.1538 1419.03C-13.1991 1419.3 -13.2218 1419.55 -13.2218 1419.77C-13.2218 1420.05 -13.1311 1420.23 -12.9498 1420.32C-12.7231 1420.41 -12.5191 1420.45 -12.3378 1420.45C-11.7938 1420.45 -11.1138 1420.18 -10.2978 1419.64C-9.43645 1419.05 -8.55245 1418.35 -7.64578 1417.53C-6.69378 1416.67 -5.83245 1415.85 -5.06178 1415.08C-4.97111 1414.95 -4.88045 1414.88 -4.78978 1414.88C-4.65378 1414.88 -4.51778 1414.95 -4.38178 1415.08C-4.24578 1415.17 -4.17778 1415.31 -4.17778 1415.49C-4.17778 1416.22 -4.63111 1417.17 -5.53778 1418.35C-6.44445 1419.48 -7.57778 1420.61 -8.93778 1421.75C-10.2978 1422.88 -11.7031 1423.83 -13.1538 1424.6C-14.5591 1425.37 -15.8284 1425.76 -16.9618 1425.76ZM-3.70178 1390.13C-4.51778 1390.13 -5.19778 1389.83 -5.74178 1389.24C-6.24045 1388.61 -6.48978 1387.88 -6.48978 1387.07C-6.48978 1385.84 -6.05911 1384.75 -5.19778 1383.8C-4.33645 1382.81 -3.27111 1382.31 -2.00178 1382.31C-1.14045 1382.31 -0.483114 1382.67 -0.0297794 1383.39C0.468886 1384.12 0.718219 1384.89 0.718219 1385.71C0.718219 1386.84 0.287553 1387.86 -0.573781 1388.77C-1.43511 1389.67 -2.47778 1390.13 -3.70178 1390.13Z" fill="#77A78B"/>
<path d="M505.038 1427.76C504.177 1427.76 503.429 1427.44 502.794 1426.81C502.16 1426.22 501.842 1425.61 501.842 1424.97C501.842 1424.79 501.865 1424.61 501.91 1424.43C501.956 1424.2 502.024 1423.97 502.114 1423.75C503.792 1420.3 505.242 1417.01 506.466 1413.89C507.69 1410.71 508.801 1407.86 509.798 1405.32C509.98 1404.87 509.866 1404.64 509.458 1404.64C509.232 1404.64 508.801 1404.75 508.166 1404.98C507.577 1405.21 506.942 1405.52 506.262 1405.93C505.628 1406.29 505.061 1406.66 504.562 1407.02C504.2 1407.25 503.882 1407.31 503.61 1407.22C503.384 1407.09 503.27 1406.88 503.27 1406.61C503.27 1406.34 503.474 1405.95 503.882 1405.45C504.336 1404.96 504.925 1404.39 505.65 1403.75C506.421 1403.12 507.282 1402.46 508.234 1401.78C509.186 1401.1 510.161 1400.47 511.158 1399.88C512.201 1399.24 513.221 1398.72 514.218 1398.31C514.717 1398.09 515.216 1398.13 515.714 1398.45C516.258 1398.72 516.666 1399.11 516.938 1399.61C517.256 1400.06 517.346 1400.45 517.21 1400.76L509.186 1420.14C509.05 1420.41 508.937 1420.71 508.846 1421.03C508.801 1421.3 508.778 1421.55 508.778 1421.77C508.778 1422.05 508.869 1422.23 509.05 1422.32C509.277 1422.41 509.481 1422.45 509.662 1422.45C510.206 1422.45 510.886 1422.18 511.702 1421.64C512.564 1421.05 513.448 1420.35 514.354 1419.53C515.306 1418.67 516.168 1417.85 516.938 1417.08C517.029 1416.95 517.12 1416.88 517.21 1416.88C517.346 1416.88 517.482 1416.95 517.618 1417.08C517.754 1417.17 517.822 1417.31 517.822 1417.49C517.822 1418.22 517.369 1419.17 516.462 1420.35C515.556 1421.48 514.422 1422.61 513.062 1423.75C511.702 1424.88 510.297 1425.83 508.846 1426.6C507.441 1427.37 506.172 1427.76 505.038 1427.76ZM523.466 1392.47C522.696 1392.47 522.038 1392.17 521.494 1391.58C520.996 1390.99 520.746 1390.27 520.746 1389.41C520.746 1388.55 520.95 1387.75 521.358 1387.03C521.812 1386.3 522.378 1385.73 523.058 1385.33C523.784 1384.87 524.577 1384.65 525.438 1384.65C526.345 1384.65 527.048 1384.96 527.546 1385.6C528.045 1386.23 528.294 1386.98 528.294 1387.84C528.294 1389.02 527.818 1390.09 526.866 1391.04C525.96 1391.99 524.826 1392.47 523.466 1392.47ZM511.226 1392.47C510.41 1392.47 509.73 1392.17 509.186 1391.58C508.688 1390.99 508.438 1390.27 508.438 1389.41C508.438 1388.55 508.642 1387.75 509.05 1387.03C509.504 1386.3 510.093 1385.73 510.818 1385.33C511.544 1384.87 512.337 1384.65 513.198 1384.65C514.06 1384.65 514.74 1384.96 515.238 1385.6C515.737 1386.23 515.986 1386.98 515.986 1387.84C515.986 1389.02 515.51 1390.09 514.558 1391.04C513.652 1391.99 512.541 1392.47 511.226 1392.47Z" fill="#77A78B"/>
<path d="M623.006 1392.71C622.734 1392.71 622.44 1392.6 622.122 1392.37C621.805 1392.14 621.533 1391.89 621.306 1391.62L614.642 1384.01C614.234 1383.51 613.917 1383.08 613.69 1382.71C613.464 1382.31 613.35 1381.97 613.35 1381.69C613.35 1381.33 613.532 1380.95 613.894 1380.54C614.302 1380.13 614.756 1379.77 615.254 1379.45C615.753 1379.13 616.161 1378.97 616.478 1378.97C616.886 1378.97 617.249 1379.16 617.566 1379.52C617.884 1379.84 618.178 1380.29 618.45 1380.88L623.482 1391.08C623.709 1391.44 623.8 1391.8 623.754 1392.17C623.709 1392.53 623.46 1392.71 623.006 1392.71ZM611.038 1425.76C610.177 1425.76 609.429 1425.44 608.794 1424.81C608.16 1424.22 607.842 1423.61 607.842 1422.97C607.842 1422.79 607.865 1422.61 607.91 1422.43C607.956 1422.2 608.024 1421.97 608.114 1421.75C609.792 1418.3 611.242 1415.01 612.466 1411.89C613.69 1408.71 614.801 1405.86 615.798 1403.32C615.98 1402.87 615.866 1402.64 615.458 1402.64C615.232 1402.64 614.801 1402.75 614.166 1402.98C613.577 1403.21 612.942 1403.52 612.262 1403.93C611.628 1404.29 611.061 1404.66 610.562 1405.02C610.2 1405.25 609.882 1405.31 609.61 1405.22C609.384 1405.09 609.27 1404.88 609.27 1404.61C609.27 1404.34 609.474 1403.95 609.882 1403.45C610.336 1402.96 610.925 1402.39 611.65 1401.75C612.421 1401.12 613.282 1400.46 614.234 1399.78C615.186 1399.1 616.161 1398.47 617.158 1397.88C618.201 1397.24 619.221 1396.72 620.218 1396.31C620.717 1396.09 621.216 1396.13 621.714 1396.45C622.258 1396.72 622.666 1397.11 622.938 1397.61C623.256 1398.06 623.346 1398.45 623.21 1398.76L615.186 1418.14C615.05 1418.41 614.937 1418.71 614.846 1419.03C614.801 1419.3 614.778 1419.55 614.778 1419.77C614.778 1420.05 614.869 1420.23 615.05 1420.32C615.277 1420.41 615.481 1420.45 615.662 1420.45C616.206 1420.45 616.886 1420.18 617.702 1419.64C618.564 1419.05 619.448 1418.35 620.354 1417.53C621.306 1416.67 622.168 1415.85 622.938 1415.08C623.029 1414.95 623.12 1414.88 623.21 1414.88C623.346 1414.88 623.482 1414.95 623.618 1415.08C623.754 1415.17 623.822 1415.31 623.822 1415.49C623.822 1416.22 623.369 1417.17 622.462 1418.35C621.556 1419.48 620.422 1420.61 619.062 1421.75C617.702 1422.88 616.297 1423.83 614.846 1424.6C613.441 1425.37 612.172 1425.76 611.038 1425.76Z" fill="#77A78B"/>
<path d="M92.0382 1425.76C91.1769 1425.76 90.4289 1425.44 89.7942 1424.81C89.1596 1424.22 88.8422 1423.61 88.8422 1422.97C88.8422 1422.79 88.8649 1422.61 88.9102 1422.43C88.9556 1422.2 89.0236 1421.97 89.1142 1421.75C90.7916 1418.3 92.2422 1415.01 93.4662 1411.89C94.6902 1408.71 95.8009 1405.86 96.7982 1403.32C96.9796 1402.87 96.8662 1402.64 96.4582 1402.64C96.2316 1402.64 95.8009 1402.75 95.1662 1402.98C94.5769 1403.21 93.9422 1403.52 93.2622 1403.93C92.6276 1404.29 92.0609 1404.66 91.5622 1405.02C91.1996 1405.25 90.8822 1405.31 90.6102 1405.22C90.3836 1405.09 90.2702 1404.88 90.2702 1404.61C90.2702 1404.34 90.4742 1403.95 90.8822 1403.45C91.3356 1402.96 91.9249 1402.39 92.6502 1401.75C93.4209 1401.12 94.2822 1400.46 95.2342 1399.78C96.1862 1399.1 97.1609 1398.47 98.1582 1397.88C99.2009 1397.24 100.221 1396.72 101.218 1396.31C101.717 1396.09 102.216 1396.13 102.714 1396.45C103.258 1396.72 103.666 1397.11 103.938 1397.61C104.256 1398.06 104.346 1398.45 104.21 1398.76L96.1862 1418.14C96.0502 1418.41 95.9369 1418.71 95.8462 1419.03C95.8009 1419.3 95.7782 1419.55 95.7782 1419.77C95.7782 1420.05 95.8689 1420.23 96.0502 1420.32C96.2769 1420.41 96.4809 1420.45 96.6622 1420.45C97.2062 1420.45 97.8862 1420.18 98.7022 1419.64C99.5636 1419.05 100.448 1418.35 101.354 1417.53C102.306 1416.67 103.168 1415.85 103.938 1415.08C104.029 1414.95 104.12 1414.88 104.21 1414.88C104.346 1414.88 104.482 1414.95 104.618 1415.08C104.754 1415.17 104.822 1415.31 104.822 1415.49C104.822 1416.22 104.369 1417.17 103.462 1418.35C102.556 1419.48 101.422 1420.61 100.062 1421.75C98.7022 1422.88 97.2969 1423.83 95.8462 1424.6C94.4409 1425.37 93.1716 1425.76 92.0382 1425.76Z" fill="#77A78B"/>
<path d="M197.038 1425.76C196.177 1425.76 195.429 1425.44 194.794 1424.81C194.16 1424.22 193.842 1423.61 193.842 1422.97C193.842 1422.79 193.865 1422.61 193.91 1422.43C193.956 1422.2 194.024 1421.97 194.114 1421.75C195.792 1418.3 197.242 1415.01 198.466 1411.89C199.69 1408.71 200.801 1405.86 201.798 1403.32C201.98 1402.87 201.866 1402.64 201.458 1402.64C201.232 1402.64 200.801 1402.75 200.166 1402.98C199.577 1403.21 198.942 1403.52 198.262 1403.93C197.628 1404.29 197.061 1404.66 196.562 1405.02C196.2 1405.25 195.882 1405.31 195.61 1405.22C195.384 1405.09 195.27 1404.88 195.27 1404.61C195.27 1404.34 195.474 1403.95 195.882 1403.45C196.336 1402.96 196.925 1402.39 197.65 1401.75C198.421 1401.12 199.282 1400.46 200.234 1399.78C201.186 1399.1 202.161 1398.47 203.158 1397.88C204.201 1397.24 205.221 1396.72 206.218 1396.31C206.717 1396.09 207.216 1396.13 207.714 1396.45C208.258 1396.72 208.666 1397.11 208.938 1397.61C209.256 1398.06 209.346 1398.45 209.21 1398.76L201.186 1418.14C201.05 1418.41 200.937 1418.71 200.846 1419.03C200.801 1419.3 200.778 1419.55 200.778 1419.77C200.778 1420.05 200.869 1420.23 201.05 1420.32C201.277 1420.41 201.481 1420.45 201.662 1420.45C202.206 1420.45 202.886 1420.18 203.702 1419.64C204.564 1419.05 205.448 1418.35 206.354 1417.53C207.306 1416.67 208.168 1415.85 208.938 1415.08C209.029 1414.95 209.12 1414.88 209.21 1414.88C209.346 1414.88 209.482 1414.95 209.618 1415.08C209.754 1415.17 209.822 1415.31 209.822 1415.49C209.822 1416.22 209.369 1417.17 208.462 1418.35C207.556 1419.48 206.422 1420.61 205.062 1421.75C203.702 1422.88 202.297 1423.83 200.846 1424.6C199.441 1425.37 198.172 1425.76 197.038 1425.76ZM208.326 1392.71C207.918 1392.71 207.692 1392.53 207.646 1392.17C207.601 1391.8 207.669 1391.44 207.85 1391.08L212.882 1380.88C213.2 1380.33 213.517 1379.88 213.834 1379.52C214.152 1379.16 214.514 1378.97 214.922 1378.97C215.194 1378.97 215.58 1379.13 216.078 1379.45C216.577 1379.77 217.03 1380.13 217.438 1380.54C217.846 1380.95 218.05 1381.35 218.05 1381.76C218.05 1381.99 217.937 1382.31 217.71 1382.71C217.484 1383.08 217.144 1383.51 216.69 1384.01L210.094 1391.62C209.868 1391.89 209.596 1392.14 209.278 1392.37C208.961 1392.6 208.644 1392.71 208.326 1392.71Z" fill="#77A78B"/>
<path d="M297.038 1425.76C296.177 1425.76 295.429 1425.44 294.794 1424.81C294.16 1424.22 293.842 1423.61 293.842 1422.97C293.842 1422.79 293.865 1422.61 293.91 1422.43C293.956 1422.2 294.024 1421.97 294.114 1421.75C295.792 1418.3 297.242 1415.01 298.466 1411.89C299.69 1408.71 300.801 1405.86 301.798 1403.32C301.98 1402.87 301.866 1402.64 301.458 1402.64C301.232 1402.64 300.801 1402.75 300.166 1402.98C299.577 1403.21 298.942 1403.52 298.262 1403.93C297.628 1404.29 297.061 1404.66 296.562 1405.02C296.2 1405.25 295.882 1405.31 295.61 1405.22C295.384 1405.09 295.27 1404.88 295.27 1404.61C295.27 1404.34 295.474 1403.95 295.882 1403.45C296.336 1402.96 296.925 1402.39 297.65 1401.75C298.421 1401.12 299.282 1400.46 300.234 1399.78C301.186 1399.1 302.161 1398.47 303.158 1397.88C304.201 1397.24 305.221 1396.72 306.218 1396.31C306.717 1396.09 307.216 1396.13 307.714 1396.45C308.258 1396.72 308.666 1397.11 308.938 1397.61C309.256 1398.06 309.346 1398.45 309.21 1398.76L301.186 1418.14C301.05 1418.41 300.937 1418.71 300.846 1419.03C300.801 1419.3 300.778 1419.55 300.778 1419.77C300.778 1420.05 300.869 1420.23 301.05 1420.32C301.277 1420.41 301.481 1420.45 301.662 1420.45C302.206 1420.45 302.886 1420.18 303.702 1419.64C304.564 1419.05 305.448 1418.35 306.354 1417.53C307.306 1416.67 308.168 1415.85 308.938 1415.08C309.029 1414.95 309.12 1414.88 309.21 1414.88C309.346 1414.88 309.482 1414.95 309.618 1415.08C309.754 1415.17 309.822 1415.31 309.822 1415.49C309.822 1416.22 309.369 1417.17 308.462 1418.35C307.556 1419.48 306.422 1420.61 305.062 1421.75C303.702 1422.88 302.297 1423.83 300.846 1424.6C299.441 1425.37 298.172 1425.76 297.038 1425.76ZM308.938 1392.44C307.17 1392.44 305.765 1392.05 304.722 1391.28C303.725 1390.47 303.09 1389.47 302.818 1388.29C302.546 1387.11 302.592 1385.98 302.954 1384.89C303.09 1384.3 303.317 1383.85 303.634 1383.53C303.997 1383.17 304.36 1382.99 304.722 1382.99C305.085 1382.99 305.289 1383.15 305.334 1383.46C305.425 1383.73 305.448 1384.05 305.402 1384.41C305.312 1385.41 305.561 1386.23 306.15 1386.86C306.785 1387.5 307.941 1387.81 309.618 1387.81C311.296 1387.81 312.678 1387.5 313.766 1386.86C314.854 1386.23 315.602 1385.41 316.01 1384.41C316.192 1384.05 316.418 1383.73 316.69 1383.46C317.008 1383.15 317.348 1382.99 317.71 1382.99C318.073 1382.99 318.3 1383.17 318.39 1383.53C318.526 1383.85 318.526 1384.3 318.39 1384.89C318.118 1385.93 317.552 1387.04 316.69 1388.22C315.874 1389.4 314.809 1390.4 313.494 1391.21C312.18 1392.03 310.661 1392.44 308.938 1392.44Z" fill="#77A78B"/>
<path d="M416.882 1380.13C417.245 1380.13 417.517 1380.31 417.698 1380.67C417.88 1381.04 418.084 1381.63 418.31 1382.44C418.492 1383.17 418.673 1384.01 418.854 1384.96C419.036 1385.87 419.217 1386.79 419.398 1387.75C419.58 1388.7 419.738 1389.56 419.874 1390.33C420.01 1391.1 420.101 1391.67 420.146 1392.03C420.192 1392.44 420.146 1392.87 420.01 1393.32C419.874 1393.73 419.648 1393.93 419.33 1393.93C418.832 1393.93 418.333 1393.44 417.834 1392.44C417.562 1391.76 417.2 1390.87 416.746 1389.79C416.293 1388.7 415.84 1387.68 415.386 1386.73C415.205 1386.36 414.978 1386.36 414.706 1386.73C413.709 1387.72 412.621 1388.77 411.442 1389.85C410.264 1390.9 409.312 1391.78 408.586 1392.51C408.178 1392.87 407.77 1393.21 407.362 1393.53C407 1393.8 406.705 1393.93 406.478 1393.93C406.025 1393.93 405.798 1393.71 405.798 1393.25C405.798 1392.98 405.844 1392.73 405.934 1392.51C406.07 1392.23 406.229 1391.99 406.41 1391.76C406.954 1391.03 407.634 1390.15 408.45 1389.11C409.312 1388.02 410.196 1386.91 411.102 1385.77C412.009 1384.64 412.802 1383.71 413.482 1382.99C414.162 1382.22 414.797 1381.56 415.386 1381.01C416.021 1380.43 416.52 1380.13 416.882 1380.13ZM401.038 1425.76C400.177 1425.76 399.429 1425.44 398.794 1424.81C398.16 1424.22 397.842 1423.61 397.842 1422.97C397.842 1422.79 397.865 1422.61 397.91 1422.43C397.956 1422.2 398.024 1421.97 398.114 1421.75C399.792 1418.3 401.242 1415.01 402.466 1411.89C403.69 1408.71 404.801 1405.86 405.798 1403.32C405.98 1402.87 405.866 1402.64 405.458 1402.64C405.232 1402.64 404.801 1402.75 404.166 1402.98C403.577 1403.21 402.942 1403.52 402.262 1403.93C401.628 1404.29 401.061 1404.66 400.562 1405.02C400.2 1405.25 399.882 1405.31 399.61 1405.22C399.384 1405.09 399.27 1404.88 399.27 1404.61C399.27 1404.34 399.474 1403.95 399.882 1403.45C400.336 1402.96 400.925 1402.39 401.65 1401.75C402.421 1401.12 403.282 1400.46 404.234 1399.78C405.186 1399.1 406.161 1398.47 407.158 1397.88C408.201 1397.24 409.221 1396.72 410.218 1396.31C410.717 1396.09 411.216 1396.13 411.714 1396.45C412.258 1396.72 412.666 1397.11 412.938 1397.61C413.256 1398.06 413.346 1398.45 413.21 1398.76L405.186 1418.14C405.05 1418.41 404.937 1418.71 404.846 1419.03C404.801 1419.3 404.778 1419.55 404.778 1419.77C404.778 1420.05 404.869 1420.23 405.05 1420.32C405.277 1420.41 405.481 1420.45 405.662 1420.45C406.206 1420.45 406.886 1420.18 407.702 1419.64C408.564 1419.05 409.448 1418.35 410.354 1417.53C411.306 1416.67 412.168 1415.85 412.938 1415.08C413.029 1414.95 413.12 1414.88 413.21 1414.88C413.346 1414.88 413.482 1414.95 413.618 1415.08C413.754 1415.17 413.822 1415.31 413.822 1415.49C413.822 1416.22 413.369 1417.17 412.462 1418.35C411.556 1419.48 410.422 1420.61 409.062 1421.75C407.702 1422.88 406.297 1423.83 404.846 1424.6C403.441 1425.37 402.172 1425.76 401.038 1425.76Z" fill="#77A78B"/>
<path d="M31.8162 1534.83C31.4989 1534.83 31.1589 1534.71 30.7962 1534.49C30.4336 1534.26 30.0936 1533.97 29.7762 1533.6C29.5042 1533.19 29.3002 1532.76 29.1642 1532.31C29.0282 1531.81 29.0736 1531.36 29.3002 1530.95L36.7802 1512.39C37.5056 1510.71 37.4602 1509.87 36.6442 1509.87C36.2816 1509.87 35.8282 1509.92 35.2842 1510.01C34.7402 1510.1 34.1509 1510.35 33.5162 1510.75C32.8816 1511.16 32.2016 1511.82 31.4762 1512.73C31.2949 1512.91 31.0682 1513 30.7962 1513C30.5696 1512.95 30.4109 1512.77 30.3202 1512.45C30.3202 1512.14 30.4109 1511.75 30.5922 1511.3C30.8189 1510.8 31.0682 1510.32 31.3402 1509.87C31.6576 1509.37 31.9296 1508.99 32.1562 1508.71C32.9722 1507.67 34.0149 1506.83 35.2842 1506.2C36.5989 1505.56 38.1402 1505.22 39.9082 1505.18C40.6336 1505.18 41.2229 1505.38 41.6762 1505.79C42.1749 1506.15 42.5149 1506.63 42.6962 1507.22C42.8776 1507.81 42.8322 1508.44 42.5602 1509.12L38.4122 1519.8C38.2762 1520.12 38.3442 1520.3 38.6162 1520.34C38.8882 1520.39 39.0922 1520.27 39.2282 1520C40.9962 1516.97 42.7869 1514.34 44.6002 1512.11C46.4136 1509.89 48.1816 1508.19 49.9042 1507.01C51.6722 1505.79 53.3269 1505.18 54.8682 1505.18C56.0922 1505.18 57.0669 1505.59 57.7922 1506.4C58.5629 1507.17 59.0162 1508.17 59.1522 1509.39C59.2882 1510.57 59.0616 1511.89 58.4722 1513.34L52.6242 1527.14C51.9442 1528.68 52.0349 1529.45 52.8962 1529.45C53.3496 1529.45 53.9162 1529.27 54.5962 1528.91C55.3216 1528.55 56.0242 1528.12 56.7042 1527.62C57.4296 1527.12 58.0642 1526.64 58.6082 1526.19C59.1976 1525.74 59.5829 1525.42 59.7642 1525.24C59.9002 1525.15 60.0136 1525.06 60.1042 1524.97C60.1949 1524.88 60.2856 1524.83 60.3762 1524.83C60.5122 1524.83 60.6482 1524.9 60.7842 1525.03C60.9202 1525.17 60.9882 1525.33 60.9882 1525.51C60.9882 1526.05 60.8296 1526.55 60.5122 1527.01C59.2429 1528.46 57.8829 1529.77 56.4322 1530.95C54.9816 1532.13 53.4856 1533.06 51.9442 1533.74C50.4029 1534.42 48.8842 1534.76 47.3882 1534.76C46.9349 1534.76 46.4589 1534.6 45.9602 1534.28C45.5069 1533.97 45.1442 1533.56 44.8722 1533.06C44.6456 1532.56 44.6456 1532.06 44.8722 1531.56C46.2322 1528.39 47.6149 1525.26 49.0202 1522.18C50.4709 1519.1 51.8082 1515.97 53.0322 1512.79C53.6216 1511.3 53.8256 1510.23 53.6442 1509.6C53.4629 1508.96 53.0776 1508.62 52.4882 1508.58C51.9442 1508.58 51.3322 1508.83 50.6522 1509.33C49.9722 1509.83 49.2016 1510.53 48.3402 1511.43C47.5242 1512.34 46.6629 1513.38 45.7562 1514.56C45.2576 1515.2 44.5776 1516.15 43.7162 1517.42C42.9002 1518.69 41.9709 1520.14 40.9282 1521.77C39.8856 1523.4 38.8202 1525.1 37.7322 1526.87C36.6896 1528.64 35.6922 1530.34 34.7402 1531.97C34.2416 1532.88 33.7429 1533.58 33.2442 1534.08C32.7909 1534.58 32.3149 1534.83 31.8162 1534.83ZM49.0202 1502.19C48.6576 1502.19 48.3856 1502.01 48.2042 1501.64C48.0682 1501.28 47.8869 1500.69 47.6602 1499.87C47.4789 1499.15 47.2749 1498.33 47.0482 1497.43C46.8669 1496.47 46.6856 1495.52 46.5042 1494.57C46.3229 1493.62 46.1642 1492.76 46.0282 1491.99C45.9376 1491.22 45.8696 1490.65 45.8242 1490.29C45.7789 1489.88 45.8016 1489.47 45.8922 1489.06C46.0282 1488.61 46.2776 1488.38 46.6402 1488.38C47.1389 1488.38 47.6149 1488.88 48.0682 1489.88C48.3402 1490.56 48.7029 1491.44 49.1562 1492.53C49.6549 1493.57 50.1309 1494.62 50.5842 1495.66C50.7202 1495.98 50.9469 1495.98 51.2642 1495.66C52.3069 1494.62 53.3949 1493.57 54.5282 1492.53C55.6616 1491.44 56.5909 1490.54 57.3162 1489.81C57.7696 1489.45 58.1776 1489.13 58.5402 1488.86C58.9482 1488.54 59.2656 1488.38 59.4922 1488.38C59.9456 1488.38 60.1722 1488.61 60.1722 1489.06C60.1722 1489.29 60.1042 1489.54 59.9682 1489.81C59.8776 1490.04 59.7189 1490.29 59.4922 1490.56C58.9936 1491.24 58.3136 1492.12 57.4522 1493.21C56.5909 1494.3 55.7069 1495.41 54.8002 1496.54C53.8936 1497.63 53.1229 1498.56 52.4882 1499.33C51.8536 1500.1 51.2189 1500.78 50.5842 1501.37C49.9496 1501.91 49.4282 1502.19 49.0202 1502.19Z" fill="#77A78B"/>
<path d="M550.816 1535.83C550.499 1535.83 550.159 1535.71 549.796 1535.49C549.434 1535.26 549.094 1534.97 548.776 1534.6C548.504 1534.19 548.3 1533.76 548.164 1533.31C548.028 1532.81 548.074 1532.36 548.3 1531.95L555.78 1513.39C556.506 1511.71 556.46 1510.87 555.644 1510.87C555.282 1510.87 554.828 1510.92 554.284 1511.01C553.74 1511.1 553.151 1511.35 552.516 1511.75C551.882 1512.16 551.202 1512.82 550.476 1513.73C550.295 1513.91 550.068 1514 549.796 1514C549.57 1513.95 549.411 1513.77 549.32 1513.45C549.32 1513.14 549.411 1512.75 549.592 1512.3C549.819 1511.8 550.068 1511.32 550.34 1510.87C550.658 1510.37 550.93 1509.99 551.156 1509.71C551.972 1508.67 553.015 1507.83 554.284 1507.2C555.599 1506.56 557.14 1506.22 558.908 1506.18C559.634 1506.18 560.223 1506.38 560.676 1506.79C561.175 1507.15 561.515 1507.63 561.696 1508.22C561.878 1508.81 561.832 1509.44 561.56 1510.12L557.412 1520.8C557.276 1521.12 557.344 1521.3 557.616 1521.34C557.888 1521.39 558.092 1521.27 558.228 1521C559.996 1517.97 561.787 1515.34 563.6 1513.11C565.414 1510.89 567.182 1509.19 568.904 1508.01C570.672 1506.79 572.327 1506.18 573.868 1506.18C575.092 1506.18 576.067 1506.59 576.792 1507.4C577.563 1508.17 578.016 1509.17 578.152 1510.39C578.288 1511.57 578.062 1512.89 577.472 1514.34L571.624 1528.14C570.944 1529.68 571.035 1530.45 571.896 1530.45C572.35 1530.45 572.916 1530.27 573.596 1529.91C574.322 1529.55 575.024 1529.12 575.704 1528.62C576.43 1528.12 577.064 1527.64 577.608 1527.19C578.198 1526.74 578.583 1526.42 578.764 1526.24C578.9 1526.15 579.014 1526.06 579.104 1525.97C579.195 1525.88 579.286 1525.83 579.376 1525.83C579.512 1525.83 579.648 1525.9 579.784 1526.03C579.92 1526.17 579.988 1526.33 579.988 1526.51C579.988 1527.05 579.83 1527.55 579.512 1528.01C578.243 1529.46 576.883 1530.77 575.432 1531.95C573.982 1533.13 572.486 1534.06 570.944 1534.74C569.403 1535.42 567.884 1535.76 566.388 1535.76C565.935 1535.76 565.459 1535.6 564.96 1535.28C564.507 1534.97 564.144 1534.56 563.872 1534.06C563.646 1533.56 563.646 1533.06 563.872 1532.56C565.232 1529.39 566.615 1526.26 568.02 1523.18C569.471 1520.1 570.808 1516.97 572.032 1513.79C572.622 1512.3 572.826 1511.23 572.644 1510.6C572.463 1509.96 572.078 1509.62 571.488 1509.58C570.944 1509.58 570.332 1509.83 569.652 1510.33C568.972 1510.83 568.202 1511.53 567.34 1512.43C566.524 1513.34 565.663 1514.38 564.756 1515.56C564.258 1516.2 563.578 1517.15 562.716 1518.42C561.9 1519.69 560.971 1521.14 559.928 1522.77C558.886 1524.4 557.82 1526.1 556.732 1527.87C555.69 1529.64 554.692 1531.34 553.74 1532.97C553.242 1533.88 552.743 1534.58 552.244 1535.08C551.791 1535.58 551.315 1535.83 550.816 1535.83ZM568.02 1503.19C567.658 1503.19 567.386 1503.01 567.204 1502.64C567.068 1502.28 566.887 1501.69 566.66 1500.87C566.479 1500.15 566.275 1499.33 566.048 1498.43C565.867 1497.47 565.686 1496.52 565.504 1495.57C565.323 1494.62 565.164 1493.76 565.028 1492.99C564.938 1492.22 564.87 1491.65 564.824 1491.29C564.779 1490.88 564.802 1490.47 564.892 1490.06C565.028 1489.61 565.278 1489.38 565.64 1489.38C566.139 1489.38 566.615 1489.88 567.068 1490.88C567.34 1491.56 567.703 1492.44 568.156 1493.53C568.655 1494.57 569.131 1495.62 569.584 1496.66C569.72 1496.98 569.947 1496.98 570.264 1496.66C571.307 1495.62 572.395 1494.57 573.528 1493.53C574.662 1492.44 575.591 1491.54 576.316 1490.81C576.77 1490.45 577.178 1490.13 577.54 1489.86C577.948 1489.54 578.266 1489.38 578.492 1489.38C578.946 1489.38 579.172 1489.61 579.172 1490.06C579.172 1490.29 579.104 1490.54 578.968 1490.81C578.878 1491.04 578.719 1491.29 578.492 1491.56C577.994 1492.24 577.314 1493.12 576.452 1494.21C575.591 1495.3 574.707 1496.41 573.8 1497.54C572.894 1498.63 572.123 1499.56 571.488 1500.33C570.854 1501.1 570.219 1501.78 569.584 1502.37C568.95 1502.91 568.428 1503.19 568.02 1503.19Z" fill="#77A78B"/>
<path d="M140.999 1536.83C140.681 1536.83 140.341 1536.71 139.979 1536.49C139.616 1536.26 139.276 1535.97 138.959 1535.6C138.687 1535.19 138.483 1534.76 138.347 1534.31C138.211 1533.81 138.256 1533.36 138.483 1532.95L145.963 1514.39C146.688 1512.71 146.643 1511.87 145.827 1511.87C145.464 1511.87 145.011 1511.92 144.467 1512.01C143.923 1512.1 143.333 1512.35 142.699 1512.75C142.064 1513.16 141.384 1513.82 140.659 1514.73C140.477 1514.91 140.251 1515 139.979 1515C139.752 1514.95 139.593 1514.77 139.503 1514.45C139.503 1514.14 139.593 1513.75 139.775 1513.3C140.001 1512.8 140.251 1512.32 140.523 1511.87C140.84 1511.37 141.112 1510.99 141.339 1510.71C142.155 1509.67 143.197 1508.83 144.467 1508.2C145.781 1507.56 147.323 1507.22 149.091 1507.18C149.816 1507.18 150.405 1507.38 150.859 1507.79C151.357 1508.15 151.697 1508.63 151.879 1509.22C152.06 1509.81 152.015 1510.44 151.743 1511.12L147.595 1521.8C147.459 1522.12 147.527 1522.3 147.799 1522.34C148.071 1522.39 148.275 1522.27 148.411 1522C150.179 1518.97 151.969 1516.34 153.783 1514.11C155.596 1511.89 157.364 1510.19 159.087 1509.01C160.855 1507.79 162.509 1507.18 164.051 1507.18C165.275 1507.18 166.249 1507.59 166.975 1508.4C167.745 1509.17 168.199 1510.17 168.335 1511.39C168.471 1512.57 168.244 1513.89 167.655 1515.34L161.807 1529.14C161.127 1530.68 161.217 1531.45 162.079 1531.45C162.532 1531.45 163.099 1531.27 163.779 1530.91C164.504 1530.55 165.207 1530.12 165.887 1529.62C166.612 1529.12 167.247 1528.64 167.791 1528.19C168.38 1527.74 168.765 1527.42 168.947 1527.24C169.083 1527.15 169.196 1527.06 169.287 1526.97C169.377 1526.88 169.468 1526.83 169.559 1526.83C169.695 1526.83 169.831 1526.9 169.967 1527.03C170.103 1527.17 170.171 1527.33 170.171 1527.51C170.171 1528.05 170.012 1528.55 169.695 1529.01C168.425 1530.46 167.065 1531.77 165.615 1532.95C164.164 1534.13 162.668 1535.06 161.127 1535.74C159.585 1536.42 158.067 1536.76 156.571 1536.76C156.117 1536.76 155.641 1536.6 155.143 1536.28C154.689 1535.97 154.327 1535.56 154.055 1535.06C153.828 1534.56 153.828 1534.06 154.055 1533.56C155.415 1530.39 156.797 1527.26 158.203 1524.18C159.653 1521.1 160.991 1517.97 162.215 1514.79C162.804 1513.3 163.008 1512.23 162.827 1511.6C162.645 1510.96 162.26 1510.62 161.671 1510.58C161.127 1510.58 160.515 1510.83 159.835 1511.33C159.155 1511.83 158.384 1512.53 157.523 1513.43C156.707 1514.34 155.845 1515.38 154.939 1516.56C154.44 1517.2 153.76 1518.15 152.899 1519.42C152.083 1520.69 151.153 1522.14 150.111 1523.77C149.068 1525.4 148.003 1527.1 146.915 1528.87C145.872 1530.64 144.875 1532.34 143.923 1533.97C143.424 1534.88 142.925 1535.58 142.427 1536.08C141.973 1536.58 141.497 1536.83 140.999 1536.83ZM134.199 1505.48C133.836 1505.48 133.519 1505.43 133.247 1505.34C132.975 1505.25 132.861 1505.07 132.907 1504.8C132.952 1504.53 133.133 1504.32 133.451 1504.19C133.813 1504.01 134.244 1503.8 134.743 1503.57C136.012 1503.03 137.123 1502.37 138.075 1501.6C139.072 1500.83 139.843 1499.99 140.387 1499.09C140.931 1498.18 141.203 1497.27 141.203 1496.37C141.203 1495.64 140.976 1495.12 140.523 1494.8C140.069 1494.44 139.571 1494.15 139.027 1493.92C138.528 1493.65 138.075 1493.33 137.667 1492.97C137.259 1492.6 137.055 1492.08 137.055 1491.4C137.055 1490.41 137.485 1489.57 138.347 1488.89C139.253 1488.16 140.251 1487.8 141.339 1487.8C142.699 1487.8 143.855 1488.25 144.807 1489.16C145.759 1490.02 146.235 1491.29 146.235 1492.97C146.235 1494.55 145.872 1496.12 145.147 1497.66C144.421 1499.2 143.447 1500.54 142.223 1501.67C140.999 1502.8 139.684 1503.73 138.279 1504.46C136.873 1505.14 135.513 1505.48 134.199 1505.48Z" fill="#77A78B"/>
<path d="M237.816 1536.83C237.499 1536.83 237.159 1536.71 236.796 1536.49C236.434 1536.26 236.094 1535.97 235.776 1535.6C235.504 1535.19 235.3 1534.76 235.164 1534.31C235.028 1533.81 235.074 1533.36 235.3 1532.95L242.78 1514.39C243.506 1512.71 243.46 1511.87 242.644 1511.87C242.282 1511.87 241.828 1511.92 241.284 1512.01C240.74 1512.1 240.151 1512.35 239.516 1512.75C238.882 1513.16 238.202 1513.82 237.476 1514.73C237.295 1514.91 237.068 1515 236.796 1515C236.57 1514.95 236.411 1514.77 236.32 1514.45C236.32 1514.14 236.411 1513.75 236.592 1513.3C236.819 1512.8 237.068 1512.32 237.34 1511.87C237.658 1511.37 237.93 1510.99 238.156 1510.71C238.972 1509.67 240.015 1508.83 241.284 1508.2C242.599 1507.56 244.14 1507.22 245.908 1507.18C246.634 1507.18 247.223 1507.38 247.676 1507.79C248.175 1508.15 248.515 1508.63 248.696 1509.22C248.878 1509.81 248.832 1510.44 248.56 1511.12L244.412 1521.8C244.276 1522.12 244.344 1522.3 244.616 1522.34C244.888 1522.39 245.092 1522.27 245.228 1522C246.996 1518.97 248.787 1516.34 250.6 1514.11C252.414 1511.89 254.182 1510.19 255.904 1509.01C257.672 1507.79 259.327 1507.18 260.868 1507.18C262.092 1507.18 263.067 1507.59 263.792 1508.4C264.563 1509.17 265.016 1510.17 265.152 1511.39C265.288 1512.57 265.062 1513.89 264.472 1515.34L258.624 1529.14C257.944 1530.68 258.035 1531.45 258.896 1531.45C259.35 1531.45 259.916 1531.27 260.596 1530.91C261.322 1530.55 262.024 1530.12 262.704 1529.62C263.43 1529.12 264.064 1528.64 264.608 1528.19C265.198 1527.74 265.583 1527.42 265.764 1527.24C265.9 1527.15 266.014 1527.06 266.104 1526.97C266.195 1526.88 266.286 1526.83 266.376 1526.83C266.512 1526.83 266.648 1526.9 266.784 1527.03C266.92 1527.17 266.988 1527.33 266.988 1527.51C266.988 1528.05 266.83 1528.55 266.512 1529.01C265.243 1530.46 263.883 1531.77 262.432 1532.95C260.982 1534.13 259.486 1535.06 257.944 1535.74C256.403 1536.42 254.884 1536.76 253.388 1536.76C252.935 1536.76 252.459 1536.6 251.96 1536.28C251.507 1535.97 251.144 1535.56 250.872 1535.06C250.646 1534.56 250.646 1534.06 250.872 1533.56C252.232 1530.39 253.615 1527.26 255.02 1524.18C256.471 1521.1 257.808 1517.97 259.032 1514.79C259.622 1513.3 259.826 1512.23 259.644 1511.6C259.463 1510.96 259.078 1510.62 258.488 1510.58C257.944 1510.58 257.332 1510.83 256.652 1511.33C255.972 1511.83 255.202 1512.53 254.34 1513.43C253.524 1514.34 252.663 1515.38 251.756 1516.56C251.258 1517.2 250.578 1518.15 249.716 1519.42C248.9 1520.69 247.971 1522.14 246.928 1523.77C245.886 1525.4 244.82 1527.1 243.732 1528.87C242.69 1530.64 241.692 1532.34 240.74 1533.97C240.242 1534.88 239.743 1535.58 239.244 1536.08C238.791 1536.58 238.315 1536.83 237.816 1536.83ZM255.088 1503.64C254.68 1503.64 254.454 1503.46 254.408 1503.1C254.363 1502.74 254.431 1502.37 254.612 1502.01L259.644 1491.81C259.962 1491.27 260.279 1490.81 260.596 1490.45C260.914 1490.09 261.276 1489.91 261.684 1489.91C261.956 1489.91 262.342 1490.07 262.84 1490.38C263.339 1490.7 263.792 1491.06 264.2 1491.47C264.608 1491.88 264.812 1492.29 264.812 1492.69C264.812 1492.92 264.699 1493.24 264.472 1493.65C264.246 1494.01 263.906 1494.44 263.452 1494.94L256.856 1502.55C256.63 1502.83 256.358 1503.08 256.04 1503.3C255.723 1503.53 255.406 1503.64 255.088 1503.64Z" fill="#77A78B"/>
<path d="M443.816 1536.83C443.499 1536.83 443.159 1536.71 442.796 1536.49C442.434 1536.26 442.094 1535.97 441.776 1535.6C441.504 1535.19 441.3 1534.76 441.164 1534.31C441.028 1533.81 441.074 1533.36 441.3 1532.95L448.78 1514.39C449.506 1512.71 449.46 1511.87 448.644 1511.87C448.282 1511.87 447.828 1511.92 447.284 1512.01C446.74 1512.1 446.151 1512.35 445.516 1512.75C444.882 1513.16 444.202 1513.82 443.476 1514.73C443.295 1514.91 443.068 1515 442.796 1515C442.57 1514.95 442.411 1514.77 442.32 1514.45C442.32 1514.14 442.411 1513.75 442.592 1513.3C442.819 1512.8 443.068 1512.32 443.34 1511.87C443.658 1511.37 443.93 1510.99 444.156 1510.71C444.972 1509.67 446.015 1508.83 447.284 1508.2C448.599 1507.56 450.14 1507.22 451.908 1507.18C452.634 1507.18 453.223 1507.38 453.676 1507.79C454.175 1508.15 454.515 1508.63 454.696 1509.22C454.878 1509.81 454.832 1510.44 454.56 1511.12L450.412 1521.8C450.276 1522.12 450.344 1522.3 450.616 1522.34C450.888 1522.39 451.092 1522.27 451.228 1522C452.996 1518.97 454.787 1516.34 456.6 1514.11C458.414 1511.89 460.182 1510.19 461.904 1509.01C463.672 1507.79 465.327 1507.18 466.868 1507.18C468.092 1507.18 469.067 1507.59 469.792 1508.4C470.563 1509.17 471.016 1510.17 471.152 1511.39C471.288 1512.57 471.062 1513.89 470.472 1515.34L464.624 1529.14C463.944 1530.68 464.035 1531.45 464.896 1531.45C465.35 1531.45 465.916 1531.27 466.596 1530.91C467.322 1530.55 468.024 1530.12 468.704 1529.62C469.43 1529.12 470.064 1528.64 470.608 1528.19C471.198 1527.74 471.583 1527.42 471.764 1527.24C471.9 1527.15 472.014 1527.06 472.104 1526.97C472.195 1526.88 472.286 1526.83 472.376 1526.83C472.512 1526.83 472.648 1526.9 472.784 1527.03C472.92 1527.17 472.988 1527.33 472.988 1527.51C472.988 1528.05 472.83 1528.55 472.512 1529.01C471.243 1530.46 469.883 1531.77 468.432 1532.95C466.982 1534.13 465.486 1535.06 463.944 1535.74C462.403 1536.42 460.884 1536.76 459.388 1536.76C458.935 1536.76 458.459 1536.6 457.96 1536.28C457.507 1535.97 457.144 1535.56 456.872 1535.06C456.646 1534.56 456.646 1534.06 456.872 1533.56C458.232 1530.39 459.615 1527.26 461.02 1524.18C462.471 1521.1 463.808 1517.97 465.032 1514.79C465.622 1513.3 465.826 1512.23 465.644 1511.6C465.463 1510.96 465.078 1510.62 464.488 1510.58C463.944 1510.58 463.332 1510.83 462.652 1511.33C461.972 1511.83 461.202 1512.53 460.34 1513.43C459.524 1514.34 458.663 1515.38 457.756 1516.56C457.258 1517.2 456.578 1518.15 455.716 1519.42C454.9 1520.69 453.971 1522.14 452.928 1523.77C451.886 1525.4 450.82 1527.1 449.732 1528.87C448.69 1530.64 447.692 1532.34 446.74 1533.97C446.242 1534.88 445.743 1535.58 445.244 1536.08C444.791 1536.58 444.315 1536.83 443.816 1536.83ZM454.152 1503.98C453.835 1503.98 453.54 1503.87 453.268 1503.64C452.996 1503.37 452.86 1503.1 452.86 1502.83C452.86 1502.65 453.11 1502.24 453.608 1501.6C454.107 1500.92 454.696 1500.2 455.376 1499.43C456.056 1498.61 456.736 1497.93 457.416 1497.39C458.096 1496.84 458.618 1496.57 458.98 1496.57C459.66 1496.57 460.25 1496.62 460.748 1496.71C461.247 1496.75 461.95 1496.82 462.856 1496.91C463.718 1496.96 464.466 1497.02 465.1 1497.11C465.78 1497.16 466.392 1497.18 466.936 1497.18C467.798 1497.18 468.591 1496.82 469.316 1496.09C469.815 1495.6 470.155 1495.21 470.336 1494.94C470.563 1494.62 470.767 1494.46 470.948 1494.46C471.266 1494.46 471.56 1494.58 471.832 1494.8C472.15 1495.03 472.308 1495.32 472.308 1495.69C472.308 1495.82 472.172 1496.05 471.9 1496.37C471.674 1496.64 471.379 1496.98 471.016 1497.39C470.472 1497.98 469.951 1498.63 469.452 1499.36C468.999 1500.04 468.546 1500.65 468.092 1501.19C467.82 1501.56 467.458 1501.81 467.004 1501.94C466.596 1502.08 466.279 1502.15 466.052 1502.15C465.78 1502.15 465.304 1502.12 464.624 1502.08C463.944 1502.03 463.174 1501.97 462.312 1501.87C461.451 1501.78 460.567 1501.72 459.66 1501.67C458.799 1501.63 458.028 1501.6 457.348 1501.6C456.804 1501.6 456.351 1501.78 455.988 1502.15C455.535 1502.6 455.15 1503.03 454.832 1503.44C454.515 1503.8 454.288 1503.98 454.152 1503.98Z" fill="#77A78B"/>
<path d="M343.46 1544.53C341.601 1544.53 340.173 1544.16 339.176 1543.44C338.179 1542.76 337.703 1542.06 337.748 1541.33C337.748 1540.79 337.907 1540.27 338.224 1539.77C338.587 1539.31 338.995 1538.93 339.448 1538.61C339.901 1538.34 340.309 1538.2 340.672 1538.2C341.216 1538.2 341.669 1538.36 342.032 1538.68C342.44 1539.04 342.825 1539.43 343.188 1539.83C343.551 1540.24 343.959 1540.61 344.412 1540.92C344.911 1541.29 345.523 1541.47 346.248 1541.47C347.472 1541.47 348.447 1540.79 349.172 1539.43C349.897 1538.07 350.713 1536.34 351.62 1534.26C352.255 1532.94 352.98 1531.24 353.796 1529.16C354.657 1527.07 355.564 1524.85 356.516 1522.49C357.468 1520.09 358.397 1517.71 359.304 1515.35C360.211 1512.95 361.049 1510.75 361.82 1508.76C362.591 1506.72 363.225 1505.06 363.724 1503.79C364.313 1502.3 364.517 1501.23 364.336 1500.6C364.155 1499.96 363.769 1499.62 363.18 1499.58C362.636 1499.58 362.024 1499.83 361.344 1500.33C360.664 1500.83 359.916 1501.53 359.1 1502.43C358.284 1503.3 357.4 1504.34 356.448 1505.56C355.949 1506.15 355.292 1507.08 354.476 1508.35C353.66 1509.62 352.753 1511.09 351.756 1512.77C350.759 1514.4 349.739 1516.1 348.696 1517.87C347.653 1519.64 346.679 1521.34 345.772 1522.97C345.273 1523.88 344.775 1524.58 344.276 1525.08C343.823 1525.62 343.347 1525.89 342.848 1525.89C342.395 1525.89 341.919 1525.69 341.42 1525.28C340.967 1524.87 340.604 1524.35 340.332 1523.72C340.105 1523.08 340.105 1522.47 340.332 1521.88L347.54 1503.32C347.857 1502.5 348.016 1501.89 348.016 1501.48C348.061 1501.03 347.857 1500.8 347.404 1500.8C346.815 1500.8 346.067 1500.96 345.16 1501.28C344.253 1501.55 343.279 1502.37 342.236 1503.73C342.055 1503.91 341.828 1504 341.556 1504C341.329 1503.95 341.171 1503.77 341.08 1503.45C341.08 1503.14 341.171 1502.75 341.352 1502.3C341.579 1501.8 341.828 1501.32 342.1 1500.87C342.417 1500.37 342.689 1499.99 342.916 1499.71C343.732 1498.67 344.775 1497.83 346.044 1497.2C347.313 1496.56 348.832 1496.22 350.6 1496.18C351.325 1496.18 351.915 1496.36 352.368 1496.72C352.867 1497.09 353.207 1497.56 353.388 1498.15C353.615 1498.69 353.615 1499.26 353.388 1499.85L348.968 1510.93C348.832 1511.25 348.9 1511.43 349.172 1511.48C349.444 1511.52 349.648 1511.43 349.784 1511.21C351.552 1508.12 353.343 1505.47 355.156 1503.25C356.969 1500.98 358.76 1499.24 360.528 1498.01C362.341 1496.79 364.019 1496.18 365.56 1496.18C367.056 1496.18 368.144 1496.59 368.824 1497.4C369.504 1498.22 369.799 1499.35 369.708 1500.8C369.663 1502.25 369.277 1503.91 368.552 1505.77L358.352 1531.95C357.853 1533.53 356.992 1535.07 355.768 1536.57C354.589 1538.07 353.229 1539.4 351.688 1540.58C350.192 1541.81 348.719 1542.76 347.268 1543.44C345.817 1544.16 344.548 1544.53 343.46 1544.53Z" fill="#77A78B"/>
</g>
<defs>
<clipPath id="clip0_678_3">
<rect width="1440" height="1811.61" fill="white"/>
</clipPath>
<clipPath id="clip1_678_3">
<rect x="743" y="393.805" width="595" height="842" transform="rotate(-15 743 393.805)" fill="white"/>
</clipPath>
</defs>
</svg>
