<svg width="999" height="474" viewBox="0 0 999 474" fill="none" xmlns="http://www.w3.org/2000/svg">
<mask id="path-1-outside-1_678_344" maskUnits="userSpaceOnUse" x="0" y="57.4922" width="959" height="367" fill="black">
<rect fill="white" y="57.4922" width="959" height="367"/>
<path d="M12.1053 313.163C9.07017 313.163 6.79386 312.784 5.27631 312.025C3.75877 311.519 3 310.507 3 308.99C3 305.955 7.55263 303.678 16.6579 302.161C26.0161 300.39 34.489 297.482 42.0767 293.435C49.6644 289.388 54.8494 282.812 57.6315 273.707L109.987 102.225C112.769 93.1194 112.642 86.6698 109.607 82.8759C106.825 79.0821 101.261 76.2999 92.9144 74.5295C89.1205 73.7707 86.5913 72.759 85.3267 71.4944C84.0621 70.2297 83.4298 68.7122 83.4298 66.9417C83.4298 65.4242 84.5679 64.4125 86.8442 63.9067C89.3735 63.1479 92.1556 62.7685 95.1907 62.7685C97.2141 62.7685 101.64 62.895 108.469 63.1479C115.551 63.4008 124.277 63.7802 134.647 64.286C145.017 64.539 155.892 64.6654 167.274 64.6654C177.391 64.6654 185.99 64.539 193.072 64.286C200.154 63.7802 206.351 63.2743 211.662 62.7685C216.974 62.0097 221.906 61.5039 226.458 61.2509C231.264 60.7451 236.196 60.4922 241.254 60.4922C243.278 60.4922 244.289 61.7568 244.289 64.286C244.289 66.5624 243.025 71.3679 240.495 78.7027C237.966 86.0375 235.816 94.7633 234.046 104.88C233.793 105.892 232.908 107.283 231.39 109.054C230.126 110.571 228.861 111.33 227.596 111.33C226.332 111.33 225.32 110.192 224.561 107.915C223.802 105.639 223.423 103.869 223.423 102.604C223.423 97.2926 222.664 92.6135 221.147 88.5667C219.629 84.5199 217.226 81.3584 213.938 79.0821C210.903 76.5528 206.604 75.2882 201.039 75.2882H154.754C151.719 75.2882 148.811 75.9205 146.028 77.1851C143.499 78.1968 141.476 81.3584 139.958 86.6698L119.851 159.132C118.839 162.673 118.46 165.582 118.713 167.858C119.218 170.135 120.736 171.146 123.265 170.893C127.565 170.388 131.738 169.882 135.785 169.376C140.085 168.87 144.637 168.617 149.443 168.617C160.572 168.617 171.194 171.273 181.311 176.584C191.681 181.643 200.154 188.977 206.73 198.589C213.306 207.947 216.594 219.075 216.594 231.974C216.594 250.185 211.789 265.234 202.177 277.121C192.819 289.009 180.3 297.861 164.618 303.678C148.937 309.496 131.612 312.404 112.642 312.404C106.319 312.404 100.755 312.278 95.9495 312.025C91.1439 311.772 86.2119 311.519 81.1534 311.266C76.3479 311.266 70.7836 311.266 64.4605 311.266C54.3435 311.266 45.4912 311.519 37.9035 312.025C30.3158 312.784 21.7164 313.163 12.1053 313.163ZM117.195 301.781C127.312 301.781 136.417 300.137 144.511 296.849C152.857 293.309 159.939 288.503 165.756 282.433C171.574 276.11 176 268.775 179.035 260.428C182.323 252.082 183.967 243.103 183.967 233.492C183.967 215.534 179.414 202.129 170.309 193.277C161.457 184.425 149.696 179.999 135.026 179.999C127.944 179.999 122.127 181.39 117.574 184.172C113.275 186.954 110.366 190.874 108.849 195.933C106.572 203.521 104.043 211.867 101.261 220.972C98.4787 229.825 95.823 238.551 93.2938 247.15C90.7645 255.749 88.6147 263.464 86.8442 270.292C83.5562 281.927 85.0738 290.147 91.3969 294.953C97.9729 299.505 106.572 301.781 117.195 301.781Z"/>
<path d="M212.397 421.288C208.603 421.288 204.809 419.897 201.016 417.115C197.222 414.585 195.325 410.665 195.325 405.354C195.325 401.813 196.084 398.651 197.601 395.869C199.119 393.087 201.016 390.811 203.292 389.04C205.568 387.27 207.845 386.384 210.121 386.384C212.65 386.384 214.8 387.017 216.57 388.281C218.341 389.799 220.111 391.316 221.882 392.834C223.652 394.352 225.423 395.616 227.193 396.628C228.964 397.892 230.987 398.525 233.263 398.525C242.116 398.525 251.347 392.834 260.959 381.452C270.823 370.324 279.928 356.287 288.274 339.341C294.092 327.453 297.885 314.428 299.656 300.264C301.679 285.847 302.691 270.04 302.691 252.841C302.691 234.124 301.3 219.202 298.518 208.073C295.988 196.945 292.953 188.977 289.412 184.172C286.124 179.113 283.216 176.584 280.687 176.584C278.157 176.584 275.375 178.102 272.34 181.137C269.558 183.919 266.902 187.207 264.373 191.001C262.097 194.795 260.453 198.209 259.441 201.244C259.188 202.509 258.303 204.659 256.785 207.694C255.268 210.729 253.75 212.246 252.233 212.246C251.221 212.246 250.336 211.235 249.577 209.211C249.071 206.935 248.818 204.406 248.818 201.624C248.818 195.806 249.956 190.116 252.233 184.551C254.762 178.987 257.923 173.928 261.717 169.376C265.764 164.823 270.064 161.156 274.616 158.374C279.169 155.592 283.595 154.2 287.895 154.2C293.965 154.2 299.024 156.35 303.07 160.65C307.37 164.95 310.785 171.146 313.314 179.24C316.855 190.116 320.016 203.647 322.798 219.834C325.581 235.768 326.339 256.382 325.075 281.674C324.822 286.227 325.201 288.377 326.213 288.124C327.477 287.871 328.995 286.1 330.765 282.812C339.112 266.878 346.573 248.415 353.149 227.422C359.978 206.429 363.393 183.287 363.393 157.994C363.393 156.73 364.278 155.212 366.048 153.442C368.072 151.671 369.589 150.786 370.601 150.786C371.613 150.786 373.13 151.545 375.154 153.062C377.177 154.327 378.947 156.224 380.465 158.753C382.235 161.282 383.121 164.064 383.121 167.1C383.121 182.781 379.2 201.244 371.36 222.49C363.519 243.735 352.517 266.246 338.353 290.02C324.189 313.795 307.749 337.317 289.033 360.586C280.181 371.462 271.202 381.452 262.097 390.558C252.991 399.916 244.139 407.377 235.54 412.941C227.193 418.506 219.479 421.288 212.397 421.288Z"/>
<path d="M413.575 316.957C411.299 316.957 409.529 316.451 408.264 315.439C406.999 314.681 405.988 313.416 405.229 311.645C404.723 310.128 404.47 308.357 404.47 306.334C404.47 305.069 404.47 304.058 404.47 303.299C404.723 302.54 404.976 301.781 405.229 301.023L450.376 187.207C451.64 184.425 452.399 181.896 452.652 179.619C453.158 177.343 452.146 176.205 449.617 176.205C445.823 176.205 441.397 177.343 436.338 179.619C431.28 181.896 425.336 185.31 418.507 189.863C417.243 190.874 415.978 191.38 414.713 191.38C413.449 191.127 412.817 190.116 412.817 188.345C413.069 186.069 414.966 183.034 418.507 179.24C422.301 175.446 426.98 171.652 432.545 167.858C438.362 164.064 444.179 160.776 449.996 157.994C456.067 155.212 461.378 153.821 465.931 153.821C469.471 153.821 472.633 155.971 475.415 160.271C478.197 164.57 478.83 168.744 477.312 172.79L457.584 221.352C456.825 223.375 456.825 224.64 457.584 225.146C458.343 225.651 458.975 225.904 459.481 225.904L517.148 223.628C517.653 223.628 518.159 223.375 518.665 222.869C519.171 222.363 519.55 221.605 519.803 220.593L542.187 164.823C543.199 162.547 544.969 160.65 547.498 159.132C550.281 157.615 553.063 156.477 555.845 155.718C558.627 154.706 560.65 154.2 561.915 154.2C563.938 154.2 565.077 154.706 565.33 155.718C565.835 156.73 566.088 158.374 566.088 160.65C566.088 161.662 565.456 163.812 564.191 167.1C562.927 170.135 561.283 173.928 559.259 178.481L519.424 278.639C515.883 288.503 516.009 293.435 519.803 293.435C522.838 293.435 526.506 292.297 530.806 290.02C535.358 287.491 539.784 284.583 544.084 281.295C548.637 278.007 552.557 274.972 555.845 272.189C559.133 269.407 561.283 267.51 562.294 266.499C562.547 266.246 562.674 266.119 562.674 266.119C562.927 266.119 563.053 266.119 563.053 266.119C563.306 266.119 563.433 266.119 563.433 266.119C565.709 266.119 566.847 267.257 566.847 269.534C566.847 270.545 566.468 271.557 565.709 272.569C565.203 273.58 564.697 274.339 564.191 274.845C559.892 279.651 555.592 284.203 551.292 288.503C547.246 292.55 543.072 296.344 538.773 299.885C534.726 303.425 530.553 306.461 526.253 308.99C522.206 311.266 518.159 313.037 514.113 314.301C510.066 315.819 505.892 316.577 501.593 316.577C499.064 316.577 496.661 315.439 494.384 313.163C492.108 311.14 490.464 308.737 489.452 305.955C488.441 303.173 488.314 300.896 489.073 299.126L511.457 242.597C512.216 240.574 512.721 239.309 512.974 238.803C513.48 238.045 513.101 237.665 511.836 237.665L454.17 239.942C453.664 239.942 452.905 240.068 451.893 240.321C451.135 240.574 450.376 241.333 449.617 242.597L422.681 309.749C421.922 311.772 420.657 313.416 418.887 314.681C417.116 316.198 415.346 316.957 413.575 316.957Z"/>
<path d="M613.606 316.577C610.824 316.577 607.916 315.313 604.88 312.784C602.098 310.507 599.948 307.725 598.431 304.437C596.913 301.149 596.534 298.493 597.293 296.47L637.128 200.485C638.899 196.186 640.037 192.518 640.543 189.483C641.049 186.448 640.29 184.931 638.266 184.931C637.002 184.931 634.852 185.942 631.817 187.966C629.035 189.989 625.747 192.518 621.953 195.553C618.412 198.589 614.744 201.75 610.951 205.038C610.445 205.544 609.433 205.67 607.916 205.418C606.651 205.165 606.019 204.659 606.019 203.9C606.019 202.888 606.272 201.497 606.777 199.727C607.283 197.703 608.548 195.301 610.571 192.518C616.894 183.919 623.85 176.711 631.437 170.893C639.278 165.076 646.613 160.65 653.442 157.615C660.524 154.327 665.835 152.683 669.376 152.683C670.641 152.683 672.032 153.442 673.549 154.959C675.32 156.224 676.711 157.868 677.723 159.891C678.734 161.662 678.734 163.432 677.723 165.203C669.376 182.401 661.409 199.853 653.821 217.558C646.234 235.263 638.646 252.714 631.058 269.913C628.782 274.972 627.391 279.651 626.885 283.95C626.379 288.25 627.391 290.4 629.92 290.4C632.449 290.4 636.243 288.25 641.302 283.95C646.36 279.651 652.051 274.086 658.374 267.257C664.95 260.428 671.779 253.094 678.861 245.253C688.472 234.377 697.703 223.122 706.556 211.488C715.661 199.853 723.502 189.357 730.078 179.999C736.654 170.64 740.953 164.064 742.977 160.271C744.241 157.741 745.759 156.097 747.53 155.339C749.3 154.58 750.944 154.2 752.462 154.2C753.979 154.2 755.497 154.959 757.014 156.477C758.532 157.994 759.67 159.765 760.429 161.788C761.44 163.812 761.567 165.582 760.808 167.1L712.247 278.639C710.223 283.444 709.338 287.112 709.591 289.641C709.844 292.17 711.108 293.435 713.385 293.435C716.673 293.435 720.973 291.665 726.284 288.124C731.595 284.583 737.033 280.536 742.597 275.983C748.162 271.178 752.841 266.878 756.635 263.084C756.888 262.831 757.267 262.705 757.773 262.705C758.532 262.705 759.29 263.084 760.049 263.843C760.808 264.349 761.187 265.108 761.187 266.119C761.187 266.625 761.061 267.131 760.808 267.637C760.555 268.143 760.176 268.775 759.67 269.534C759.417 270.292 758.911 271.178 758.152 272.189C757.646 273.201 756.888 274.339 755.876 275.604C755.117 276.616 754.105 277.88 752.841 279.398C748.035 285.468 742.471 291.412 736.148 297.229C729.825 302.793 722.996 307.472 715.661 311.266C708.579 314.807 700.992 316.577 692.898 316.577C689.61 316.577 686.575 314.428 683.793 310.128C681.263 305.828 680.758 302.034 682.275 298.746C685.816 291.159 689.61 283.065 693.657 274.466C697.703 265.866 701.244 257.899 704.28 250.564C707.568 243.23 709.844 237.792 711.108 234.251C712.373 231.216 712.247 229.572 710.729 229.319C709.212 229.066 707.82 229.698 706.556 231.216C693.404 245.632 681.769 258.279 671.652 269.154C661.535 279.777 652.683 288.629 645.095 295.711C637.761 302.54 631.437 307.725 626.126 311.266C621.068 314.807 616.894 316.577 613.606 316.577Z"/>
<path d="M802.594 316.957C800.317 316.957 798.547 316.451 797.282 315.439C796.018 314.681 795.006 313.416 794.247 311.645C793.741 310.128 793.488 308.357 793.488 306.334C793.488 305.069 793.488 304.058 793.488 303.299C793.741 302.54 793.994 301.781 794.247 301.023L839.394 187.207C840.659 184.425 841.418 181.896 841.671 179.619C842.176 177.343 841.165 176.205 838.635 176.205C834.842 176.205 830.415 177.343 825.357 179.619C820.298 181.896 814.355 185.31 807.526 189.863C806.261 190.874 804.997 191.38 803.732 191.38C802.467 191.127 801.835 190.116 801.835 188.345C802.088 186.069 803.985 183.034 807.526 179.24C811.32 175.446 815.999 171.652 821.563 167.858C827.38 164.064 833.198 160.776 839.015 157.994C845.085 155.212 850.396 153.821 854.949 153.821C858.49 153.821 861.651 155.971 864.434 160.271C867.216 164.57 867.848 168.744 866.331 172.79L846.603 221.352C845.844 223.375 845.844 224.64 846.603 225.146C847.361 225.651 847.994 225.904 848.499 225.904L906.166 223.628C906.672 223.628 907.178 223.375 907.684 222.869C908.189 222.363 908.569 221.605 908.822 220.593L931.206 164.823C932.217 162.547 933.988 160.65 936.517 159.132C939.299 157.615 942.081 156.477 944.863 155.718C947.646 154.706 949.669 154.2 950.934 154.2C952.957 154.2 954.095 154.706 954.348 155.718C954.854 156.73 955.107 158.374 955.107 160.65C955.107 161.662 954.474 163.812 953.21 167.1C951.945 170.135 950.301 173.928 948.278 178.481L908.442 278.639C904.901 288.503 905.028 293.435 908.822 293.435C911.857 293.435 915.524 292.297 919.824 290.02C924.377 287.491 928.803 284.583 933.102 281.295C937.655 278.007 941.575 274.972 944.863 272.189C948.151 269.407 950.301 267.51 951.313 266.499C951.566 266.246 951.692 266.119 951.692 266.119C951.945 266.119 952.072 266.119 952.072 266.119C952.325 266.119 952.451 266.119 952.451 266.119C954.727 266.119 955.866 267.257 955.866 269.534C955.866 270.545 955.486 271.557 954.727 272.569C954.222 273.58 953.716 274.339 953.21 274.845C948.91 279.651 944.61 284.203 940.311 288.503C936.264 292.55 932.091 296.344 927.791 299.885C923.744 303.425 919.571 306.461 915.271 308.99C911.225 311.266 907.178 313.037 903.131 314.301C899.084 315.819 894.911 316.577 890.611 316.577C888.082 316.577 885.679 315.439 883.403 313.163C881.127 311.14 879.483 308.737 878.471 305.955C877.459 303.173 877.333 300.896 878.092 299.126L900.475 242.597C901.234 240.574 901.74 239.309 901.993 238.803C902.499 238.045 902.119 237.665 900.855 237.665L843.188 239.942C842.682 239.942 841.923 240.068 840.912 240.321C840.153 240.574 839.394 241.333 838.635 242.597L811.699 309.749C810.94 311.772 809.676 313.416 807.905 314.681C806.135 316.198 804.364 316.957 802.594 316.957Z"/>
</mask>
<path d="M12.1053 313.163C9.07017 313.163 6.79386 312.784 5.27631 312.025C3.75877 311.519 3 310.507 3 308.99C3 305.955 7.55263 303.678 16.6579 302.161C26.0161 300.39 34.489 297.482 42.0767 293.435C49.6644 289.388 54.8494 282.812 57.6315 273.707L109.987 102.225C112.769 93.1194 112.642 86.6698 109.607 82.8759C106.825 79.0821 101.261 76.2999 92.9144 74.5295C89.1205 73.7707 86.5913 72.759 85.3267 71.4944C84.0621 70.2297 83.4298 68.7122 83.4298 66.9417C83.4298 65.4242 84.5679 64.4125 86.8442 63.9067C89.3735 63.1479 92.1556 62.7685 95.1907 62.7685C97.2141 62.7685 101.64 62.895 108.469 63.1479C115.551 63.4008 124.277 63.7802 134.647 64.286C145.017 64.539 155.892 64.6654 167.274 64.6654C177.391 64.6654 185.99 64.539 193.072 64.286C200.154 63.7802 206.351 63.2743 211.662 62.7685C216.974 62.0097 221.906 61.5039 226.458 61.2509C231.264 60.7451 236.196 60.4922 241.254 60.4922C243.278 60.4922 244.289 61.7568 244.289 64.286C244.289 66.5624 243.025 71.3679 240.495 78.7027C237.966 86.0375 235.816 94.7633 234.046 104.88C233.793 105.892 232.908 107.283 231.39 109.054C230.126 110.571 228.861 111.33 227.596 111.33C226.332 111.33 225.32 110.192 224.561 107.915C223.802 105.639 223.423 103.869 223.423 102.604C223.423 97.2926 222.664 92.6135 221.147 88.5667C219.629 84.5199 217.226 81.3584 213.938 79.0821C210.903 76.5528 206.604 75.2882 201.039 75.2882H154.754C151.719 75.2882 148.811 75.9205 146.028 77.1851C143.499 78.1968 141.476 81.3584 139.958 86.6698L119.851 159.132C118.839 162.673 118.46 165.582 118.713 167.858C119.218 170.135 120.736 171.146 123.265 170.893C127.565 170.388 131.738 169.882 135.785 169.376C140.085 168.87 144.637 168.617 149.443 168.617C160.572 168.617 171.194 171.273 181.311 176.584C191.681 181.643 200.154 188.977 206.73 198.589C213.306 207.947 216.594 219.075 216.594 231.974C216.594 250.185 211.789 265.234 202.177 277.121C192.819 289.009 180.3 297.861 164.618 303.678C148.937 309.496 131.612 312.404 112.642 312.404C106.319 312.404 100.755 312.278 95.9495 312.025C91.1439 311.772 86.2119 311.519 81.1534 311.266C76.3479 311.266 70.7836 311.266 64.4605 311.266C54.3435 311.266 45.4912 311.519 37.9035 312.025C30.3158 312.784 21.7164 313.163 12.1053 313.163ZM117.195 301.781C127.312 301.781 136.417 300.137 144.511 296.849C152.857 293.309 159.939 288.503 165.756 282.433C171.574 276.11 176 268.775 179.035 260.428C182.323 252.082 183.967 243.103 183.967 233.492C183.967 215.534 179.414 202.129 170.309 193.277C161.457 184.425 149.696 179.999 135.026 179.999C127.944 179.999 122.127 181.39 117.574 184.172C113.275 186.954 110.366 190.874 108.849 195.933C106.572 203.521 104.043 211.867 101.261 220.972C98.4787 229.825 95.823 238.551 93.2938 247.15C90.7645 255.749 88.6147 263.464 86.8442 270.292C83.5562 281.927 85.0738 290.147 91.3969 294.953C97.9729 299.505 106.572 301.781 117.195 301.781Z" stroke="white" stroke-width="6" mask="url(#path-1-outside-1_678_344)"/>
<path d="M212.397 421.288C208.603 421.288 204.809 419.897 201.016 417.115C197.222 414.585 195.325 410.665 195.325 405.354C195.325 401.813 196.084 398.651 197.601 395.869C199.119 393.087 201.016 390.811 203.292 389.04C205.568 387.27 207.845 386.384 210.121 386.384C212.65 386.384 214.8 387.017 216.57 388.281C218.341 389.799 220.111 391.316 221.882 392.834C223.652 394.352 225.423 395.616 227.193 396.628C228.964 397.892 230.987 398.525 233.263 398.525C242.116 398.525 251.347 392.834 260.959 381.452C270.823 370.324 279.928 356.287 288.274 339.341C294.092 327.453 297.885 314.428 299.656 300.264C301.679 285.847 302.691 270.04 302.691 252.841C302.691 234.124 301.3 219.202 298.518 208.073C295.988 196.945 292.953 188.977 289.412 184.172C286.124 179.113 283.216 176.584 280.687 176.584C278.157 176.584 275.375 178.102 272.34 181.137C269.558 183.919 266.902 187.207 264.373 191.001C262.097 194.795 260.453 198.209 259.441 201.244C259.188 202.509 258.303 204.659 256.785 207.694C255.268 210.729 253.75 212.246 252.233 212.246C251.221 212.246 250.336 211.235 249.577 209.211C249.071 206.935 248.818 204.406 248.818 201.624C248.818 195.806 249.956 190.116 252.233 184.551C254.762 178.987 257.923 173.928 261.717 169.376C265.764 164.823 270.064 161.156 274.616 158.374C279.169 155.592 283.595 154.2 287.895 154.2C293.965 154.2 299.024 156.35 303.07 160.65C307.37 164.95 310.785 171.146 313.314 179.24C316.855 190.116 320.016 203.647 322.798 219.834C325.581 235.768 326.339 256.382 325.075 281.674C324.822 286.227 325.201 288.377 326.213 288.124C327.477 287.871 328.995 286.1 330.765 282.812C339.112 266.878 346.573 248.415 353.149 227.422C359.978 206.429 363.393 183.287 363.393 157.994C363.393 156.73 364.278 155.212 366.048 153.442C368.072 151.671 369.589 150.786 370.601 150.786C371.613 150.786 373.13 151.545 375.154 153.062C377.177 154.327 378.947 156.224 380.465 158.753C382.235 161.282 383.121 164.064 383.121 167.1C383.121 182.781 379.2 201.244 371.36 222.49C363.519 243.735 352.517 266.246 338.353 290.02C324.189 313.795 307.749 337.317 289.033 360.586C280.181 371.462 271.202 381.452 262.097 390.558C252.991 399.916 244.139 407.377 235.54 412.941C227.193 418.506 219.479 421.288 212.397 421.288Z" stroke="white" stroke-width="6" mask="url(#path-1-outside-1_678_344)"/>
<path d="M413.575 316.957C411.299 316.957 409.529 316.451 408.264 315.439C406.999 314.681 405.988 313.416 405.229 311.645C404.723 310.128 404.47 308.357 404.47 306.334C404.47 305.069 404.47 304.058 404.47 303.299C404.723 302.54 404.976 301.781 405.229 301.023L450.376 187.207C451.64 184.425 452.399 181.896 452.652 179.619C453.158 177.343 452.146 176.205 449.617 176.205C445.823 176.205 441.397 177.343 436.338 179.619C431.28 181.896 425.336 185.31 418.507 189.863C417.243 190.874 415.978 191.38 414.713 191.38C413.449 191.127 412.817 190.116 412.817 188.345C413.069 186.069 414.966 183.034 418.507 179.24C422.301 175.446 426.98 171.652 432.545 167.858C438.362 164.064 444.179 160.776 449.996 157.994C456.067 155.212 461.378 153.821 465.931 153.821C469.471 153.821 472.633 155.971 475.415 160.271C478.197 164.57 478.83 168.744 477.312 172.79L457.584 221.352C456.825 223.375 456.825 224.64 457.584 225.146C458.343 225.651 458.975 225.904 459.481 225.904L517.148 223.628C517.653 223.628 518.159 223.375 518.665 222.869C519.171 222.363 519.55 221.605 519.803 220.593L542.187 164.823C543.199 162.547 544.969 160.65 547.498 159.132C550.281 157.615 553.063 156.477 555.845 155.718C558.627 154.706 560.65 154.2 561.915 154.2C563.938 154.2 565.077 154.706 565.33 155.718C565.835 156.73 566.088 158.374 566.088 160.65C566.088 161.662 565.456 163.812 564.191 167.1C562.927 170.135 561.283 173.928 559.259 178.481L519.424 278.639C515.883 288.503 516.009 293.435 519.803 293.435C522.838 293.435 526.506 292.297 530.806 290.02C535.358 287.491 539.784 284.583 544.084 281.295C548.637 278.007 552.557 274.972 555.845 272.189C559.133 269.407 561.283 267.51 562.294 266.499C562.547 266.246 562.674 266.119 562.674 266.119C562.927 266.119 563.053 266.119 563.053 266.119C563.306 266.119 563.433 266.119 563.433 266.119C565.709 266.119 566.847 267.257 566.847 269.534C566.847 270.545 566.468 271.557 565.709 272.569C565.203 273.58 564.697 274.339 564.191 274.845C559.892 279.651 555.592 284.203 551.292 288.503C547.246 292.55 543.072 296.344 538.773 299.885C534.726 303.425 530.553 306.461 526.253 308.99C522.206 311.266 518.159 313.037 514.113 314.301C510.066 315.819 505.892 316.577 501.593 316.577C499.064 316.577 496.661 315.439 494.384 313.163C492.108 311.14 490.464 308.737 489.452 305.955C488.441 303.173 488.314 300.896 489.073 299.126L511.457 242.597C512.216 240.574 512.721 239.309 512.974 238.803C513.48 238.045 513.101 237.665 511.836 237.665L454.17 239.942C453.664 239.942 452.905 240.068 451.893 240.321C451.135 240.574 450.376 241.333 449.617 242.597L422.681 309.749C421.922 311.772 420.657 313.416 418.887 314.681C417.116 316.198 415.346 316.957 413.575 316.957Z" stroke="white" stroke-width="6" mask="url(#path-1-outside-1_678_344)"/>
<path d="M613.606 316.577C610.824 316.577 607.916 315.313 604.88 312.784C602.098 310.507 599.948 307.725 598.431 304.437C596.913 301.149 596.534 298.493 597.293 296.47L637.128 200.485C638.899 196.186 640.037 192.518 640.543 189.483C641.049 186.448 640.29 184.931 638.266 184.931C637.002 184.931 634.852 185.942 631.817 187.966C629.035 189.989 625.747 192.518 621.953 195.553C618.412 198.589 614.744 201.75 610.951 205.038C610.445 205.544 609.433 205.67 607.916 205.418C606.651 205.165 606.019 204.659 606.019 203.9C606.019 202.888 606.272 201.497 606.777 199.727C607.283 197.703 608.548 195.301 610.571 192.518C616.894 183.919 623.85 176.711 631.437 170.893C639.278 165.076 646.613 160.65 653.442 157.615C660.524 154.327 665.835 152.683 669.376 152.683C670.641 152.683 672.032 153.442 673.549 154.959C675.32 156.224 676.711 157.868 677.723 159.891C678.734 161.662 678.734 163.432 677.723 165.203C669.376 182.401 661.409 199.853 653.821 217.558C646.234 235.263 638.646 252.714 631.058 269.913C628.782 274.972 627.391 279.651 626.885 283.95C626.379 288.25 627.391 290.4 629.92 290.4C632.449 290.4 636.243 288.25 641.302 283.95C646.36 279.651 652.051 274.086 658.374 267.257C664.95 260.428 671.779 253.094 678.861 245.253C688.472 234.377 697.703 223.122 706.556 211.488C715.661 199.853 723.502 189.357 730.078 179.999C736.654 170.64 740.953 164.064 742.977 160.271C744.241 157.741 745.759 156.097 747.53 155.339C749.3 154.58 750.944 154.2 752.462 154.2C753.979 154.2 755.497 154.959 757.014 156.477C758.532 157.994 759.67 159.765 760.429 161.788C761.44 163.812 761.567 165.582 760.808 167.1L712.247 278.639C710.223 283.444 709.338 287.112 709.591 289.641C709.844 292.17 711.108 293.435 713.385 293.435C716.673 293.435 720.973 291.665 726.284 288.124C731.595 284.583 737.033 280.536 742.597 275.983C748.162 271.178 752.841 266.878 756.635 263.084C756.888 262.831 757.267 262.705 757.773 262.705C758.532 262.705 759.29 263.084 760.049 263.843C760.808 264.349 761.187 265.108 761.187 266.119C761.187 266.625 761.061 267.131 760.808 267.637C760.555 268.143 760.176 268.775 759.67 269.534C759.417 270.292 758.911 271.178 758.152 272.189C757.646 273.201 756.888 274.339 755.876 275.604C755.117 276.616 754.105 277.88 752.841 279.398C748.035 285.468 742.471 291.412 736.148 297.229C729.825 302.793 722.996 307.472 715.661 311.266C708.579 314.807 700.992 316.577 692.898 316.577C689.61 316.577 686.575 314.428 683.793 310.128C681.263 305.828 680.758 302.034 682.275 298.746C685.816 291.159 689.61 283.065 693.657 274.466C697.703 265.866 701.244 257.899 704.28 250.564C707.568 243.23 709.844 237.792 711.108 234.251C712.373 231.216 712.247 229.572 710.729 229.319C709.212 229.066 707.82 229.698 706.556 231.216C693.404 245.632 681.769 258.279 671.652 269.154C661.535 279.777 652.683 288.629 645.095 295.711C637.761 302.54 631.437 307.725 626.126 311.266C621.068 314.807 616.894 316.577 613.606 316.577Z" stroke="white" stroke-width="6" mask="url(#path-1-outside-1_678_344)"/>
<path d="M802.594 316.957C800.317 316.957 798.547 316.451 797.282 315.439C796.018 314.681 795.006 313.416 794.247 311.645C793.741 310.128 793.488 308.357 793.488 306.334C793.488 305.069 793.488 304.058 793.488 303.299C793.741 302.54 793.994 301.781 794.247 301.023L839.394 187.207C840.659 184.425 841.418 181.896 841.671 179.619C842.176 177.343 841.165 176.205 838.635 176.205C834.842 176.205 830.415 177.343 825.357 179.619C820.298 181.896 814.355 185.31 807.526 189.863C806.261 190.874 804.997 191.38 803.732 191.38C802.467 191.127 801.835 190.116 801.835 188.345C802.088 186.069 803.985 183.034 807.526 179.24C811.32 175.446 815.999 171.652 821.563 167.858C827.38 164.064 833.198 160.776 839.015 157.994C845.085 155.212 850.396 153.821 854.949 153.821C858.49 153.821 861.651 155.971 864.434 160.271C867.216 164.57 867.848 168.744 866.331 172.79L846.603 221.352C845.844 223.375 845.844 224.64 846.603 225.146C847.361 225.651 847.994 225.904 848.499 225.904L906.166 223.628C906.672 223.628 907.178 223.375 907.684 222.869C908.189 222.363 908.569 221.605 908.822 220.593L931.206 164.823C932.217 162.547 933.988 160.65 936.517 159.132C939.299 157.615 942.081 156.477 944.863 155.718C947.646 154.706 949.669 154.2 950.934 154.2C952.957 154.2 954.095 154.706 954.348 155.718C954.854 156.73 955.107 158.374 955.107 160.65C955.107 161.662 954.474 163.812 953.21 167.1C951.945 170.135 950.301 173.928 948.278 178.481L908.442 278.639C904.901 288.503 905.028 293.435 908.822 293.435C911.857 293.435 915.524 292.297 919.824 290.02C924.377 287.491 928.803 284.583 933.102 281.295C937.655 278.007 941.575 274.972 944.863 272.189C948.151 269.407 950.301 267.51 951.313 266.499C951.566 266.246 951.692 266.119 951.692 266.119C951.945 266.119 952.072 266.119 952.072 266.119C952.325 266.119 952.451 266.119 952.451 266.119C954.727 266.119 955.866 267.257 955.866 269.534C955.866 270.545 955.486 271.557 954.727 272.569C954.222 273.58 953.716 274.339 953.21 274.845C948.91 279.651 944.61 284.203 940.311 288.503C936.264 292.55 932.091 296.344 927.791 299.885C923.744 303.425 919.571 306.461 915.271 308.99C911.225 311.266 907.178 313.037 903.131 314.301C899.084 315.819 894.911 316.577 890.611 316.577C888.082 316.577 885.679 315.439 883.403 313.163C881.127 311.14 879.483 308.737 878.471 305.955C877.459 303.173 877.333 300.896 878.092 299.126L900.475 242.597C901.234 240.574 901.74 239.309 901.993 238.803C902.499 238.045 902.119 237.665 900.855 237.665L843.188 239.942C842.682 239.942 841.923 240.068 840.912 240.321C840.153 240.574 839.394 241.333 838.635 242.597L811.699 309.749C810.94 311.772 809.676 313.416 807.905 314.681C806.135 316.198 804.364 316.957 802.594 316.957Z" stroke="white" stroke-width="6" mask="url(#path-1-outside-1_678_344)"/>
<circle r="53.5752" transform="matrix(0.916695 -0.399588 -0.399588 -0.916695 215.754 399.643)" stroke="white" stroke-width="5.53531" stroke-dasharray="18.45 18.45"/>
<circle r="37.1461" transform="matrix(0.5 0.866025 0.866025 -0.5 943.742 275.281)" stroke="white" stroke-width="5.53531" stroke-dasharray="18.45 18.45"/>
<circle r="53.5752" transform="matrix(0.916695 -0.399588 -0.399588 -0.916695 224.979 74.9052)" stroke="white" stroke-width="5.53531" stroke-dasharray="18.45 18.45"/>
</svg>
