<svg width="241" height="94" viewBox="0 0 241 94" fill="none" xmlns="http://www.w3.org/2000/svg">
<path fill-rule="evenodd" clip-rule="evenodd" d="M11.7345 26.069H6.97932V46.1967H0V0.402344H6.97932V18.7446H11.7345V0.402344H18.7131V46.1967H11.7345V26.069Z" fill="#DA5125"/>
<path fill-rule="evenodd" clip-rule="evenodd" d="M30.9488 46.7986H29.574C23.9502 46.7986 20.9512 43.7782 20.9512 38.1047V28.9171H27.9497V36.9338C27.9497 39.0302 28.6368 40.1393 30.2617 40.1393C31.9485 40.1393 32.5738 39.0302 32.5738 36.1934V35.1452C32.5738 31.878 32.2611 30.7064 29.6997 27.4385L25.2 21.7657C22.201 17.9425 21.3263 14.983 21.3263 10.4201V8.94074C21.3263 2.83604 24.4497 0 30.0116 0H31.324C37.1345 0 39.384 2.52754 39.384 7.95426V15.4766H32.5738V8.87904C32.5738 7.33726 32.2611 6.16568 30.5736 6.16568C28.8869 6.16568 28.5117 7.21386 28.5117 9.37192V10.2357C28.5117 12.8257 29.0119 14.2433 31.3858 17.2645L35.8847 22.999C39.0714 27.0683 40.0711 29.4122 40.0711 34.5907V36.0715C40.0711 42.791 37.1345 46.7986 30.9488 46.7986Z" fill="#DA5125"/>
<path fill-rule="evenodd" clip-rule="evenodd" d="M58.2081 0.402344V7.04926H49.2985V19.0525H56.2896V26.0081H49.2985V39.2418H58.5789V46.1967H42.3066V0.402344H58.2081Z" fill="#DA5125"/>
<path fill-rule="evenodd" clip-rule="evenodd" d="M76.8395 30.7479L74.944 13.8201L73.1123 30.7479H76.8395ZM77.5966 37.5788H72.4178L71.4704 46.1967H65.0898L70.8375 0.402344H79.3025L85.4302 46.1967H78.5454L77.5966 37.5788Z" fill="#DA5125"/>
<path fill-rule="evenodd" clip-rule="evenodd" d="M93.5577 19.2366H95.4457C97.3966 19.2366 98.0264 18.0055 98.0264 15.9744V9.5731C98.0264 7.60359 97.5855 6.61884 95.4457 6.61884H93.5577V19.2366ZM93.5577 46.1967H86.4453V0.402344H97.9642C102.684 0.402344 105.076 2.37185 105.076 7.48041V15.6048C105.076 19.4214 103.25 20.8981 101.992 21.4525C103.565 22.1293 105.076 23.3611 105.076 26.4378V42.5033C105.076 44.3497 105.453 45.2105 105.769 45.8873V46.1967H98.7185C98.4036 45.704 98.0264 44.904 98.0264 42.4417V28.6544C98.0264 26.6226 97.6493 25.7611 95.3827 25.7611H93.5577V46.1967Z" fill="#DA5125"/>
<path fill-rule="evenodd" clip-rule="evenodd" d="M119.004 7.04926V46.1967H112.065V7.04926H106.178V0.402344H124.891V7.04926H119.004Z" fill="#DA5125"/>
<path fill-rule="evenodd" clip-rule="evenodd" d="M141.113 30.7479L139.218 13.8201L137.386 30.7479H141.113ZM141.87 37.5788H136.691L135.743 46.1967H129.363L135.112 0.402344H143.576L149.704 46.1967H142.819L141.87 37.5788Z" fill="#DA5125"/>
<path fill-rule="evenodd" clip-rule="evenodd" d="M157.245 0.402344L163.256 24.9611V0.402344H169.637V46.1967H163.937L157.245 19.8518V46.1967H150.924V0.402344H157.245Z" fill="#DA5125"/>
<path fill-rule="evenodd" clip-rule="evenodd" d="M179.533 39.5483H181.217C183.338 39.5483 183.962 38.4411 183.962 35.9796V10.189C183.962 7.542 183.276 6.61884 181.529 6.61884H179.533V39.5483ZM172.484 0.402344H183.276C189.326 0.402344 191.197 3.78704 191.197 9.20427V37.0868C191.197 42.6874 189.077 46.1967 183.276 46.1967H172.484V0.402344Z" fill="#DA5125"/>
<path fill-rule="evenodd" clip-rule="evenodd" d="M7.04889 86.7482H8.73273C10.8535 86.7482 11.4777 85.6409 11.4777 83.1794V57.3884C11.4777 54.742 10.7918 53.8181 9.04482 53.8181H7.04889V86.7482ZM0 47.6016H10.7918C16.8413 47.6016 18.7131 50.987 18.7131 56.4029V84.2873C18.7131 89.8873 16.5923 93.3959 10.7918 93.3959H0V47.6016Z" fill="#DA5125"/>
<path fill-rule="evenodd" clip-rule="evenodd" d="M37.2582 47.6016V54.2493H28.3492V66.2513H35.3403V73.2078H28.3492V86.4416H37.6297V93.3959H21.3574V47.6016H37.2582Z" fill="#DA5125"/>
<path fill-rule="evenodd" clip-rule="evenodd" d="M49.0504 93.9998H47.6755C42.0518 93.9998 39.0527 90.9787 39.0527 85.3054V76.1189H46.0513V84.1346C46.0513 86.2309 46.7384 87.3407 48.3626 87.3407C50.0501 87.3407 50.6753 86.2309 50.6753 83.3949V82.3468C50.6753 79.0789 50.3627 77.9074 47.8013 74.6395L43.3016 68.9662C40.3025 65.1438 39.4279 62.1852 39.4279 57.6231V56.1424C39.4279 50.0378 42.5513 47.2012 48.1132 47.2012H49.4255C55.2361 47.2012 57.4856 49.7308 57.4856 55.1552V62.6788H50.6753V56.0807C50.6753 54.5389 50.3627 53.3674 48.6752 53.3674C46.9885 53.3674 46.6133 54.4155 46.6133 56.5735V57.4373C46.6133 60.0265 47.1135 61.4455 49.4873 64.4658L53.9863 70.1994C57.1729 74.2694 58.1726 76.6124 58.1726 81.7922V83.2722C58.1726 89.9916 55.2361 93.9998 49.0504 93.9998Z" fill="#DA5125"/>
<mask id="mask0_526_2465" style="mask-type:alpha" maskUnits="userSpaceOnUse" x="60" y="47" width="29" height="47">
<path d="M60.0332 47.2246H88.5727V93.9611H60.0332V47.2246Z" fill="white"/>
</mask>
<g mask="url(#mask0_526_2465)">
<path fill-rule="evenodd" clip-rule="evenodd" d="M60.0332 93.3853H67.1523V47.6523H60.0332V93.3853Z" fill="#DA5125"/>
<path fill-rule="evenodd" clip-rule="evenodd" d="M76.4125 94.004C72.2548 94.004 69.6094 90.3777 69.6094 85.6443V57.0598C69.6094 51.9588 71.6252 47.2246 78.3661 47.2246H79.7515C87.3749 47.2246 88.2567 52.0811 88.2567 57.4911V62.1631H81.3267V56.9983C81.3267 54.9706 80.8224 53.8642 79.0595 53.8642C77.5473 53.8642 76.8538 54.9706 76.8538 56.9983V83.7389C76.8538 85.8896 77.7357 86.9968 79.1848 86.9968C81.0123 86.9968 81.8303 85.7673 81.8303 84.0457V72.6127H78.6175V65.6048H88.5712V93.3889H84.5396C84.4765 93.1428 83.9099 90.8691 83.3425 88.9022C82.8382 90.4392 80.4442 94.004 76.8538 94.004H76.4125Z" fill="#DA5125"/>
</g>
<path fill-rule="evenodd" clip-rule="evenodd" d="M97.2403 47.6016L103.251 72.16V47.6016H109.633V93.3959H103.933L97.2403 67.0513V93.3959H90.9199V47.6016H97.2403Z" fill="#DA5125"/>
<path fill-rule="evenodd" clip-rule="evenodd" d="M128.171 93.9998H126.797C121.174 93.9998 118.174 90.9787 118.174 85.3054V76.1189H125.172V84.1346C125.172 86.2309 125.859 87.3407 127.484 87.3407C129.171 87.3407 129.796 86.2309 129.796 83.3949V82.3468C129.796 79.0789 129.484 77.9074 126.921 74.6395L122.423 68.9662C119.424 65.1438 118.549 62.1852 118.549 57.6231V56.1424C118.549 50.0378 121.673 47.2012 127.234 47.2012H128.547C134.357 47.2012 136.607 49.7308 136.607 55.1552V62.6788H129.796V56.0807C129.796 54.5389 129.484 53.3674 127.796 53.3674C126.11 53.3674 125.735 54.4155 125.735 56.5735V57.4373C125.735 60.0265 126.235 61.4455 128.608 64.4658L133.107 70.1994C136.294 74.2694 137.294 76.6124 137.294 81.7922V83.2722C137.294 89.9916 134.357 93.9998 128.171 93.9998Z" fill="#DA5125"/>
<path fill-rule="evenodd" clip-rule="evenodd" d="M150.767 84.1476V73.495H157.639V84.0859C157.639 89.0131 156.029 93.9998 149.281 93.9998H147.733C140.675 93.9998 139.129 88.9508 139.129 84.3331V56.3763C139.129 51.6978 141.171 47.2012 147.486 47.2012H149.095C156.772 47.2012 157.639 52.2516 157.639 56.7467V64.9353H150.767V56.8693C150.767 54.899 150.148 53.8522 148.415 53.8522C146.681 53.8522 146.248 54.8381 146.248 56.8693V84.0859C146.248 86.1179 146.929 87.2262 148.477 87.2262C150.148 87.2262 150.767 85.9946 150.767 84.1476Z" fill="#DA5125"/>
<path fill-rule="evenodd" clip-rule="evenodd" d="M171.607 73.2693H166.852V93.3959H159.873V47.6016H166.852V65.9441H171.607V47.6016H178.586V93.3959H171.607V73.2693Z" fill="#DA5125"/>
<path fill-rule="evenodd" clip-rule="evenodd" d="M193.364 57.3622C193.364 54.9606 192.551 53.8522 190.926 53.8522C189.112 53.8522 188.423 55.0229 188.423 57.3622V83.717C188.423 85.6873 188.987 87.2262 190.988 87.2262C192.864 87.2262 193.364 85.6873 193.364 83.717V57.3622ZM200.556 83.2247C200.556 89.6279 198.366 93.9998 191.551 93.9998H190.362C183.608 93.9998 181.232 89.6279 181.232 83.2247V57.7312C181.232 51.389 183.671 47.2012 190.299 47.2012H191.488C198.366 47.2012 200.556 51.389 200.556 57.6696V83.2247Z" fill="#DA5125"/>
<path fill-rule="evenodd" clip-rule="evenodd" d="M214.724 57.3622C214.724 54.9606 213.91 53.8522 212.285 53.8522C210.471 53.8522 209.783 55.0229 209.783 57.3622V83.717C209.783 85.6873 210.346 87.2262 212.347 87.2262C214.223 87.2262 214.724 85.6873 214.724 83.717V57.3622ZM221.915 83.2247C221.915 89.6279 219.726 93.9998 212.91 93.9998H211.722C204.968 93.9998 202.592 89.6279 202.592 83.2247V57.7312C202.592 51.389 205.03 47.2012 211.659 47.2012H212.848C219.726 47.2012 221.915 51.389 221.915 57.6696V83.2247Z" fill="#DA5125"/>
<path fill-rule="evenodd" clip-rule="evenodd" d="M231.61 47.6016V86.3177H240.221V93.3959H224.559V47.6016H231.61Z" fill="#DA5125"/>
</svg>
