<svg width="1440" height="1686" viewBox="0 0 1440 1686" fill="none" xmlns="http://www.w3.org/2000/svg">
<path d="M1383.29 238.213H38.7832V973.739H1383.29V238.213Z" fill="#F7B34D"/>
<path d="M45.6543 207.121H1386.37C1390.16 207.121 1393.24 211.598 1393.24 217.125V238.213H38.7832V217.125C38.7832 211.598 41.8582 207.121 45.6543 207.121Z" fill="#001427"/>
<path d="M1378.99 141.592H51.3535V207.048H1378.99V141.592Z" fill="#BF0603"/>
<path d="M1404.73 117.247H21.0977V145.235H1404.73V117.247Z" fill="#231F20"/>
<path d="M68.9095 123.044H30.7656V170.18H68.9095V123.044Z" fill="#F7B34D"/>
<path d="M84.8113 179.392L68.9092 170.18V123.044L84.8113 135.982V179.392Z" fill="#050606"/>
<path d="M84.8116 179.392H43.2541L30.7656 170.18H68.9095L84.8116 179.392Z" fill="#F4D58D"/>
<path d="M54.7041 177.57H71.0939V191.212C71.0939 194.504 68.3587 197.153 65.0087 197.153H60.7893C57.4181 197.153 54.7041 194.483 54.7041 191.212V177.57Z" fill="#F4D58D"/>
<path d="M193.837 179.392L177.935 170.18V123.044L193.837 135.982V179.392Z" fill="#050606"/>
<path d="M177.913 123.044H139.77V170.18H177.913V123.044Z" fill="#F7B34D"/>
<path d="M193.837 179.392H152.279L139.77 170.18H177.935L193.837 179.392Z" fill="#F4D58D"/>
<path d="M163.729 177.57H180.118V191.212C180.118 194.504 177.383 197.153 174.033 197.153H169.814C166.442 197.153 163.729 194.483 163.729 191.212V177.57Z" fill="#F4D58D"/>
<path d="M283.376 123.044H245.232V170.18H283.376V123.044Z" fill="#F7B34D"/>
<path d="M299.299 179.392L283.376 170.18V123.044L299.299 135.982V179.392Z" fill="#050606"/>
<path d="M299.3 179.392H257.721L245.232 170.18H283.376L299.3 179.392Z" fill="#F4D58D"/>
<path d="M269.171 177.57H285.561V191.212C285.561 194.504 282.826 197.153 279.475 197.153H275.256C271.885 197.153 269.171 194.483 269.171 191.212V177.57Z" fill="#F4D58D"/>
<path d="M392.571 123.044H354.427V170.18H392.571V123.044Z" fill="#F7B34D"/>
<path d="M408.494 179.392L392.57 170.18V123.044L408.494 135.982V179.392Z" fill="#050606"/>
<path d="M408.494 179.392H366.915L354.427 170.18H392.571L408.494 179.392Z" fill="#F4D58D"/>
<path d="M378.364 177.57H394.754V191.212C394.754 194.504 392.019 197.153 388.669 197.153H384.449C381.078 197.153 378.364 194.483 378.364 191.212V177.57Z" fill="#F4D58D"/>
<path d="M500.896 123.044H462.752V170.18H500.896V123.044Z" fill="#F7B34D"/>
<path d="M516.819 179.392L500.917 170.18V123.044L516.819 135.982V179.392Z" fill="#050606"/>
<path d="M516.819 179.392H475.262L462.752 170.18H500.917L516.819 179.392Z" fill="#F4D58D"/>
<path d="M486.711 177.57H503.101V191.212C503.101 194.504 500.366 197.153 497.016 197.153H492.796C489.425 197.153 486.711 194.483 486.711 191.212V177.57Z" fill="#F4D58D"/>
<path d="M610.069 123.044H571.925V170.18H610.069V123.044Z" fill="#F7B34D"/>
<path d="M625.97 179.392L610.068 170.18V123.044L625.97 135.982V179.392Z" fill="#050606"/>
<path d="M625.971 179.392H584.413L571.925 170.18H610.069L625.971 179.392Z" fill="#F4D58D"/>
<path d="M595.863 177.57H612.253V191.212C612.253 194.504 609.518 197.153 606.168 197.153H601.949C598.577 197.153 595.863 194.483 595.863 191.212V177.57Z" fill="#F4D58D"/>
<path d="M734.444 178.025H692.887L680.377 168.792H718.542L734.444 178.025Z" fill="#F4D58D"/>
<path d="M718.521 123.044H680.377V170.18H718.521V123.044Z" fill="#F7B34D"/>
<path d="M734.444 179.392L718.542 170.18V123.044L734.444 135.982V179.392Z" fill="#050606"/>
<path d="M704.336 177.57H720.726V191.212C720.726 194.504 717.991 197.153 714.641 197.153H710.421C707.05 197.153 704.336 194.483 704.336 191.212V177.57Z" fill="#F4D58D"/>
<path d="M834.183 123.044H796.039V170.18H834.183V123.044Z" fill="#F7B34D"/>
<path d="M850.106 179.392L834.183 170.18V123.044L850.106 135.982V179.392Z" fill="#050606"/>
<path d="M850.106 179.392H808.528L796.039 170.18H834.183L850.106 179.392Z" fill="#F4D58D"/>
<path d="M819.979 177.57H836.367V191.212C836.367 194.504 833.632 197.153 830.282 197.153H826.063C822.691 197.153 819.979 194.483 819.979 191.212V177.57Z" fill="#F4D58D"/>
<path d="M945.625 123.209H907.48V170.345H945.625V123.209Z" fill="#F7B34D"/>
<path d="M961.548 179.557L945.646 170.345V123.209L961.548 136.147V179.557Z" fill="#050606"/>
<path d="M961.548 179.557H919.99L907.48 170.345H945.646L961.548 179.557Z" fill="#F4D58D"/>
<path d="M931.439 177.734H947.829V191.376C947.829 194.668 945.094 197.317 941.744 197.317H937.525C934.153 197.317 931.439 194.647 931.439 191.376V177.734Z" fill="#F4D58D"/>
<path d="M1056.41 123.209H1018.27V170.345H1056.41V123.209Z" fill="#F7B34D"/>
<path d="M1072.31 179.557L1056.41 170.345V123.209L1072.31 136.147V179.557Z" fill="#050606"/>
<path d="M1072.31 179.557H1030.75L1018.27 170.345H1056.41L1072.31 179.557Z" fill="#F4D58D"/>
<path d="M1042.2 177.734H1058.59V191.376C1058.59 194.668 1055.86 197.317 1052.51 197.317H1048.29C1044.92 197.317 1042.2 194.647 1042.2 191.376V177.734Z" fill="#F4D58D"/>
<path d="M1285.4 179.557L1269.5 170.345V123.209L1285.4 136.147V179.557Z" fill="#050606"/>
<path d="M1269.5 123.209H1231.35V170.345H1269.5V123.209Z" fill="#F7B34D"/>
<path d="M1285.4 179.557H1243.84L1231.35 170.345H1269.5L1285.4 179.557Z" fill="#F4D58D"/>
<path d="M1255.29 177.734H1271.68V191.376C1271.68 194.668 1268.95 197.317 1265.6 197.317H1261.38C1258.01 197.317 1255.29 194.647 1255.29 191.376V177.734Z" fill="#F4D58D"/>
<path d="M1369.81 123.209H1331.66V170.345H1369.81V123.209Z" fill="#F7B34D"/>
<path d="M1385.73 179.557L1369.81 170.345V123.209L1385.73 136.147V179.557Z" fill="#050606"/>
<path d="M1385.73 179.557H1344.15L1331.66 170.345H1369.81L1385.73 179.557Z" fill="#F4D58D"/>
<path d="M1355.6 177.734H1371.99V191.376C1371.99 194.668 1369.26 197.317 1365.91 197.317H1361.69C1358.32 197.317 1355.6 194.647 1355.6 191.376V177.734Z" fill="#F4D58D"/>
<path d="M1168.21 123.209H1130.07V170.345H1168.21V123.209Z" fill="#F7B34D"/>
<path d="M1184.11 179.557L1168.21 170.345V123.209L1184.11 136.147V179.557Z" fill="#050606"/>
<path d="M1184.11 179.557H1142.56L1130.07 170.345H1168.21L1184.11 179.557Z" fill="#F4D58D"/>
<path d="M1154.01 177.734H1170.4V191.376C1170.4 194.668 1167.66 197.317 1164.31 197.317H1160.09C1156.72 197.317 1154.01 194.647 1154.01 191.376V177.734Z" fill="#F4D58D"/>
<path d="M25.5288 95.1387H1406.76C1413.49 95.1387 1418.96 100.479 1418.96 107.042V117.247H13.3584V107.042C13.3584 100.479 18.8287 95.1387 25.55 95.1387H25.5288Z" fill="#F6B24C"/>
<path d="M1408.89 54.751H21.0977V95.1384H1408.89V54.751Z" fill="#BF0603"/>
<path d="M1418.96 42.6826H9.35059V54.7512H1418.96V42.6826Z" fill="#001427"/>
<path d="M1438.57 30.6143H-6V42.6829H1438.57V30.6143Z" fill="#BF0603"/>
<path d="M1443 0.163086H-1.56836V30.6141H1443V0.163086Z" fill="#F6B24C"/>
<path d="M161.29 637.088V662.053" stroke="#231F20" stroke-width="4.14102" stroke-miterlimit="10"/>
<path d="M149.777 637.088V662.053" stroke="#231F20" stroke-width="4.14102" stroke-miterlimit="10"/>
<path d="M183.956 637.088V662.053" stroke="#231F20" stroke-width="4.14102" stroke-miterlimit="10"/>
<path d="M139.091 637.356V661.804" stroke="#231F20" stroke-width="4.14102" stroke-miterlimit="10"/>
<path d="M123.867 637.356V661.804" stroke="#231F20" stroke-width="4.14102" stroke-miterlimit="10"/>
<path d="M98.7207 637.356V661.804" stroke="#231F20" stroke-width="4.14102" stroke-miterlimit="10"/>
<path d="M160.442 609.493V634.458" stroke="#231F20" stroke-width="4.14102" stroke-miterlimit="10"/>
<path d="M173.948 609.493V634.458" stroke="#231F20" stroke-width="4.14102" stroke-miterlimit="10"/>
<path d="M134.15 608.604V633.568" stroke="#231F20" stroke-width="4.14102" stroke-miterlimit="10"/>
<path d="M121.938 609.493V634.458" stroke="#231F20" stroke-width="4.14102" stroke-miterlimit="10"/>
<path d="M108.75 608.851V633.298" stroke="#231F20" stroke-width="4.14102" stroke-miterlimit="10"/>
<path d="M96.0283 608.851V633.298" stroke="#231F20" stroke-width="4.14102" stroke-miterlimit="10"/>
<path d="M84.0273 608.851V633.298" stroke="#231F20" stroke-width="4.14102" stroke-miterlimit="10"/>
<path d="M147.594 609.741V634.189" stroke="#231F20" stroke-width="4.14102" stroke-miterlimit="10"/>
<path d="M159.297 665.014V690" stroke="#231F20" stroke-width="4.14102" stroke-miterlimit="10"/>
<path d="M172.803 665.014V690" stroke="#231F20" stroke-width="4.14102" stroke-miterlimit="10"/>
<path d="M133.005 664.123V689.109" stroke="#231F20" stroke-width="4.14102" stroke-miterlimit="10"/>
<path d="M120.792 665.014V690" stroke="#231F20" stroke-width="4.14102" stroke-miterlimit="10"/>
<path d="M107.604 664.393V688.84" stroke="#231F20" stroke-width="4.14102" stroke-miterlimit="10"/>
<path d="M94.8828 664.393V688.84" stroke="#231F20" stroke-width="4.14102" stroke-miterlimit="10"/>
<path d="M82.8818 664.393V688.84" stroke="#231F20" stroke-width="4.14102" stroke-miterlimit="10"/>
<path d="M146.447 665.283V689.731" stroke="#231F20" stroke-width="4.14102" stroke-miterlimit="10"/>
<path d="M84.0273 637.356V661.804" stroke="#231F20" stroke-width="4.14102" stroke-miterlimit="10"/>
<path d="M134.15 691.82V716.806" stroke="#231F20" stroke-width="4.14102" stroke-miterlimit="10"/>
<path d="M121.938 692.711V717.697" stroke="#231F20" stroke-width="4.14102" stroke-miterlimit="10"/>
<path d="M108.75 692.09V716.538" stroke="#231F20" stroke-width="4.14102" stroke-miterlimit="10"/>
<path d="M96.0283 692.09V716.538" stroke="#231F20" stroke-width="4.14102" stroke-miterlimit="10"/>
<path d="M84.0273 692.09V716.538" stroke="#231F20" stroke-width="4.14102" stroke-miterlimit="10"/>
<path d="M147.594 692.979V717.427" stroke="#231F20" stroke-width="4.14102" stroke-miterlimit="10"/>
<path d="M157.431 719.518V744.504" stroke="#231F20" stroke-width="4.14102" stroke-miterlimit="10"/>
<path d="M145.219 720.408V745.394" stroke="#231F20" stroke-width="4.14102" stroke-miterlimit="10"/>
<path d="M132.03 719.787V744.235" stroke="#231F20" stroke-width="4.14102" stroke-miterlimit="10"/>
<path d="M119.309 719.787V744.235" stroke="#231F20" stroke-width="4.14102" stroke-miterlimit="10"/>
<path d="M107.308 719.787V744.235" stroke="#231F20" stroke-width="4.14102" stroke-miterlimit="10"/>
<path d="M170.874 720.678V745.125" stroke="#231F20" stroke-width="4.14102" stroke-miterlimit="10"/>
<path d="M137.648 748.417V773.403" stroke="#231F20" stroke-width="4.14102" stroke-miterlimit="10"/>
<path d="M125.436 749.308V774.294" stroke="#231F20" stroke-width="4.14102" stroke-miterlimit="10"/>
<path d="M112.248 748.688V773.134" stroke="#231F20" stroke-width="4.14102" stroke-miterlimit="10"/>
<path d="M99.5264 748.688V773.134" stroke="#231F20" stroke-width="4.14102" stroke-miterlimit="10"/>
<path d="M87.5254 748.688V773.134" stroke="#231F20" stroke-width="4.14102" stroke-miterlimit="10"/>
<path d="M151.092 749.576V774.024" stroke="#231F20" stroke-width="4.14102" stroke-miterlimit="10"/>
<path d="M1341.91 833.104V858.07" stroke="#231F20" stroke-width="4.14102" stroke-miterlimit="10"/>
<path d="M1330.39 833.104V858.07" stroke="#231F20" stroke-width="4.14102" stroke-miterlimit="10"/>
<path d="M1319.71 833.354V857.8" stroke="#231F20" stroke-width="4.14102" stroke-miterlimit="10"/>
<path d="M1304.48 833.354V857.8" stroke="#231F20" stroke-width="4.14102" stroke-miterlimit="10"/>
<path d="M1279.34 833.354V857.8" stroke="#231F20" stroke-width="4.14102" stroke-miterlimit="10"/>
<path d="M1341.06 805.49V830.476" stroke="#231F20" stroke-width="4.14102" stroke-miterlimit="10"/>
<path d="M1354.56 805.49V830.476" stroke="#231F20" stroke-width="4.14102" stroke-miterlimit="10"/>
<path d="M1314.74 804.6V829.586" stroke="#231F20" stroke-width="4.14102" stroke-miterlimit="10"/>
<path d="M1302.53 805.49V830.476" stroke="#231F20" stroke-width="4.14102" stroke-miterlimit="10"/>
<path d="M1289.37 804.869V829.317" stroke="#231F20" stroke-width="4.14102" stroke-miterlimit="10"/>
<path d="M1276.64 804.869V829.317" stroke="#231F20" stroke-width="4.14102" stroke-miterlimit="10"/>
<path d="M1264.64 804.869V829.317" stroke="#231F20" stroke-width="4.14102" stroke-miterlimit="10"/>
<path d="M1328.19 805.759V830.207" stroke="#231F20" stroke-width="4.14102" stroke-miterlimit="10"/>
<path d="M1339.89 861.029V886.015" stroke="#231F20" stroke-width="4.14102" stroke-miterlimit="10"/>
<path d="M1353.42 861.029V886.015" stroke="#231F20" stroke-width="4.14102" stroke-miterlimit="10"/>
<path d="M1313.6 860.14V885.126" stroke="#231F20" stroke-width="4.14102" stroke-miterlimit="10"/>
<path d="M1301.39 861.029V886.015" stroke="#231F20" stroke-width="4.14102" stroke-miterlimit="10"/>
<path d="M1288.22 860.409V884.857" stroke="#231F20" stroke-width="4.14102" stroke-miterlimit="10"/>
<path d="M1275.48 860.409V884.857" stroke="#231F20" stroke-width="4.14102" stroke-miterlimit="10"/>
<path d="M1263.5 860.409V884.857" stroke="#231F20" stroke-width="4.14102" stroke-miterlimit="10"/>
<path d="M1327.04 861.299V885.747" stroke="#231F20" stroke-width="4.14102" stroke-miterlimit="10"/>
<path d="M1314.74 887.838V912.824" stroke="#231F20" stroke-width="4.14102" stroke-miterlimit="10"/>
<path d="M1302.53 888.729V913.714" stroke="#231F20" stroke-width="4.14102" stroke-miterlimit="10"/>
<path d="M1289.37 888.107V912.555" stroke="#231F20" stroke-width="4.14102" stroke-miterlimit="10"/>
<path d="M1276.64 888.107V912.555" stroke="#231F20" stroke-width="4.14102" stroke-miterlimit="10"/>
<path d="M1264.64 888.107V912.555" stroke="#231F20" stroke-width="4.14102" stroke-miterlimit="10"/>
<path d="M1328.19 888.997V913.445" stroke="#231F20" stroke-width="4.14102" stroke-miterlimit="10"/>
<path d="M1338.03 915.535V940.521" stroke="#231F20" stroke-width="4.14102" stroke-miterlimit="10"/>
<path d="M1325.81 916.426V941.412" stroke="#231F20" stroke-width="4.14102" stroke-miterlimit="10"/>
<path d="M1312.65 915.805V940.252" stroke="#231F20" stroke-width="4.14102" stroke-miterlimit="10"/>
<path d="M1299.92 915.805V940.252" stroke="#231F20" stroke-width="4.14102" stroke-miterlimit="10"/>
<path d="M1287.92 915.805V940.252" stroke="#231F20" stroke-width="4.14102" stroke-miterlimit="10"/>
<path d="M1351.47 916.694V941.142" stroke="#231F20" stroke-width="4.14102" stroke-miterlimit="10"/>
<path d="M1318.24 944.434V969.399" stroke="#231F20" stroke-width="4.14102" stroke-miterlimit="10"/>
<path d="M1306.03 945.324V970.31" stroke="#231F20" stroke-width="4.14102" stroke-miterlimit="10"/>
<path d="M1292.86 944.703V969.151" stroke="#231F20" stroke-width="4.14102" stroke-miterlimit="10"/>
<path d="M1280.12 944.703V969.151" stroke="#231F20" stroke-width="4.14102" stroke-miterlimit="10"/>
<path d="M1268.14 944.703V969.151" stroke="#231F20" stroke-width="4.14102" stroke-miterlimit="10"/>
<path d="M1331.69 945.593V970.041" stroke="#231F20" stroke-width="4.14102" stroke-miterlimit="10"/>
<path d="M1371.95 1117.02H41.1553V1623.11H1371.95V1117.02Z" fill="#231F20"/>
<path d="M1238.73 887.692V912.658" stroke="#231F20" stroke-width="4.14102" stroke-miterlimit="10"/>
<path d="M1226.52 888.583V913.548" stroke="#231F20" stroke-width="4.14102" stroke-miterlimit="10"/>
<path d="M1213.33 887.94V912.409" stroke="#231F20" stroke-width="4.14102" stroke-miterlimit="10"/>
<path d="M1200.61 887.94V912.409" stroke="#231F20" stroke-width="4.14102" stroke-miterlimit="10"/>
<path d="M1188.61 887.941V912.41" stroke="#231F20" stroke-width="4.14102" stroke-miterlimit="10"/>
<path d="M1252.17 888.831V913.299" stroke="#231F20" stroke-width="4.14102" stroke-miterlimit="10"/>
<path d="M1261.99 915.391V940.356" stroke="#231F20" stroke-width="4.14102" stroke-miterlimit="10"/>
<path d="M1249.78 916.281V941.247" stroke="#231F20" stroke-width="4.14102" stroke-miterlimit="10"/>
<path d="M1236.61 915.639V940.107" stroke="#231F20" stroke-width="4.14102" stroke-miterlimit="10"/>
<path d="M1223.89 915.639V940.107" stroke="#231F20" stroke-width="4.14102" stroke-miterlimit="10"/>
<path d="M1211.89 915.639V940.107" stroke="#231F20" stroke-width="4.14102" stroke-miterlimit="10"/>
<path d="M1275.46 916.529V940.998" stroke="#231F20" stroke-width="4.14102" stroke-miterlimit="10"/>
<path d="M1242.21 944.289V969.254" stroke="#231F20" stroke-width="4.14102" stroke-miterlimit="10"/>
<path d="M1230 945.179V970.144" stroke="#231F20" stroke-width="4.14102" stroke-miterlimit="10"/>
<path d="M1216.83 944.537V968.985" stroke="#231F20" stroke-width="4.14102" stroke-miterlimit="10"/>
<path d="M1204.11 944.537V968.985" stroke="#231F20" stroke-width="4.14102" stroke-miterlimit="10"/>
<path d="M1192.11 944.537V968.985" stroke="#231F20" stroke-width="4.14102" stroke-miterlimit="10"/>
<path d="M1255.65 945.428V969.875" stroke="#231F20" stroke-width="4.14102" stroke-miterlimit="10"/>
<path d="M526.551 886.864V911.85" stroke="#231F20" stroke-width="4.14102" stroke-miterlimit="10"/>
<path d="M514.338 887.755V912.741" stroke="#231F20" stroke-width="4.14102" stroke-miterlimit="10"/>
<path d="M501.15 887.134V911.582" stroke="#231F20" stroke-width="4.14102" stroke-miterlimit="10"/>
<path d="M488.429 887.134V911.582" stroke="#231F20" stroke-width="4.14102" stroke-miterlimit="10"/>
<path d="M476.428 887.134V911.582" stroke="#231F20" stroke-width="4.14102" stroke-miterlimit="10"/>
<path d="M539.994 888.023V912.471" stroke="#231F20" stroke-width="4.14102" stroke-miterlimit="10"/>
<path d="M549.831 914.562V939.548" stroke="#231F20" stroke-width="4.14102" stroke-miterlimit="10"/>
<path d="M537.619 915.452V940.438" stroke="#231F20" stroke-width="4.14102" stroke-miterlimit="10"/>
<path d="M524.431 914.832V939.28" stroke="#231F20" stroke-width="4.14102" stroke-miterlimit="10"/>
<path d="M511.709 914.832V939.28" stroke="#231F20" stroke-width="4.14102" stroke-miterlimit="10"/>
<path d="M499.708 914.832V939.28" stroke="#231F20" stroke-width="4.14102" stroke-miterlimit="10"/>
<path d="M563.274 915.722V940.169" stroke="#231F20" stroke-width="4.14102" stroke-miterlimit="10"/>
<path d="M530.028 943.461V968.447" stroke="#231F20" stroke-width="4.14102" stroke-miterlimit="10"/>
<path d="M517.815 944.351V969.337" stroke="#231F20" stroke-width="4.14102" stroke-miterlimit="10"/>
<path d="M504.648 943.729V968.177" stroke="#231F20" stroke-width="4.14102" stroke-miterlimit="10"/>
<path d="M491.927 943.729V968.177" stroke="#231F20" stroke-width="4.14102" stroke-miterlimit="10"/>
<path d="M479.926 943.729V968.177" stroke="#231F20" stroke-width="4.14102" stroke-miterlimit="10"/>
<path d="M543.492 944.62V969.068" stroke="#231F20" stroke-width="4.14102" stroke-miterlimit="10"/>
<path d="M450.518 886.719V911.684" stroke="#231F20" stroke-width="4.14102" stroke-miterlimit="10"/>
<path d="M438.305 887.609V912.575" stroke="#231F20" stroke-width="4.14102" stroke-miterlimit="10"/>
<path d="M425.117 886.987V911.435" stroke="#231F20" stroke-width="4.14102" stroke-miterlimit="10"/>
<path d="M412.396 886.987V911.435" stroke="#231F20" stroke-width="4.14102" stroke-miterlimit="10"/>
<path d="M400.395 886.987V911.435" stroke="#231F20" stroke-width="4.14102" stroke-miterlimit="10"/>
<path d="M463.961 887.878V912.326" stroke="#231F20" stroke-width="4.14102" stroke-miterlimit="10"/>
<path d="M473.798 914.417V939.382" stroke="#231F20" stroke-width="4.14102" stroke-miterlimit="10"/>
<path d="M461.585 915.308V940.294" stroke="#231F20" stroke-width="4.14102" stroke-miterlimit="10"/>
<path d="M448.397 914.688V939.134" stroke="#231F20" stroke-width="4.14102" stroke-miterlimit="10"/>
<path d="M435.676 914.688V939.134" stroke="#231F20" stroke-width="4.14102" stroke-miterlimit="10"/>
<path d="M423.675 914.686V939.133" stroke="#231F20" stroke-width="4.14102" stroke-miterlimit="10"/>
<path d="M487.241 915.576V940.024" stroke="#231F20" stroke-width="4.14102" stroke-miterlimit="10"/>
<path d="M454.016 943.316V968.282" stroke="#231F20" stroke-width="4.14102" stroke-miterlimit="10"/>
<path d="M441.803 944.206V969.171" stroke="#231F20" stroke-width="4.14102" stroke-miterlimit="10"/>
<path d="M428.615 943.585V968.033" stroke="#231F20" stroke-width="4.14102" stroke-miterlimit="10"/>
<path d="M415.894 943.585V968.033" stroke="#231F20" stroke-width="4.14102" stroke-miterlimit="10"/>
<path d="M403.893 943.585V968.033" stroke="#231F20" stroke-width="4.14102" stroke-miterlimit="10"/>
<path d="M467.459 944.476V968.923" stroke="#231F20" stroke-width="4.14102" stroke-miterlimit="10"/>
<path d="M353.09 918.288V943.253" stroke="#231F20" stroke-width="4.14102" stroke-miterlimit="10"/>
<path d="M340.878 919.179V944.144" stroke="#231F20" stroke-width="4.14102" stroke-miterlimit="10"/>
<path d="M327.689 918.536V943.005" stroke="#231F20" stroke-width="4.14102" stroke-miterlimit="10"/>
<path d="M314.968 918.536V943.005" stroke="#231F20" stroke-width="4.14102" stroke-miterlimit="10"/>
<path d="M302.967 918.537V943.005" stroke="#231F20" stroke-width="4.14102" stroke-miterlimit="10"/>
<path d="M366.533 919.427V943.895" stroke="#231F20" stroke-width="4.14102" stroke-miterlimit="10"/>
<path d="M333.309 947.188V972.152" stroke="#231F20" stroke-width="4.14102" stroke-miterlimit="10"/>
<path d="M321.097 948.076V973.041" stroke="#231F20" stroke-width="4.14102" stroke-miterlimit="10"/>
<path d="M307.908 947.436V971.883" stroke="#231F20" stroke-width="4.14102" stroke-miterlimit="10"/>
<path d="M295.188 947.436V971.883" stroke="#231F20" stroke-width="4.14102" stroke-miterlimit="10"/>
<path d="M283.186 947.436V971.883" stroke="#231F20" stroke-width="4.14102" stroke-miterlimit="10"/>
<path d="M346.752 948.325V972.773" stroke="#231F20" stroke-width="4.14102" stroke-miterlimit="10"/>
<path d="M277.057 918.123V943.109" stroke="#231F20" stroke-width="4.14102" stroke-miterlimit="10"/>
<path d="M264.845 919.014V944" stroke="#231F20" stroke-width="4.14102" stroke-miterlimit="10"/>
<path d="M251.656 918.393V942.84" stroke="#231F20" stroke-width="4.14102" stroke-miterlimit="10"/>
<path d="M238.935 918.393V942.84" stroke="#231F20" stroke-width="4.14102" stroke-miterlimit="10"/>
<path d="M226.934 918.393V942.84" stroke="#231F20" stroke-width="4.14102" stroke-miterlimit="10"/>
<path d="M290.5 919.283V943.731" stroke="#231F20" stroke-width="4.14102" stroke-miterlimit="10"/>
<path d="M257.275 947.021V972.008" stroke="#231F20" stroke-width="4.14102" stroke-miterlimit="10"/>
<path d="M245.063 947.912V972.898" stroke="#231F20" stroke-width="4.14102" stroke-miterlimit="10"/>
<path d="M231.875 947.291V971.739" stroke="#231F20" stroke-width="4.14102" stroke-miterlimit="10"/>
<path d="M219.153 947.291V971.739" stroke="#231F20" stroke-width="4.14102" stroke-miterlimit="10"/>
<path d="M207.152 947.291V971.739" stroke="#231F20" stroke-width="4.14102" stroke-miterlimit="10"/>
<path d="M270.719 948.181V972.628" stroke="#231F20" stroke-width="4.14102" stroke-miterlimit="10"/>
<path d="M43.8262 1028.89H1373.62" stroke="#54705F" stroke-width="8.28204" stroke-miterlimit="10"/>
<path d="M1117.84 1149.09L116.578 1150.02L132.607 1116.57H1100.26L1117.84 1149.09Z" fill="white"/>
<path d="M288.767 1120.77L276.257 1152.55" stroke="#231F20" stroke-width="2.07051" stroke-miterlimit="10"/>
<path d="M341.986 1120.21L333.208 1151.86" stroke="#231F20" stroke-width="2.07051" stroke-miterlimit="10"/>
<path d="M515.425 1120.19L512.032 1152.05" stroke="#231F20" stroke-width="2.07051" stroke-miterlimit="10"/>
<path d="M705.316 1118.79L705.507 1150.91" stroke="#231F20" stroke-width="2.07051" stroke-miterlimit="10"/>
<path d="M733.94 1119.61L734.131 1151.74" stroke="#231F20" stroke-width="2.07051" stroke-miterlimit="10"/>
<path d="M1188.52 1114.84L1201.97 1150.41" stroke="#231F20" stroke-width="2.07051" stroke-miterlimit="10"/>
<path d="M1266.68 1114.84L1280.14 1150.41" stroke="#231F20" stroke-width="2.07051" stroke-miterlimit="10"/>
<path d="M1381 1003H41V1117H1381V1003Z" fill="#708D81"/>
<path d="M42 1054H1381" stroke="#54705F" stroke-width="8.28204" stroke-miterlimit="10"/>
<path d="M40.4304 971.797H1381.64C1382.55 971.797 1383.29 972.532 1383.29 973.435V982.485C1383.29 988.385 1378.47 993.173 1372.54 993.173H49.5325C43.5982 993.173 38.7832 988.385 38.7832 982.485V973.435C38.7832 972.532 39.5223 971.797 40.4304 971.797Z" fill="#708D81"/>
<path d="M1380.83 992.749H38.4414V1003.29H1380.83V992.749Z" fill="#231F20"/>
<path d="M1123.54 1173.9H109.442L116.713 1148.63L1117.65 1149.07L1123.54 1173.9Z" fill="#BF0603"/>
<path d="M1373.34 1622.79H40.7744V1654.85H1373.34V1622.79Z" fill="#708D81"/>
<path d="M1123.63 1173.77H109.306V1179.67H1123.63V1173.77Z" fill="white"/>
<path d="M1127.36 1218.09L145.711 1220.05L145.287 1202.42L134.94 1220.61L130.445 1213.12L122.027 1220.69H100.485L109.306 1179.67L1123.29 1179.4L1127.36 1218.09Z" fill="#BF0603"/>
<path d="M1175.29 1576.15H1199.18V1163.21L1175.29 1175.4V1576.15Z" fill="#708D81"/>
<path d="M1176.58 1159.32C1167.78 1159.32 1169.45 1147.66 1169.45 1147.66H1199.18V1159.32C1199.18 1159.32 1182.1 1159.32 1176.58 1159.32Z" fill="#708D81"/>
<path d="M1177.46 1125.31C1168.12 1125.31 1170.62 1143.78 1170.62 1143.78H1199.18V1125.31C1199.18 1125.31 1192.12 1125.31 1177.46 1125.31Z" fill="#708D81"/>
<path d="M1163.35 1114.63H1199.18V1121.43H1163.35V1114.63Z" fill="#708D81"/>
<path d="M305.915 1436.43H294.486V1567.07H305.915V1436.43Z" fill="#231F20"/>
<path d="M305.915 1558.53H266.923V1567.05H305.915V1558.53Z" fill="#231F20"/>
<path d="M889.034 1556.77H879.387V1600.63H889.034V1556.77Z" fill="#FCB74B"/>
<path d="M898.681 1566.37H889.034V1600.63H898.681V1566.37Z" fill="#BF0603"/>
<path d="M1014.49 1610.88H1004.84V1654.74H1014.49V1610.88Z" fill="#397574"/>
<path d="M1024.16 1610.88H1014.51V1654.74H1024.16V1610.88Z" fill="#FCB74B"/>
<path d="M942.126 1645.32V1654.74H975.902V1645.32H942.126Z" fill="#397574"/>
<path d="M1373.34 1534.37H40.7744V1624.73H1373.34V1534.37Z" fill="#5D846D"/>
<path d="M942.126 1635.91V1645.32H975.902V1635.91H942.126Z" fill="#FCB74B"/>
<path d="M937.292 1645.32V1635.97H903.729V1645.32H937.292Z" fill="#397574"/>
<path d="M937.292 1654.68V1645.32H903.729V1654.68H937.292Z" fill="#FCB74B"/>
<path d="M664.162 1674.34C664.162 1669.97 660.536 1666.43 656.062 1666.43C651.589 1666.43 647.963 1669.97 647.963 1674.34V1678.61C647.963 1682.97 651.589 1686.51 656.062 1686.51C660.536 1686.51 664.162 1682.97 664.162 1678.61V1674.34Z" fill="#231F20"/>
<path d="M817.841 1674.34C817.841 1669.97 814.214 1666.43 809.741 1666.43C805.268 1666.43 801.642 1669.97 801.642 1674.34V1678.61C801.642 1682.97 805.268 1686.51 809.741 1686.51C814.214 1686.51 817.841 1682.97 817.841 1678.61V1674.34Z" fill="#231F20"/>
<path d="M866.331 1674.34C866.331 1669.97 862.705 1666.43 858.231 1666.43C853.758 1666.43 850.132 1669.97 850.132 1674.34V1678.61C850.132 1682.97 853.758 1686.51 858.231 1686.51C862.705 1686.51 866.331 1682.97 866.331 1678.61V1674.34Z" fill="#231F20"/>
<path d="M1020.03 1674.34C1020.03 1669.97 1016.4 1666.43 1011.93 1666.43C1007.46 1666.43 1003.83 1669.97 1003.83 1674.34V1678.61C1003.83 1682.97 1007.46 1686.51 1011.93 1686.51C1016.4 1686.51 1020.03 1682.97 1020.03 1678.61V1674.34Z" fill="#231F20"/>
<path d="M383.888 1534.64V1525.88H144.381V1534.64H383.888Z" fill="#3E6F68"/>
<path d="M162.212 1231.22H144.274V1530.27H162.212V1231.22Z" fill="#3E6F68"/>
<path d="M383.888 1231.22H365.95V1530.27H383.888V1231.22Z" fill="#3E6F68"/>
<path d="M383.888 1239.98V1231.22H144.381V1239.98H383.888Z" fill="#3E6F68"/>
<path d="M383.888 1308.09V1299.33H144.381V1308.09H383.888Z" fill="#3E6F68"/>
<path d="M383.888 1385.11V1376.36H144.381V1385.11H383.888Z" fill="#3E6F68"/>
<path d="M383.888 1466.07V1457.32H144.381V1466.07H383.888Z" fill="#3E6F68"/>
<path d="M264.346 1255.46H231.418V1299.35H264.346V1255.46Z" fill="#BF0603"/>
<path d="M350.153 1320.51H313.006V1376.38H350.153V1320.51Z" fill="#E2AA51"/>
<path d="M345.934 1255.46H313.006V1299.35H345.934V1255.46Z" fill="#BF0603"/>
<path d="M300.688 1337.87H267.76V1376.38H300.688V1337.87Z" fill="#BF0603"/>
<path d="M254.529 1326.03H227.962V1376.38H254.529V1326.03Z" fill="#3E6F68"/>
<path d="M284.214 1406.97H257.646V1457.32H284.214V1406.97Z" fill="white"/>
<path d="M257.645 1408.48H231.078V1458.83H257.645V1408.48Z" fill="#3E6F68"/>
<path d="M217.276 1328.99H189.585V1376.38H217.276V1328.99Z" fill="#BF0603"/>
<path d="M326.301 1406.97H299.733V1457.32H326.301V1406.97Z" fill="#E2AA51"/>
<path d="M365.929 1470.82H328.781V1526.69H365.929V1470.82Z" fill="#E2AA51"/>
<path d="M316.462 1488.2H283.534V1526.71H316.462V1488.2Z" fill="white"/>
<path d="M270.303 1476.34H243.736V1526.69H270.303V1476.34Z" fill="#3E6F68"/>
<path d="M244.373 1476.34H217.806V1526.69H244.373V1476.34Z" fill="white"/>
<path d="M188.779 1476.34H162.212V1526.69H188.779V1476.34Z" fill="#E2AA51"/>
<path d="M489.286 1231.22H471.349V1530.27H489.286V1231.22Z" fill="#3E6F68"/>
<path d="M710.962 1231.22H693.024V1530.27H710.962V1231.22Z" fill="#3E6F68"/>
<path d="M710.962 1240V1231.24H471.455V1240H710.962Z" fill="#3E6F68"/>
<path d="M710.982 1534.66V1525.9H471.476V1534.66H710.982Z" fill="#3E6F68"/>
<path d="M710.982 1308.11V1299.35H471.476V1308.11H710.982Z" fill="#3E6F68"/>
<path d="M710.982 1385.13V1376.38H471.475V1385.13H710.982Z" fill="#3E6F68"/>
<path d="M710.962 1466.1V1457.34H471.455V1466.1H710.962Z" fill="#3E6F68"/>
<path d="M591.442 1255.46H558.514V1299.35H591.442V1255.46Z" fill="#BF0603"/>
<path d="M677.249 1320.51H640.102V1376.38H677.249V1320.51Z" fill="#E2AA51"/>
<path d="M673.03 1255.46H640.102V1299.35H673.03V1255.46Z" fill="#BF0603"/>
<path d="M627.762 1337.87H594.834V1376.38H627.762V1337.87Z" fill="#BF0603"/>
<path d="M581.625 1326.03H555.058V1376.38H581.625V1326.03Z" fill="#3E6F68"/>
<path d="M611.308 1406.97H584.741V1457.32H611.308V1406.97Z" fill="white"/>
<path d="M584.741 1408.48H558.174V1458.83H584.741V1408.48Z" fill="#3E6F68"/>
<path d="M544.35 1328.99H516.659V1376.38H544.35V1328.99Z" fill="#BF0603"/>
<path d="M653.375 1406.97H626.808V1457.32H653.375V1406.97Z" fill="#E2AA51"/>
<path d="M693.024 1470.82H655.877V1526.69H693.024V1470.82Z" fill="#E2AA51"/>
<path d="M643.536 1488.2H610.608V1526.71H643.536V1488.2Z" fill="white"/>
<path d="M597.399 1476.34H570.832V1526.69H597.399V1476.34Z" fill="#3E6F68"/>
<path d="M571.447 1476.34H544.88V1526.69H571.447V1476.34Z" fill="white"/>
<path d="M515.875 1476.34H489.308V1526.69H515.875V1476.34Z" fill="#E2AA51"/>
<path d="M816.382 1231.22H798.444V1530.27H816.382V1231.22Z" fill="#3E6F68"/>
<path d="M1038.06 1231.22H1020.12V1530.27H1038.06V1231.22Z" fill="#3E6F68"/>
<path d="M1038.06 1239.98V1231.22H798.551V1239.98H1038.06Z" fill="#3E6F68"/>
<path d="M1038.06 1534.64V1525.88H798.551V1534.64H1038.06Z" fill="#3E6F68"/>
<path d="M1038.06 1308.09V1299.33H798.551V1308.09H1038.06Z" fill="#3E6F68"/>
<path d="M1038.06 1385.11V1376.36H798.551V1385.11H1038.06Z" fill="#3E6F68"/>
<path d="M1038.06 1466.07V1457.32H798.551V1466.07H1038.06Z" fill="#3E6F68"/>
<path d="M918.516 1255.46H885.588V1299.35H918.516V1255.46Z" fill="#BF0603"/>
<path d="M1004.32 1320.51H967.177V1376.38H1004.32V1320.51Z" fill="#E2AA51"/>
<path d="M1000.1 1255.46H967.177V1299.35H1000.1V1255.46Z" fill="#BF0603"/>
<path d="M954.836 1337.87H921.908V1376.38H954.836V1337.87Z" fill="#BF0603"/>
<path d="M908.699 1326.03H882.132V1376.38H908.699V1326.03Z" fill="#3E6F68"/>
<path d="M938.382 1406.97H911.815V1457.32H938.382V1406.97Z" fill="white"/>
<path d="M911.815 1408.48H885.248V1458.83H911.815V1408.48Z" fill="#3E6F68"/>
<path d="M871.446 1328.99H843.755V1376.38H871.446V1328.99Z" fill="#BF0603"/>
<path d="M980.471 1406.97H953.903V1457.32H980.471V1406.97Z" fill="#E2AA51"/>
<path d="M1020.1 1470.82H982.951V1526.69H1020.1V1470.82Z" fill="#E2AA51"/>
<path d="M970.632 1488.2H937.704V1526.71H970.632V1488.2Z" fill="white"/>
<path d="M924.474 1476.34H897.907V1526.69H924.474V1476.34Z" fill="#3E6F68"/>
<path d="M898.543 1476.34H871.976V1526.69H898.543V1476.34Z" fill="white"/>
<path d="M842.949 1476.34H816.382V1526.69H842.949V1476.34Z" fill="#E2AA51"/>
<path d="M832.216 1525.63H635.899V1664.92H832.216V1525.63Z" fill="#BF0603"/>
<path d="M819.41 1555.48H651.038V1601.85H819.41V1555.48Z" fill="#231F20"/>
<path d="M660.685 1567.59H651.038V1601.85H660.685V1567.59Z" fill="white"/>
<path d="M703.579 1557.98H693.932V1601.85H703.579V1557.98Z" fill="#77A78B"/>
<path d="M713.247 1557.98H703.6V1601.85H713.247V1557.98Z" fill="#397574"/>
<path d="M722.894 1557.98H713.247V1601.85H722.894V1557.98Z" fill="#FCB74B"/>
<path d="M732.542 1567.59H722.895V1601.85H732.542V1567.59Z" fill="#BF0603"/>
<path d="M742.189 1557.98H732.542V1601.85H742.189V1557.98Z" fill="#77A78B"/>
<path d="M751.837 1557.98H742.189V1601.85H751.837V1557.98Z" fill="#397574"/>
<path d="M761.483 1567.59H751.836V1601.85H761.483V1567.59Z" fill="white"/>
<path d="M771.152 1567.59H761.505V1601.85H771.152V1567.59Z" fill="#BF0603"/>
<path d="M780.8 1557.98H771.152V1601.85H780.8V1557.98Z" fill="#77A78B"/>
<path d="M790.446 1557.98H780.799V1601.85H790.446V1557.98Z" fill="#397574"/>
<path d="M800.094 1567.59H790.446V1601.85H800.094V1567.59Z" fill="white"/>
<path d="M809.741 1557.98H800.094V1601.85H809.741V1557.98Z" fill="#397574"/>
<path d="M819.41 1557.98H809.763V1601.85H819.41V1557.98Z" fill="#FCB74B"/>
<path d="M732.563 1609.59H650.784V1655.96H732.563V1609.59Z" fill="#231F20"/>
<path d="M819.155 1609.59H737.376V1655.96H819.155V1609.59Z" fill="#231F20"/>
<path d="M779.207 1648.6V1655.95H818.708V1648.6H779.207Z" fill="#F7B34D"/>
<path d="M779.207 1648.6V1655.95H818.708V1648.6H779.207Z" fill="#F7B34D"/>
<path d="M779.207 1648.6V1655.95H818.708V1648.6H779.207Z" fill="#F7B34D"/>
<path d="M779.207 1648.6V1655.95H818.708V1648.6H779.207Z" fill="#F7B34D"/>
<path d="M779.207 1648.6V1655.95H818.708V1648.6H779.207Z" fill="#F7B34D"/>
<path d="M779.207 1642.22V1649.57H818.708V1642.22H779.207Z" fill="#F7B34D"/>
<path d="M779.207 1642.22V1649.57H818.708V1642.22H779.207Z" fill="#F7B34D"/>
<path d="M779.207 1642.22V1649.57H818.708V1642.22H779.207Z" fill="#F7B34D"/>
<path d="M779.207 1642.22V1649.57H818.708V1642.22H779.207Z" fill="#F7B34D"/>
<path d="M779.207 1642.22V1649.57H818.708V1642.22H779.207Z" fill="#DA5125"/>
<path d="M755.322 1635V1642.35H794.823V1635H755.322Z" fill="#5D846D"/>
<path d="M755.322 1635V1642.35H794.823V1635H755.322Z" fill="#5D846D"/>
<path d="M755.322 1635V1642.35H794.823V1635H755.322Z" fill="#5D846D"/>
<path d="M755.322 1635V1642.35H794.823V1635H755.322Z" fill="#5D846D"/>
<path d="M755.322 1635V1642.35H794.823V1635H755.322Z" fill="#5D846D"/>
<path d="M755.322 1627.65V1635H794.823V1627.65H755.322Z" fill="#5D846D"/>
<path d="M755.322 1627.65V1635H794.823V1627.65H755.322Z" fill="#5D846D"/>
<path d="M755.322 1627.65V1635H794.823V1627.65H755.322Z" fill="#5D846D"/>
<path d="M755.322 1627.65V1635H794.823V1627.65H755.322Z" fill="#5D846D"/>
<path d="M755.322 1627.65V1635H794.823V1627.65H755.322Z" fill="#DA5125"/>
<path d="M660.643 1656.42H670.227V1612.84H660.643V1656.42Z" fill="#397574"/>
<path d="M651.038 1656.42H660.622V1612.84H651.038V1656.42Z" fill="#FCB74B"/>
<path d="M685.45 1655.4L692.343 1652.55L677.046 1617.26L670.153 1620.11L685.45 1655.4Z" fill="#BF0603"/>
<path d="M1034.41 1525.63H838.089V1664.92H1034.41V1525.63Z" fill="#BF0603"/>
<path d="M1021.58 1555.48H853.206V1601.85H1021.58V1555.48Z" fill="#231F20"/>
<path d="M862.853 1567.59H853.206V1601.85H862.853V1567.59Z" fill="white"/>
<path d="M905.768 1557.98H896.121V1601.85H905.768V1557.98Z" fill="#77A78B"/>
<path d="M915.416 1557.98H905.769V1601.85H915.416V1557.98Z" fill="#397574"/>
<path d="M925.062 1557.98H915.415V1601.85H925.062V1557.98Z" fill="#FCB74B"/>
<path d="M934.711 1567.59H925.062V1601.85H934.711V1567.59Z" fill="#BF0603"/>
<path d="M944.357 1557.98H934.71V1601.85H944.357V1557.98Z" fill="#77A78B"/>
<path d="M954.005 1557.98H944.357V1601.85H954.005V1557.98Z" fill="#397574"/>
<path d="M963.673 1567.59H954.025V1601.85H963.673V1567.59Z" fill="white"/>
<path d="M973.32 1567.59H963.673V1601.85H973.32V1567.59Z" fill="#BF0603"/>
<path d="M982.968 1557.98H973.32V1601.85H982.968V1557.98Z" fill="#77A78B"/>
<path d="M992.615 1557.98H982.968V1601.85H992.615V1557.98Z" fill="#397574"/>
<path d="M1002.26 1567.59H992.615V1601.85H1002.26V1567.59Z" fill="white"/>
<path d="M1011.93 1557.98H1002.28V1601.85H1011.93V1557.98Z" fill="#397574"/>
<path d="M1021.58 1557.98H1011.93V1601.85H1021.58V1557.98Z" fill="#FCB74B"/>
<path d="M934.731 1609.59H852.952V1655.96H934.731V1609.59Z" fill="#231F20"/>
<path d="M1021.32 1609.59H939.544V1655.96H1021.32V1609.59Z" fill="#231F20"/>
<path d="M1001.94 1618.41L994.746 1616.24L983.098 1653.09L990.291 1655.26L1001.94 1618.41Z" fill="#BF0603"/>
<path d="M862.812 1656.42H872.396V1612.84H862.812V1656.42Z" fill="#397574"/>
<path d="M853.229 1656.42H862.812V1612.84H853.229V1656.42Z" fill="#FCB74B"/>
<path d="M887.641 1655.39L894.534 1652.54L879.237 1617.25L872.345 1620.1L887.641 1655.39Z" fill="#BF0603"/>
<path d="M184.459 1669.5C184.459 1665.14 180.832 1661.6 176.359 1661.6C171.886 1661.6 168.26 1665.14 168.26 1669.5V1673.77C168.26 1678.14 171.886 1681.68 176.359 1681.68C180.832 1681.68 184.459 1678.14 184.459 1673.77V1669.5Z" fill="#231F20"/>
<path d="M338.135 1669.5C338.135 1665.14 334.509 1661.6 330.036 1661.6C325.563 1661.6 321.938 1665.14 321.938 1669.5V1673.77C321.938 1678.14 325.563 1681.68 330.036 1681.68C334.509 1681.68 338.135 1678.14 338.135 1673.77V1669.5Z" fill="#231F20"/>
<path d="M352.534 1520.77H156.217V1660.07H352.534V1520.77Z" fill="#BF0603"/>
<path d="M339.706 1550.62H171.334V1596.99H339.706V1550.62Z" fill="#231F20"/>
<path d="M180.981 1562.73H171.334V1596.99H180.981V1562.73Z" fill="white"/>
<path d="M223.896 1553.15H214.249V1597.01H223.896V1553.15Z" fill="#77A78B"/>
<path d="M233.544 1553.15H223.896V1597.01H233.544V1553.15Z" fill="#397574"/>
<path d="M243.19 1553.15H233.543V1597.01H243.19V1553.15Z" fill="#FCB74B"/>
<path d="M252.838 1562.73H243.19V1596.99H252.838V1562.73Z" fill="#BF0603"/>
<path d="M262.485 1553.15H252.838V1597.01H262.485V1553.15Z" fill="#77A78B"/>
<path d="M272.133 1553.15H262.485V1597.01H272.133V1553.15Z" fill="#397574"/>
<path d="M281.801 1562.73H272.153V1596.99H281.801V1562.73Z" fill="white"/>
<path d="M291.448 1562.73H281.801V1596.99H291.448V1562.73Z" fill="#BF0603"/>
<path d="M301.096 1553.15H291.448V1597.01H301.096V1553.15Z" fill="#77A78B"/>
<path d="M310.743 1553.15H301.096V1597.01H310.743V1553.15Z" fill="#397574"/>
<path d="M320.39 1562.73H310.743V1596.99H320.39V1562.73Z" fill="white"/>
<path d="M330.058 1553.15H320.411V1597.01H330.058V1553.15Z" fill="#397574"/>
<path d="M339.706 1553.15H330.059V1597.01H339.706V1553.15Z" fill="#FCB74B"/>
<path d="M252.859 1604.75H171.08V1651.12H252.859V1604.75Z" fill="#231F20"/>
<path d="M339.451 1604.75H257.672V1651.12H339.451V1604.75Z" fill="#231F20"/>
<path d="M304.346 1641.56V1650.98H339.436V1641.56H304.346Z" fill="white"/>
<path d="M304.346 1632.14V1641.56H339.436V1632.14H304.346Z" fill="#BF0603"/>
<path d="M180.939 1651.56H190.522V1607.98H180.939V1651.56Z" fill="#397574"/>
<path d="M171.334 1651.56H180.918V1607.98H171.334V1651.56Z" fill="#FCB74B"/>
<path d="M205.763 1650.57L212.655 1647.72L197.358 1612.44L190.466 1615.28L205.763 1650.57Z" fill="#BF0603"/>
<path d="M340.331 1288.75C359.571 1288.75 375.168 1273.52 375.168 1254.74C375.168 1235.95 359.571 1220.73 340.331 1220.73C321.092 1220.73 305.495 1235.95 305.495 1254.74C305.495 1273.52 321.092 1288.75 340.331 1288.75Z" fill="#E2AA51"/>
<path d="M340.331 1221.1C321.079 1221.1 305.495 1236.34 305.495 1255.11H375.189C375.189 1236.31 359.583 1221.1 340.353 1221.1H340.331Z" fill="#F1F2F2"/>
<path d="M607.74 1287.59C626.98 1287.59 642.577 1272.36 642.577 1253.58C642.577 1234.79 626.98 1219.57 607.74 1219.57C588.501 1219.57 572.904 1234.79 572.904 1253.58C572.904 1272.36 588.501 1287.59 607.74 1287.59Z" fill="#E2AA51"/>
<path d="M607.74 1219.94C588.488 1219.94 572.904 1235.18 572.904 1253.95H642.598C642.598 1235.15 626.993 1219.94 607.762 1219.94H607.74Z" fill="#F1F2F2"/>
<path d="M866.966 1284.67C886.206 1284.67 901.802 1269.44 901.802 1250.66C901.802 1231.88 886.206 1216.65 866.966 1216.65C847.727 1216.65 832.13 1231.88 832.13 1250.66C832.13 1269.44 847.727 1284.67 866.966 1284.67Z" fill="#E2AA51"/>
<path d="M866.966 1217.02C847.714 1217.02 832.13 1232.26 832.13 1251.03H901.824C901.824 1232.24 886.218 1217.02 866.987 1217.02H866.966Z" fill="#F1F2F2"/>
<path d="M1170.32 1591.7H1175.29V1653.88H1170.32V1591.7Z" fill="#231F20"/>
<path d="M1161.36 1591.7H1167.33V1653.88H1161.36V1591.7Z" fill="#231F20"/>
<path d="M1152.4 1591.7H1158.38V1653.88H1152.4V1591.7Z" fill="#231F20"/>
<path d="M1143.45 1591.7H1149.42V1653.88H1143.45V1591.7Z" fill="#231F20"/>
<path d="M1134.49 1591.7H1140.46V1653.88H1134.49V1591.7Z" fill="#231F20"/>
<path d="M1125.53 1591.7H1131.5V1653.88H1125.53V1591.7Z" fill="#231F20"/>
<path d="M1116.58 1591.7H1121.55V1653.88H1116.58V1591.7Z" fill="#231F20"/>
<path d="M1106.62 1591.7H1111.6V1653.88H1106.62V1591.7Z" fill="#231F20"/>
<path d="M1097.67 1591.7H1103.64V1653.88H1097.67V1591.7Z" fill="#231F20"/>
<path d="M1089.71 1591.7H1094.68V1653.88H1089.71V1591.7Z" fill="#231F20"/>
<path d="M1080.75 1591.7H1085.73V1653.88H1080.75V1591.7Z" fill="#231F20"/>
<path d="M1071.79 1591.7H1076.77V1653.88H1071.79V1591.7Z" fill="#231F20"/>
<path d="M1062.84 1591.7H1067.81V1653.88H1062.84V1591.7Z" fill="#231F20"/>
<path d="M1053.88 1591.7H1058.86V1653.88H1053.88V1591.7Z" fill="#231F20"/>
<path d="M1043.93 1591.7H1049.9V1653.88H1043.93V1591.7Z" fill="#231F20"/>
<path d="M1033.98 1591.7H1039.95V1653.88H1033.98V1591.7Z" fill="#231F20"/>
<path d="M927.578 1012.61H509.421C484.736 1012.61 464.726 1032.62 464.726 1057.31V1057.31C464.726 1081.99 484.736 1102 509.421 1102H927.578C952.263 1102 972.274 1081.99 972.274 1057.31C972.274 1032.62 952.263 1012.61 927.578 1012.61Z" fill="#5D846D"/>
<path d="M1381 1545H1198V1115H1381V1163.5V1545Z" fill="#F6B24F"/>
<path d="M1257.4 1251.25H1215.56V1312.66H1257.4V1251.25Z" fill="#708D81"/>
<path d="M1222.77 1251.25H1215.56V1312.66H1222.77V1251.25Z" fill="#BF0603"/>
<path d="M1351.6 1251.25H1307.11V1312.66H1351.6V1251.25Z" fill="#708D81"/>
<path d="M1315.27 1251.25H1307.11V1312.66H1315.27V1251.25Z" fill="#BF0603"/>
<path d="M1302.36 1251.25H1264.8V1312.66H1302.36V1251.25Z" fill="#708D81"/>
<path d="M1271.68 1251.25H1264.8V1312.66H1271.68V1251.25Z" fill="#BF0603"/>
<path d="M1257.4 1318.31H1215.56V1379.72H1257.4V1318.31Z" fill="#708D81"/>
<path d="M1222.77 1318.31H1215.56V1379.72H1222.77V1318.31Z" fill="#BF0603"/>
<path d="M1351.6 1318.31H1307.11V1379.72H1351.6V1318.31Z" fill="#708D81"/>
<path d="M1315.27 1318.31H1307.11V1379.72H1315.27V1318.31Z" fill="#BF0603"/>
<path d="M1302.36 1318.31H1264.8V1379.72H1302.36V1318.31Z" fill="#708D81"/>
<path d="M1271.68 1318.31H1264.8V1379.72H1271.68V1318.31Z" fill="#BF0603"/>
<path d="M1257.4 1385.4H1215.56V1446.8H1257.4V1385.4Z" fill="#708D81"/>
<path d="M1222.77 1385.4H1215.56V1446.8H1222.77V1385.4Z" fill="#BF0603"/>
<path d="M1351.6 1385.4H1307.11V1446.8H1351.6V1385.4Z" fill="#708D81"/>
<path d="M1315.27 1385.4H1307.11V1446.8H1315.27V1385.4Z" fill="#BF0603"/>
<path d="M1302.36 1385.4H1264.8V1446.8H1302.36V1385.4Z" fill="#708D81"/>
<path d="M1271.68 1385.4H1264.8V1446.8H1271.68V1385.4Z" fill="#BF0603"/>
<path d="M1257.4 1452.46H1215.56V1513.87H1257.4V1452.46Z" fill="#708D81"/>
<path d="M1222.77 1452.46H1215.56V1513.87H1222.77V1452.46Z" fill="#BF0603"/>
<path d="M1351.6 1452.46H1307.11V1513.87H1351.6V1452.46Z" fill="#708D81"/>
<path d="M1315.27 1452.46H1307.11V1513.87H1315.27V1452.46Z" fill="#BF0603"/>
<path d="M1302.36 1452.46H1264.8V1513.87H1302.36V1452.46Z" fill="#708D81"/>
<path d="M1271.68 1452.46H1264.8V1513.87H1271.68V1452.46Z" fill="#BF0603"/>
<path d="M1351.62 1161.06H1215.56V1222.47H1351.62V1161.06Z" fill="#708D81"/>
<path d="M1222.77 1161.06H1215.56V1222.47H1222.77V1161.06Z" fill="#BF0603"/>
<path d="M1381 1538H1284V1655H1381V1538Z" fill="#5B5B5B"/>
<path d="M1381 1538H1198V1559H1381V1538Z" fill="white"/>
<path d="M1369 1559H1188V1578H1369V1559Z" fill="#D9D9D9"/>
<path d="M1356 1578H1176V1598H1356V1578Z" fill="white"/>
<path d="M1344 1598H1162V1616H1344V1598Z" fill="#D9D9D9"/>
<path d="M1332 1616H1150V1635H1332V1616Z" fill="white"/>
<path d="M1319 1635H1136V1655H1319V1635Z" fill="#D9D9D9"/>
<path d="M1260.08 748.429H997.413V770.228H1260.08V748.429Z" fill="white"/>
<path d="M1026.43 747.995V466.778C1025.61 435.799 1045.26 373.162 1130.38 370.437C1215.51 367.713 1236.79 433.529 1236.79 466.778V747.995H1026.43Z" fill="black"/>
<path d="M1026.43 466.778V747.995H1236.79V466.778M1026.43 466.778H1236.79M1026.43 466.778C1025.61 435.799 1045.26 373.162 1130.38 370.437C1215.51 367.713 1236.79 433.529 1236.79 466.778" stroke="white" stroke-width="13.4061"/>
<path d="M1132.27 370.355V747.995" stroke="white" stroke-width="13.4061"/>
<path d="M1026.43 466.778V747.995H1236.79V466.778M1026.43 466.778H1236.79M1026.43 466.778C1025.61 435.799 1045.26 373.162 1130.38 370.437C1215.51 367.713 1236.79 433.529 1236.79 466.778" stroke="white" stroke-width="13.4061"/>
<path d="M1132.27 370.355V747.995" stroke="white" stroke-width="13.4061"/>
<path d="M1020.16 559.644H1230.53" stroke="white" stroke-width="11.0122"/>
<path d="M1020.16 652.859H1230.53" stroke="white" stroke-width="11.0122"/>
<path d="M848.587 748.095H585.925V769.894H848.587V748.095Z" fill="white"/>
<path d="M614.545 747.995V466.778C613.725 435.799 633.367 373.162 718.492 370.437C803.617 367.713 824.898 433.529 824.898 466.778V747.995H614.545Z" fill="black"/>
<path d="M614.545 466.778V747.995H824.898V466.778M614.545 466.778H824.898M614.545 466.778C613.725 435.799 633.367 373.162 718.492 370.437C803.617 367.713 824.898 433.529 824.898 466.778" stroke="white" stroke-width="13.4061"/>
<path d="M720.383 370.355V747.995" stroke="white" stroke-width="13.4061"/>
<path d="M614.545 466.778V747.995H824.898V466.778M614.545 466.778H824.898M614.545 466.778C613.725 435.799 633.367 373.162 718.492 370.437C803.617 367.713 824.898 433.529 824.898 466.778" stroke="white" stroke-width="13.4061"/>
<path d="M720.383 370.355V747.995" stroke="white" stroke-width="13.4061"/>
<path d="M608.268 559.644H818.645" stroke="white" stroke-width="11.0122"/>
<path d="M608.268 652.859H818.645" stroke="white" stroke-width="11.0122"/>
<path d="M432.811 748.429H170.149V770.228H432.811V748.429Z" fill="white"/>
<path d="M200.713 754.059V472.842C199.893 441.864 219.535 379.226 304.66 376.502C389.785 373.778 411.066 439.594 411.066 472.842V754.059H200.713Z" fill="black"/>
<path d="M200.713 472.842V754.059H411.066V472.842M200.713 472.842H411.066M200.713 472.842C199.893 441.864 219.535 379.226 304.66 376.502C389.785 373.778 411.066 439.594 411.066 472.842" stroke="white" stroke-width="13.4061"/>
<path d="M306.551 376.42V754.059" stroke="white" stroke-width="13.4061"/>
<path d="M200.713 472.842V754.059H411.066V472.842M200.713 472.842H411.066M200.713 472.842C199.893 441.864 219.535 379.226 304.66 376.502C389.785 373.778 411.066 439.594 411.066 472.842" stroke="white" stroke-width="13.4061"/>
<path d="M306.551 376.42V754.059" stroke="white" stroke-width="13.4061"/>
<path d="M194.436 565.709H404.813" stroke="white" stroke-width="11.0122"/>
<path d="M194.436 658.924H404.813" stroke="white" stroke-width="11.0122"/>
<path d="M1356.5 1330V1426.21" stroke="black" stroke-width="11.662"/>
</svg>
