<svg width="1428" height="486" viewBox="0 0 1428 486" fill="none" xmlns="http://www.w3.org/2000/svg">
<mask id="path-1-outside-1_683_465" maskUnits="userSpaceOnUse" x="234" y="78.4922" width="959" height="367" fill="black">
<rect fill="white" x="234" y="78.4922" width="959" height="367"/>
<path d="M246.105 334.163C243.07 334.163 240.794 333.784 239.276 333.025C237.759 332.519 237 331.507 237 329.99C237 326.955 241.553 324.678 250.658 323.161C260.016 321.39 268.489 318.482 276.077 314.435C283.664 310.388 288.849 303.812 291.632 294.707L343.987 123.225C346.769 114.119 346.642 107.67 343.607 103.876C340.825 100.082 335.261 97.2999 326.914 95.5295C323.121 94.7707 320.591 93.759 319.327 92.4944C318.062 91.2297 317.43 89.7122 317.43 87.9417C317.43 86.4242 318.568 85.4125 320.844 84.9067C323.373 84.1479 326.156 83.7685 329.191 83.7685C331.214 83.7685 335.64 83.895 342.469 84.1479C349.551 84.4008 358.277 84.7802 368.647 85.286C379.017 85.539 389.892 85.6654 401.274 85.6654C411.391 85.6654 419.99 85.539 427.072 85.286C434.154 84.7802 440.351 84.2743 445.662 83.7685C450.974 83.0097 455.906 82.5039 460.458 82.2509C465.264 81.7451 470.196 81.4922 475.254 81.4922C477.278 81.4922 478.289 82.7568 478.289 85.286C478.289 87.5624 477.025 92.3679 474.495 99.7027C471.966 107.037 469.816 115.763 468.046 125.88C467.793 126.892 466.908 128.283 465.39 130.054C464.126 131.571 462.861 132.33 461.596 132.33C460.332 132.33 459.32 131.192 458.561 128.915C457.802 126.639 457.423 124.869 457.423 123.604C457.423 118.293 456.664 113.613 455.147 109.567C453.629 105.52 451.226 102.358 447.938 100.082C444.903 97.5528 440.604 96.2882 435.039 96.2882H388.754C385.719 96.2882 382.811 96.9205 380.028 98.1851C377.499 99.1968 375.476 102.358 373.958 107.67L353.851 180.132C352.839 183.673 352.46 186.582 352.713 188.858C353.218 191.135 354.736 192.146 357.265 191.893C361.565 191.388 365.738 190.882 369.785 190.376C374.085 189.87 378.637 189.617 383.443 189.617C394.572 189.617 405.194 192.273 415.311 197.584C425.681 202.643 434.154 209.977 440.73 219.589C447.306 228.947 450.594 240.075 450.594 252.975C450.594 271.185 445.789 286.234 436.177 298.121C426.819 310.009 414.3 318.861 398.618 324.678C382.937 330.496 365.612 333.404 346.642 333.404C340.319 333.404 334.755 333.278 329.949 333.025C325.144 332.772 320.212 332.519 315.153 332.266C310.348 332.266 304.784 332.266 298.46 332.266C288.344 332.266 279.491 332.519 271.903 333.025C264.316 333.784 255.716 334.163 246.105 334.163ZM351.195 322.781C361.312 322.781 370.417 321.137 378.511 317.849C386.857 314.309 393.939 309.503 399.756 303.433C405.574 297.11 410 289.775 413.035 281.428C416.323 273.082 417.967 264.103 417.967 254.492C417.967 236.534 413.414 223.129 404.309 214.277C395.457 205.425 383.696 200.999 369.026 200.999C361.944 200.999 356.127 202.39 351.574 205.172C347.275 207.954 344.366 211.874 342.849 216.933C340.572 224.521 338.043 232.867 335.261 241.972C332.479 250.825 329.823 259.551 327.294 268.15C324.765 276.749 322.615 284.464 320.844 291.292C317.556 302.927 319.074 311.147 325.397 315.953C331.973 320.505 340.572 322.781 351.195 322.781Z"/>
<path d="M446.397 442.288C442.603 442.288 438.809 440.897 435.016 438.115C431.222 435.585 429.325 431.665 429.325 426.354C429.325 422.813 430.084 419.651 431.601 416.869C433.119 414.087 435.016 411.811 437.292 410.04C439.568 408.27 441.845 407.384 444.121 407.384C446.65 407.384 448.8 408.017 450.57 409.281C452.341 410.799 454.111 412.316 455.882 413.834C457.652 415.352 459.423 416.616 461.193 417.628C462.964 418.892 464.987 419.525 467.263 419.525C476.116 419.525 485.347 413.834 494.959 402.452C504.823 391.324 513.928 377.287 522.274 360.341C528.092 348.453 531.885 335.428 533.656 321.264C535.679 306.847 536.691 291.04 536.691 273.841C536.691 255.124 535.3 240.202 532.518 229.073C529.988 217.945 526.953 209.977 523.412 205.172C520.124 200.113 517.216 197.584 514.687 197.584C512.157 197.584 509.375 199.102 506.34 202.137C503.558 204.919 500.902 208.207 498.373 212.001C496.097 215.795 494.453 219.209 493.441 222.244C493.188 223.509 492.303 225.659 490.785 228.694C489.268 231.729 487.75 233.246 486.233 233.246C485.221 233.246 484.336 232.235 483.577 230.211C483.071 227.935 482.818 225.406 482.818 222.624C482.818 216.806 483.956 211.116 486.233 205.551C488.762 199.987 491.923 194.928 495.717 190.376C499.764 185.823 504.064 182.156 508.616 179.374C513.169 176.592 517.595 175.2 521.895 175.2C527.965 175.2 533.024 177.35 537.07 181.65C541.37 185.95 544.785 192.146 547.314 200.24C550.855 211.116 554.016 224.647 556.798 240.834C559.581 256.768 560.339 277.382 559.075 302.674C558.822 307.227 559.201 309.377 560.213 309.124C561.477 308.871 562.995 307.1 564.765 303.812C573.112 287.878 580.573 269.415 587.149 248.422C593.978 227.429 597.393 204.287 597.393 178.994C597.393 177.73 598.278 176.212 600.048 174.442C602.072 172.671 603.589 171.786 604.601 171.786C605.613 171.786 607.13 172.545 609.154 174.062C611.177 175.327 612.947 177.224 614.465 179.753C616.235 182.282 617.121 185.064 617.121 188.1C617.121 203.781 613.2 222.244 605.36 243.49C597.519 264.735 586.517 287.246 572.353 311.02C558.189 334.795 541.749 358.317 523.033 381.586C514.181 392.462 505.202 402.452 496.097 411.558C486.991 420.916 478.139 428.377 469.54 433.941C461.193 439.506 453.479 442.288 446.397 442.288Z"/>
<path d="M647.575 337.957C645.299 337.957 643.529 337.451 642.264 336.439C640.999 335.681 639.988 334.416 639.229 332.645C638.723 331.128 638.47 329.357 638.47 327.334C638.47 326.069 638.47 325.058 638.47 324.299C638.723 323.54 638.976 322.781 639.229 322.023L684.376 208.207C685.64 205.425 686.399 202.896 686.652 200.619C687.158 198.343 686.146 197.205 683.617 197.205C679.823 197.205 675.397 198.343 670.338 200.619C665.28 202.896 659.336 206.31 652.507 210.863C651.243 211.874 649.978 212.38 648.713 212.38C647.449 212.127 646.817 211.116 646.817 209.345C647.069 207.069 648.966 204.034 652.507 200.24C656.301 196.446 660.98 192.652 666.545 188.858C672.362 185.064 678.179 181.776 683.996 178.994C690.067 176.212 695.378 174.821 699.931 174.821C703.471 174.821 706.633 176.971 709.415 181.271C712.197 185.57 712.83 189.744 711.312 193.79L691.584 242.352C690.825 244.375 690.825 245.64 691.584 246.146C692.343 246.651 692.975 246.904 693.481 246.904L751.148 244.628C751.653 244.628 752.159 244.375 752.665 243.869C753.171 243.363 753.55 242.605 753.803 241.593L776.187 185.823C777.199 183.547 778.969 181.65 781.498 180.132C784.281 178.615 787.063 177.477 789.845 176.718C792.627 175.706 794.65 175.2 795.915 175.2C797.938 175.2 799.077 175.706 799.33 176.718C799.835 177.73 800.088 179.374 800.088 181.65C800.088 182.662 799.456 184.812 798.191 188.1C796.927 191.135 795.283 194.928 793.259 199.481L753.424 299.639C749.883 309.503 750.009 314.435 753.803 314.435C756.838 314.435 760.506 313.297 764.805 311.02C769.358 308.491 773.784 305.583 778.084 302.295C782.637 299.007 786.557 295.972 789.845 293.189C793.133 290.407 795.283 288.51 796.294 287.499C796.547 287.246 796.674 287.119 796.674 287.119C796.927 287.119 797.053 287.119 797.053 287.119C797.306 287.119 797.433 287.119 797.433 287.119C799.709 287.119 800.847 288.257 800.847 290.534C800.847 291.545 800.468 292.557 799.709 293.569C799.203 294.58 798.697 295.339 798.191 295.845C793.892 300.651 789.592 305.203 785.292 309.503C781.246 313.55 777.072 317.344 772.773 320.885C768.726 324.425 764.553 327.461 760.253 329.99C756.206 332.266 752.159 334.037 748.113 335.301C744.066 336.819 739.892 337.577 735.593 337.577C733.064 337.577 730.661 336.439 728.384 334.163C726.108 332.14 724.464 329.737 723.452 326.955C722.441 324.173 722.314 321.896 723.073 320.126L745.457 263.597C746.216 261.574 746.721 260.309 746.974 259.803C747.48 259.045 747.101 258.665 745.836 258.665L688.17 260.942C687.664 260.942 686.905 261.068 685.893 261.321C685.135 261.574 684.376 262.333 683.617 263.597L656.681 330.749C655.922 332.772 654.657 334.416 652.887 335.681C651.116 337.198 649.346 337.957 647.575 337.957Z"/>
<path d="M847.606 337.577C844.824 337.577 841.916 336.313 838.88 333.784C836.098 331.507 833.948 328.725 832.431 325.437C830.913 322.149 830.534 319.493 831.293 317.47L871.128 221.485C872.899 217.186 874.037 213.518 874.543 210.483C875.049 207.448 874.29 205.931 872.266 205.931C871.002 205.931 868.852 206.942 865.817 208.966C863.035 210.989 859.747 213.518 855.953 216.553C852.412 219.589 848.744 222.75 844.951 226.038C844.445 226.544 843.433 226.67 841.916 226.418C840.651 226.165 840.019 225.659 840.019 224.9C840.019 223.888 840.272 222.497 840.777 220.727C841.283 218.703 842.548 216.301 844.571 213.518C850.894 204.919 857.85 197.711 865.438 191.893C873.278 186.076 880.613 181.65 887.442 178.615C894.524 175.327 899.835 173.683 903.376 173.683C904.641 173.683 906.032 174.442 907.549 175.959C909.32 177.224 910.711 178.868 911.723 180.891C912.734 182.662 912.734 184.432 911.723 186.203C903.376 203.401 895.409 220.853 887.821 238.558C880.234 256.263 872.646 273.714 865.058 290.913C862.782 295.972 861.391 300.651 860.885 304.95C860.379 309.25 861.391 311.4 863.92 311.4C866.449 311.4 870.243 309.25 875.302 304.95C880.36 300.651 886.051 295.086 892.374 288.257C898.95 281.428 905.779 274.094 912.861 266.253C922.472 255.377 931.703 244.122 940.556 232.488C949.661 220.853 957.502 210.357 964.078 200.999C970.654 191.64 974.953 185.064 976.977 181.271C978.241 178.741 979.759 177.097 981.529 176.339C983.3 175.58 984.944 175.2 986.462 175.2C987.979 175.2 989.497 175.959 991.014 177.477C992.532 178.994 993.67 180.765 994.429 182.788C995.44 184.812 995.567 186.582 994.808 188.1L946.247 299.639C944.223 304.444 943.338 308.112 943.591 310.641C943.844 313.17 945.109 314.435 947.385 314.435C950.673 314.435 954.973 312.665 960.284 309.124C965.595 305.583 971.033 301.536 976.597 296.983C982.162 292.178 986.841 287.878 990.635 284.084C990.888 283.831 991.267 283.705 991.773 283.705C992.532 283.705 993.29 284.084 994.049 284.843C994.808 285.349 995.187 286.108 995.187 287.119C995.187 287.625 995.061 288.131 994.808 288.637C994.555 289.143 994.176 289.775 993.67 290.534C993.417 291.292 992.911 292.178 992.152 293.189C991.646 294.201 990.888 295.339 989.876 296.604C989.117 297.616 988.105 298.88 986.841 300.398C982.035 306.468 976.471 312.412 970.148 318.229C963.825 323.793 956.996 328.472 949.661 332.266C942.579 335.807 934.992 337.577 926.898 337.577C923.61 337.577 920.575 335.428 917.793 331.128C915.263 326.828 914.758 323.034 916.275 319.746C919.816 312.159 923.61 304.065 927.657 295.466C931.703 286.866 935.244 278.899 938.279 271.564C941.567 264.23 943.844 258.792 945.108 255.251C946.373 252.216 946.247 250.572 944.729 250.319C943.212 250.066 941.82 250.698 940.556 252.216C927.404 266.632 915.769 279.279 905.652 290.154C895.535 300.777 886.683 309.629 879.095 316.711C871.761 323.54 865.437 328.725 860.126 332.266C855.068 335.807 850.894 337.577 847.606 337.577Z"/>
<path d="M1036.59 337.957C1034.32 337.957 1032.55 337.451 1031.28 336.439C1030.02 335.681 1029.01 334.416 1028.25 332.645C1027.74 331.128 1027.49 329.357 1027.49 327.334C1027.49 326.069 1027.49 325.058 1027.49 324.299C1027.74 323.54 1027.99 322.781 1028.25 322.023L1073.39 208.207C1074.66 205.425 1075.42 202.896 1075.67 200.619C1076.18 198.343 1075.16 197.205 1072.64 197.205C1068.84 197.205 1064.42 198.343 1059.36 200.619C1054.3 202.896 1048.35 206.31 1041.53 210.863C1040.26 211.874 1039 212.38 1037.73 212.38C1036.47 212.127 1035.83 211.116 1035.83 209.345C1036.09 207.069 1037.98 204.034 1041.53 200.24C1045.32 196.446 1050 192.652 1055.56 188.858C1061.38 185.064 1067.2 181.776 1073.01 178.994C1079.08 176.212 1084.4 174.821 1088.95 174.821C1092.49 174.821 1095.65 176.971 1098.43 181.271C1101.22 185.57 1101.85 189.744 1100.33 193.79L1080.6 242.352C1079.84 244.375 1079.84 245.64 1080.6 246.146C1081.36 246.651 1081.99 246.904 1082.5 246.904L1140.17 244.628C1140.67 244.628 1141.18 244.375 1141.68 243.869C1142.19 243.363 1142.57 242.605 1142.82 241.593L1165.21 185.823C1166.22 183.547 1167.99 181.65 1170.52 180.132C1173.3 178.615 1176.08 177.477 1178.86 176.718C1181.65 175.706 1183.67 175.2 1184.93 175.2C1186.96 175.2 1188.1 175.706 1188.35 176.718C1188.85 177.73 1189.11 179.374 1189.11 181.65C1189.11 182.662 1188.47 184.812 1187.21 188.1C1185.95 191.135 1184.3 194.928 1182.28 199.481L1142.44 299.639C1138.9 309.503 1139.03 314.435 1142.82 314.435C1145.86 314.435 1149.52 313.297 1153.82 311.02C1158.38 308.491 1162.8 305.583 1167.1 302.295C1171.66 299.007 1175.58 295.972 1178.86 293.189C1182.15 290.407 1184.3 288.51 1185.31 287.499C1185.57 287.246 1185.69 287.119 1185.69 287.119C1185.95 287.119 1186.07 287.119 1186.07 287.119C1186.32 287.119 1186.45 287.119 1186.45 287.119C1188.73 287.119 1189.87 288.257 1189.87 290.534C1189.87 291.545 1189.49 292.557 1188.73 293.569C1188.22 294.58 1187.72 295.339 1187.21 295.845C1182.91 300.651 1178.61 305.203 1174.31 309.503C1170.26 313.55 1166.09 317.344 1161.79 320.885C1157.74 324.425 1153.57 327.461 1149.27 329.99C1145.22 332.266 1141.18 334.037 1137.13 335.301C1133.08 336.819 1128.91 337.577 1124.61 337.577C1122.08 337.577 1119.68 336.439 1117.4 334.163C1115.13 332.14 1113.48 329.737 1112.47 326.955C1111.46 324.173 1111.33 321.896 1112.09 320.126L1134.48 263.597C1135.23 261.574 1135.74 260.309 1135.99 259.803C1136.5 259.045 1136.12 258.665 1134.85 258.665L1077.19 260.942C1076.68 260.942 1075.92 261.068 1074.91 261.321C1074.15 261.574 1073.39 262.333 1072.64 263.597L1045.7 330.749C1044.94 332.772 1043.68 334.416 1041.91 335.681C1040.13 337.198 1038.36 337.957 1036.59 337.957Z"/>
</mask>
<path d="M246.105 334.163C243.07 334.163 240.794 333.784 239.276 333.025C237.759 332.519 237 331.507 237 329.99C237 326.955 241.553 324.678 250.658 323.161C260.016 321.39 268.489 318.482 276.077 314.435C283.664 310.388 288.849 303.812 291.632 294.707L343.987 123.225C346.769 114.119 346.642 107.67 343.607 103.876C340.825 100.082 335.261 97.2999 326.914 95.5295C323.121 94.7707 320.591 93.759 319.327 92.4944C318.062 91.2297 317.43 89.7122 317.43 87.9417C317.43 86.4242 318.568 85.4125 320.844 84.9067C323.373 84.1479 326.156 83.7685 329.191 83.7685C331.214 83.7685 335.64 83.895 342.469 84.1479C349.551 84.4008 358.277 84.7802 368.647 85.286C379.017 85.539 389.892 85.6654 401.274 85.6654C411.391 85.6654 419.99 85.539 427.072 85.286C434.154 84.7802 440.351 84.2743 445.662 83.7685C450.974 83.0097 455.906 82.5039 460.458 82.2509C465.264 81.7451 470.196 81.4922 475.254 81.4922C477.278 81.4922 478.289 82.7568 478.289 85.286C478.289 87.5624 477.025 92.3679 474.495 99.7027C471.966 107.037 469.816 115.763 468.046 125.88C467.793 126.892 466.908 128.283 465.39 130.054C464.126 131.571 462.861 132.33 461.596 132.33C460.332 132.33 459.32 131.192 458.561 128.915C457.802 126.639 457.423 124.869 457.423 123.604C457.423 118.293 456.664 113.613 455.147 109.567C453.629 105.52 451.226 102.358 447.938 100.082C444.903 97.5528 440.604 96.2882 435.039 96.2882H388.754C385.719 96.2882 382.811 96.9205 380.028 98.1851C377.499 99.1968 375.476 102.358 373.958 107.67L353.851 180.132C352.839 183.673 352.46 186.582 352.713 188.858C353.218 191.135 354.736 192.146 357.265 191.893C361.565 191.388 365.738 190.882 369.785 190.376C374.085 189.87 378.637 189.617 383.443 189.617C394.572 189.617 405.194 192.273 415.311 197.584C425.681 202.643 434.154 209.977 440.73 219.589C447.306 228.947 450.594 240.075 450.594 252.975C450.594 271.185 445.789 286.234 436.177 298.121C426.819 310.009 414.3 318.861 398.618 324.678C382.937 330.496 365.612 333.404 346.642 333.404C340.319 333.404 334.755 333.278 329.949 333.025C325.144 332.772 320.212 332.519 315.153 332.266C310.348 332.266 304.784 332.266 298.46 332.266C288.344 332.266 279.491 332.519 271.903 333.025C264.316 333.784 255.716 334.163 246.105 334.163ZM351.195 322.781C361.312 322.781 370.417 321.137 378.511 317.849C386.857 314.309 393.939 309.503 399.756 303.433C405.574 297.11 410 289.775 413.035 281.428C416.323 273.082 417.967 264.103 417.967 254.492C417.967 236.534 413.414 223.129 404.309 214.277C395.457 205.425 383.696 200.999 369.026 200.999C361.944 200.999 356.127 202.39 351.574 205.172C347.275 207.954 344.366 211.874 342.849 216.933C340.572 224.521 338.043 232.867 335.261 241.972C332.479 250.825 329.823 259.551 327.294 268.15C324.765 276.749 322.615 284.464 320.844 291.292C317.556 302.927 319.074 311.147 325.397 315.953C331.973 320.505 340.572 322.781 351.195 322.781Z" stroke="white" stroke-width="6" mask="url(#path-1-outside-1_683_465)"/>
<path d="M446.397 442.288C442.603 442.288 438.809 440.897 435.016 438.115C431.222 435.585 429.325 431.665 429.325 426.354C429.325 422.813 430.084 419.651 431.601 416.869C433.119 414.087 435.016 411.811 437.292 410.04C439.568 408.27 441.845 407.384 444.121 407.384C446.65 407.384 448.8 408.017 450.57 409.281C452.341 410.799 454.111 412.316 455.882 413.834C457.652 415.352 459.423 416.616 461.193 417.628C462.964 418.892 464.987 419.525 467.263 419.525C476.116 419.525 485.347 413.834 494.959 402.452C504.823 391.324 513.928 377.287 522.274 360.341C528.092 348.453 531.885 335.428 533.656 321.264C535.679 306.847 536.691 291.04 536.691 273.841C536.691 255.124 535.3 240.202 532.518 229.073C529.988 217.945 526.953 209.977 523.412 205.172C520.124 200.113 517.216 197.584 514.687 197.584C512.157 197.584 509.375 199.102 506.34 202.137C503.558 204.919 500.902 208.207 498.373 212.001C496.097 215.795 494.453 219.209 493.441 222.244C493.188 223.509 492.303 225.659 490.785 228.694C489.268 231.729 487.75 233.246 486.233 233.246C485.221 233.246 484.336 232.235 483.577 230.211C483.071 227.935 482.818 225.406 482.818 222.624C482.818 216.806 483.956 211.116 486.233 205.551C488.762 199.987 491.923 194.928 495.717 190.376C499.764 185.823 504.064 182.156 508.616 179.374C513.169 176.592 517.595 175.2 521.895 175.2C527.965 175.2 533.024 177.35 537.07 181.65C541.37 185.95 544.785 192.146 547.314 200.24C550.855 211.116 554.016 224.647 556.798 240.834C559.581 256.768 560.339 277.382 559.075 302.674C558.822 307.227 559.201 309.377 560.213 309.124C561.477 308.871 562.995 307.1 564.765 303.812C573.112 287.878 580.573 269.415 587.149 248.422C593.978 227.429 597.393 204.287 597.393 178.994C597.393 177.73 598.278 176.212 600.048 174.442C602.072 172.671 603.589 171.786 604.601 171.786C605.613 171.786 607.13 172.545 609.154 174.062C611.177 175.327 612.947 177.224 614.465 179.753C616.235 182.282 617.121 185.064 617.121 188.1C617.121 203.781 613.2 222.244 605.36 243.49C597.519 264.735 586.517 287.246 572.353 311.02C558.189 334.795 541.749 358.317 523.033 381.586C514.181 392.462 505.202 402.452 496.097 411.558C486.991 420.916 478.139 428.377 469.54 433.941C461.193 439.506 453.479 442.288 446.397 442.288Z" stroke="white" stroke-width="6" mask="url(#path-1-outside-1_683_465)"/>
<path d="M647.575 337.957C645.299 337.957 643.529 337.451 642.264 336.439C640.999 335.681 639.988 334.416 639.229 332.645C638.723 331.128 638.47 329.357 638.47 327.334C638.47 326.069 638.47 325.058 638.47 324.299C638.723 323.54 638.976 322.781 639.229 322.023L684.376 208.207C685.64 205.425 686.399 202.896 686.652 200.619C687.158 198.343 686.146 197.205 683.617 197.205C679.823 197.205 675.397 198.343 670.338 200.619C665.28 202.896 659.336 206.31 652.507 210.863C651.243 211.874 649.978 212.38 648.713 212.38C647.449 212.127 646.817 211.116 646.817 209.345C647.069 207.069 648.966 204.034 652.507 200.24C656.301 196.446 660.98 192.652 666.545 188.858C672.362 185.064 678.179 181.776 683.996 178.994C690.067 176.212 695.378 174.821 699.931 174.821C703.471 174.821 706.633 176.971 709.415 181.271C712.197 185.57 712.83 189.744 711.312 193.79L691.584 242.352C690.825 244.375 690.825 245.64 691.584 246.146C692.343 246.651 692.975 246.904 693.481 246.904L751.148 244.628C751.653 244.628 752.159 244.375 752.665 243.869C753.171 243.363 753.55 242.605 753.803 241.593L776.187 185.823C777.199 183.547 778.969 181.65 781.498 180.132C784.281 178.615 787.063 177.477 789.845 176.718C792.627 175.706 794.65 175.2 795.915 175.2C797.938 175.2 799.077 175.706 799.33 176.718C799.835 177.73 800.088 179.374 800.088 181.65C800.088 182.662 799.456 184.812 798.191 188.1C796.927 191.135 795.283 194.928 793.259 199.481L753.424 299.639C749.883 309.503 750.009 314.435 753.803 314.435C756.838 314.435 760.506 313.297 764.805 311.02C769.358 308.491 773.784 305.583 778.084 302.295C782.637 299.007 786.557 295.972 789.845 293.189C793.133 290.407 795.283 288.51 796.294 287.499C796.547 287.246 796.674 287.119 796.674 287.119C796.927 287.119 797.053 287.119 797.053 287.119C797.306 287.119 797.433 287.119 797.433 287.119C799.709 287.119 800.847 288.257 800.847 290.534C800.847 291.545 800.468 292.557 799.709 293.569C799.203 294.58 798.697 295.339 798.191 295.845C793.892 300.651 789.592 305.203 785.292 309.503C781.246 313.55 777.072 317.344 772.773 320.885C768.726 324.425 764.553 327.461 760.253 329.99C756.206 332.266 752.159 334.037 748.113 335.301C744.066 336.819 739.892 337.577 735.593 337.577C733.064 337.577 730.661 336.439 728.384 334.163C726.108 332.14 724.464 329.737 723.452 326.955C722.441 324.173 722.314 321.896 723.073 320.126L745.457 263.597C746.216 261.574 746.721 260.309 746.974 259.803C747.48 259.045 747.101 258.665 745.836 258.665L688.17 260.942C687.664 260.942 686.905 261.068 685.893 261.321C685.135 261.574 684.376 262.333 683.617 263.597L656.681 330.749C655.922 332.772 654.657 334.416 652.887 335.681C651.116 337.198 649.346 337.957 647.575 337.957Z" stroke="white" stroke-width="6" mask="url(#path-1-outside-1_683_465)"/>
<path d="M847.606 337.577C844.824 337.577 841.916 336.313 838.88 333.784C836.098 331.507 833.948 328.725 832.431 325.437C830.913 322.149 830.534 319.493 831.293 317.47L871.128 221.485C872.899 217.186 874.037 213.518 874.543 210.483C875.049 207.448 874.29 205.931 872.266 205.931C871.002 205.931 868.852 206.942 865.817 208.966C863.035 210.989 859.747 213.518 855.953 216.553C852.412 219.589 848.744 222.75 844.951 226.038C844.445 226.544 843.433 226.67 841.916 226.418C840.651 226.165 840.019 225.659 840.019 224.9C840.019 223.888 840.272 222.497 840.777 220.727C841.283 218.703 842.548 216.301 844.571 213.518C850.894 204.919 857.85 197.711 865.438 191.893C873.278 186.076 880.613 181.65 887.442 178.615C894.524 175.327 899.835 173.683 903.376 173.683C904.641 173.683 906.032 174.442 907.549 175.959C909.32 177.224 910.711 178.868 911.723 180.891C912.734 182.662 912.734 184.432 911.723 186.203C903.376 203.401 895.409 220.853 887.821 238.558C880.234 256.263 872.646 273.714 865.058 290.913C862.782 295.972 861.391 300.651 860.885 304.95C860.379 309.25 861.391 311.4 863.92 311.4C866.449 311.4 870.243 309.25 875.302 304.95C880.36 300.651 886.051 295.086 892.374 288.257C898.95 281.428 905.779 274.094 912.861 266.253C922.472 255.377 931.703 244.122 940.556 232.488C949.661 220.853 957.502 210.357 964.078 200.999C970.654 191.64 974.953 185.064 976.977 181.271C978.241 178.741 979.759 177.097 981.529 176.339C983.3 175.58 984.944 175.2 986.462 175.2C987.979 175.2 989.497 175.959 991.014 177.477C992.532 178.994 993.67 180.765 994.429 182.788C995.44 184.812 995.567 186.582 994.808 188.1L946.247 299.639C944.223 304.444 943.338 308.112 943.591 310.641C943.844 313.17 945.109 314.435 947.385 314.435C950.673 314.435 954.973 312.665 960.284 309.124C965.595 305.583 971.033 301.536 976.597 296.983C982.162 292.178 986.841 287.878 990.635 284.084C990.888 283.831 991.267 283.705 991.773 283.705C992.532 283.705 993.29 284.084 994.049 284.843C994.808 285.349 995.187 286.108 995.187 287.119C995.187 287.625 995.061 288.131 994.808 288.637C994.555 289.143 994.176 289.775 993.67 290.534C993.417 291.292 992.911 292.178 992.152 293.189C991.646 294.201 990.888 295.339 989.876 296.604C989.117 297.616 988.105 298.88 986.841 300.398C982.035 306.468 976.471 312.412 970.148 318.229C963.825 323.793 956.996 328.472 949.661 332.266C942.579 335.807 934.992 337.577 926.898 337.577C923.61 337.577 920.575 335.428 917.793 331.128C915.263 326.828 914.758 323.034 916.275 319.746C919.816 312.159 923.61 304.065 927.657 295.466C931.703 286.866 935.244 278.899 938.279 271.564C941.567 264.23 943.844 258.792 945.108 255.251C946.373 252.216 946.247 250.572 944.729 250.319C943.212 250.066 941.82 250.698 940.556 252.216C927.404 266.632 915.769 279.279 905.652 290.154C895.535 300.777 886.683 309.629 879.095 316.711C871.761 323.54 865.437 328.725 860.126 332.266C855.068 335.807 850.894 337.577 847.606 337.577Z" stroke="white" stroke-width="6" mask="url(#path-1-outside-1_683_465)"/>
<path d="M1036.59 337.957C1034.32 337.957 1032.55 337.451 1031.28 336.439C1030.02 335.681 1029.01 334.416 1028.25 332.645C1027.74 331.128 1027.49 329.357 1027.49 327.334C1027.49 326.069 1027.49 325.058 1027.49 324.299C1027.74 323.54 1027.99 322.781 1028.25 322.023L1073.39 208.207C1074.66 205.425 1075.42 202.896 1075.67 200.619C1076.18 198.343 1075.16 197.205 1072.64 197.205C1068.84 197.205 1064.42 198.343 1059.36 200.619C1054.3 202.896 1048.35 206.31 1041.53 210.863C1040.26 211.874 1039 212.38 1037.73 212.38C1036.47 212.127 1035.83 211.116 1035.83 209.345C1036.09 207.069 1037.98 204.034 1041.53 200.24C1045.32 196.446 1050 192.652 1055.56 188.858C1061.38 185.064 1067.2 181.776 1073.01 178.994C1079.08 176.212 1084.4 174.821 1088.95 174.821C1092.49 174.821 1095.65 176.971 1098.43 181.271C1101.22 185.57 1101.85 189.744 1100.33 193.79L1080.6 242.352C1079.84 244.375 1079.84 245.64 1080.6 246.146C1081.36 246.651 1081.99 246.904 1082.5 246.904L1140.17 244.628C1140.67 244.628 1141.18 244.375 1141.68 243.869C1142.19 243.363 1142.57 242.605 1142.82 241.593L1165.21 185.823C1166.22 183.547 1167.99 181.65 1170.52 180.132C1173.3 178.615 1176.08 177.477 1178.86 176.718C1181.65 175.706 1183.67 175.2 1184.93 175.2C1186.96 175.2 1188.1 175.706 1188.35 176.718C1188.85 177.73 1189.11 179.374 1189.11 181.65C1189.11 182.662 1188.47 184.812 1187.21 188.1C1185.95 191.135 1184.3 194.928 1182.28 199.481L1142.44 299.639C1138.9 309.503 1139.03 314.435 1142.82 314.435C1145.86 314.435 1149.52 313.297 1153.82 311.02C1158.38 308.491 1162.8 305.583 1167.1 302.295C1171.66 299.007 1175.58 295.972 1178.86 293.189C1182.15 290.407 1184.3 288.51 1185.31 287.499C1185.57 287.246 1185.69 287.119 1185.69 287.119C1185.95 287.119 1186.07 287.119 1186.07 287.119C1186.32 287.119 1186.45 287.119 1186.45 287.119C1188.73 287.119 1189.87 288.257 1189.87 290.534C1189.87 291.545 1189.49 292.557 1188.73 293.569C1188.22 294.58 1187.72 295.339 1187.21 295.845C1182.91 300.651 1178.61 305.203 1174.31 309.503C1170.26 313.55 1166.09 317.344 1161.79 320.885C1157.74 324.425 1153.57 327.461 1149.27 329.99C1145.22 332.266 1141.18 334.037 1137.13 335.301C1133.08 336.819 1128.91 337.577 1124.61 337.577C1122.08 337.577 1119.68 336.439 1117.4 334.163C1115.13 332.14 1113.48 329.737 1112.47 326.955C1111.46 324.173 1111.33 321.896 1112.09 320.126L1134.48 263.597C1135.23 261.574 1135.74 260.309 1135.99 259.803C1136.5 259.045 1136.12 258.665 1134.85 258.665L1077.19 260.942C1076.68 260.942 1075.92 261.068 1074.91 261.321C1074.15 261.574 1073.39 262.333 1072.64 263.597L1045.7 330.749C1044.94 332.772 1043.68 334.416 1041.91 335.681C1040.13 337.198 1038.36 337.957 1036.59 337.957Z" stroke="white" stroke-width="6" mask="url(#path-1-outside-1_683_465)"/>
<path d="M0 338.74L1354 338.742" stroke="#DA5125" stroke-width="3.69021"/>
<path d="M1077.5 2.63086L868 482.742" stroke="#DA5125" stroke-width="3"/>
<path d="M963.5 2.13086L759 483.131" stroke="#DA5125" stroke-width="3"/>
<path d="M115 168.162L1428 168.162" stroke="#DA5125" stroke-width="3.69021"/>
</svg>
