<svg width="1420" height="1100" viewBox="0 0 1420 1100" fill="none" xmlns="http://www.w3.org/2000/svg">
<g clip-path="url(#clip0_679_449)">
<rect x="768.297" y="51" width="548.103" height="775.635" transform="rotate(24.1471 768.297 51)" fill="#6C9B80"/>
<mask id="path-3-inside-1_679_449" fill="white">
<path fill-rule="evenodd" clip-rule="evenodd" d="M770.162 118.896C788.907 125.172 809.275 117.215 817.027 99.9246C817.257 99.4108 817.474 98.8942 817.677 98.3751L1200.21 269.87C1199.96 270.367 1199.72 270.873 1199.49 271.387C1191.62 288.947 1199.59 309.818 1217.31 319.448L950.149 915.388C931.167 908.561 910.281 916.494 902.408 934.055C902.178 934.569 901.961 935.086 901.757 935.606L519.222 764.112C519.474 763.614 519.716 763.108 519.946 762.594C527.698 745.303 520.087 724.803 502.93 714.984L770.162 118.896Z"/>
</mask>
<path d="M770.162 118.896L771.104 116.082L768.554 115.228L767.454 117.682L770.162 118.896ZM817.677 98.3751L818.891 95.6676L816.05 94.3939L814.915 97.2928L817.677 98.3751ZM1200.21 269.87L1202.86 271.212L1204.27 268.436L1201.43 267.162L1200.21 269.87ZM1217.31 319.448L1220.02 320.662L1221.15 318.153L1218.73 316.841L1217.31 319.448ZM950.149 915.388L949.145 918.18L951.732 919.11L952.857 916.602L950.149 915.388ZM901.757 935.606L900.543 938.313L903.384 939.587L904.52 936.688L901.757 935.606ZM519.222 764.112L516.576 762.769L515.167 765.545L518.008 766.819L519.222 764.112ZM502.93 714.984L500.222 713.77L499.122 716.224L501.456 717.56L502.93 714.984ZM814.319 98.7108C807.261 114.455 788.568 121.93 771.104 116.082L769.22 121.709C789.246 128.415 811.29 119.975 819.734 101.138L814.319 98.7108ZM814.915 97.2928C814.729 97.7676 814.53 98.2404 814.319 98.7108L819.734 101.138C819.984 100.581 820.219 100.021 820.44 99.4574L814.915 97.2928ZM1201.43 267.162L818.891 95.6676L816.464 101.083L1199 272.577L1201.43 267.162ZM1202.2 272.601C1202.41 272.13 1202.63 271.667 1202.86 271.212L1197.57 268.527C1197.29 269.067 1197.03 269.616 1196.78 270.173L1202.2 272.601ZM1218.73 316.841C1202.21 307.867 1195.03 288.59 1202.2 272.601L1196.78 270.173C1188.2 289.305 1196.97 311.77 1215.9 322.055L1218.73 316.841ZM952.857 916.602L1220.02 320.662L1214.61 318.234L947.442 914.174L952.857 916.602ZM905.116 935.268C912.284 919.28 931.456 911.818 949.145 918.18L951.154 912.596C930.878 905.304 908.278 913.709 899.701 932.841L905.116 935.268ZM904.52 936.688C904.706 936.213 904.905 935.739 905.116 935.268L899.701 932.841C899.451 933.399 899.215 933.96 898.994 934.524L904.52 936.688ZM518.008 766.819L900.543 938.313L902.971 932.898L520.435 761.404L518.008 766.819ZM517.239 761.38C517.028 761.851 516.806 762.314 516.576 762.769L521.868 765.454C522.142 764.914 522.404 764.365 522.654 763.808L517.239 761.38ZM501.456 717.56C517.441 726.707 524.297 745.636 517.239 761.38L522.654 763.808C531.099 744.971 522.734 722.899 504.403 712.409L501.456 717.56ZM767.454 117.682L500.222 713.77L505.637 716.198L772.869 120.109L767.454 117.682Z" fill="white" mask="url(#path-3-inside-1_679_449)"/>
</g>
<rect x="768.992" y="52.8261" width="545.34" height="772.871" transform="rotate(24.1471 768.992 52.8261)" stroke="white" stroke-width="2.76354"/>
<g clip-path="url(#clip1_679_449)">
<rect y="222.355" width="522.455" height="739.34" transform="rotate(-16.2754 0 222.355)" fill="#DA5125"/>
<line x1="95.1934" y1="413.688" x2="525.948" y2="287.927" stroke="#EEE5DE" stroke-width="1.75615"/>
<line x1="101.498" y1="435.282" x2="532.253" y2="309.521" stroke="#EEE5DE" stroke-width="1.75615"/>
<line x1="107.803" y1="456.876" x2="538.557" y2="331.115" stroke="#EEE5DE" stroke-width="1.75615"/>
<line x1="114.105" y1="478.468" x2="544.86" y2="352.707" stroke="#EEE5DE" stroke-width="1.75615"/>
<line x1="120.41" y1="500.061" x2="551.165" y2="374.3" stroke="#EEE5DE" stroke-width="1.75615"/>
<line x1="126.715" y1="521.655" x2="557.47" y2="395.894" stroke="#EEE5DE" stroke-width="1.75615"/>
<line x1="133.02" y1="543.247" x2="563.774" y2="417.486" stroke="#EEE5DE" stroke-width="1.75615"/>
<line x1="139.322" y1="564.841" x2="570.077" y2="439.08" stroke="#EEE5DE" stroke-width="1.75615"/>
<line x1="145.627" y1="586.434" x2="576.382" y2="460.673" stroke="#EEE5DE" stroke-width="1.75615"/>
<line x1="151.932" y1="608.028" x2="582.686" y2="482.267" stroke="#EEE5DE" stroke-width="1.75615"/>
<line x1="158.234" y1="629.62" x2="588.989" y2="503.859" stroke="#EEE5DE" stroke-width="1.75615"/>
<line x1="164.539" y1="651.212" x2="595.294" y2="525.451" stroke="#EEE5DE" stroke-width="1.75615"/>
<line x1="170.844" y1="672.808" x2="601.599" y2="547.046" stroke="#EEE5DE" stroke-width="1.75615"/>
<line x1="177.148" y1="694.397" x2="607.903" y2="568.636" stroke="#EEE5DE" stroke-width="1.75615"/>
<line x1="183.387" y1="716.306" x2="614.141" y2="590.544" stroke="#EEE5DE" stroke-width="1.75615"/>
<line x1="189.691" y1="737.899" x2="620.446" y2="612.138" stroke="#EEE5DE" stroke-width="1.75615"/>
<line x1="195.996" y1="759.491" x2="626.751" y2="633.73" stroke="#EEE5DE" stroke-width="1.75615"/>
<line x1="202.301" y1="781.085" x2="633.056" y2="655.324" stroke="#EEE5DE" stroke-width="1.75615"/>
<line x1="208.604" y1="802.679" x2="639.358" y2="676.917" stroke="#EEE5DE" stroke-width="1.75615"/>
<line x1="214.908" y1="824.27" x2="645.663" y2="698.509" stroke="#EEE5DE" stroke-width="1.75615"/>
<line x1="221.213" y1="845.864" x2="651.968" y2="720.103" stroke="#EEE5DE" stroke-width="1.75615"/>
<line x1="227.518" y1="867.456" x2="658.272" y2="741.695" stroke="#EEE5DE" stroke-width="1.75615"/>
<path d="M319.042 393.705L538.5 330.001L639.304 678.222L416.104 743.011L319.042 393.705Z" fill="#EEE5DE"/>
</g>
<rect x="1.63346" y="223.251" width="519.821" height="736.705" transform="rotate(-16.2754 1.63346 223.251)" stroke="white" stroke-width="2.63423"/>
<circle cx="461.963" cy="170.794" r="136.363" transform="rotate(-16.2755 461.963 170.794)" fill="#DA5125" stroke="white" stroke-width="2.70906"/>
<circle cx="1227.51" cy="345.573" r="148.367" transform="rotate(71.126 1227.51 345.573)" fill="#6C9B80" stroke="white" stroke-width="4.94531"/>
<rect x="375.865" y="554.188" width="625.02" height="384.127" rx="9.39217" transform="rotate(16.2068 375.865 554.188)" fill="#EEE5DE" stroke="#FAAA2D" stroke-width="2.64839"/>
<rect x="392.085" y="614.059" width="237.338" height="276.082" transform="rotate(16.1427 392.085 614.059)" stroke="#FAAA2D" stroke-width="2.54326"/>
<circle cx="614.105" cy="672.353" r="127.17" transform="rotate(16.1427 614.105 672.353)" fill="#EEE5DE" stroke="#FAAA2D" stroke-width="4.23877"/>
<defs>
<clipPath id="clip0_679_449">
<rect x="768.297" y="51" width="548.103" height="775.635" transform="rotate(24.1471 768.297 51)" fill="white"/>
</clipPath>
<clipPath id="clip1_679_449">
<rect y="222.355" width="522.455" height="739.34" transform="rotate(-16.2754 0 222.355)" fill="white"/>
</clipPath>
</defs>
</svg>
