<svg width="692" height="433" viewBox="0 0 692 433" fill="none" xmlns="http://www.w3.org/2000/svg">
<path d="M17.7036 432.233C12.6929 432.233 8.51725 431.396 5.17676 429.721C1.83626 428.465 0.166016 426.372 0.166016 423.441C0.166016 420.091 1.83626 417.37 5.17676 415.277C8.51725 413.183 13.1104 411.09 18.9563 408.997C30.2305 405.647 40.4607 400.623 49.6471 393.924C58.8334 387.225 66.3495 376.968 72.1954 363.151C83.4696 337.612 93.9086 313.328 103.513 290.301C113.116 266.855 122.303 243.828 131.072 221.219C139.84 198.611 148.818 175.374 158.004 151.509C167.191 127.226 176.586 101.477 186.19 74.263C189.948 64.6334 192.662 56.6785 194.332 50.3983C196.002 43.6994 197.046 37.8379 197.464 32.8138C202.892 31.5578 207.903 30.3017 212.496 29.0457C217.089 27.371 222.1 25.0682 227.528 22.1375C232.539 19.6254 236.297 16.0666 238.803 11.4612C241.725 6.43702 244.022 2.87825 245.692 0.78486C246.527 0.366187 247.363 0.15685 248.198 0.15685C249.45 -0.261823 250.494 0.366199 251.329 2.04092C252.582 4.13431 253.417 6.43704 253.835 8.9491C254.67 11.4612 255.505 14.1826 256.34 17.1133C265.944 47.6769 275.757 78.8684 285.778 110.688C296.217 142.089 306.448 172.862 316.469 203.007C326.49 233.152 335.886 261.203 344.654 287.161C353.423 312.7 360.939 335.1 367.203 354.359C371.796 368.175 377.224 378.852 383.488 386.388C389.751 393.505 396.432 398.948 403.531 402.716C410.629 406.066 418.354 408.578 426.705 410.253C432.969 411.509 437.562 413.393 440.485 415.905C443.825 418.417 445.496 421.348 445.496 424.697C445.496 427.209 443.825 428.884 440.485 429.721C437.562 430.977 433.804 431.605 429.211 431.605C422.53 431.605 413.761 431.187 402.904 430.349C392.048 429.93 380.773 429.512 369.082 429.093C357.39 428.674 346.742 428.465 337.138 428.465C329.205 428.465 320.436 428.465 310.832 428.465C301.228 428.465 292.042 428.674 283.273 429.093C274.922 429.512 267.614 429.721 261.351 429.721C256.34 429.721 252.165 429.093 248.824 427.837C245.901 426.162 244.44 424.069 244.44 421.557C244.44 418.207 246.319 415.486 250.077 413.393C253.835 411.299 258.219 409.834 263.23 408.997C277.427 406.484 287.657 402.716 293.921 397.692C300.602 392.668 303.316 385.969 302.063 377.596C301.646 370.478 300.184 361.686 297.679 351.219C295.173 340.333 292.25 329.029 288.91 317.306C285.569 305.164 282.438 294.069 279.515 284.021C278.68 280.672 277.218 278.578 275.13 277.741C273.043 276.903 269.493 276.485 264.483 276.485H148.609C146.521 276.485 144.642 277.322 142.972 278.997C141.302 280.253 139.632 282.974 137.961 287.161C136.709 292.185 134.621 298.675 131.698 306.63C129.193 314.166 126.687 322.33 124.182 331.122C121.676 339.496 119.38 347.451 117.292 354.987C115.622 362.105 114.578 367.338 114.16 370.687C112.908 381.154 115.413 389.528 121.676 395.808C128.357 401.67 138.17 406.275 151.115 409.625C163.641 412.974 169.905 417.161 169.905 422.185C169.905 425.116 168.235 427.209 164.894 428.465C161.971 429.302 158.004 429.721 152.994 429.721C145.06 429.721 135.874 429.512 125.435 429.093C114.995 428.674 103.93 428.465 92.2384 428.465C78.8764 428.465 65.932 429.093 53.4051 430.349C40.8783 431.605 28.9778 432.233 17.7036 432.233ZM166.147 250.736H257.593C263.439 250.736 266.362 249.689 266.362 247.596C266.362 246.34 266.153 245.293 265.735 244.456C265.735 243.618 265.526 242.362 265.109 240.688L218.76 91.8475C216.672 85.1486 215.002 81.7992 213.749 81.7992C212.914 81.7992 211.452 84.9393 209.364 91.2194L154.873 240.688C154.038 243.2 153.62 244.875 153.62 245.712C153.62 247.805 154.664 249.271 156.752 250.108C159.257 250.527 162.389 250.736 166.147 250.736Z" fill="#DA5125"/>
<path d="M507.358 432.235C498.54 432.235 489.933 429.314 481.536 423.472C473.138 418.048 466.21 411.163 460.752 402.817C455.294 394.055 452.564 385.501 452.564 377.155C452.564 363.386 456.343 352.328 463.901 343.983C471.879 335.637 484.055 328.127 500.43 321.45L561.521 295.788C569.919 292.45 574.957 289.529 576.636 287.026C578.316 284.105 579.366 278.472 579.786 270.126L581.045 231.946C581.465 220.68 578.736 211.292 572.858 203.781C566.979 196.27 558.372 192.515 547.036 192.515C541.157 192.515 535.069 193.766 528.771 196.27C522.893 198.356 518.064 200.86 514.286 203.781C512.186 205.45 510.717 207.745 509.877 210.666C509.457 213.587 509.247 216.716 509.247 220.054C509.247 222.141 509.247 224.644 509.247 227.565C509.667 230.069 509.877 232.155 509.877 233.824C509.877 236.328 506.938 239.457 501.06 243.213C495.601 246.551 489.093 249.68 481.536 252.601C474.398 255.522 468.31 256.982 463.271 256.982C460.752 256.982 458.653 256.357 456.973 255.105C455.713 253.436 455.084 251.349 455.084 248.846C455.084 242.169 457.183 235.285 461.382 228.191C466 220.68 472.718 213.169 481.536 205.659C491.613 196.896 502.529 189.177 514.286 182.5C526.462 175.407 538.218 169.982 549.555 166.227C561.311 162.471 571.598 160.594 580.415 160.594C598.05 160.594 612.326 166.644 623.242 178.745C634.579 190.428 639.827 205.659 638.987 224.436L635.838 365.889C635.418 375.069 637.308 382.58 641.507 388.422C645.705 394.263 650.954 397.184 657.252 397.184C666.909 397.184 674.467 394.681 679.925 389.673C681.604 388.004 683.074 387.17 684.333 387.17C686.433 387.17 688.112 387.796 689.372 389.048C691.051 390.299 691.891 391.968 691.891 394.055C691.891 399.062 688.952 404.278 683.074 409.702C675.936 416.796 668.168 422.22 659.771 425.976C651.793 430.148 644.026 432.235 636.468 432.235C615.475 432.235 598.68 420.968 586.084 398.436H584.194C570.338 410.12 557.322 418.674 545.146 424.098C532.97 429.522 520.374 432.235 507.358 432.235ZM540.108 398.436C547.245 398.436 553.124 397.393 557.742 395.307C562.781 392.803 567.189 389.465 570.968 385.292C573.068 383.206 574.537 380.702 575.377 377.781C576.636 374.443 577.476 369.436 577.896 362.76L579.156 327.083C579.576 322.911 579.366 319.99 578.526 318.321C577.686 316.234 576.007 315.191 573.487 315.191C572.648 315.191 571.388 315.4 569.709 315.817C568.029 316.234 565.72 317.069 562.781 318.321C543.886 325.414 530.661 332.925 523.103 340.853C515.545 348.364 511.766 356.709 511.766 365.889C511.766 377.155 514.705 385.501 520.584 390.925C526.882 395.932 533.39 398.436 540.108 398.436Z" fill="#DA5125"/>
</svg>
