<svg width="327" height="334" viewBox="0 0 327 334" fill="none" xmlns="http://www.w3.org/2000/svg">
<circle cx="162.105" cy="172.351" r="126.789" transform="rotate(16.1427 162.105 172.351)" fill="#EEE5DE" stroke="#FAAA2D" stroke-width="5"/>
<path d="M141.293 224.312C139.316 223.74 138.066 222.507 137.542 220.615C136.983 218.846 136.698 216.822 136.688 214.543C136.802 212.299 136.659 210.249 136.259 208.393C136.051 207.261 135.963 204.558 135.995 200.282C136.187 195.918 136.364 190.68 136.527 184.568C136.813 178.49 137.126 172.087 137.467 165.356C137.809 158.626 138.06 152.204 138.223 146.091C138.509 140.014 138.65 134.9 138.647 130.747C138.679 126.472 138.573 123.83 138.329 122.822C138.033 121.531 137.63 120.611 137.12 120.062C136.769 119.424 136.346 119.034 135.852 118.891C135.234 118.712 134.597 119.063 133.94 119.945C133.319 120.702 132.777 121.416 132.316 122.086C129.881 126.335 127.258 131 124.449 136.079C121.676 141.034 118.849 146.175 115.968 151.501C113.211 156.862 110.428 162.083 107.619 167.162C104.81 172.24 102.09 177.01 99.4597 181.472C95.5321 188.101 91.7248 193.159 88.0377 196.645C84.3864 200.007 81.013 202.177 77.9177 203.156C74.8223 204.135 72.0211 204.329 69.5142 203.737C66.266 202.931 63.9395 201.253 62.5348 198.704C61.2537 196.19 61.4048 193.355 62.9881 190.198C63.6286 188.91 64.6024 188.322 65.9095 188.432C67.2166 188.543 68.7091 188.707 70.3868 188.925C72.2239 189.055 74.2561 188.973 76.4833 188.681C78.7106 188.388 81.1882 187.23 83.9161 185.208C86.6798 183.062 89.6076 179.423 92.6997 174.292C94.9561 170.661 99.5583 163.088 106.506 151.574C113.49 139.937 121.632 125.689 130.93 108.829C132.263 106.537 132.748 104.401 132.383 102.421C132.055 100.317 130.816 98.3516 128.667 96.5243C126.677 94.6093 123.627 92.6552 119.517 90.6622C119.059 90.3956 118.213 89.6152 116.981 88.3212C115.748 87.0271 115.417 85.8599 115.986 84.8194C116.555 83.7789 117.431 83.296 118.615 83.3708C119.957 83.3577 120.938 83.4406 121.556 83.6194C126.374 85.0142 130.187 86.1846 132.993 87.1307C135.799 88.0768 138.463 89.0489 140.987 90.047C143.669 90.9574 147.234 92.0563 151.682 93.3437C152.794 93.6656 153.446 94.1891 153.638 94.9141C153.954 95.675 154.233 96.5594 154.477 97.5673C154.757 98.4517 154.765 101.199 154.502 105.81C154.398 110.333 154.113 115.941 153.649 122.636C153.343 129.243 152.913 136.283 152.357 143.755C151.96 151.139 151.53 158.178 151.065 164.873C150.636 171.444 150.29 177.035 150.027 181.646C149.763 186.256 149.612 189.092 149.573 190.152C149.677 190.717 149.895 191.584 150.227 192.751C150.559 193.918 151.095 194.609 151.836 194.824C152.825 195.11 154.065 194.063 155.558 191.683C156.553 190.096 158.152 187.345 160.357 183.43C162.561 179.516 165.13 175.037 168.062 169.994C170.995 164.95 173.902 159.766 176.782 154.44C179.822 149.026 182.534 144.053 184.917 139.52C189.843 130.367 194.46 123.669 198.768 119.426C203.235 115.095 207.405 112.485 211.277 111.597C215.15 110.71 218.692 110.731 221.905 111.661C224.747 112.483 226.368 113.823 226.768 115.679C227.327 117.448 227.286 118.976 226.646 120.264C225.934 121.799 223.97 122.569 220.754 122.576C217.698 122.495 214.481 122.969 211.102 124C207.848 125.067 204.456 127.299 200.929 130.697C197.56 134.007 193.92 139.18 190.009 146.216C189.635 147.046 188.338 149.214 186.117 152.723C183.896 156.231 181.125 160.718 177.802 166.184C174.603 171.686 171.101 177.769 167.297 184.435C163.529 190.977 159.892 197.758 156.387 204.778C155.782 205.942 155.026 207.397 154.119 209.143C153.336 210.925 152.508 212.627 151.637 214.25C150.925 215.785 150.32 216.949 149.823 217.742C149.218 218.906 148.657 220.15 148.14 221.473C147.659 222.673 146.923 223.598 145.931 224.248C144.939 224.899 143.393 224.92 141.293 224.312ZM190.528 203.412C190.033 203.268 189.734 202.914 189.63 202.348C189.526 201.783 189.546 201.253 189.689 200.758C189.939 199.893 190.763 199.128 192.161 198.461C193.683 197.83 194.938 197.658 195.927 197.944L231.882 208.351C232.499 208.53 232.878 208.84 233.018 209.282C233.158 209.725 233.103 210.378 232.852 211.243C232.602 212.108 231.531 212.802 229.638 213.326C227.905 213.762 226.421 213.801 225.185 213.443L190.528 203.412ZM219.62 190.34C214.554 188.873 211.011 186.308 208.992 182.644C207.009 178.856 206.911 173.873 208.699 167.695C209.987 163.247 212.448 159.139 216.083 155.37C219.754 151.478 224.322 148.649 229.788 146.884C235.377 145.154 241.446 145.236 247.994 147.132C253.06 148.598 256.541 151.145 258.436 154.774C260.492 158.315 260.84 162.433 259.481 167.128C257.943 172.441 255.285 177.229 251.507 181.492C247.852 185.79 243.292 188.822 237.826 190.588C232.361 192.354 226.292 192.271 219.62 190.34ZM222.917 187.277C225.511 188.028 228.233 187.878 231.081 186.828C233.965 185.654 236.665 183.958 239.182 181.741C241.734 179.4 243.934 176.889 245.781 174.21C247.787 171.443 249.13 168.886 249.809 166.538C250.56 163.943 250.913 161.568 250.867 159.412C250.945 157.293 250.527 155.498 249.614 154.028C248.736 152.435 247.308 151.352 245.331 150.78C242.737 150.029 239.953 150.161 236.982 151.175C234.133 152.226 231.309 153.886 228.51 156.155C225.746 158.301 223.361 160.758 221.355 163.525C219.349 166.292 217.971 168.973 217.22 171.567C216.576 173.791 216.339 175.999 216.508 178.191C216.677 180.382 217.262 182.292 218.264 183.921C219.389 185.586 220.94 186.705 222.917 187.277Z" fill="#FAAA2D"/>
</svg>
