<svg width="342" height="342" viewBox="0 0 342 342" fill="none" xmlns="http://www.w3.org/2000/svg">
<circle cx="170.963" cy="170.794" r="135.243" transform="rotate(-16.2755 170.963 170.794)" fill="#DA5125" stroke="white" stroke-width="4.95"/>
<path d="M168.535 205.856C167.739 205.97 166.612 205.482 165.154 204.391C163.673 203.141 162.466 201.527 161.53 199.548C160.208 197.137 158.772 194.498 157.221 191.632C155.807 188.584 154.733 184.511 154 179.414C153.335 174.795 154.98 170.412 158.936 166.266C162.892 162.12 168.645 157.471 176.195 152.32C179.743 149.859 182.824 146.977 185.438 143.674C188.029 140.212 189.049 136.57 188.499 132.747C187.513 125.897 184.811 120.677 180.392 117.086C175.951 113.335 170.225 111.964 163.217 112.973C161.306 113.248 159.736 113.636 158.507 114.138C157.415 114.458 156.494 114.834 155.743 115.268C154.81 115.564 153.798 115.873 152.706 116.193C151.773 116.489 150.67 116.729 149.395 116.913C147.484 117.188 145.537 116.655 143.556 115.314C141.552 113.814 139.741 111.961 138.122 109.755C136.641 107.367 135.739 105.058 135.419 102.828C135.052 100.28 136.005 97.8663 138.279 95.5882C140.689 93.1278 143.327 91.6913 146.194 91.2787C150.973 90.5911 156.083 91.0751 161.523 92.7309C166.964 94.3867 172.156 97.1352 177.099 100.976C182.018 104.658 186.381 108.989 190.187 113.969C194.129 118.767 197.275 123.68 199.624 128.707C202.132 133.711 203.696 138.364 204.315 142.665C205.186 148.717 204.747 153.577 202.998 157.243C201.25 160.909 199.193 163.562 196.828 165.203C193.871 167.254 191.449 169.066 189.562 170.638C187.675 172.211 185.776 173.703 183.866 175.116C182.115 176.506 180.091 178.261 177.794 180.38C174.565 182.795 172.691 185.585 172.17 188.749C171.809 191.89 171.768 195.554 172.045 199.742C172.228 201.016 172.014 202.347 171.401 203.736C170.924 204.943 169.969 205.65 168.535 205.856ZM177.287 251.421C173.145 252.017 169.344 251.019 165.882 248.428C162.42 245.837 160.391 242.471 159.795 238.33C159.176 234.029 160.162 230.148 162.753 226.686C165.344 223.224 168.71 221.195 172.852 220.599C177.152 219.98 181.034 220.966 184.496 223.557C187.957 226.148 189.998 229.594 190.617 233.894C191.213 238.036 190.215 241.837 187.624 245.299C185.033 248.761 181.588 250.802 177.287 251.421Z" fill="white"/>
</svg>
