<svg width="367" height="384" viewBox="0 0 367 384" fill="none" xmlns="http://www.w3.org/2000/svg">
<circle cx="192.515" cy="191.573" r="148.367" transform="rotate(71.126 192.515 191.573)" fill="#6C9B80" stroke="white" stroke-width="4.94531"/>
<path d="M184.312 213.423C182.888 212.725 182.05 211.431 181.799 209.541C181.784 207.57 182.55 204.608 184.096 200.655C186.872 192.593 189.687 184.452 192.541 176.232C195.472 167.854 198.445 159.791 201.46 152.043C204.475 144.294 207.258 137.218 209.811 130.813C212.521 124.486 214.885 119.266 216.903 115.151C218.763 110.959 221.735 107.901 225.819 105.978C230.062 104.133 234.161 104.18 238.118 106.12C241.916 107.983 244.225 111.079 245.047 115.408C245.946 119.579 245.348 123.801 243.252 128.074C241.234 132.189 238.395 137.176 234.735 143.038C231.233 148.977 227.184 155.432 222.586 162.404C218.147 169.454 213.512 176.702 208.682 184.149C203.852 191.596 199.138 198.805 194.541 205.777C192.827 208.471 190.991 210.613 189.033 212.205C187.31 213.716 185.736 214.122 184.312 213.423ZM160.217 263.151C155.944 261.056 153.042 257.767 151.51 253.286C149.978 248.804 150.221 244.506 152.239 240.392C154.334 236.119 157.623 233.217 162.104 231.685C166.586 230.152 170.963 230.434 175.236 232.53C179.508 234.625 182.332 237.875 183.706 242.279C185.238 246.76 184.956 251.138 182.86 255.41C180.842 259.525 177.593 262.348 173.111 263.88C168.788 265.49 164.49 265.247 160.217 263.151Z" fill="white"/>
</svg>
